<svg width="801" height="213" viewBox="0 0 801 213" fill="none" xmlns="http://www.w3.org/2000/svg">
<path d="M133.375 8.42778C139.317 5.95565 151.156 3.96009 161.886 5.19615C175.113 6.71979 188.462 12.8806 190.695 16.5888C193.398 21.0754 190.472 26.7751 188.246 30.4907C179.578 44.9563 144.425 64.8994 136.607 76.9026C135.509 78.5881 136.353 80.8639 137.828 82.1223C141.446 85.2103 152.661 84.3785 165.058 84.1328C172.576 83.9838 191.783 82.8893 219.311 83.3807C243.935 83.8203 256.445 92.8076 266.624 98.9953C274.763 103.943 279.796 112.138 282.045 118.854C283.225 122.379 280.824 126.554 277.853 130.023C272.033 136.821 260.496 138.974 238.947 147.142C232.295 149.664 214.449 150.888 189.638 152.622C169.166 154.054 147.344 155.355 136.391 158.334C126.75 160.955 116.547 162.295 108.088 163.553C99.9195 164.769 83.3666 171.707 67.6404 178.178C65.1308 179.21 64.3938 181.149 63.6418 182.891C62.8897 184.634 62.3983 186.599 63.3737 187.858C65.7342 190.903 86.0473 190.114 112.101 189.868C133.812 189.663 155.684 187.642 164.12 188.371C159.66 187.627 162.117 188.118 164.12 188.371C166.123 188.625 167.598 188.625 169.117 187.135" stroke="#5E607D" stroke-width="8" stroke-linecap="round"/>
<path d="M109.548 115.652C100.687 118.631 78.8398 117.648 65.1686 117.387C53.4144 117.163 44.5577 119.614 36.6052 120.366C32.5937 120.745 25.2126 123.575 16.5304 127.291C8.7363 130.626 8.78638 141.416 4.31869 153.337C4.28891 155.847 6.25469 157.321 11.6904 158.081C17.1261 158.84 25.9721 158.84 35.0862 158.84" stroke="#5E607D" stroke-width="8" stroke-linecap="round"/>
<path d="M259.959 14.3847C260.942 13.8932 261.925 13.4018 294.129 15.3601C326.334 17.3185 389.731 21.7415 428.287 25.9858C466.843 30.2301 478.638 34.1617 484.714 36.9242C490.79 39.6867 490.79 41.161 490.298 42.6577C487.564 50.9844 471.489 55.0705 459.315 60.037C452.977 62.6225 433.856 65.9716 409.299 72.6657C390.077 77.9055 371.77 87.2974 359.767 96.0168C351.349 102.132 346.841 109.174 345.351 113.634C344.697 115.594 344.845 117.112 346.074 118.608C351.725 125.493 363.148 124.081 404.772 124.588C440.008 125.016 503.895 122.145 540.247 121.378C576.599 120.611 583.479 121.103 594.15 120.865C604.82 120.626 619.072 119.643 627.397 118.891C635.722 118.139 637.687 117.648 639.713 117.142" stroke="#5E607D" stroke-width="8" stroke-linecap="round"/>
<path d="M563.763 6.9386C569.69 6.9386 582.557 7.92149 592.274 8.18211C597.028 8.30962 615.23 6.9386 643.481 7.92149C665.041 8.6716 675.44 13.8784 678.411 16.1048C679.968 17.2717 681.382 18.8227 682.142 20.8108C682.901 22.7989 682.901 25.2561 682.164 27.5049C679.513 35.5904 670.034 37.1998 662.082 39.9399C650.16 44.0477 634.293 50.0965 628.068 56.0609C629.319 54.5642 630.793 53.0898 628.068 56.0609C626.817 57.5575 625.834 59.0319 623.332 60.5509" stroke="#5E607D" stroke-width="8" stroke-linecap="round"/>
<path d="M331.443 164.797C326.514 164.797 302.82 167.746 283.11 173.948C269.315 178.29 262.447 188.103 262.439 192.809C262.432 197.457 267.391 200.032 270.854 201.521C274.964 203.289 294.048 203.994 326.238 206.972C357.329 209.849 375.599 207.493 391.116 205.52C404.156 203.862 427.766 201.581 445.57 200.069C463.374 198.558 474.677 198.066 483.449 197.322C492.22 196.577 498.118 195.594 527.694 195.088C557.27 194.582 610.346 194.582 649.729 196.056C689.111 197.53 713.192 200.479 735.181 201.998C757.169 203.517 776.336 203.517 796.083 203.517" stroke="#5E607D" stroke-width="8" stroke-linecap="round"/>
<path d="M694.814 93.3138C703.72 97.7666 715.604 101.743 727.287 104.721C729.994 105.412 732.492 105.228 734.495 106.702C736.498 108.176 737.972 111.125 737.995 113.627C738.078 122.999 725.135 126.553 718.195 129.778C721.204 128.519 725.135 126.553 718.195 129.778C715.187 131.036 713.221 131.527 711.196 132.034" stroke="#5E607D" stroke-width="8" stroke-linecap="round"/>
<path d="M105.079 42.6801C103.113 42.6801 100.626 42.6801 97.6553 42.9258C89.1457 43.6296 81.2812 56.0533 79.0176 62.0177C79.2559 63.5144 80.2387 64.9887 81.4823 66.2397C82.7258 67.4906 84.2001 68.4735 85.7191 69.4862" stroke="#5E607D" stroke-width="8" stroke-linecap="round"/>
<path d="M262.938 48.637C263.92 49.6199 266.393 50.6176 276.005 51.3623C283.653 51.6154 296.922 51.6154 304.986 51.8611C313.05 52.1069 315.507 52.5983 321.017 53.1047" stroke="#5E607D" stroke-width="8" stroke-linecap="round"/>
</svg>
