<svg width="797" height="266" viewBox="0 0 797 266" fill="none" xmlns="http://www.w3.org/2000/svg">
<path d="M156.864 9.64318C163.283 8.15395 173.707 8.6454 204.229 8.40712C231.32 8.19563 281.93 5.71161 309.235 4.94466C343.994 3.96835 352.907 9.13684 358.394 14.58C364.894 21.0268 348.528 32.4284 341.06 41.133C331.686 52.058 329.615 64.2235 330.352 68.6837C332.178 79.7296 354.396 78.1478 401.187 79.1381C440.048 79.9606 514.756 78.6541 554.958 78.6467C595.16 78.6392 598.6 79.1307 602.092 79.8753C605.584 80.6199 609.024 81.6028 612.569 82.6155" stroke="#5E607D" stroke-width="8" stroke-linecap="round"/>
<path d="M582.784 31.9817C585.748 32.4731 600.536 33.4709 628.31 31.9817C658.908 30.341 680.061 36.9408 686.234 39.1597C706.835 46.5653 714.79 56.7624 721.015 64.9607C724.161 69.1041 724.261 74.6481 724.015 79.5998C723.349 93.0179 701.521 107.381 678.281 118.767C647.401 133.895 624.512 139.191 618.325 142.654C605.731 149.701 600.685 158.03 597.93 164.501C597.335 165.897 597.676 167.472 598.905 168.969C605.252 176.7 623.381 174.948 652.406 172.476C670.887 170.902 689.919 170.986 714.871 170.48C754.143 169.683 780.331 175.439 785.282 176.184C780.331 175.439 782.788 175.931 785.282 176.184C787.777 176.437 790.234 176.437 792.766 176.437" stroke="#5E607D" stroke-width="8" stroke-linecap="round"/>
<path d="M481.517 128.782C476.602 130.747 468.665 132.743 443.028 134.478C422.829 135.845 387.904 135.721 343.145 135.483C298.386 135.245 244.818 134.262 215.994 133.51C184.699 132.693 178.25 130.286 171.556 127.315C168.684 126.04 167.319 124.344 167.297 122.847C167.181 115.105 182.122 108.975 194.542 99.0342C206.41 89.5355 215.391 89.0787 226.076 85.6088C228.333 84.611 229.807 83.6281 231.304 83.1218C232.8 82.6155 234.275 82.6155 238.772 81.1262" stroke="#5E607D" stroke-width="8" stroke-linecap="round"/>
<path d="M80.9132 145.163C78.9475 147.129 73.0203 152.565 65.3284 160.495C62.2137 163.706 62.0596 166.459 63.2808 168.954C64.5019 171.448 67.4506 173.905 79.5357 175.663C91.6208 177.42 112.753 178.403 150.423 178.418C188.093 178.432 241.661 177.45 275.154 177.68C320.472 177.993 336.033 180.905 344.686 181.642C356.934 182.685 366.324 186.847 370.539 190.063C372.506 191.565 373.279 193.772 373.294 195.521C373.322 198.888 354.113 210.094 324.611 228.672C303.409 242.023 296.867 254.353 296.107 257.823C295.16 262.149 324.924 261.323 360.151 261.077C373.264 260.832 376.704 260.34 381.179 259.35C385.654 258.359 391.06 256.885 396.63 255.366" stroke="#5E607D" stroke-width="8" stroke-linecap="round"/>
<path d="M490.452 219.625C501.8 221.114 538.376 217.182 558.16 214.666C562.367 214.174 568.756 213.191 603.745 211.948C638.735 210.704 702.131 209.23 767.449 207.711" stroke="#5E607D" stroke-width="8" stroke-linecap="round"/>
<path d="M633.418 14.1108C635.875 14.6023 638.332 15.0937 655.325 14.8554C672.317 14.6172 703.769 13.6343 736.175 12.6216" stroke="#5E607D" stroke-width="8" stroke-linecap="round"/>
<path d="M545.553 173.458C544.57 173.95 543.587 174.441 526.126 175.677C508.665 176.914 474.755 178.879 453.846 181.366C432.938 183.853 426.057 186.802 422.513 190.041C412.885 198.84 420.458 211.642 422.185 219.595C423.914 227.554 426.4 226.564 429.862 229.282C426.4 226.564 427.874 227.547 429.862 229.282C431.851 231.017 434.308 233.474 436.839 237.495" stroke="#5E607D" stroke-width="8" stroke-linecap="round"/>
<path d="M4.96289 225.582C19.7658 227.056 46.572 230.049 74.5844 233.757C58.5007 231.524 65.8724 232.998 74.5844 233.757C83.2964 234.517 93.1253 234.517 103.252 234.517" stroke="#5E607D" stroke-width="8" stroke-linecap="round"/>
</svg>
