<svg width="143" height="207" viewBox="0 0 143 207" fill="none" xmlns="http://www.w3.org/2000/svg">
<g filter="url(#filter0_d_304_1417)">
<path d="M19.7514 22.6326C20.0034 20.3116 20.6286 11.898 19.5863 11.9238C18.9893 8.36235 18.2626 5.22956 23.005 5.73284C28.3645 6.3016 33.7838 6.67357 39.1172 7.4427C42.6788 7.95631 46.0272 8.176 49.6509 8.56055C52.9946 8.91539 56.2001 8.06396 59.5646 8.42101L79.0737 10.4914C87.2878 11.3631 95.2419 9.62208 103.451 9.53661C109.066 9.47815 114.244 10.6489 119.722 11.2303C121.472 11.4159 125.127 11.8593 126.582 10.7666C128.065 9.65288 129.765 10.5363 130.409 12.0996C132.62 17.4677 130.198 23.241 131.008 28.6469C131.809 33.9839 130.722 40.5763 130.133 45.9977C129.814 48.939 130.205 52.2353 130.236 55.2105C130.267 58.2401 129.434 61.0902 129.741 64.128C130.407 70.7372 129.049 76.8867 128.348 83.3437C127.691 89.3941 128.73 95.5023 128.08 101.487C127.358 108.136 128.912 114.722 128.185 121.424C127.759 125.341 127.474 129.09 127.464 132.999C127.454 136.472 126.099 140.159 126.468 143.618C127.063 149.192 125.628 155.422 125.018 161.04C124.384 166.875 124.9 172.575 124.267 178.404C123.751 183.16 125.144 189.871 122.278 194.114C119.587 198.097 114.728 197.186 110.799 196.769C105.511 196.207 100.054 196.224 94.8717 195.674C88.257 194.972 81.9938 195.499 75.3905 194.798C61.3718 193.311 47.1237 192.99 33.0654 191.498C29.3189 191.101 25.7763 190.129 22.0347 189.732C20.3096 189.549 16.3467 189.965 15.0582 188.661C11.2229 184.777 11.6355 180.982 12.2147 175.654L12.2366 175.452C15.4959 145.436 15.9421 115.198 19.1888 85.2974C19.7942 79.7221 19.3268 74.0897 19.3421 68.4989C19.363 60.8289 19.8537 52.8887 19.125 45.2397C18.7428 41.2265 19.5904 36.9565 19.332 32.8822C19.1367 29.802 19.419 25.694 19.7514 22.6326Z" fill="url(#paint0_linear_304_1417)"/>
<path d="M19.5863 11.9238C20.6286 11.898 20.0034 20.3116 19.7514 22.6326C19.419 25.694 19.1367 29.802 19.332 32.8822C19.5904 36.9565 18.7428 41.2265 19.125 45.2397C19.8537 52.8887 19.363 60.8289 19.3421 68.4989C19.3268 74.0897 19.7942 79.7221 19.1888 85.2974C15.9421 115.198 15.4959 145.436 12.2366 175.452C11.6465 180.887 11.1746 184.728 15.0582 188.661C16.3467 189.965 20.3096 189.549 22.0347 189.732C25.7763 190.129 29.3189 191.101 33.0654 191.498C47.1237 192.99 61.3718 193.311 75.3905 194.798C81.9938 195.499 88.257 194.972 94.8717 195.674C100.054 196.224 105.511 196.207 110.799 196.769C114.728 197.186 119.587 198.097 122.278 194.114C125.144 189.871 123.751 183.16 124.267 178.404C124.9 172.575 124.384 166.875 125.018 161.04C125.628 155.422 127.063 149.192 126.468 143.618C126.099 140.159 127.454 136.472 127.464 132.999C127.474 129.09 127.759 125.341 128.185 121.424C128.912 114.722 127.358 108.136 128.08 101.487C128.73 95.5023 127.691 89.3941 128.348 83.3436C129.049 76.8867 130.407 70.7372 129.741 64.128C129.434 61.0902 130.267 58.2401 130.236 55.2105C130.205 52.2353 129.814 48.939 130.133 45.9977C130.722 40.5763 131.809 33.9839 131.008 28.6469C130.198 23.241 132.62 17.4677 130.409 12.0996C129.765 10.5363 128.065 9.65288 126.582 10.7666C125.127 11.8593 121.472 11.4159 119.722 11.2303C114.244 10.6489 109.066 9.47815 103.451 9.53661C95.2419 9.62208 87.2878 11.3631 79.0737 10.4914C72.5707 9.80125 66.0676 9.11113 59.5646 8.42101C56.2001 8.06396 52.9946 8.91539 49.6509 8.56055C46.0272 8.176 42.6788 7.95631 39.1172 7.4427C33.7838 6.67357 28.3645 6.3016 23.005 5.73284C16.3988 5.03177 20.4051 11.3863 19.8904 16.1267" stroke="#0D306C" stroke-width="3.55496" stroke-linecap="round"/>
<path d="M70.582 166.817L71.079 167.465" stroke="white" stroke-width="3.55496" stroke-linecap="round"/>
<path d="M17.6575 121.932C18.203 121.919 18.1616 121.019 18.7069 121.043C19.2778 121.068 19.6794 121.448 20.2411 121.54C22.0258 121.829 23.7668 122.247 25.6133 122.443C28.6329 122.764 31.3931 123.057 34.4928 123.386C35.4723 123.489 36.2654 123.323 37.233 123.176C38.6055 122.967 39.957 123.456 41.3334 123.278C43.4663 123.002 45.5876 123.324 47.7111 123.047C53.2412 122.325 59.3369 124.354 64.8166 124.936C67.7575 125.248 70.7325 125.23 73.6447 125.539C75.5083 125.737 77.181 125.515 79.037 125.445C80.8792 125.374 82.784 125.736 84.6053 125.517C92.0908 124.614 100.021 126.337 107.476 127.129C112.808 127.694 118.141 128.26 123.473 128.826C124.03 128.885 125.229 130.147 125.774 129.571C126.27 129.047 128.457 129.685 128.896 130.069" stroke="#0D306C" stroke-width="3.55496" stroke-linecap="round"/>
<path d="M68.1005 170.825C68.029 171.221 67.4439 170.768 66.7705 170.098C65.9952 169.568 65.3215 168.881 64.8428 167.995C63.9409 167.007 64.071 165.749 63.1992 164.842C61.548 163.123 60.6176 159.437 58.5878 157.666C57.5686 156.777 56.9557 155.078 56.1525 153.965C55.2907 152.772 54.2269 152.05 53.3897 150.958C51.9887 149.13 50.0505 146.496 48.9147 144.558C47.9208 142.862 45.2284 139.132 48.2647 137.77C51.0518 136.519 54.0184 138.442 56.8071 137.485C59.4399 136.581 63.3511 137.451 66.1101 137.744C69.055 138.056 71.7356 137.745 74.6197 138.051L93.6926 140.075L97.0584 140.432C99.0739 140.646 98.6138 140.726 98.9403 142.552C99.7933 147.32 95.6811 149.889 92.63 152.474C88.1079 156.305 84.533 161.924 79.6236 165.128C77.2151 166.7 77.2096 169.818 75.2454 171.482C74.251 172.325 72.701 171.808 71.5351 171.684C70.4426 171.568 69.2273 171.313 68.1005 170.825Z" fill="white"/>
<path d="M68.1078 170.725C68.1193 171.839 65.6618 168.892 64.8428 167.995M64.8428 167.995C63.9409 167.007 64.071 165.749 63.1992 164.842C61.548 163.123 60.6176 159.437 58.5878 157.666C57.5686 156.777 56.9557 155.078 56.1525 153.965C55.2907 152.772 54.2269 152.05 53.3897 150.958C51.9887 149.13 50.0505 146.496 48.9147 144.558C47.9208 142.862 45.2284 139.132 48.2647 137.77C51.0518 136.519 54.0184 138.442 56.8071 137.485C59.4399 136.581 63.3511 137.451 66.1101 137.744C69.055 138.056 71.7356 137.745 74.6197 138.051C80.9773 138.726 87.3349 139.4 93.6926 140.075C94.8145 140.194 95.9364 140.313 97.0584 140.432C99.0739 140.646 98.6138 140.726 98.9403 142.552C99.7933 147.32 95.6811 149.889 92.63 152.474C88.1079 156.305 84.533 161.924 79.6236 165.128C77.2151 166.7 77.2096 169.818 75.2454 171.482C74.251 172.325 72.701 171.808 71.5351 171.684C69.1616 171.432 66.2086 170.523 64.8428 167.995Z" stroke="white" stroke-width="3.55496" stroke-linecap="round"/>
<path d="M68.7712 119.025C65.9932 121.253 65.1472 125.329 62.6992 127.914C63.1019 131.101 80.2779 132.162 82.9187 132.443C84.9755 132.661 87.6677 133.437 89.6822 132.862C92.6213 132.024 92.0846 131.113 91.128 128.547C89.9742 125.453 88.3019 122.02 86.3175 119.431C84.284 116.777 82.9089 113.909 80.641 111.613C79.701 110.661 78.9286 109.232 77.5376 110.29C77.1367 110.595 74.7433 111.563 74.7109 111.645C73.6573 114.333 71.0736 117.179 68.7712 119.025Z" fill="white" stroke="white" stroke-width="3.55496" stroke-linecap="round"/>
<path d="M72.2849 99.7369C70.7873 101.68 72.4143 102.925 72.1264 105.576C72.9413 105.758 74.3356 104.192 75.4835 104.247C76.3995 104.29 77.0752 105.179 77.9474 105.071C79.0824 104.93 79.9097 104.717 81.0931 104.842C81.8899 104.927 88.3965 104.936 88.4832 104.137C88.5721 103.319 86.6858 100.036 86.2204 99.4284C83.4039 95.7532 81.4496 90.1595 76.9108 94.0051C75.2689 95.3962 73.642 97.9766 72.2849 99.7369Z" fill="white"/>
<path d="M72.1264 105.576C72.4143 102.925 70.7873 101.68 72.2849 99.7369C73.642 97.9766 75.2689 95.3962 76.9108 94.0051C81.4496 90.1595 83.4039 95.7532 86.2204 99.4284C86.6858 100.036 88.5721 103.319 88.4832 104.137C88.3965 104.936 81.8899 104.927 81.0931 104.842C79.9097 104.717 79.0824 104.93 77.9474 105.071C77.0752 105.179 76.3995 104.29 75.4835 104.247C73.8979 104.172 71.8424 107.187 71.4927 104.419" stroke="white" stroke-width="3.55496" stroke-linecap="round"/>
<path d="M73.9689 86.2138C73.7654 86.5045 73.6481 86.5487 73.6646 86.1798C73.7659 86.1906 73.8674 86.202 73.9689 86.2138C74.6234 85.2796 76.1698 81.7989 77.0308 81.3073C77.9209 80.799 79.9608 76.4332 80.6986 78.883C81.0529 80.0593 86.444 85.7486 83.3617 85.4215C81.2254 85.1948 79.5866 86.6568 77.716 86.6098C76.472 86.5785 75.2105 86.3591 73.9689 86.2138Z" fill="white"/>
<path d="M73.6646 86.1798C73.595 87.7344 75.902 81.9518 77.0308 81.3073C77.9209 80.799 79.9608 76.4332 80.6986 78.883C81.0529 80.0593 86.444 85.7486 83.3617 85.4215C81.2254 85.1948 79.5866 86.6568 77.716 86.6098C76.3702 86.5759 75.0039 86.3219 73.6646 86.1798Z" stroke="white" stroke-width="3.55496" stroke-linecap="round"/>
<path d="M54.0094 85.079C53.3399 85.717 50.8768 87.9972 51.3463 88.7022C54.0414 88.9882 58.2661 90.9413 60.8685 89.8451C62.6408 89.0986 58.6258 87.7393 58.1593 87.5054C56.9186 86.8831 55.5178 83.6417 54.0094 85.079Z" fill="white" stroke="white" stroke-width="3.55496" stroke-linecap="round"/>
<path d="M52.4321 77.9046C54.0778 77.8638 55.1897 73.6012 57.0835 74.2607C57.874 74.536 59.2741 77.893 58.5456 77.9245C57.1201 77.986 55.6025 77.6453 54.179 77.4942" stroke="white" stroke-width="3.55496" stroke-linecap="round"/>
<path d="M52.7197 96.1711C50.0521 97.3026 48.3801 101.666 46.2288 103.691C46.6183 106.775 59.2564 105.147 61.6865 105.331C63.4672 105.467 61.1444 104.076 60.8811 103.459C60.2739 102.034 59.3336 100.6 58.6345 99.182C56.8552 95.5737 56.1764 94.7049 52.7197 96.1711Z" fill="white" stroke="white" stroke-width="3.55496" stroke-linecap="round"/>
<path d="M45.1707 119.798C46.3907 121.879 47.6446 124.039 49.3143 125.765C50.6118 127.458 51.4415 128.506 53.532 128.728C55.6388 128.952 54.5072 128.073 55.9536 127.33C56.7084 126.942 57.5566 125.26 58.0016 124.436C58.865 122.838 60.6156 121.469 61.6306 119.757C62.4565 118.363 71.802 111.006 66.5814 110.452L66.5059 110.444C64.3242 110.212 62.0631 109.972 59.9275 110.474C56.8866 111.188 54.6523 110.973 51.524 110.641C49.5353 110.43 47.5929 110.82 45.5699 110.605C44.9917 110.544 41.1895 109.057 40.92 109.88C40.7688 110.342 44.6196 118.857 45.1707 119.798Z" fill="white"/>
<path d="M50.983 126.074C50.7543 128.181 50.4741 126.964 49.3143 125.765M49.3143 125.765C47.6446 124.039 46.3907 121.879 45.1707 119.798C44.6196 118.857 40.7688 110.342 40.92 109.88C41.1895 109.057 44.9917 110.544 45.5699 110.605C47.5929 110.82 49.5353 110.43 51.524 110.641C54.6523 110.973 56.8866 111.188 59.9275 110.474C62.0878 109.966 64.3764 110.218 66.5814 110.452C71.802 111.006 62.4565 118.363 61.6306 119.757C60.6156 121.469 58.865 122.838 58.0016 124.436C57.5566 125.26 56.7084 126.942 55.9536 127.33C54.5072 128.073 55.6388 128.952 53.532 128.728C51.4415 128.506 50.6118 127.458 49.3143 125.765Z" stroke="white" stroke-width="3.55496" stroke-linecap="round"/>
</g>
<defs>
<filter id="filter0_d_304_1417" x="0.384766" y="0.110352" width="149.476" height="211.344" filterUnits="userSpaceOnUse" color-interpolation-filters="sRGB">
<feFlood flood-opacity="0" result="BackgroundImageFix"/>
<feColorMatrix in="SourceAlpha" type="matrix" values="0 0 0 0 0 0 0 0 0 0 0 0 0 0 0 0 0 0 127 0" result="hardAlpha"/>
<feOffset dx="7.10992" dy="7.10992"/>
<feComposite in2="hardAlpha" operator="out"/>
<feColorMatrix type="matrix" values="0 0 0 0 0 0 0 0 0 0 0 0 0 0 0 0 0 0 0.2 0"/>
<feBlend mode="normal" in2="BackgroundImageFix" result="effect1_dropShadow_304_1417"/>
<feBlend mode="normal" in="SourceGraphic" in2="effect1_dropShadow_304_1417" result="shape"/>
</filter>
<linearGradient id="paint0_linear_304_1417" x1="72.3454" y1="8.58573" x2="64.7223" y2="192.375" gradientUnits="userSpaceOnUse">
<stop stop-color="#0D306C"/>
<stop offset="0.624293" stop-color="#2F61B6"/>
<stop offset="0.63" stop-color="#0D306C"/>
<stop offset="1" stop-color="#2F61B6"/>
</linearGradient>
</defs>
</svg>
