<svg width="398" height="406" viewBox="0 0 398 406" fill="none" xmlns="http://www.w3.org/2000/svg">
<mask id="mask0_278_1390" style="mask-type:alpha" maskUnits="userSpaceOnUse" x="-42" y="-62" width="411" height="438">
<path d="M1.70295 355.384C0.0610989 356.928 -1.17085 361.008 -1.33728 365.26C-6.09357 368.14 -11.4634 375.793 -16.4415 373.197C-19.0539 371.834 -22.1366 370.787 -24.03 368.672C-27.9965 364.242 -34.4449 361.713 -36.8149 355.506C-39.4232 348.675 -40.5482 341.322 -39.0967 320.627C-37.9961 304.935 -35.1969 275.837 -34.3989 259.622C-33.4456 240.254 -34.3135 234.709 -32.9762 215.855C-31.7988 199.254 -29.2621 169.239 -28.1465 153.289C-27.0309 137.339 -27.4027 135.505 -26.9101 127.902C-24.6413 92.8879 -25.9442 85.5254 -24.5115 67.1679C-21.7915 32.315 -18.8264 7.72768 -18.2079 3.42106C-17.6597 -0.394997 -16.5792 -4.78707 -12.7624 -6.81717C-5.35404 -10.7575 1.39716 -15.7439 8.85101 -17.063C21.8702 -19.367 36.3948 -17.3625 52.2898 -18.6282C66.1165 -19.7292 81.0794 -18.1202 87.6027 -21.3518C99.0255 -27.0105 106.639 -34.2483 118.674 -40.861C140.962 -53.1074 158.335 -58.8647 173.775 -59.4057C188.927 -59.9367 207.204 -60.7524 218.128 -58.6035C228.241 -56.614 240.252 -56.1127 249.556 -52.9805C262.245 -48.7088 282.482 -43.4089 294.181 -28.2154C303.218 -16.4798 316.077 6.10014 326.561 22.6061C330.374 28.6092 339.546 47.8214 347.334 82.0035C351.328 99.5338 354.198 117.761 355.234 130.886C356.875 151.67 356.536 162.145 357.514 182.281C358.363 199.744 360.45 231.023 361.086 247.601C361.79 265.96 362.837 272.295 363.516 280.728C364.733 295.85 365.277 302.217 366.27 310.097C367.084 316.557 366.919 324.302 362.543 332.354C357.694 341.276 353.98 350.345 343.458 353.047C338.811 354.241 334.16 354.701 331.461 352.232C328.72 349.724 326.72 346.215 323.512 343.808C315.984 338.161 307.766 332.346 301.517 334.463C299.87 335.021 298.053 336.061 297.375 337.771C294.482 345.066 292.848 356.551 284.962 363.15C283.234 364.596 281.343 365.895 277.432 365.46C259.621 363.476 250.772 350.508 240.98 349.384C233.54 348.529 227.19 347.669 224.582 349.611C218.52 354.123 211.695 370.447 202.327 370.275L202.311 370.275C198.891 370.213 189.244 370.036 184.353 361.893C180.17 354.929 174.282 338.126 163.786 340.822C158.441 342.196 153.938 342.992 150.7 344.734C141.883 349.478 140.954 358.163 134.224 361.806C125.857 366.335 118.431 371.524 109.155 367.166C106.742 366.032 104.86 364.238 103.878 362.386C99.9392 354.957 94.9258 340.988 88.4676 342.428C80.3088 344.247 70.2377 342.987 64.4036 349.315C53.8673 360.743 48.2631 376.809 40.0273 373.649C33.8363 371.273 29.4786 355.134 18.7478 352.928C13.1573 351.779 5.99724 351.345 1.70295 355.384Z" fill="#D9D9D9"/>
<path d="M-1.08745 369.716C-1.98834 364.198 -0.517572 357.473 1.70295 355.384C5.99724 351.345 13.1573 351.779 18.7478 352.928C29.4786 355.134 33.8363 371.273 40.0273 373.649C48.2631 376.809 53.8673 360.743 64.4036 349.315C70.2377 342.987 80.3088 344.247 88.4676 342.428C94.9258 340.988 99.9392 354.957 103.878 362.386C104.86 364.238 106.742 366.032 109.155 367.166C118.431 371.524 125.857 366.335 134.224 361.806C140.954 358.163 141.884 349.478 150.7 344.734C153.938 342.992 158.441 342.196 163.786 340.822C174.282 338.126 180.17 354.929 184.353 361.893C189.252 370.049 198.921 370.213 202.327 370.275C211.695 370.447 218.52 354.123 224.582 349.611C227.19 347.669 233.54 348.529 240.98 349.384C250.772 350.508 259.621 363.476 277.432 365.46C281.343 365.895 283.234 364.596 284.962 363.15C292.848 356.551 294.482 345.066 297.375 337.771C298.053 336.061 299.87 335.021 301.517 334.463C307.766 332.346 315.984 338.161 323.512 343.808C326.72 346.215 328.72 349.724 331.461 352.232C334.16 354.701 338.811 354.241 343.458 353.047C353.98 350.345 357.694 341.276 362.543 332.354C366.919 324.302 367.084 316.557 366.27 310.097C365.277 302.217 364.733 295.85 363.516 280.728C362.837 272.295 361.79 265.96 361.086 247.601C360.45 231.023 358.363 199.744 357.514 182.281C356.536 162.145 356.875 151.67 355.234 130.886C354.198 117.761 351.328 99.5338 347.334 82.0035C339.546 47.8214 330.374 28.6092 326.561 22.6061C316.077 6.10014 303.218 -16.4798 294.181 -28.2154C282.482 -43.4089 262.245 -48.7088 249.556 -52.9805C240.252 -56.1127 228.241 -56.614 218.128 -58.6035C207.204 -60.7524 188.927 -59.9367 173.775 -59.4057C158.335 -58.8647 140.962 -53.1074 118.674 -40.861C106.639 -34.2483 99.0255 -27.0105 87.6027 -21.3518C81.0794 -18.1202 66.1165 -19.7292 52.2898 -18.6282C36.3948 -17.3625 21.8702 -19.367 8.85101 -17.063C1.39716 -15.7439 -5.35404 -10.7575 -12.7624 -6.81717C-16.5792 -4.78707 -17.6597 -0.395001 -18.2079 3.42106C-18.8264 7.72768 -21.7915 32.315 -24.5115 67.1679C-25.9442 85.5254 -24.6413 92.8879 -26.9101 127.902C-27.4027 135.505 -27.0309 137.339 -28.1465 153.289C-29.2621 169.239 -31.7988 199.254 -32.9762 215.855C-34.3135 234.709 -33.4456 240.254 -34.3989 259.622C-35.1969 275.837 -37.9961 304.935 -39.0967 320.627C-40.5482 341.322 -39.4232 348.675 -36.8149 355.506C-34.4449 361.713 -27.9965 364.242 -24.03 368.672C-22.1366 370.787 -19.0539 371.834 -16.4415 373.197C-11.4065 375.822 -5.97068 367.963 -1.17432 365.163C-0.181695 364.337 0.379869 363.031 1.17393 361.724C1.968 360.417 2.97755 359.149 6.73272 358.072" stroke="#FFFAC9" stroke-width="3" stroke-linecap="round"/>
</mask>
<g mask="url(#mask0_278_1390)">
<g filter="url(#filter0_d_278_1390)">
<g filter="url(#filter1_dd_278_1390)">
<path d="M30.0536 55.1318C30.7593 53.7575 31.4742 52.3819 32.2398 51.7308C33.8185 50.3883 36.5772 49.0939 39.2894 47.9832C39.3348 47.927 39.3797 47.8704 39.4241 47.8133C41.0145 45.7677 51.7555 39.7591 52.0497 43.0254C58.9794 40.3744 65.976 37.9707 73.4161 36.8228C78.4046 36.0531 82.815 34.2234 87.7722 33.4586C93.0952 32.6373 98.3138 32.9812 103.659 32.1564C109.739 31.2185 115.727 31.4437 121.792 30.5079C127.256 29.6649 133.253 27.9528 138.777 28.4618C144.263 28.9673 151.744 29.1266 156.847 26.8229C161.444 24.7478 167.208 22.6566 172.34 22.9641C183.45 23.6299 192.915 18.3911 204.287 19.8225C219.069 21.6832 233.685 16.6911 248.024 14.4787C257.414 13.0298 273.283 10.1981 280.913 15.7884C284.907 18.7143 291.903 21.9613 294.656 26.2448C298.745 32.6048 302.096 38.2794 304.58 45.4622C317.399 82.5314 321.073 122.976 327.096 162.011C333.791 205.404 338.224 249.032 344.94 292.56L360.142 391.085C366.028 429.234 370.786 467.521 376.646 505.497C379.65 524.97 380.376 544.572 383.349 563.836C384.65 572.269 386.125 583.813 384.023 592.206C381.761 601.236 378.81 605.25 370.599 609.471C367.26 611.188 365.378 614.706 361.862 616.565C358.694 618.24 354.824 619.694 351.257 620.244C346.412 620.992 342.177 623.944 337.323 624.693L321.859 627.079L321.296 627.166C315.681 628.034 310.522 628.831 304.81 628.304C299.954 627.857 292.724 626.855 288.314 629.381C280.76 633.709 270.358 635.025 261.808 636.344C251.036 638.006 240.309 637.678 229.473 639.035C218.747 640.377 207.652 641.252 196.749 642.935L189.453 644.06C186.54 644.51 184.419 642.907 181.696 643.023C175.573 643.283 169.889 645.244 163.717 644.839C154.138 644.21 142.903 647.795 133.373 649.266C128.305 650.048 123.691 647.557 118.511 648.111C114.067 648.587 110.441 646.526 107.696 643.396C102.082 636.992 95.6054 632.14 92.7451 623.869C85.2689 602.249 82.3693 579.379 78.8667 556.677C76.3481 540.354 79.563 523.951 77.0127 507.422C74.1011 488.551 69.0039 470.411 66.1087 451.647C63.4046 434.121 63.0299 416.796 60.3102 399.169C57.4948 380.922 56.9389 362.424 54.146 344.323C51.2523 325.568 51.7578 306.5 48.8542 287.681C45.9419 268.806 41.97 250.511 39.0726 231.733C35.9646 211.589 28.4431 192.632 25.3175 172.375C24.5815 167.605 22.6085 163.169 22.0303 158.518C21.3873 153.345 22.6294 147.516 22.973 142.284C23.7014 131.193 24.3314 121.297 22.6136 110.163C21.0256 99.8706 18.0463 90.3765 18.8107 79.7227C19.4307 71.0809 23.2031 67.5915 26.1417 60.205C26.9987 58.0509 28.4148 56.4731 30.0536 55.1318Z" fill="black"/>
<path d="M30.0536 55.1318C30.7593 53.7575 31.4742 52.3819 32.2398 51.7308C33.8185 50.3883 36.5772 49.0939 39.2894 47.9832C39.3348 47.927 39.3797 47.8704 39.4241 47.8133C41.0145 45.7677 51.7555 39.7591 52.0497 43.0254C58.9794 40.3744 65.976 37.9707 73.4161 36.8228C78.4046 36.0531 82.815 34.2234 87.7722 33.4586C93.0952 32.6373 98.3138 32.9812 103.659 32.1564C109.739 31.2185 115.727 31.4437 121.792 30.5079C127.256 29.6649 133.253 27.9528 138.777 28.4618C144.263 28.9673 151.744 29.1266 156.847 26.8229C161.444 24.7478 167.208 22.6566 172.34 22.9641C183.45 23.6299 192.915 18.3911 204.287 19.8225C219.069 21.6832 233.685 16.6911 248.024 14.4787C257.414 13.0298 273.283 10.1981 280.913 15.7884C284.907 18.7143 291.903 21.9613 294.656 26.2448C298.745 32.6048 302.096 38.2794 304.58 45.4622C317.399 82.5314 321.073 122.976 327.096 162.011C333.791 205.404 338.224 249.032 344.94 292.56L360.142 391.085C366.028 429.234 370.786 467.521 376.646 505.497C379.65 524.97 380.376 544.572 383.349 563.836C384.65 572.269 386.125 583.813 384.023 592.206C381.761 601.236 378.81 605.25 370.599 609.471C367.26 611.188 365.378 614.706 361.862 616.565C358.694 618.24 354.824 619.694 351.257 620.244C346.412 620.992 342.177 623.944 337.323 624.693L321.859 627.079L321.296 627.166C315.681 628.034 310.522 628.831 304.81 628.304C299.954 627.857 292.724 626.855 288.314 629.381C280.76 633.709 270.358 635.025 261.808 636.344C251.036 638.006 240.309 637.678 229.473 639.035C218.747 640.377 207.652 641.252 196.749 642.935L189.453 644.06C186.54 644.51 184.419 642.907 181.696 643.023C175.573 643.283 169.889 645.244 163.717 644.839C154.138 644.21 142.903 647.795 133.373 649.266C128.305 650.048 123.691 647.557 118.511 648.111C114.067 648.587 110.441 646.526 107.696 643.396C102.082 636.992 95.6054 632.14 92.7451 623.869C85.2689 602.249 82.3693 579.379 78.8667 556.677C76.3481 540.354 79.563 523.951 77.0127 507.422C74.1011 488.551 69.0039 470.411 66.1087 451.647C63.4046 434.121 63.0299 416.796 60.3102 399.169C57.4948 380.922 56.9389 362.424 54.146 344.323C51.2523 325.568 51.7578 306.5 48.8542 287.681C45.9419 268.806 41.97 250.511 39.0726 231.733C35.9646 211.589 28.4431 192.632 25.3175 172.375C24.5815 167.605 22.6085 163.169 22.0303 158.518C21.3873 153.345 22.6294 147.516 22.973 142.284C23.7014 131.193 24.3314 121.297 22.6136 110.163C21.0256 99.8706 18.0463 90.3765 18.8107 79.7227C19.4307 71.0809 23.2031 67.5915 26.1417 60.205C26.9987 58.0509 28.4148 56.4731 30.0536 55.1318Z" stroke="black" stroke-width="4" stroke-linecap="round"/>
</g>
<mask id="mask1_278_1390" style="mask-type:alpha" maskUnits="userSpaceOnUse" x="25" y="24" width="346" height="616">
<path d="M30.0214 68.7997C36.2764 59.117 50.9284 57.5298 61.921 55.8337L77.0739 53.4957C81.1545 52.8661 88.4276 50.2829 92.3134 51.719C100.011 54.5638 98.0913 56.8581 100.618 64.1637C101.93 67.9591 110.444 69.9783 114.037 69.6265C119.096 69.1313 124.166 68.0638 129.19 67.2885C136.524 66.1569 142.964 67.4618 150.302 66.3295C155.475 65.5313 163.076 64.6375 168.319 65.5925C175.294 66.8628 177.961 64.2017 184.158 62.3188C188.297 61.0609 196.188 60.9146 199.65 58.46C200.934 57.5498 205.659 55.2064 205.755 53.7515C205.998 50.0483 205.322 46.6535 205.367 42.9582C205.414 38.9973 212.478 35.2706 215.48 34.4391C221.168 32.8636 226.653 29.2318 232.132 27.337C234.258 26.6017 238.734 27.3704 240.911 27.9615C243.466 28.6552 247.326 27.2271 249.929 26.8255C254.146 26.1748 262.214 23.3687 266.291 24.8756C270.231 26.3319 276.093 26.4965 279.634 29.8395C283.606 33.5899 286.488 40.2397 289.733 44.8163C299.316 58.333 300.049 76.0926 302.543 92.2536C306.583 118.438 309.54 145.05 313.553 171.06C315.189 181.664 314.571 192.553 316.224 203.271C317.998 214.763 318.605 226.15 320.384 237.678C323.567 258.309 325.636 279.166 328.796 299.648L333.732 331.637C335.548 343.404 339.579 354.639 341.394 366.398C343.01 376.874 345.723 386.397 346.171 396.944C346.731 410.155 349.211 424.508 351.22 437.534L357.724 479.688C359.522 491.336 358.994 502.809 360.79 514.456L369.584 571.45C370.642 578.308 371.667 586.633 367.089 592.52C361.524 599.678 350.199 597.577 343.339 602.441C340.706 604.308 337.035 603.379 334.706 606.071C332.369 608.773 328.069 611.26 324.831 612.83C319.959 615.193 316.216 616.884 311.11 618.65C304.424 620.962 297.405 621.658 290.417 622.737C284.705 623.618 277.637 624.402 271.886 623.872C264.684 623.208 257.271 627.215 250.374 628.851C238.434 631.684 226.031 631.522 213.918 633.391C198.684 635.741 181.882 638.531 166.468 638.669C157.084 638.753 142.594 640.661 134.197 635.987C128.488 632.809 121.978 632.471 117.562 627.062C113.428 622 107.569 617.546 105.692 610.954C103.163 602.074 102.761 592.416 99.3907 583.772C96.2261 575.655 92.7768 564.905 91.454 556.331L87.8653 533.072C86.2286 522.464 82.4213 512.831 79.6442 502.547C77.4132 494.285 75.9952 485.931 74.6683 477.331C72.7442 464.861 75.3136 451.722 73.3564 439.037L61.9647 365.205C58.8939 345.303 57.0215 325.719 53.9566 305.855C52.6225 297.209 53.5634 288.411 52.2663 280.004C50.9903 271.734 47.554 264.359 46.2499 255.907C44.8542 246.861 48.0037 237.482 46.5929 228.338C44.522 214.916 44.7147 201.269 42.632 187.771C41.0046 177.223 36.1026 167.796 34.4637 157.174C33.1371 148.576 32.9834 140.132 31.651 131.497C29.6296 118.396 26.9529 105.598 25.628 92.4607C25.0738 86.9648 26.2559 81.634 25.3618 75.839C24.7166 71.6576 26.9235 72.693 29.0722 70.0953C29.1688 69.9784 29.2837 69.8676 29.4134 69.7626C29.5956 69.4662 29.7979 69.1457 30.0214 68.7997Z" fill="#F3F0EB"/>
</mask>
<g mask="url(#mask1_278_1390)">
<path d="M9.82984 36.9203C16.8555 26.077 33.303 24.2933 45.6429 22.3893L62.653 19.7648C67.2338 19.058 75.399 16.1625 79.76 17.7685C88.3988 20.9498 86.2434 23.5194 89.0758 31.6973C90.5473 35.9459 100.103 38.2025 104.137 37.807C109.815 37.2502 115.507 36.0527 121.147 35.1825C129.38 33.9121 136.607 35.37 144.845 34.099C150.653 33.2029 159.184 32.1987 165.07 33.2655C172.898 34.6844 175.893 31.7039 182.85 29.5931C187.497 28.1829 196.355 28.0154 200.242 25.2657C201.684 24.2461 206.989 21.6204 207.097 19.9914C207.371 15.8453 206.614 12.0449 206.666 7.90792C206.721 3.47342 214.651 -0.702199 218.022 -1.6345C224.407 -3.40096 230.566 -7.46954 236.717 -9.59345C239.104 -10.4176 244.128 -9.55904 246.571 -8.89826C249.438 -8.12284 253.772 -9.72344 256.694 -10.1743C261.428 -10.9047 270.485 -14.0501 275.061 -12.365C279.484 -10.7363 286.063 -10.5548 290.036 -6.81374C294.493 -2.61679 297.726 4.82667 301.366 9.94899C312.116 25.0772 312.931 44.9598 315.722 63.0519C320.245 92.3647 323.552 122.157 328.045 151.275C329.876 163.147 329.177 175.338 331.029 187.336C333.014 200.201 333.69 212.949 335.682 225.855C339.245 248.951 341.558 272.301 345.096 295.23L350.621 331.041C352.654 344.214 357.174 356.791 359.205 369.955C361.015 381.683 364.055 392.342 364.553 404.15C365.176 418.94 367.953 435.008 370.203 449.591L377.484 496.782C379.496 509.821 378.898 522.667 380.909 535.705L390.754 599.51C391.938 607.187 393.084 616.506 387.944 623.1C381.693 631.116 368.982 628.769 361.279 634.218C358.323 636.309 354.202 635.271 351.587 638.286C348.962 641.312 344.134 644.098 340.5 645.857C335.03 648.505 330.827 650.4 325.094 652.38C317.588 654.971 309.71 655.754 301.865 656.964C295.453 657.954 287.519 658.835 281.064 658.244C272.98 657.504 264.657 661.993 256.914 663.828C243.51 667.005 229.589 666.83 215.991 668.928C198.889 671.566 180.028 674.698 162.726 674.859C152.192 674.957 135.926 677.101 126.503 671.871C120.096 668.316 112.789 667.94 107.834 661.887C103.197 656.222 96.6216 651.238 94.5175 643.859C91.6829 633.918 91.2368 623.106 87.4575 613.43C83.909 604.344 80.0422 592.31 78.5614 582.712L74.5438 556.674C72.7116 544.798 68.4424 534.015 65.3299 522.503C62.8294 513.254 61.2416 503.902 59.7561 494.274C57.6021 480.314 60.4924 465.604 58.3013 451.402L45.5485 368.749C42.1107 346.468 40.018 324.544 36.5869 302.306C35.0935 292.627 36.1536 282.777 34.7016 273.366C33.2731 264.108 29.4193 255.852 27.9594 246.39C26.3969 236.263 29.9366 225.761 28.3572 215.525C26.0389 200.5 26.2614 185.221 23.9299 170.11C22.1081 158.302 16.61 147.75 14.7752 135.858C13.2901 126.233 13.1216 116.78 11.6299 107.112C9.36702 92.446 6.36835 78.1201 4.88732 63.4122C4.26777 57.2595 5.59709 51.2908 4.59612 44.8033C3.87388 40.1223 6.35066 41.2805 8.76371 38.3712C8.87225 38.2403 9.00125 38.1162 9.14683 37.9986C9.35153 37.6667 9.57874 37.3078 9.82984 36.9203Z" fill="#F3F0EB" stroke="black" stroke-width="4" stroke-linecap="round"/>
<path d="M50.0991 284.699C52.2051 298.349 57.2611 311.305 62.6835 323.961C64.6812 328.624 66.2068 333.986 69.585 337.927C71.6118 340.292 74.3636 339.716 74.5329 336.241C74.7733 331.306 72.0052 326.695 71.2672 321.912C70.4968 316.918 69.2858 311.597 67.8723 306.745C66.845 303.219 65.7044 299.384 64.8855 295.933C63.8772 291.682 60.6155 287.578 59.2428 283.289C57.0888 276.557 55.8311 269.588 53.2748 262.981C50.3155 255.333 48.1752 247.779 46.0225 239.906C44.5232 234.422 43.4066 226.942 40.3132 222.13C38.0698 218.64 37.8159 213.781 37.3853 209.99C37.1401 207.831 37.0835 205.648 37.7094 203.545C39.1677 198.645 39.4661 199.713 42.8934 203.602C47.9594 209.35 50.6771 217.612 53.954 224.442C58.876 234.702 63.8792 244.481 67.7706 255.24C71.2165 264.767 73.172 274.714 77.2892 284.031C81.1281 292.719 85.687 301.933 88.0008 311.155C89.2663 316.199 91.2115 325.611 95.4984 328.985C98.2025 331.113 104.283 330.714 107.459 329.809C111.224 328.737 106.426 314.361 105.97 312.041C105.063 307.418 104.648 302.994 102.807 298.586C100.22 292.394 97.6994 286.359 94.7787 280.311C91.5438 273.611 88.0414 267.16 84.6425 260.548C80.2824 252.066 76.5871 243.217 71.5216 235.114C64.046 223.156 59.1491 210.421 53.7218 197.514C50.0554 188.795 44.4794 180.841 41.0245 172.048C38.5428 165.733 36.6259 159.351 33.9474 153.099C31.1918 146.667 22.9355 134.322 28.2744 127.868C33.0001 122.154 44.0481 150.111 45.0529 152.012C59.7234 179.761 75.0544 207.269 87.9605 235.907C97.8299 257.806 108.067 279.56 117.666 301.534C120.135 307.186 124.164 311.991 128.571 316.235C130.258 317.86 134.459 323.303 137.017 322.908C139.438 322.535 143.211 322.742 144.625 320.515C147.729 315.626 144.969 308.469 143.485 303.517C140.252 292.724 135.082 282.363 130.033 272.3C121.877 256.05 112.745 240.359 103.748 224.571C95.8774 210.762 90.5725 195.795 83.1716 181.796C77.1726 170.449 71.4346 159.01 65.2321 147.777C54.58 128.487 39.9158 112.095 27.2344 94.2082C20.1711 84.2457 12.805 72.2387 11.2589 59.8867C10.9062 57.0694 12.4677 53.347 15.4911 52.707C21.5365 51.4275 26.6192 55.2233 30.7411 59.254C40.228 68.5309 48.1084 79.951 55.5329 90.8968C67.994 109.268 80.4193 127.566 91.6988 146.693C103.398 166.532 114.703 186.69 124.677 207.465C132.958 224.716 139.447 242.738 147.62 260.027C153.497 272.459 159.853 284.624 165.91 296.959C170.087 305.465 174.768 314.574 179.94 322.516C182.234 326.039 184.977 333.433 189.448 334.365C193.572 335.226 198.203 333.478 200.51 329.362C204.729 321.837 199.9 311.651 196.757 304.824C190.433 291.085 182.496 277.693 174.567 264.836C169.239 256.195 163.557 247.524 159.237 238.326C154.879 229.049 151.358 219.417 146.64 210.306C141.528 200.434 137.163 190.247 132.343 180.241C127.476 170.139 122.373 160.309 118.044 149.946C111.68 134.714 105.786 119.617 98.3035 104.899C95.3188 99.0285 92.0671 93.3552 88.4236 87.8657C85.326 83.1988 83.1729 78.362 80.4123 73.5434C73.2095 60.9711 65.5558 48.2309 61.1851 34.3835C59.9173 30.3669 59.9797 28.5123 64.4764 27.9424C71.3732 27.0683 77.9038 35.2753 81.8935 39.5609C104.857 64.2284 119.378 96.6496 134.266 126.479C153.641 165.295 171.755 204.719 189.684 244.242C195.85 257.834 201.888 271.47 207.862 285.146C211.449 293.356 214.101 302.172 218.488 310.008C221.738 315.812 226.086 324.62 232.861 327.107C239.075 329.388 241.299 326.703 242.726 320.97C248.154 299.169 232.41 280.482 221.445 262.943C211.332 246.767 203.037 229.246 193.579 212.656C184.557 196.832 176.001 180.419 169.03 163.571C162.925 148.817 153.991 135.353 147.037 121.014C142.043 110.718 137.283 99.927 131.637 89.9992C127.713 83.0985 122.987 74.6985 120.94 67.0266C118.729 58.7406 114.055 51.2468 111.879 42.9114C111.164 40.1694 106.071 31.5361 109.245 29.0449C114.714 24.7525 121.053 27.2839 125.811 31.3015C129.33 34.2723 131.228 38.9423 133.249 42.9764C136.721 49.9079 140.379 56.5701 143.562 63.668C147.069 71.4927 151.171 79.1657 155.53 86.5436C162.358 98.1026 168.278 110.173 174.889 121.859C187.054 143.363 196.96 165.332 206.655 188.026C213.828 204.816 219.214 222.393 226.844 238.97C237.651 262.447 248.675 286.319 262.57 308.151C263.459 309.549 269.967 320.567 273.104 315.755C275.381 312.263 272.635 304.17 272.067 300.489C270.417 289.789 268.76 279.03 266.273 268.486C262.053 250.597 255.133 233.281 248.667 216.122C241.122 196.098 233.348 176.25 224.386 156.81C215.462 137.454 205.808 118.429 194.964 100.072C187.167 86.8748 178.874 73.9471 172.432 60.0047C167.085 48.4317 164.192 35.8695 162.254 23.3053C161.322 17.265 171.242 21.2622 173.194 23.0677C177.334 26.8983 179.551 31.2324 182.168 36.1537C187.013 45.265 191.854 54.3173 196.998 63.2683C216.437 97.09 232.394 132.79 248.871 168.096C269.578 212.463 280.583 261.282 305.461 303.709C308.119 308.243 311.697 317.818 318.148 316.288C325.414 314.564 327.596 307.022 326.577 300.418C323.484 280.374 312.852 261.902 304.486 243.768C297.497 228.618 289.533 214.109 282.084 199.198C274.356 183.728 267.797 167.915 261.058 152.009C255.129 138.017 249.626 123.872 243.526 109.951C238.741 99.0309 233.244 88.3364 229.322 77.0698C225.358 65.6829 222.557 53.7854 218.32 42.5083C215.993 36.3156 211.76 29.19 212.28 22.377C212.76 16.0825 216.191 13.146 221.991 16.099C232.33 21.3631 236.364 35.6664 240.503 45.711C250.549 70.0858 260.61 94.4584 270.735 118.806C275.534 130.345 280.823 141.657 284.95 153.465C288.125 162.551 290.453 171.897 293.519 181.018C298.34 195.364 306.203 207.856 315.505 219.686C318.841 223.929 325.565 235.231 332.289 234.04C340.646 232.559 332.142 214.868 330.798 211.13C313.992 164.383 297.593 117.255 276.718 72.1302C269.046 55.5446 262.43 38.3636 256.262 21.1615C254.523 16.3104 252.231 10.4942 254.772 5.73413C256.226 3.01078 260.901 3.63679 262.975 5.06182C269.646 9.64515 274.426 16.5422 278.57 23.4552C293.262 47.9677 304.968 74.2865 319.036 99.2229C321.837 104.187 324.021 112.231 328.978 115.588C330.989 116.95 334.11 118.558 334.528 115.028C335.043 110.682 335.673 105.962 334.26 101.752C332.118 95.3712 329.636 89.4197 326.641 83.3482C322.106 74.1569 319.779 65.2885 317.316 55.3842" stroke="#CAD3DC" stroke-width="2" stroke-linecap="round"/>
<path d="M353.295 261.652C343.147 265.058 335.035 273.027 325.249 277.285C320.245 279.462 315.091 282.225 309.817 283.655C299.255 286.518 289.953 292.898 280.257 297.808C271.157 302.415 262.786 308.252 253.859 313.22C243.955 318.731 234.85 326.105 223.827 329.226C218.695 330.679 200.264 338.054 200.259 327.094C200.257 323.408 208.773 319.735 211.356 318.262C220.64 312.967 229.515 307.307 239.355 302.965C253.276 296.823 266.828 289.922 280.377 282.989C294.804 275.607 309.132 267.975 322.621 258.968C331.06 253.332 340.661 248.828 348.561 242.506C352.03 239.729 356.813 238.279 359.713 234.885C362.511 231.609 365.365 227.046 366.147 222.75C367.318 216.323 365.73 209.427 357.993 210.494C348.541 211.796 341.527 217.82 333.617 222.561C328.213 225.8 323.07 229.496 317.735 232.857C310.537 237.392 302.676 241.071 295.682 245.885C281.932 255.349 268.035 264.832 254.069 273.995C240.916 282.625 228.048 291.79 215.113 300.739C209.077 304.915 202.068 308.002 195.36 310.94C188.558 313.919 182.309 317.976 175.57 321.113C171.142 323.174 135.627 342.498 134.758 329.421C134.373 323.614 140.664 315.729 144.19 311.715C154.37 300.124 166.195 290.924 179.288 282.83C187.076 278.015 195.312 273.972 203.645 270.205C212.34 266.274 220.676 261.777 229.264 257.649C246.481 249.373 263.937 241.644 280.87 232.777C292.604 226.632 303.83 219.526 315.601 213.474C324.797 208.748 333.814 203.525 342.21 197.502C348.148 193.244 356.684 188.675 360.487 182.222C364.93 174.685 358.809 169.328 351.444 169.114C346.682 168.976 341.71 170.286 337.136 171.454C329.939 173.29 322.742 175.313 315.665 177.568C294.764 184.228 275.694 192.678 257.284 204.673C238.92 216.636 221.449 229.859 203.303 242.14C194.16 248.329 185.211 254.791 175.871 260.679C166.964 266.293 159.231 272.856 150.828 279.112C133.635 291.913 114.37 301.592 97.0796 314.237C91.0769 318.627 84.5812 322.295 78.5164 326.594C72.6324 330.766 64.3261 336.462 56.7193 335.298C49.0206 334.119 46.0699 332.266 43.9393 324.678C41.2751 315.188 45.9225 307.722 52.6153 301.221C63.4563 290.691 77.2239 283.077 89.6046 274.549C102.307 265.801 114.296 255.994 126.571 246.662C137.611 238.268 149.361 230.87 160.929 223.231C167.149 219.124 173.862 215.862 180.134 211.829C187.741 206.94 195.471 202.215 203.393 197.858C227.236 184.741 251.832 173.34 275.424 159.879C284.845 154.504 295.017 150.15 304.233 144.49C314.355 138.274 325.746 133.205 332.394 122.774C336.797 115.867 336.201 109.43 326.93 110.86C322.534 111.539 318.009 111.97 313.675 112.971C306.219 114.694 299.381 118.782 292.183 121.298C283.713 124.258 276.282 129.684 268.284 133.687C258.982 138.344 250.192 143.287 241.643 149.236C233.221 155.098 224.873 161.067 216.454 166.934C206.873 173.611 196.425 179.047 186.508 185.201C171.093 194.767 157.379 206.433 142.529 216.775C130.364 225.246 116.539 231.444 104.324 239.843C94.8712 246.343 85.0843 252.305 75.8442 259.071C71.5354 262.225 67.122 265.225 62.8921 268.486C58.4721 271.893 54.5858 275.916 49.7844 278.815C43.4474 282.64 37.1056 285.946 31.0999 279.917C25.919 274.717 33.4781 268.09 36.8813 264.192C44.6452 255.301 55.1613 250.246 65.2793 244.648C79.3046 236.887 93.3049 228.242 106.423 219.049C119.902 209.604 134.228 200.826 146.961 190.38C159.261 180.289 172.588 171.758 186.29 163.71C197.666 157.029 208.683 149.653 220.263 143.338C225.732 140.356 231.119 137.062 236.383 133.731C241.759 130.329 247.539 127.908 252.696 124.094C256.916 120.974 261.501 118.442 265.71 115.296C270.107 112.009 274.624 108.321 279.331 105.514C287.356 100.729 294.774 95.4808 303.139 91.2594C310.279 87.6569 317.907 82.1282 322.164 75.2708C323.678 72.8328 332.557 61.454 326.142 59.3952C318.242 56.8597 312.135 61.9806 305.533 65.5417C300.812 68.0885 296.238 70.9149 291.664 73.7138C285.102 77.7296 278.032 80.8958 271.602 85.1158C265.45 89.1536 259.114 92.7407 253.509 97.5325C247.8 102.414 241.998 107.355 235.972 111.841C222.4 121.946 207.248 129.633 193.872 139.994C168.465 159.673 141.408 176.28 113.519 191.98C96.9044 201.333 78.0703 208.91 63.1117 220.985C57.7028 225.352 50.7122 231.679 43.4631 232.291C40.4872 232.542 32.4286 230.748 31.6861 226.889C30.9438 223.032 37.7165 217.345 39.9286 214.937C45.9339 208.399 54.3224 204.296 61.5418 199.274C66.2796 195.978 70.2804 192.077 75.3952 189.292C82.4489 185.451 88.8079 180.766 95.7491 176.79C102.541 172.899 109.552 169.212 115.801 164.466C123.472 158.641 131.701 154.269 139.809 149.159C147.156 144.529 154.075 139.095 161.064 133.947C167.52 129.191 174.545 125.201 181.474 121.173C194.729 113.467 208.23 106.173 221.438 98.3936C242.658 85.8947 263.064 72.0758 284.907 60.6813C289.881 58.0862 293.774 54.454 297.559 50.3896C300.446 47.2886 305.136 44.2143 306.26 39.9164C308.337 31.976 299.139 33.6967 294.074 34.6436C290.935 35.2305 287.727 37.4847 284.791 38.779C280.653 40.6031 276.962 43.2834 272.803 45.0456C259.918 50.5048 248.913 59.2018 237.55 67.1639C225.07 75.9101 213.976 86.4079 200.772 94.1326C185.074 103.316 168.218 110.363 152.329 119.209C126.834 133.403 101.092 146.893 76.3048 162.287C71.6254 165.193 66.7173 167.762 62.2155 170.954C57.7506 174.12 53.7235 177.874 49.2291 181.001C41.948 186.066 36.4088 188.734 27.5326 187.579C25.51 187.315 22.2937 187.838 21.1986 185.622C20.2811 183.766 19.7685 181.706 19.6802 179.627C19.5468 176.485 23.1887 174.988 25.1982 173.303C29.4694 169.723 33.6986 167.519 38.7924 165.273C50.0106 160.324 60.8614 154.405 72.0638 149.327C79.0165 146.176 85.3447 141.769 92.2475 138.5C100.517 134.583 108.148 130.813 115.749 125.677C128.787 116.867 142.611 109.263 155.84 100.736C170.542 91.2592 183.927 79.7589 198.574 70.2769C210.739 62.4024 222.796 54.7986 235.261 47.4099C242.228 43.2803 254.664 35.2103 253.968 25.7347C253.165 14.7838 234.47 29.3519 232.348 30.8835C227.283 34.5397 221.825 37.9712 216.514 41.2707C207.134 47.0971 198.232 53.6228 189.123 59.8686C170.595 72.5736 152.475 85.5004 133.144 96.9856C124.595 102.065 116.294 108.095 108.316 114.034C100.286 120.013 91.9866 125.204 83.5802 130.608C71.5299 138.354 58.4284 145.608 45.2755 151.318C38.4588 154.278 25.487 157.527 18.6308 152.957C12.7972 149.069 10.0142 145.289 15.3456 139.356C19.6438 134.572 26.4274 132.572 32.1987 130.229C41.3503 126.513 50.5815 123.291 59.4634 118.935C77.1508 110.26 95.1334 99.9506 110.442 87.435C123.867 76.46 139.232 69.0825 153.227 59.0124C158.658 55.1043 174.923 42.2855 167.923 33.7698C165.252 30.5207 158.16 32.4743 154.847 32.9854C146.226 34.3156 138.121 36.6121 130.206 40.3473C121.507 44.4531 113.683 49.5331 106.468 55.9095C99.2818 62.2608 93.6253 70.2536 86.1646 76.2158C78.8896 82.0296 71.0013 87.0046 63.8683 93.0059C57.4823 98.3786 50.9441 103.489 43.5028 107.355C35.2726 111.632 21.1344 116.426 12.1557 111.632C4.54379 107.568 12.3784 97.6316 16.1879 94.3963C20.4033 90.8163 26.4664 89.1887 31.5707 87.2762C39.1072 84.4526 46.4239 81.0522 53.9719 78.2162C69.7691 72.2808 83.8059 64.9668 92.1047 49.5553C93.1825 47.5538 96.6864 42.404 93.0397 40.8737C89.8896 39.5519 83.9586 41.3842 80.9436 42.3775C76.0728 43.982 71.5285 47.0248 67.4236 50.0342C62.0091 54.0036 55.5327 56.2831 49.8227 59.8699C44.3573 63.303 39.2174 67.1059 33.6438 70.3761C28.7372 73.255 23.4675 74.7801 18.1269 76.6269C12.7871 78.4734 4.38464 83.2397 0.0389999 77.1103C-2.367 73.7167 -0.770812 67.2423 2.94414 65.3888C7.87027 62.931 12.9519 59.4714 18.1831 57.7635C22.6908 56.2918 29.486 53.9115 32.9343 50.609C33.8923 49.6915 41.6174 42.3638 38.669 41.4176" stroke="#CAD3DC" stroke-width="2" stroke-linecap="round"/>
<path d="M84.1826 336.4C91.2202 328.001 82.7943 316.689 88.0041 307.331C91.4129 301.207 94.281 297.716 101.171 295.674C103.634 294.944 105.826 293.582 108.337 292.986C111.475 292.242 114.685 291.99 117.813 291.162C122.012 290.049 126.725 288.642 130.405 286.252C133.747 284.082 136.8 281.557 140.039 279.261C142.464 277.541 144.845 276.03 147.307 274.448C149.564 272.996 150.453 269.54 153.256 268.783C161.585 266.534 133.45 221.401 130.332 215.492C126.768 208.737 122.647 202.285 119.634 195.289C117.976 191.441 114.79 185.638 116.165 181.353C117.109 178.411 121.146 177.69 123.645 176.639C125.591 175.821 127.91 175.619 129.249 173.862C130.875 171.729 132.286 169.773 134.111 167.772C137.504 164.054 140.922 159.476 145.946 157.739C147.967 157.039 150.524 156.018 152.295 154.88C154.502 153.461 156.205 151.305 158.354 149.924C159.351 149.282 160.675 148.424 161.558 147.616C162.701 146.57 164.228 146.099 165.301 144.962C167.365 142.777 172.398 143.01 175.314 142.56C179.568 141.904 183.492 139.501 186.861 136.856C191.878 132.918 191.548 124.719 190.71 119.286C189.967 114.477 188.278 111.904 185.129 108.116C181.606 103.878 178.046 99.7967 174.58 95.5038C172.633 93.0912 164.087 83.7729 170.701 82.7524C172.869 82.4179 175.037 82.0834 177.204 81.7489C179.605 81.3786 180.986 79.6882 183.316 79.0589C188.759 77.589 192.979 74.1633 198.134 72.1248C201.398 70.8341 206.265 68.6007 209.418 70.9112C218.814 77.7954 225.263 88.6529 229.859 99.1379C232.768 105.774 235.278 112.595 239.027 118.82C243.318 125.945 248.839 132.401 253.936 138.967C257.616 143.707 261.91 155.036 269.427 151.773C273.871 149.843 278.209 148.569 282.363 145.887C288.071 142.202 293.287 138.57 298.301 134.034C301.547 131.097 305.857 127.675 309.762 125.64C311.439 124.766 314.796 123.485 315.522 121.521C316.417 119.098 315.197 117.109 314.649 114.799C313.994 112.037 314.306 108.943 313.865 106.086C313.148 101.439 312.809 96.863 314.726 92.4383C315.353 90.9918 315.561 89.9753 316.528 88.7322C317.848 87.0338 319.352 86.3799 319.379 84.139" stroke="#CAD3DC" stroke-width="4" stroke-linecap="round"/>
<path d="M238.387 116.809C236.416 122.493 236.303 128.324 234.84 134.2C232.662 142.948 232.662 151.945 232.135 160.889C231.507 171.547 229.163 182.152 229.949 192.87C230.739 203.631 229.921 214.434 230.186 225.17C230.522 238.73 230.84 252.48 232.904 265.855C233.379 268.932 233.531 270.868 236.587 272.209C240.057 273.732 247.26 271.513 250.432 270.073C255.734 267.666 261.637 267.01 267.054 265.003C271.957 263.186 277.281 262.7 282.431 261.906C286.437 261.287 290.227 260.561 293.089 263.689C296.819 267.764 294.077 271.416 291.291 275.108C288.01 279.456 284.426 283.239 282.353 288.321C280.738 292.28 278.625 294.894 276.205 298.466C274.696 300.694 272.907 302.876 271.614 305.24C268.998 310.021 267.978 315.808 265.845 320.831C264.127 324.875 262.627 328.923 261.689 333.207C261.526 333.951 261.729 336.992 260.907 335.833" stroke="#CAD3DC" stroke-width="4" stroke-linecap="round"/>
<path d="M143.446 162.904C144.026 155.489 138.247 147.916 134.422 142.013C128.314 132.589 120.334 125.067 113.447 116.308C111.718 114.11 107.566 108.005 104.611 107.321C103.265 107.01 103.115 109.65 103.032 110.334C102.36 115.835 100.12 120.793 97.9065 125.826C90.7372 142.127 82.1908 157.841 74.3977 173.854C70.9515 180.936 67.1341 187.832 63.7046 194.919C61.4089 199.664 60.4645 204.994 58.0961 209.629C58.0793 209.662 53.1262 218.324 52.8837 218.146C52.6625 217.984 51.8118 214.792 51.718 214.437C51.1234 212.183 49.3364 210.537 48.9511 208.04C48.2511 203.504 52.3206 201.866 53.7913 197.965C56.2778 191.37 54.3686 184.908 54.1592 178.131C53.9672 171.919 53.9035 165.48 50.4138 160.051C48.9071 157.708 47.3686 155.252 45.5265 153.158C44.2476 151.705 42.5153 150.278 42.1039 148.28C41.8024 146.816 42.5334 145.998 41.6789 144.885C37.793 139.823 31.635 136.035 26.9312 131.767C23.8376 128.959 19.2073 125.916 17.8395 121.764" stroke="#CAD3DC" stroke-width="4" stroke-linecap="round"/>
<path d="M141.069 232.097C147.073 234.154 153.426 232.665 159.7 232.782C170.382 232.982 181.093 230.446 191.803 230.202C197.397 230.075 203.012 230.436 208.606 230.576C212.176 230.666 216.118 230.058 219.628 230.656C221.176 230.92 228.086 231.285 228.539 229.874" stroke="#CAD3DC" stroke-width="4" stroke-linecap="round"/>
<path d="M128.799 210.257C128.976 213.793 126.614 218.084 125.478 221.416C123.125 228.318 120.618 235.614 116.721 241.787C112.524 248.435 106.271 256.677 97.8426 257.654C90.3415 258.523 84.7154 250.461 84.4567 243.535C84.2806 238.82 85.7234 232.975 89.7488 230.192C93.0308 227.923 97.2859 228.99 98.7903 232.819C104.106 246.347 85.6664 256.486 80.2241 266.734C78.0761 270.779 76.8803 275.57 76.1159 280.059C75.296 284.874 76.5918 289.106 76.9937 293.867C77.3189 297.717 76.2659 303.05 72.8129 305.225C68.742 307.788 63.8497 309.763 60.8214 313.601C58.4434 316.615 57.475 319.537 58.5568 323.279C59.9011 327.93 60.0509 331.351 59.2163 336.099C58.5654 339.802 57.8492 343.598 56.6403 347.176C56.0294 348.984 52.7694 352.52 56.3254 351.972" stroke="#CAD3DC" stroke-width="4" stroke-linecap="round"/>
<path d="M82.5415 48.8883C77.5285 56.2904 75.8991 64.6505 72.6324 72.8978C70.5831 78.0715 68.4165 83.056 66.0432 88.0885C64.3826 91.6099 64.0218 94.8811 62.9072 98.5271C61.725 102.394 61.1672 106.311 59.6082 110.046C59.0997 111.264 56.4591 118.772 58.3066 118.487C64.2936 117.563 71.1106 112.847 75.5286 108.974C78.3641 106.488 81.9395 105.553 84.8637 103.248C86.6097 101.872 88.3972 100.293 90.2539 99.0873C92.3769 97.7087 94.5398 96.609 96.4937 95.092C97.2453 94.5084 101.126 93.4114 98.9146 91.9825C95.4514 89.7453 92.7755 87.0982 88.5023 86.6669C86.9429 86.5095 84.2172 91.5022 83.3631 92.668C81.3971 95.3513 78.6157 97.1482 76.6144 99.7744C73.5931 103.739 73.6025 103.573 70.7293 99.2321C66.5231 92.8769 59.4452 87.3594 52.8894 83.5914C50.7434 82.3579 49.0707 80.9973 46.7256 79.9606C45.4418 79.3931 43.3493 77.4029 41.8948 77.7063C40.6562 77.9647 38.371 84.0988 37.6851 85.2451C33.6465 91.9939 30.4785 97.529 24.5583 102.928C19.939 107.14 15.9824 110.778 9.76566 111.737" stroke="#CAD3DC" stroke-width="4" stroke-linecap="round"/>
<path d="M221.361 25.6895C221.454 27.8777 226.641 31.4574 228.235 33.0674C234.354 39.2475 240.879 45.0181 246.673 51.5165C253.731 59.4322 259.945 68.1158 266.446 76.484C272.068 83.7192 277.867 90.8666 283.021 98.451C286.832 104.059 290.966 109.2 295.791 113.918C296.625 114.734 298.664 115.721 298.93 116.961C299.482 119.525 297.803 121.481 296.719 123.565C294.762 127.326 293.782 131.428 291.651 135.158C286.404 144.347 287.309 155.246 285.051 165.448C283.209 173.775 277.834 189.702 284.062 197.278C287.707 201.711 291.884 205.2 295.835 209.273C300.146 213.716 304.288 220.111 307.332 225.463C310.91 231.755 310.689 239.993 309.617 246.899C308.811 252.092 308.981 259.403 312.134 263.849C315.651 268.81 317.894 271.177 324.364 270.269C328.074 269.748 331.231 269.88 334.935 270.418C335.964 270.567 337.7 271.626 338.051 270.53" stroke="#CAD3DC" stroke-width="4" stroke-linecap="round"/>
<path d="M238.149 184.485C239.342 181.514 239.672 186.064 240.134 187.31C240.339 187.862 242.981 194.143 242.521 191.458C242.092 188.953 239.164 181.865 239.994 184.266C242.082 190.304 244.746 196.206 247.289 202.061C249.872 208.011 247.159 201.285 246.468 199.09C245.123 194.821 241.739 181.845 242.573 186.242C243.417 190.689 245.439 195.355 247.498 199.359C248.679 201.656 247.905 199.94 247.404 198.747C246.1 195.647 244.877 192.51 243.682 189.367C243.088 187.804 240.022 180.168 243.192 185.553C244.561 187.878 245.894 190.205 247.388 192.454C248.598 194.275 251.156 199.899 251.299 197.718C251.376 196.547 249.951 194.107 249.571 193.139C248.439 190.261 247.242 187.426 246.01 184.591C242.998 177.659 248.993 186.14 250.084 187.918C251.729 190.6 253.304 193.329 254.897 196.042C256.161 198.195 256.378 198.729 255.246 195.955C252.928 190.275 249.414 184.004 248.469 177.882C248.333 176.997 249.436 179.391 249.877 180.17C252.213 184.298 254.569 188.416 256.927 192.531C257.884 194.202 260.343 199.292 260.05 197.39C259.677 194.975 257.909 192.299 256.827 190.174C255.447 187.464 251.114 179.474 252.187 182.319C253.5 185.803 256.234 188.847 258.165 192.011C259.898 194.852 255.232 186.02 253.445 183.213C252.975 182.474 251.802 180.605 252.548 182.956C253.672 186.496 254.983 189.977 256.122 193.513C256.496 194.673 260.453 204.248 258.433 205.286C256.294 206.386 254.574 200.853 252.101 202.703C249.702 204.498 248.895 207.869 246.266 209.537C244.959 210.367 247.621 203.364 248.106 202.66C248.628 201.903 251.779 198.198 252.893 200.142C253.265 200.792 253.343 203.29 252.371 201.673C250.444 198.469 250.205 193.986 249.282 190.415C248.704 188.175 250.384 196.314 250.138 197.666C249.598 200.629 247.272 192.324 246.396 189.442C246.061 188.337 243.835 178.929 245.478 183.915C246.704 187.636 245.269 182.919 244.855 181.802C243.853 179.102 244.224 174.377 247.484 178.76C250.328 182.583 257.339 195.072 254.786 191.049C252.899 188.075 252.478 182.076 250.021 179.819C248.575 178.49 250.903 183.647 251.462 185.529C253.133 191.147 255.089 196.673 256.815 202.273C257.444 204.316 259.397 213.537 255.873 207.066C255.356 206.117 251.424 196.639 249.796 197.587C246.57 199.466 252.585 212.75 253.657 214.923C256.553 220.795 251.933 212.471 250.567 210.917C250.548 210.895 247.83 207.92 247.978 208.877C248.472 212.079 250.325 215.546 251.477 218.523C252.941 222.308 254.451 226.079 256.145 229.768C258.521 234.94 256.536 229.352 256.006 228.01C253.755 222.305 251.449 216.233 248.511 210.839C245.903 206.049 252.036 221.174 254.207 226.178C254.488 226.824 257.564 233.815 257.961 234.696C258.468 235.823 259.256 239.164 259.656 237.994C260.578 235.297 257.032 228.101 256.228 225.602C254.501 220.237 248.78 204.398 251.356 209.411C253.364 213.317 255.208 217.308 257.17 221.238C258.588 224.078 260.225 229.246 262.729 231.422C263.772 232.329 262.244 228.695 261.841 227.373C260.361 222.514 258.664 217.738 256.916 212.97C256.09 210.717 253.359 204.123 254.674 206.13C256.714 209.246 257.799 213.576 259.31 216.952C260.96 220.638 262.664 224.307 264.556 227.877C266.713 231.947 265.331 227.522 264.984 226.163C262.864 217.881 260.175 209.682 256.965 201.755C254.036 194.519 262.73 216.272 265.971 223.374C267.365 226.43 270.851 235.777 270.339 232.457C269.649 227.99 267.625 223.453 265.999 219.282C264.245 214.784 262.375 210.323 260.44 205.9C259.144 202.94 255.599 193.964 256.379 197.099C257.302 200.812 259.922 204.75 261.634 208.089C264.549 213.773 267.658 219.355 270.578 225.036C273.904 231.505 269.712 221.714 269.107 219.989C268.028 216.909 266.813 213.873 265.774 210.779C264.939 208.29 267.892 215.586 268.901 218.01C270.651 222.214 272.439 226.417 273.959 230.711C274.427 232.033 276.702 236.811 275.131 238.31C272.979 240.365 268.747 235.746 267.286 234.675C266.538 234.127 263.462 232.116 263.172 234.288C262.765 237.33 263.755 236.438 265.218 235.159C265.454 234.952 269.328 232.58 269.549 233.106C270.001 234.18 263.519 238.059 262.601 238.496C258.73 240.34 264.484 235.349 265.049 234.921C268.337 232.434 271.848 229.817 275.796 228.516" stroke="#ACE1B7" stroke-width="4" stroke-linecap="round"/>
<path d="M124.242 188.413C119.103 180.178 131.632 206.486 136.893 214.645C136.969 214.762 140.087 220.431 138.618 217.279C136.057 211.786 133.489 206.347 130.603 201.013C130.162 200.197 127.761 194.927 129.349 199.294C131.43 205.014 133.848 210.549 136.173 216.173C137.281 218.854 138.409 221.63 139.352 224.385C140.183 226.812 139.867 226.733 138.822 224.796C134.816 217.373 131.364 209.596 128.216 201.776C126.9 198.508 124.282 193.834 124.087 190.184C123.869 186.103 128.198 197.266 129.875 200.993C131.32 204.202 132.392 206.673 133.817 209.878C134.76 212 136.629 218.435 136.891 216.128C137.061 214.632 135.938 213.268 135.346 211.884C133.269 207.027 130.961 202.267 128.739 197.477C126.554 192.763 123.867 187.987 122.164 183.064C120.377 177.896 128.709 191.853 131.498 196.556C133.924 200.647 136.47 205.143 138.773 209.311C138.784 209.331 142.897 218.494 143.842 218.879C145.199 219.433 142.8 216.14 142.285 214.769C140.341 209.589 138.366 204.425 136.366 199.266C134.329 194.012 132.359 188.816 131.23 183.281C129.72 175.88 135.028 184.965 136.101 186.65C141.966 195.865 147.591 205.814 151.574 216.005C155.396 225.787 148.547 214.166 147.47 212.057C143.971 205.202 140.645 198.211 137.524 191.177C137.102 190.225 131.702 178.199 136.466 184.747C142.76 193.398 148.219 202.925 153.068 212.446C154.697 215.644 156.589 219.726 158.006 223.089C158.072 223.245 160.754 229.755 157.997 224.31C154.226 216.861 150.842 209.191 147.404 201.585C145.306 196.944 143.986 194 142.056 189.357C140.889 186.549 138.197 181.769 138.202 178.48C138.203 177.715 139.752 178.916 140.268 179.48C144.419 184.016 147.938 189.369 151.346 194.45C157.55 203.698 163.279 213.275 168.127 223.307C175.095 237.727 155.373 193.925 148.813 179.315C148.044 177.602 142.729 166.729 148.286 173.76C156.829 184.571 163.45 197.109 169.327 209.508C169.425 209.714 177.311 229.398 177.073 229.377C174.98 229.184 174.71 225.889 173.742 224.023C170.182 217.161 167.038 210.079 163.754 203.084C159.589 194.212 155.397 185.354 151.274 176.463C149.778 173.237 146.854 167.25 151.389 174.006C156.116 181.047 160.502 188.317 164.991 195.509C168.071 200.443 176.176 215.651 174.65 210.039C172.632 202.618 168.081 195.245 164.567 188.487C160.577 180.813 155.933 173.329 152.651 165.307C147.269 152.153 167.506 189.607 173.579 202.458C175.646 206.831 180.942 218.358 176.401 216.691C171.794 214.998 168.477 208.244 166.164 204.393C163.436 199.848 160.872 195.2 157.428 191.138C153.01 185.928 154.977 192.018 156.161 194.894C159.764 203.637 164.82 211.825 170.099 219.641C171.384 221.543 172.383 222.993 173.782 224.709C175.438 226.74 174.134 224.777 173.908 224.459C171.324 220.814 163.381 210.052 165.653 213.899C166.408 215.177 170.842 216.642 169.751 217.387C164.61 220.898 159.099 224.473 152.98 225.974C151.508 226.335 149.269 226.976 148.11 225.605C147.753 225.182 146.688 223.791 147.421 223.272C150.051 221.407 153.426 227.182 153.732 228.924C154.847 235.27 145.171 236.521 143.151 230.853C141.014 224.854 148.283 220.157 153.498 221.213C157.086 221.94 160.703 223.902 163.954 225.533C164.388 225.751 168.597 227.377 166.504 228.172C161.698 229.998 150.752 224.355 149.519 219.355C147.707 212.006 164.065 215.694 166.634 218.33C168.455 220.198 169.615 223.983 167.365 226.062C163.191 229.918 155.124 224.556 151.799 222.168C146.429 218.311 140.022 212.41 139.507 205.308C139.146 200.335 142.52 194.631 147.477 193.3C154.724 191.353 160.946 204.418 155.135 203.622C149.885 202.903 145.229 198.281 141.697 194.719C141.452 194.472 135.591 188.047 135.591 188.047C134.855 188.905 135.871 190.411 134.344 191.074C131.859 192.153 128.589 189.454 126.942 187.964C120.1 181.774 127.393 178.099 132.985 175C133.256 174.85 138.038 172.237 137.561 173.898C137.555 173.92 138.666 171.36 138.915 170.921C140.717 167.743 143.14 165.038 145.997 162.774C149.749 159.802 149.75 162.641 147.641 165.52C146.27 167.391 139.088 170.797 142.071 166.379C143.651 164.038 149.989 157.811 151.491 162.915C152.261 165.533 150.283 182.112 144.93 179.354C140.882 177.269 146.038 171.487 149.254 174.27C154.104 178.465 155.006 195.028 146.388 195.643C139.677 196.123 135.616 188.173 132.518 183.511C130.587 180.605 129.626 192.686 128.302 193.786C124.614 196.851 119.661 184.279 120.029 181.614C120.562 177.753 123.75 179.871 125.255 181.731C127.593 184.62 130.257 189.02 130.466 192.859C130.812 199.202 122.556 192.548 121.182 190.797C119.366 188.484 121.246 190.845 121.733 192.229C123.47 197.171 124.475 202.318 126.851 207.03C130.524 214.314 133.819 208.993 139.022 206.438C149.878 201.108 151.657 216.293 152.394 223.889C152.431 224.264 153.135 227.884 152.481 228.292C152.399 228.343 153.297 224.672 153.378 224.495C155.995 218.777 161.408 215.166 167.523 217.896C168.85 218.488 172.024 220.451 171.663 222.3C171.326 224.032 168.725 227.44 167.409 225.066C166.485 223.399 170.664 222.659 171.53 222.716C173.268 222.831 171.32 227.555 170.474 228.054C168.422 229.267 173.573 223.82 175.924 223.423C177.114 223.222 182.169 224.734 180.61 223.029" stroke="#ACE1B7" stroke-width="4" stroke-linecap="round"/>
<path d="M212.329 270.942C206.718 274.696 199.841 277.997 194.84 282.573C193.356 283.931 200.95 279.945 201.469 279.605C206.802 276.117 211.173 271.876 216.082 267.923C218.942 265.621 211.823 273.934 209.315 276.615C208.447 277.543 207.069 279.599 205.844 280.183C203.518 281.291 209.063 276.127 210.985 274.412C213.764 271.934 216.782 269.741 219.698 267.431C221.259 266.196 224.301 262.703 226.517 262.49C227.649 262.381 225.957 264.729 225.364 265.7C222.711 270.049 219.514 274.133 216.297 278.076C214.486 280.297 212.424 282.087 210.477 284.149C209.51 285.173 212.693 282.406 213.718 281.44C216.711 278.622 219.672 275.769 222.737 273.028C225.021 270.985 228.618 266.762 231.799 265.96C233.142 265.621 231.37 268.763 230.669 269.958C227.682 275.049 223.771 279.486 219.515 283.546C217.326 285.633 214.984 287.542 212.768 289.597C210.586 291.621 211.569 291.261 213.566 290.067C219.732 286.379 225.345 280.128 232.349 278.071C240.719 275.613 205.179 299.752 212.741 295.403C220.987 290.659 228.666 284.764 236.179 278.964C239.113 276.699 242.104 274.529 245.075 272.317C246.624 271.164 242.408 275.11 241.035 276.467C234.805 282.629 227.448 286.444 220.447 291.511C214.386 295.896 223.849 294.735 226.419 293.688C227.427 293.277 241.917 284.167 240.069 282.813C238.876 281.939 234.361 284.286 233.809 284.538C227.142 287.571 220.883 291.538 214.512 295.129C210.676 297.291 206.861 299.49 203.024 301.648C202.596 301.89 200.35 303.167 199.597 303.364C199.276 303.448 199.433 302.627 199.641 302.368C205.804 294.717 213.334 288.626 217.752 279.598C218.067 278.955 219.969 275.5 219.196 274.431C218.024 272.81 211.885 277.812 211.277 278.224C207.354 280.884 203.62 283.727 199.843 286.581C198.896 287.296 196.291 289.537 194.826 288.673C191.729 286.848 205.325 275.788 206.173 275.056C207.476 273.933 210.328 270.786 212.294 270.288C214.413 269.751 210.268 274.219 208.799 275.837C204.388 280.697 198.644 286.568 191.764 287.63C189.266 288.015 192.534 284.582 192.686 284.422C196.179 280.729 200.539 277.212 205.192 275.108C214.527 270.889 210.099 281.658 207.461 285.537C205.33 288.671 196.715 296.2 199.167 293.311C203.495 288.209 212.043 284.048 218.05 281.53C219.785 280.803 224.084 278.829 226.079 280.159C227.861 281.347 226.514 282.86 226.244 284.221" stroke="#ACE1B7" stroke-width="4" stroke-linecap="round"/>
<path d="M272.288 55.805C276.266 61.4168 281.018 66.6802 285.716 71.6978C287.978 74.1131 284.62 68.9354 284.335 68.5157C281.164 63.8345 278.349 58.9243 275.177 54.2384C274.968 53.9287 270.215 46.9342 273.865 50.2216C278.369 54.2774 281.988 59.2252 286.552 63.2292C290.793 66.9495 289.576 63.3979 287.903 60.4497C285.104 55.5164 281.56 51.0706 278.146 46.5615C274.964 42.3575 276.57 44.0824 279.048 46.8509C279.888 47.7891 284.526 53.3932 286.142 52.8764C286.66 52.7105 281.867 45.1078 281.581 44.6801C281.034 43.8638 278.206 39.3573 278.26 39.3911C281 41.1093 283.728 43.0276 286.651 44.4253C291.429 46.7106 282.325 31.9267 281.095 32.5588C280.486 32.872 281.848 33.7039 282.247 34.2599C284.229 37.0153 286.153 39.8145 288.173 42.5422C288.707 43.2631 296.944 53.3382 293.62 48.3604C289.967 42.8911 285.869 37.7589 281.677 32.6998C281.492 32.4759 275.777 24.6242 279.097 28.582C284.049 34.4856 288.633 40.7001 293.463 46.7034C294.787 48.3496 295.379 49.0715 296.588 50.5065C297.635 51.7501 294.533 47.9862 293.5 46.7307C287.477 39.4097 268.724 18.2753 273.617 26.3949C276.059 30.4464 279.424 34.4305 280.991 38.9367C282.556 43.4345 273.442 34.0983 273.301 33.9592C272.778 33.4429 265.344 25.2734 264.359 25.7797C263.376 26.2849 269.321 36.472 269.706 37.1509C270.011 37.6881 274.996 47.4921 274.895 47.4917C272.879 47.4846 267.619 38.2023 266.439 36.699C264.664 34.4382 259.617 30.0839 259.158 27.1095C259.035 26.3107 260.239 28.317 260.699 28.9813C263.627 33.206 266.23 37.6673 268.973 42.0107C271.617 46.1985 272.568 47.6706 275.129 51.5759C276.059 52.9941 279.405 55.7965 277.717 55.9562C275.101 56.2037 268.781 44.989 267.502 43.1605C265.754 40.662 260.959 33.1346 263.374 34.9963C264.272 35.6878 266.066 38.4966 266.353 38.9208C269.23 43.1733 272.032 47.4834 274.832 51.7865C277.326 55.6195 284.095 67.5363 282.099 63.4219C279.882 58.8514 276.91 54.5453 274.381 50.1421C274.144 49.73 270.998 44.2318 270.677 43.6595C269.838 42.1603 266.851 38.52 268.506 38.9842C269.77 39.339 270.222 40.9799 270.959 42.0668C274.015 46.5731 276.781 51.2852 279.624 55.9257C280.226 56.9078 291.154 75.7967 291.749 75.5466C292.44 75.2559 283.886 56.9461 283.307 55.6541C282.748 54.4084 276.104 41.3578 277.522 40.1642C278.274 39.5306 289.155 58.2239 289.86 59.4556C290.445 60.4773 297.49 74.5676 295.049 65.742C293.261 59.2779 290.973 52.9538 288.707 46.6461C288.468 45.981 284.873 36.5719 287.053 42.1217C290.56 51.0464 294.297 59.8747 298.136 68.6608C298.732 70.0229 303.956 82.7965 300.927 73.9327C298.229 66.0353 295.2 58.2181 292.224 50.4217C291.89 49.5477 290.528 45.9776 289.848 44.8548C288.954 43.3775 290.093 48.3214 290.542 49.989C293.562 61.2065 297.329 72.2092 301.04 83.2107C301.836 85.5686 305.612 94.8452 301.124 87.8126C297.355 81.906 293.852 75.8761 290.459 69.7465C289.228 67.5228 287.554 64.4758 286.265 62.2188C285.87 61.529 285.476 60.8387 285.058 60.1636C284.49 59.2493 284.305 59.0167 284.731 60.1811C287.358 67.3686 290.977 74.3304 294.456 81.1281C295.393 82.9576 297.749 87.4135 298.898 89.4086C299.393 90.267 301.134 92.4362 301.059 91.4486C300.544 84.7094 294.905 77.6739 291.225 72.3641C289.277 69.5534 284.163 60.9972 284.814 64.3545C286.315 72.0968 291.665 80.1039 295.08 87.097C296.014 89.0086 298.009 93.1884 299.277 95.2835C300.026 96.52 301.269 97.9955 301.289 95.5005C301.347 88.1455 299.135 80.205 297.44 73.1193C295.947 66.8799 293.881 60.783 292.399 54.548C291.552 50.9845 296.138 56.4649 296.321 56.6788C297.974 58.6123 302.957 67.5037 305.967 67.2877C309.514 67.0332 303.605 53.7472 303.271 52.8045" stroke="#ACE1B7" stroke-width="4" stroke-linecap="round"/>
<path d="M59.1457 174.131C64.7762 170.139 62.1041 180.67 61.7005 182.571C60.8624 186.517 60.9493 191.044 59.8383 194.856C58.1558 200.63 61.7052 182.921 63.5756 177.205C64.5001 174.38 67.403 165.947 66.4945 168.778C65.6976 171.261 64.7097 173.671 63.803 176.115C60.9257 183.87 58.2916 191.762 55.7636 199.638C54.148 204.672 60.6183 190.245 63.0145 185.532C63.9142 183.763 66.6371 178.471 65.8308 180.285C64.4178 183.464 62.8559 186.535 61.56 189.778C59.3706 195.258 54.3971 212.266 56.2893 206.677C57.1045 204.269 58.047 201.911 58.8397 199.493C59.3152 198.043 61.1541 194.009 60.0712 195.084C58.282 196.861 57.1635 199.802 55.7101 201.855C54.301 203.846 52.1205 205.824 51.2422 208.148C50.5554 209.965 53.0248 207.997 53.2383 207.84C55.7801 205.968 57.9664 203.724 59.9749 201.296C61.341 199.644 63.1962 197.611 63.7891 195.466C64.0755 194.431 63.0174 193.51 62.7154 192.567C61.0646 187.407 61.91 181.823 62.2229 176.557C62.2265 176.496 62.1949 170.849 62.0768 170.91C61.0553 171.435 60.123 177.716 59.8412 178.638C58.832 181.939 54.9684 191.886 53.6212 182.762C53.0161 178.664 53.5191 174.481 54.7007 170.531C55.0484 169.369 57.8898 160.514 60.2695 161.333C62.4023 162.066 62.1588 172.406 59.9546 171.896C55.93 170.965 54.3135 158.566 54.278 155.401C54.2416 152.147 56.2265 155.352 56.6983 156.346C58.8127 160.798 60.0573 165.705 61.4723 170.41C61.4961 170.489 62.9849 176.216 62.8935 175.135C62.6245 171.948 62.6056 168.795 63.2758 165.648C63.6381 163.947 69.1696 151.099 70.3462 158.064C71.1563 162.858 70.3001 173.569 66.5776 177.434C65.7065 178.338 66.0573 174.882 66.3926 173.672C67.4917 169.706 69.1333 165.912 70.992 162.249C72.2392 159.792 73.6194 155.874 75.677 153.945C75.9633 153.677 76.1628 154.635 76.1406 155.027C75.9726 157.996 74.8828 160.92 73.8831 163.682C72.2942 168.072 70.544 172.447 68.7123 176.742C67.2674 180.13 68.027 177.498 68.8506 175.93C72.5746 168.84 79.4812 162.462 81.2253 154.44C81.7155 152.185 79.2245 158.6 78.1617 160.649C76.0501 164.718 73.8221 168.72 71.8016 172.837C71.7341 172.975 69.8436 177.687 69.312 177.638C69.0555 177.615 72.1891 168.603 72.2678 168.381C73.8491 163.931 75.4929 159.385 76.086 154.673C76.353 152.552 76.2379 150.692 73.9748 152.527C70.1135 155.656 66.0003 163.029 61.0734 164.406C58.0095 165.262 64.0252 151.789 64.951 150.656C65.6211 149.835 68.0011 147.121 68.8068 149.368C69.7325 151.95 68.2815 152.333 66.6265 153.397" stroke="#ACE1B7" stroke-width="4" stroke-linecap="round"/>
<path d="M67.0501 102.305C66.8375 104.275 65.8981 106.394 64.982 108.129C64.5605 108.927 62.0668 111.955 63.1446 109.039C64.3381 105.809 70.1858 97.2048 68.3618 100.125C67.2491 101.906 67.2599 104.181 66.4474 106.09C66.3645 106.285 64.7741 108.653 64.9568 107.111C65.2301 104.803 66.8664 102.461 67.9186 100.457C67.9983 100.305 70.8217 95.2279 70.5751 97.8055C70.2113 101.607 65.2382 111.97 65.7152 108.18C65.9824 106.058 71.9112 97.3826 72.2103 99.0035C72.7548 101.954 72.2252 105.517 71.241 108.317C71.0955 108.73 68.9862 111.914 69.8275 110.051C72.1778 104.846 79.1829 99.9963 84.6686 98.9932C87.7785 98.4245 87.4204 99.1579 89.9628 96.1326C92.7046 92.8701 101.855 84.3281 99.9359 88.1331C96.7571 94.4352 87.1007 96.8251 81.2359 99.3909C81.0382 99.4775 77.8264 101.334 78.891 100.643C81.6785 98.8326 84.3949 96.8968 87.1586 95.049C89.1317 93.7298 92.6543 90.4217 95.2831 90.664C97.1939 90.8401 92.1985 95.5234 92.0035 95.6859C91.1017 96.4372 79.312 103.33 79.2858 102.988C79.1433 101.125 86.7633 93.9348 88.6046 94.1666C89.0792 94.2264 87.9785 94.8903 87.6491 95.237C86.3446 96.61 85.0987 98.0408 83.7747 99.3948C81.836 101.377 79.7811 102.833 77.4386 104.262" stroke="#ACE1B7" stroke-width="4" stroke-linecap="round"/>
<path d="M94.2499 317.047C90.6662 319.755 93.162 311.048 94.5537 309.616C98.3612 305.701 98.6949 310.211 98.0726 313.622C97.7885 315.179 94.0627 325.569 92.6559 319.534C91.7539 315.665 94.3355 309.126 99.2448 309.684C104.428 310.273 101.267 322.863 99.2714 325.238C97.4855 327.363 95.0704 326.304 93.9607 324.146C92.2534 320.825 92.3103 316.385 93.5496 312.936C95.4487 307.65 102.644 298.674 106.753 307.075C108.253 310.14 108.813 314.236 108.447 317.625C108.248 319.473 106.883 320.562 105.575 318.662C102.486 314.175 102.431 304.999 106.781 301.269C112.873 296.045 114.136 309.01 113.567 312.352C112.351 319.491 109.318 314.079 108.28 310.136C107.975 308.974 107.674 296.869 110.248 301.525C112.079 304.835 113.071 308.798 114.166 312.392C114.658 314.007 115.079 315.505 115.491 317.132C115.635 317.702 115.307 318.94 115.888 318.851C116.205 318.802 112.627 303.756 112.453 302.57C111.22 294.165 119.952 308.721 120.942 310.16C121.149 310.461 126.566 317.828 126.756 317.503C127.998 315.371 121.954 309.462 120.745 308.245C118.927 306.414 116.796 304.79 115.128 302.816C114.096 301.595 117.839 304.517 119.129 305.462C124.422 309.34 129.708 314.261 135.838 316.761C140.739 318.761 126.308 311.969 121.182 310.65C119.463 310.208 114.594 308.621 113.123 310.542C111.715 312.38 114.517 315.136 115.696 316.111C117.584 317.672 127.896 323.736 130.033 319.734C131.58 316.837 113.332 320.568 112.399 320.806C108.404 321.828 104.335 322.814 100.415 324.106C99.9778 324.25 96.9252 325.492 99.6898 324.745C108.454 322.378 116.775 318.761 125.465 316.186C126.464 315.89 129.501 315.27 128.556 315.709C124.619 317.538 120.524 319.143 116.466 320.673C111.714 322.465 106.88 323.67 102.016 325.078C100.432 325.537 96.1822 326.71 97.6649 327.431C99.5117 328.328 104.042 326.369 105.669 325.899C110.707 324.446 115.697 322.832 120.721 321.335C121.34 321.151 127.226 318.85 127.879 320.297C128.681 322.073 122.288 324.899 121.617 325.218C116.865 327.477 111.798 328.895 106.649 329.901C106.244 329.98 100.581 331.476 100.017 330.925C99.6204 330.537 100.94 330.306 101.431 330.047C103.09 329.17 104.611 328.398 106.324 327.578C111.578 325.064 116.953 322.75 122.348 320.557C122.937 320.318 129.675 317.069 130.523 318.636C131.162 319.816 123.763 321.922 123.558 321.985C119.129 323.363 107.691 327.553 104.105 323.24" stroke="#ACE1B7" stroke-width="4" stroke-linecap="round"/>
<path d="M154.435 314.881C154.761 316.991 154.169 310.585 154.502 308.476C155.07 304.878 153.075 318.003 149.436 318.157C148.48 318.198 151.725 312.049 151.858 311.85C153.569 309.301 157.692 303.114 161.033 302.524C163.794 302.036 157.553 316.488 157.271 315.102C156.534 311.476 163.472 299.407 167.821 301.015C173.099 302.965 166.077 318.773 162.584 315.14C159.582 312.017 168.621 301.286 172.435 305.709C173.898 307.405 173.687 310.288 171.395 311.143C167.972 312.42 163.45 310.307 161.412 307.541C157.766 302.595 167.364 299.2 170.277 302.614C172.386 305.086 168.688 307.671 166.747 308.366C163.444 309.549 159.27 308.854 156.369 306.902C153.037 304.66 158.465 303.581 158.718 308.88C158.843 311.511 153.996 317.486 153.629 312.863C153.433 310.382 161.274 300.613 161.996 301.716C162.835 302.996 159.276 307.152 158.569 307.914C156.82 309.798 153.761 311.578 151.08 310.652C147.256 309.331 157.641 299.92 159.001 299.178C159.895 298.69 161.86 298 161.215 299.858C160.322 302.434 157.592 304.513 155.264 305.721C154.236 306.254 152.006 307.395 150.764 307.108C149.97 306.924 152.414 306.5 153.183 306.767C157.446 308.246 148.71 316.203 147.048 317.207C145.212 318.317 140.257 320.115 144.46 316.881C147.032 314.901 149.905 313.35 152.517 311.419C154.656 309.838 154.828 309.91 152.621 311.667C149.627 314.049 145.129 318.031 141.171 318.641C140.41 318.759 142.075 317.367 142.681 316.892C146.349 314.02 149.87 311.241 154.274 309.566C157.077 308.5 155.618 310.149 154.295 311.408C150.322 315.191 145.419 317.541 140.686 320.2C137.566 321.953 128.408 327.017 130.776 324.333C133.584 321.15 138.713 320.007 142.137 317.635C143.47 316.712 141.202 316.988 140.697 317.066C137.385 317.578 134.159 318.603 130.828 319.117C125.988 319.863 123.333 320.29 122.425 315.073C121.697 310.892 115.359 314.036 113.006 315.34C110.019 316.995 107.606 319.636 104.407 317.293C101.293 315.011 101.023 317.283 99.5319 320.517C98.4224 322.924 96.5875 327.164 99.5255 322.826C100.61 321.224 98.7509 327.313 98.3563 328.28" stroke="#ACE1B7" stroke-width="4" stroke-linecap="round"/>
<path d="M150.294 201.384C150.408 200.892 153.246 207.033 153.533 207.798C153.794 208.493 155.59 214.131 154.298 210.596C152.98 206.99 151.04 202.848 150.675 198.993C150.242 194.414 155.005 207.112 156.983 211.265C160.459 218.561 156.235 209.647 155.323 207.522C154.947 206.646 152.123 197.118 153.799 199.261C156.624 202.875 163.118 215.055 161.02 210.975C159.064 207.169 156.543 203.566 154.278 199.937C154.201 199.814 157.726 207.528 158.56 209.605C160.797 215.174 156.212 211.721 154.563 209.347C153.94 208.449 151.021 201.803 152.298 203.574C153.69 205.503 156.801 210.679 156.487 213.174C156.097 216.273 152.847 208.096 151.097 205.509C149.435 203.05 151.961 211.58 152.271 212.575C153.339 216.006 149.135 206.108 147.528 202.894C146.188 200.212 148.815 204.935 150.552 204.135C151.661 203.625 147.335 197.622 148.089 195.727C149.032 193.355 153.057 193.491 154.035 195.392C154.724 196.734 155.482 198.072 154.547 199.52C154.198 200.06 157.438 200.394 158.3 200.899C165.118 204.895 157.352 216.369 153.223 213.344C151.452 212.047 154.936 210.665 155.819 210.736C158.074 210.918 158.43 213.258 155.851 213.105C150.714 212.8 145.862 195.449 149.592 198.993C150.049 199.428 150.39 202.119 149.966 201.685C149.191 200.891 148.579 197.69 148.984 196.672C149.359 195.728 158.103 206.456 151.027 201.271" stroke="#A0BDF9" stroke-width="4" stroke-linecap="round"/>
<path d="M277.362 28.8373C270.906 25.9832 275.442 35.9348 276.634 38.6959C278.765 43.6276 281.667 48.4856 284.133 53.2828C285.412 55.7702 288.42 57.2641 289.431 59.546C291.241 63.6306 291.208 68.6096 293.662 72.3881C296.292 76.4393 299.454 80.5585 302.286 84.5522C303.47 86.222 309.299 92.1336 307.416 92.4241" stroke="#A0BDF9" stroke-width="4" stroke-linecap="round"/>
<path d="M253.613 210.183C255.4 210.488 259.304 220.272 259.814 221.222" stroke="#A0BDF9" stroke-width="4" stroke-linecap="round"/>
<path d="M51.9361 343.553C51.4593 345.077 51.3965 346.806 51.8587 348.776C55.1365 362.749 45.3727 335.666 50.9635 342.172C51.3366 342.606 51.6593 343.068 51.9361 343.553C54.8401 334.269 73.1019 332.572 81.639 330.006C90.1829 327.437 99.0317 327.723 107.941 325.045C112.996 323.525 118.031 322.134 123.266 321.639C128.974 321.098 134.111 318.421 139.752 317.665C145.76 316.86 151.413 314.923 157.234 313.174C163.207 311.378 169.686 310.94 175.783 309.616C187.748 307.018 200.143 308.013 212.134 305.453C221.736 303.404 232.565 304.276 241.991 301.442C248.67 299.435 255.897 298.244 262.754 296.183C265.94 295.225 269.458 296.017 272.514 295.213C275.798 294.349 278.991 293.089 282.288 292.275C288.513 290.739 294.883 291.435 301.315 289.501C307.367 287.682 316.968 286.113 323.107 286.66C324.372 286.773 328.346 286.223 329.435 285.958C331.611 285.427 333.301 285.778 335.704 285.055C340.561 283.595 345.391 285.089 350.01 283.701C355.275 282.118 356.948 294.091 357.825 297.007C363.829 316.982 365.547 338.225 369.773 358.711C372.687 372.837 371.272 387.714 373.265 401.955C375.453 417.591 375.932 433.474 377.653 449.184C379.116 462.545 381.735 475.829 383.952 489.075C386.278 502.976 391.188 516.645 392.634 530.65C393.984 543.722 399.371 556.176 400.636 569.156C402.023 583.381 408.356 598.602 394.339 610.652C383.278 620.161 366.426 628 352.469 632.511C332.096 639.096 311.944 646.451 291.148 651.707C269.825 657.096 248.312 662.451 226.808 666.902C202.656 671.901 177.332 672.635 153.032 672.059C128.205 671.471 95.7452 673.751 80.7869 653.3C76.943 648.045 75.4569 638.934 74.0311 632.639C72.0735 623.995 70.1813 615.103 68.79 606.34C64.193 577.384 52.0503 551.405 44.442 523.326C39.7473 505.999 34.3793 488.193 31.2862 470.495C29.1473 458.257 26.1348 445.688 26.5765 433.072C27.073 418.893 34.931 405.153 39.6954 391.708C41.6291 386.251 43.5147 380.979 44.8536 375.429C45.4921 372.783 47.9592 370.118 48.6626 367.956C50.6886 361.729 55.8067 350.334 51.9361 343.553Z" fill="black" fill-opacity="0.1"/>
<path d="M52.4391 350.642C51.8769 352.239 51.764 354.046 52.2211 356.1C55.4626 370.668 45.4363 342.462 51.4068 349.209C51.8053 349.659 52.1477 350.138 52.4391 350.642C55.8631 340.919 75.9501 338.983 85.3856 336.226C94.8287 333.467 104.534 333.687 114.38 330.81C119.968 329.177 125.529 327.679 131.288 327.115C137.567 326.499 143.273 323.657 149.484 322.817C156.098 321.922 162.353 319.849 168.786 317.969C175.387 316.041 182.51 315.525 189.236 314.088C202.435 311.267 216.013 312.196 229.24 309.416C239.831 307.189 251.695 308.004 262.113 304.96C269.494 302.803 277.457 301.495 285.035 299.281C288.557 298.252 292.398 299.048 295.772 298.181C299.399 297.249 302.936 295.904 306.575 295.025C313.446 293.364 320.421 294.035 327.529 291.958C334.219 290.003 344.797 288.279 351.52 288.796C352.906 288.902 357.281 288.293 358.484 288.006C360.885 287.432 362.732 287.783 365.387 287.007C370.756 285.439 376.019 286.956 381.124 285.465C386.942 283.765 388.474 296.257 389.362 299.296C395.443 320.109 396.787 342.286 400.903 363.649C403.742 378.38 401.81 393.935 403.634 408.794C405.637 425.109 405.759 441.698 407.246 458.094C408.512 472.039 411.048 485.892 413.144 499.711C415.343 514.212 420.383 528.448 421.614 543.066C422.762 556.71 428.358 569.672 429.416 583.221C430.575 598.069 437.137 613.913 421.446 626.626C409.063 636.658 390.367 644.997 374.933 649.834C352.405 656.894 330.099 664.758 307.14 670.433C283.599 676.253 259.85 682.038 236.134 686.879C209.499 692.316 181.685 693.309 155.028 692.923C127.794 692.529 92.1082 695.2 76.2114 673.97C72.1265 668.514 70.7275 659.008 69.323 652.445C67.3946 643.433 65.5444 634.16 64.2407 625.018C59.933 594.81 47.2675 567.779 39.6324 538.512C34.9212 520.454 29.4831 501.9 26.5392 483.439C24.5035 470.673 21.5174 457.569 22.3237 444.386C23.23 429.569 32.2049 415.145 37.7769 401.057C40.0382 395.34 42.2423 389.815 43.8533 384.006C44.6215 381.235 47.3971 378.43 48.2243 376.165C50.6068 369.642 56.5146 357.693 52.4391 350.642Z" fill="white"/>
<path d="M245.408 21.0567C245.699 20.6153 246.009 20.1862 246.291 19.7298C246.638 19.1679 246.91 18.0664 247.557 17.7526C248.576 17.2581 249.992 28.3991 251.836 26.6966C254.358 24.3682 256.652 21.4996 258.621 18.7032C260.608 15.8809 262.362 14.0488 265.868 13.5078C267.399 13.2716 267.55 13.4546 267.988 15.008C269.005 18.6217 267.139 22.0721 266.54 25.5907C266.413 26.3376 266.211 27.3026 267.25 27.1574C268.95 26.9195 270.556 26.0867 272.162 25.5236C276.214 24.1032 280.37 22.445 284.633 21.7873L284.658 21.7835C285.66 21.6287 288.341 21.2148 288.598 22.6252C289.073 25.2378 287.728 26.924 286.15 28.9011L286.09 28.9771C284.979 30.3697 283.027 32.0348 285.636 32.5958C288.822 33.281 292.353 32.1261 295.306 33.8068C297.098 34.8265 296.07 35.4742 294.806 36.8287C293.284 38.4611 289.773 40.8503 290.515 43.4707C291.441 46.739 295.42 49.0595 297.275 51.8508C299.425 55.0856 296.401 55.0719 293.811 54.6504C292.715 54.4721 290.92 54.1099 289.996 54.9823C288.663 56.2412 290.43 59.5536 290.992 60.7483C291.428 61.6764 296.847 71.3448 291.85 69.148C290.144 68.398 281.702 60.6985 281.225 66.0606C281.084 67.6509 284.067 78.5065 281.914 78.7449C280.233 78.9309 278.694 76.0358 277.921 74.9818C277.29 74.1228 275.197 70.3582 273.753 70.581C272.807 70.727 273.277 75.2741 273.305 75.7996C273.476 78.9956 274.206 82.6345 273.18 85.7553C272.829 86.8233 271.783 87.9861 270.609 87.1033C268.239 85.3209 267.597 81.0638 266.709 78.4633C266.229 77.0563 265.485 73.6417 263.866 72.9523C262.527 72.3824 261.406 76.0222 261.059 76.783C260.038 79.0228 259.043 81.28 257.972 83.496C256.931 85.6502 255.659 89.133 253.143 89.9794C249.2 91.3063 250.089 83.8941 249.839 81.5797C249.638 79.7198 248.394 78.2421 246.803 80.2058C242.743 85.2186 240.419 91.6412 235.356 95.8648C233.954 97.0351 232.155 97.9758 230.285 98.0365C228.128 98.1066 228.288 95.4216 228.568 93.9524C229.064 91.3485 230.278 88.9626 230.746 86.3378C231.199 83.7916 231.425 81.2308 230.862 78.6786C229.576 72.8457 224.414 79.0634 222.564 81.0764C220.667 83.142 218.673 85.2121 216.351 86.807C214.128 88.3341 211.579 89.2765 209.316 90.7315C208.049 91.5457 206.2 93.3648 206.972 90.5192C208.001 86.7329 210.402 83.4727 211.383 79.6607C212.185 76.5412 211.473 74.0701 207.907 75.9234C204.017 77.9444 200.603 80.7024 196.39 82.1249C194.667 82.7069 192.668 83.5421 194.407 81.3134C195.593 79.7936 196.804 78.1734 198.203 76.8468C199.837 75.2985 201.921 74.411 203.614 72.9615C206.731 70.2927 203.483 68.188 200.702 67.5969C195.032 66.3916 189.219 66.3706 183.688 64.3932C183.034 64.1593 180.698 63.5567 180.573 62.6085C180.394 61.2448 184.402 60.8989 185.07 60.8274C187.687 60.5471 190.285 60.7878 192.902 60.8875C193.726 60.9189 197.164 61.4228 197.373 60.0164C197.577 58.6455 195.779 56.8965 194.963 56.0393C192.914 53.8868 190.556 51.9896 188.302 50.0601C187.585 49.4465 185.418 48.0549 185.358 46.9354C185.303 45.912 189.722 46.9972 190.17 47.1072L190.187 47.1114C192.27 47.6215 194.217 48.4949 196.274 49.0718C199.094 49.863 196.39 46.5653 195.732 45.5613C193.797 42.6116 190.613 39.782 189.403 36.4503C188.639 34.3458 192.217 35.5317 192.866 35.7952C196.037 37.0833 198.79 39.1678 201.802 40.7589C203.563 41.6897 204.229 41.8488 202.955 39.9165C201.244 37.3209 199.134 34.9582 197.115 32.6026C195.363 30.5587 192.653 28.1386 191.902 25.4337C191.524 24.0753 193.469 24.6251 194.031 24.8484C196.679 25.8998 198.994 27.6174 201.208 29.3738L201.217 29.3815C201.383 29.5129 203.033 30.8246 202.935 30.5872C202.185 28.7706 200.764 27.1203 199.729 25.4644C199.502 25.1013 197.602 22.4033 198.973 22.2286C201.518 21.9042 205.14 25.7133 206.957 27.0974C206.983 27.1171 210.094 29.4631 210.172 29.1384C210.476 27.8597 208.73 25.5296 208.265 24.419C208.113 24.0551 206.951 21.7856 208.223 22.2813C210.86 23.3095 213.198 25.4573 215.524 27.029C215.75 27.1817 218.534 29.4136 218.518 28.4245C218.484 26.3331 217.304 24.3337 216.709 22.3763C216.507 21.7124 215.61 19.3388 217.152 19.5746C219.925 19.9984 222.596 22.8739 224.709 24.5094C224.926 24.6771 227.689 27.3041 227.61 25.8891C227.472 23.4246 226.172 21.0723 225.796 18.6336C225.616 17.4682 225.228 14.5647 227.031 14.3054C229.416 13.9623 232.171 17.7115 233.523 19.193C234.434 20.1908 235.268 21.3234 236.299 22.2078C237.392 23.1456 235.379 19.4778 234.898 18.1201C234.498 16.9888 233.004 14.3009 233.421 13.0476C233.725 12.1326 237.336 17.2301 237.446 17.4098C238.66 19.386 239.92 21.4086 240.965 23.4811C241.603 24.7442 241.393 23.6036 241.323 22.7616C241.183 21.0804 240.93 19.2398 241.4 17.5851C242.044 15.3178 243.639 17.728 244.223 18.6596C244.643 19.3292 245.005 20.2033 245.408 21.0567Z" fill="#FF1212" fill-opacity="0.3"/>
<path d="M221.562 68.0528C218.877 68.404 226.62 66.0912 229.23 65.3682C232.115 64.5688 235.394 64.2194 238.125 62.9783C240.091 62.0848 242.751 61.8023 244.926 61.9773C247.386 62.1754 249.79 61.4032 252.139 60.7923C257.814 59.3164 264.227 58.5757 269.357 55.9503C271.424 54.892 270.691 50.8549 270.535 49.1203C270.299 46.4803 269.467 43.756 268.775 41.0973C268.174 38.7851 267.617 37.3086 265.441 36.2465C262.848 34.9801 258.855 36.0853 256.104 36.1995C254.755 36.2555 253.543 36.7192 252.21 36.8667C250.766 37.0267 249.392 36.665 247.951 37.015C245.056 37.7181 242.093 37.916 239.192 38.6019C234.751 39.6522 230.136 40.3937 225.689 41.4226C220.046 42.7284 214.037 43.02 212.447 49.5285C211.966 51.4993 213.034 53.8503 213.542 55.8057C214.127 58.055 214.425 60.5263 215.028 62.8448C215.214 63.5622 215.408 65.7359 216.053 66.051C216.629 66.332 216.927 66.7443 217.231 67.2604C217.384 67.5195 218.144 67.2372 218.434 67.3121C220.665 67.8881 222.691 67.0685 224.953 66.4805" stroke="#F50C0C" stroke-width="4" stroke-linecap="round"/>
<path d="M275.229 42.0093C275.601 43.4403 276.182 46.1078 275.808 47.5572C275.254 49.7048 279.143 47.1525 279.056 46.1754C278.884 44.258 277.919 42.2493 276.222 41.2523C275.877 41.0497 275.584 41.3059 275.236 41.2976C274.943 41.2906 275.006 40.7243 274.74 40.7934C274.648 40.8173 274.828 42.9292 274.852 43.1434C275.021 44.6341 276.267 46.5474 276.024 48.0191C275.678 50.1143 276.563 50.2965 278.302 49.8442C280.048 49.3902 280.553 47.6677 280.049 45.9363C279.474 43.9583 278.33 42.9126 276.846 41.5887" stroke="#F50C0C" stroke-width="4" stroke-linecap="round"/>
<path d="M218.877 49.7561C217.59 45.8332 222.381 65.889 221.342 61.8935" stroke="#F50C0C" stroke-width="4" stroke-linecap="round"/>
</g>
<g filter="url(#filter2_d_278_1390)">
<path d="M93.128 94.3144C97.6758 93.3173 101.634 93.7228 105.228 95.3141C108.883 96.9329 112.009 99.7115 114.949 103.12L115.613 103.91C122.246 112.013 125.336 122.314 122.311 132.71L122.158 133.222C120.566 138.356 117.594 142.976 114.549 147.295C111.638 151.424 108.71 155.219 106.462 159.184L106.022 159.981C101.975 167.478 99.2876 177.842 99.1402 186.48L99.1339 187.31C99.137 188.816 99.3418 190.993 99.9467 192.867C100.585 194.844 101.457 195.867 102.362 196.143L102.68 196.232C103.066 196.331 103.467 196.398 103.878 196.44C103.769 195.543 103.713 194.645 103.694 193.768C103.632 190.928 103.949 188.066 104.211 185.817L104.281 185.318C104.713 182.658 106.341 177.574 108.661 173.658C109.883 171.593 111.474 169.543 113.445 168.482C114.476 167.927 115.664 167.616 116.945 167.781C118.222 167.946 119.394 168.557 120.445 169.501L120.854 169.883C124.967 173.89 125.483 179.413 124.205 184.328C122.935 189.211 119.827 193.867 116.09 196.637L115.726 196.898C113.894 198.182 111.524 199.321 108.992 199.958C109.021 200.011 109.048 200.065 109.078 200.118L109.269 200.436C110.258 202 111.785 203.206 113.694 204.51C115.611 205.821 118.05 207.303 119.898 209.296L120.338 209.786C129.251 220.024 126.19 236.688 115.028 243.828L114.481 244.166C112.844 245.145 111.05 245.892 109.312 246.554C107.514 247.238 105.865 247.801 104.215 248.491C101.068 249.807 98.6149 251.319 97.1931 253.868L97.0587 254.118C94.6452 258.78 94.2703 264.548 94.3525 270.2L94.3743 271.328C94.4713 275.337 95.5206 281.286 97.8466 285.981C100.19 290.711 103.441 293.523 107.846 292.97L108.21 292.92C115.851 291.798 122.62 285.687 125.998 278.307L126.351 277.525C127.167 275.693 127.926 273.827 128.725 271.916C129.629 269.753 130.577 267.552 131.666 265.423C133.851 261.153 136.655 257.074 141.033 253.923L141.977 253.262C144.249 251.711 146.994 250.16 149.873 249.404C153.228 248.523 156.942 248.69 160.174 251.363L160.458 251.607C163.35 254.174 164.842 258.264 165.757 262.089C166.705 266.051 167.164 270.402 167.633 273.201L167.708 273.616C168.131 275.806 169.253 279.599 170.943 282.837C171.844 284.564 172.846 286.015 173.895 286.984C174.934 287.944 175.854 288.292 176.692 288.23L177.893 288.139C180.771 287.914 184.148 287.579 187.336 286.84C191.034 285.982 194.127 284.655 195.93 282.656L196.171 282.38C197.35 280.978 198.13 279.314 198.773 277.42C199.117 276.409 199.411 275.36 199.714 274.261C200.011 273.178 200.319 272.032 200.672 270.91L200.82 270.426C202.302 265.421 202.3 260.558 202.461 254.912L202.484 253.726C202.605 241.85 199.481 229.705 194.706 218.747L194.224 217.654C192.651 214.151 191.09 210.759 188.97 207.862L188.538 207.289C188.265 206.936 187.818 206.677 186.921 206.425C186.451 206.293 186.023 206.203 185.434 206.058C185.03 205.96 184.577 205.841 184.117 205.68L183.657 205.503C179.629 203.822 176.557 200.175 174.246 196.404C172.2 193.064 170.618 189.404 169.434 186.379L168.951 185.125C165.622 176.347 166.823 168.386 171.584 160.63L171.893 160.149C173.473 157.779 175.621 155.988 177.849 154.531C180.205 152.991 182.803 151.733 185.024 150.591C186.674 149.743 188.961 148.702 191.348 148.158C193.691 147.624 196.494 147.487 198.878 148.915L199.24 149.139C202.95 151.491 205.706 155.243 207.742 159.184C209.856 163.274 211.285 167.745 212.215 171.514L212.419 172.376C213.403 176.705 213.862 181.3 214.547 185.381C215.299 189.863 216.354 194.036 218.625 197.812L219.021 198.445C220.995 201.484 222.92 202.645 225 203.075C227.459 203.583 230.367 203.148 234.516 202.508C236.534 202.197 238.548 202.04 240.472 201.889C242.421 201.738 244.28 201.592 246.118 201.309C249.766 200.746 253.646 199.76 257.994 201.211L258.419 201.364C260.56 202.199 262.933 203.992 265.12 205.914C267.518 208.022 269.936 210.506 271.951 212.681C272.333 213.093 272.701 213.496 273.054 213.885C273.922 213.204 274.992 212.687 276.248 212.354C276.407 212.27 276.569 212.186 276.735 212.105L277.048 211.959C280.29 210.503 283.581 210.911 286.376 212.296C289.219 213.703 291.616 216.138 293.217 218.817C294.805 221.474 295.752 224.617 295.342 227.503C295.337 227.535 295.331 227.567 295.326 227.599C295.293 227.992 295.226 228.386 295.121 228.777C294.897 229.608 294.507 230.372 293.958 231.047C293.008 232.381 291.596 233.445 289.692 234.083L289.359 234.188C289.23 234.227 289.101 234.263 288.972 234.297C287.921 234.997 286.733 235.529 285.428 235.84L285.117 235.91C277.929 237.41 272.39 233.071 270.401 227.68C269.324 224.761 269.258 221.449 270.485 218.49C270.537 218.099 270.616 217.712 270.727 217.331C270.731 217.318 270.736 217.304 270.74 217.29C270.209 216.7 269.633 216.064 269.017 215.4C267.04 213.266 264.729 210.895 262.48 208.918C260.31 207.012 258.398 205.655 257.001 205.104L256.729 205.005C253.531 203.938 250.858 204.625 246.728 205.262C244.717 205.572 242.707 205.728 240.783 205.878C238.834 206.03 236.971 206.177 235.126 206.461C231.227 207.063 227.509 207.679 224.189 206.993C220.742 206.28 217.924 204.238 215.437 200.264L215.197 199.873C212.538 195.452 211.382 190.691 210.602 186.043C209.85 181.565 209.467 177.428 208.527 173.297L208.332 172.471C207.447 168.884 206.11 164.738 204.188 161.02C202.316 157.396 199.971 154.339 197.101 152.519L196.822 152.347C195.744 151.701 194.185 151.613 192.236 152.058C190.33 152.492 188.391 153.358 186.852 154.149C184.506 155.355 182.169 156.486 180.037 157.879C178.059 159.173 176.391 160.612 175.22 162.368L174.993 162.723C170.807 169.544 169.85 176.214 172.692 183.707L173.163 184.931C174.31 187.86 175.788 191.263 177.656 194.313C179.819 197.843 182.337 200.618 185.198 201.812L185.447 201.906C185.71 201.998 186.016 202.083 186.386 202.174C186.826 202.281 187.452 202.418 188.005 202.574C189.152 202.897 190.624 203.454 191.697 204.836L192.191 205.49C194.608 208.793 196.323 212.563 197.873 216.017L198.372 217.146C203.31 228.479 206.612 241.19 206.483 253.769L206.459 255.027C206.303 260.479 206.321 265.935 204.654 271.566L204.488 272.112C204.162 273.145 203.878 274.203 203.571 275.321C203.268 276.421 202.946 277.572 202.561 278.707C201.837 280.839 200.859 283.02 199.234 284.953L198.9 285.336C196.256 288.267 192.164 289.826 188.239 290.736C184.756 291.544 181.124 291.899 178.194 292.128L176.984 292.22C174.668 292.39 172.708 291.335 171.179 289.922C169.66 288.517 168.405 286.621 167.396 284.687C165.504 281.061 164.263 276.885 163.775 274.346L163.687 273.861C163.155 270.683 162.778 266.824 161.867 263.019C160.982 259.32 159.714 256.301 157.81 254.606L157.625 254.446C155.669 252.828 153.402 252.613 150.889 253.273C148.634 253.865 146.33 255.136 144.248 256.554L143.369 257.17C139.695 259.816 137.25 263.291 135.227 267.245C134.212 269.228 133.315 271.309 132.417 273.458C131.637 275.322 130.849 277.256 130.002 279.159L129.635 279.972C125.849 288.243 118.103 295.514 108.789 296.878L108.344 296.939C101.395 297.811 96.8891 293.059 94.2619 287.756C91.6175 282.419 90.4831 275.866 90.3756 271.426L90.3528 270.285C90.2649 264.524 90.6109 257.873 93.5072 252.279L93.7045 251.911C95.7956 248.167 99.2916 246.214 102.672 244.801C104.391 244.082 106.266 243.433 107.89 242.815C109.574 242.174 111.101 241.526 112.429 240.733L112.881 240.453C122.117 234.541 124.521 220.691 117.322 212.412L116.965 212.016C115.513 210.45 113.628 209.311 111.436 207.813C109.492 206.484 107.354 204.893 105.884 202.568L105.599 202.093C105.308 201.58 105.06 201.044 104.846 200.491C103.77 200.488 102.701 200.369 101.666 200.101L101.197 199.97C98.3274 199.096 96.8791 196.383 96.1403 194.095C95.3682 191.703 95.138 189.084 95.1343 187.319L95.1408 186.426C95.297 177.14 98.1491 166.143 102.501 158.08L102.971 157.232C105.37 153 108.51 148.919 111.281 144.99C114.296 140.712 116.945 136.527 118.338 132.036L118.469 131.599C121.057 122.706 118.489 113.736 112.518 106.445L111.92 105.733C109.163 102.536 106.496 100.25 103.608 98.971C100.952 97.7949 97.9764 97.4128 94.3446 98.1454L93.6087 98.3074C92.7225 98.5177 91.4632 99.0542 90.2451 99.7927C89.16 100.451 88.2922 101.157 87.788 101.755L87.5952 102.004C87.5924 102.009 87.563 102.057 87.5299 102.176C87.4928 102.31 87.4604 102.499 87.4449 102.752C87.4134 103.266 87.4596 103.911 87.5729 104.639C87.7992 106.09 88.2471 107.599 88.5508 108.53L88.8349 109.379C89.5082 111.352 90.2633 113.278 91.0366 115.221C91.9134 117.423 92.8199 119.661 93.6084 121.93C95.1438 126.349 96.285 131.018 96.0404 136.29L96.0117 136.802C95.8345 139.612 95.5574 142.204 94.6319 144.561C93.736 146.844 92.2809 148.798 89.9771 150.596L89.5046 150.953C87.8832 152.145 86.5113 153.169 84.9854 154.011C86.669 155.192 87.7989 156.681 88.4087 158.369C89.0603 160.173 89.0711 162.067 88.7177 163.849C88.0635 167.146 86.1131 170.339 83.9478 172.621L83.5124 173.065C80.7778 175.76 77.4499 176.244 74.3615 175.327C72.8808 174.887 71.4638 174.133 70.1629 173.174C69.5598 172.831 69.0051 172.491 68.5228 172.176L67.9456 171.791C65.5665 170.168 63.1578 167.197 62.0484 164.041C61.4863 162.442 61.2115 160.662 61.5672 158.918C61.852 157.521 62.5268 156.235 63.6289 155.162C64.1642 154.132 64.9282 153.183 65.9642 152.372L66.2583 152.152C69.2618 150.004 72.8288 150.485 75.7359 151.586C76.966 151.601 78.2129 151.704 79.4139 151.907C82.5105 151.154 84.1519 149.925 87.1359 147.731L87.5075 147.449C89.3135 146.042 90.3008 144.647 90.9084 143.099C91.5863 141.372 91.845 139.33 92.0204 136.551L92.0609 135.667C92.1928 131.276 91.2329 127.281 89.8299 123.244C89.0776 121.079 88.2114 118.938 87.3203 116.7C86.5465 114.757 85.7583 112.75 85.0477 110.668L84.7483 109.771C84.4221 108.771 83.8962 107.023 83.6206 105.254C83.483 104.372 83.3971 103.415 83.4527 102.508C83.5063 101.634 83.7029 100.583 84.3257 99.6992L84.5037 99.4573C85.4269 98.2576 86.8238 97.1889 88.1718 96.3716C89.6317 95.4865 91.2816 94.7484 92.6861 94.4152L93.128 94.3144ZM283.494 221.541L283.228 221.663C281.153 222.693 281.044 223.606 281.067 223.958C281.106 224.554 281.628 225.476 282.83 226.285C283.995 227.07 285.352 227.43 286.364 227.297C286.399 227.292 286.432 227.286 286.466 227.28C286.54 227.262 286.611 227.242 286.679 227.22C286.837 226.859 286.953 226.384 286.969 225.759L286.97 225.406C286.945 224.336 286.693 223.19 286.245 222.118C285.449 221.737 284.593 221.52 283.734 221.449C283.654 221.477 283.573 221.508 283.494 221.541ZM116.434 171.748C116.138 171.71 115.788 171.763 115.341 172.004C114.355 172.535 113.223 173.803 112.101 175.696C110.026 179.202 108.59 183.792 108.239 185.893L108.184 186.279C107.921 188.54 107.638 191.149 107.694 193.68C107.712 194.53 107.769 195.345 107.871 196.114C109.865 195.637 111.837 194.74 113.432 193.623L113.718 193.417C116.665 191.229 119.277 187.38 120.333 183.321C121.38 179.295 120.828 175.438 118.047 172.734L117.772 172.477C117.182 171.947 116.735 171.787 116.434 171.748ZM74.1386 160.055C74.0748 160.094 74.0129 160.135 73.9528 160.177C73.8055 160.306 73.7083 160.451 73.6473 160.585C73.4446 161.031 73.433 161.806 74.1243 162.608L74.2745 162.767C74.3281 162.82 74.3881 162.874 74.4528 162.93C75.3854 163.361 76.6829 163.489 77.8959 163.158C78.8025 162.91 79.4571 162.475 79.8416 161.896C79.6982 161.43 79.4103 160.949 78.9722 160.534C78.6688 160.651 78.4052 160.675 78.2714 160.679C77.8198 160.695 77.4266 160.562 77.3149 160.525C77.1286 160.464 76.9371 160.389 76.7809 160.324C76.4176 160.175 76.1519 160.055 75.841 159.939C75.765 159.91 75.6992 159.891 75.6451 159.873C75.1461 159.898 74.6389 159.958 74.1386 160.055Z" fill="url(#paint0_linear_278_1390)"/>
</g>
</g>
</g>
<defs>
<filter id="filter0_d_278_1390" x="16.6875" y="4.4642" width="370.389" height="646.954" filterUnits="userSpaceOnUse" color-interpolation-filters="sRGB">
<feFlood flood-opacity="0" result="BackgroundImageFix"/>
<feColorMatrix in="SourceAlpha" type="matrix" values="0 0 0 0 0 0 0 0 0 0 0 0 0 0 0 0 0 0 127 0" result="hardAlpha"/>
<feOffset dy="-6"/>
<feComposite in2="hardAlpha" operator="out"/>
<feColorMatrix type="matrix" values="0 0 0 0 0 0 0 0 0 0 0 0 0 0 0 0 0 0 0.25 0"/>
<feBlend mode="normal" in2="BackgroundImageFix" result="effect1_dropShadow_278_1390"/>
<feBlend mode="normal" in="SourceGraphic" in2="effect1_dropShadow_278_1390" result="shape"/>
</filter>
<filter id="filter1_dd_278_1390" x="12.6875" y="6.4642" width="382.389" height="652.954" filterUnits="userSpaceOnUse" color-interpolation-filters="sRGB">
<feFlood flood-opacity="0" result="BackgroundImageFix"/>
<feColorMatrix in="SourceAlpha" type="matrix" values="0 0 0 0 0 0 0 0 0 0 0 0 0 0 0 0 0 0 127 0" result="hardAlpha"/>
<feOffset dx="-4" dy="-4"/>
<feComposite in2="hardAlpha" operator="out"/>
<feColorMatrix type="matrix" values="0 0 0 0 0.905882 0 0 0 0 0.929412 0 0 0 0 0.945098 0 0 0 1 0"/>
<feBlend mode="normal" in2="BackgroundImageFix" result="effect1_dropShadow_278_1390"/>
<feColorMatrix in="SourceAlpha" type="matrix" values="0 0 0 0 0 0 0 0 0 0 0 0 0 0 0 0 0 0 127 0" result="hardAlpha"/>
<feOffset dx="4" dy="4"/>
<feGaussianBlur stdDeviation="2"/>
<feComposite in2="hardAlpha" operator="out"/>
<feColorMatrix type="matrix" values="0 0 0 0 0.905882 0 0 0 0 0.929412 0 0 0 0 0.945098 0 0 0 1 0"/>
<feBlend mode="normal" in2="effect1_dropShadow_278_1390" result="effect2_dropShadow_278_1390"/>
<feBlend mode="normal" in="SourceGraphic" in2="effect2_dropShadow_278_1390" result="shape"/>
</filter>
<filter id="filter2_d_278_1390" x="57.4079" y="92.7726" width="242.029" height="211.27" filterUnits="userSpaceOnUse" color-interpolation-filters="sRGB">
<feFlood flood-opacity="0" result="BackgroundImageFix"/>
<feColorMatrix in="SourceAlpha" type="matrix" values="0 0 0 0 0 0 0 0 0 0 0 0 0 0 0 0 0 0 127 0" result="hardAlpha"/>
<feOffset dy="3"/>
<feGaussianBlur stdDeviation="2"/>
<feComposite in2="hardAlpha" operator="out"/>
<feColorMatrix type="matrix" values="0 0 0 0 0.177966 0 0 0 0 0.121262 0 0 0 0 0.80172 0 0 0 0.25 0"/>
<feBlend mode="normal" in2="BackgroundImageFix" result="effect1_dropShadow_278_1390"/>
<feBlend mode="normal" in="SourceGraphic" in2="effect1_dropShadow_278_1390" result="shape"/>
</filter>
<linearGradient id="paint0_linear_278_1390" x1="70.0529" y1="157.7" x2="296.231" y2="230.056" gradientUnits="userSpaceOnUse">
<stop stop-color="#0177FC"/>
<stop offset="1" stop-color="#00CD8B"/>
</linearGradient>
</defs>
</svg>
