<svg width="688" height="654" viewBox="0 0 688 654" fill="none" xmlns="http://www.w3.org/2000/svg">
<path d="M112.722 83.4565C112.722 83.6043 112.722 83.7521 112.648 84.05C112.574 84.3478 112.426 84.7912 112.274 84.3523" stroke="#787878" stroke-width="4" stroke-linecap="round"/>
<path d="M135.077 85.4098C135.128 85.5122 135.179 85.6147 135.18 85.5906C135.181 85.5666 135.13 85.4129 135.077 85.2545" stroke="#787878" stroke-width="4" stroke-linecap="round"/>
<path d="M131.555 79.3478C135.632 79.5097 139.229 80.4861 141.36 81.7962C140.382 81.1436 140.867 81.4674 141.36 81.7962C141.854 82.1249 142.339 82.4488 142.84 82.2918" stroke="#787878" stroke-width="4" stroke-linecap="round" stroke-linejoin="round"/>
<path d="M116.344 77.8757C116.668 77.8757 115.863 77.8757 113.42 78.3615C111.948 78.8472 110.005 79.8188 108.761 80.4812C107.517 81.1436 107.031 81.4674 105.549 82.2917" stroke="#787878" stroke-width="4" stroke-linecap="round"/>
</svg>
