<svg width="117" height="55" viewBox="0 0 117 55" fill="none" xmlns="http://www.w3.org/2000/svg">
<path d="M2.71102 50.3427C2.80428 50.4359 2.89754 50.5292 2.80569 50.484C1.37658 49.7804 2.33232 46.2052 2.61634 37.2365C2.72613 33.7698 2.24188 31.1307 2.19242 29.0606C2.1603 27.7161 2.61493 26.4224 2.75765 25.1479C2.92431 23.6594 3.64929 21.6237 4.12266 19.8729C4.49265 18.5045 4.87582 17.0002 5.20647 15.8683C5.55229 14.6845 5.72365 13.1397 6.14757 11.6772C6.53044 10.3563 7.79237 9.55619 9.15879 8.80162C11.2319 7.65681 14.8577 8.60661 15.9895 9.12662C17.1593 9.66404 18.249 10.4888 19.7567 12.7935C21.0019 14.6968 21.9286 17.2715 22.9135 20.1386C23.5662 22.0386 23.8108 23.2063 24.0001 24.3382C24.2089 25.586 25.1277 26.5976 26.1635 27.3084C26.4012 27.4715 26.7273 27.2646 26.9181 27.0767C28.3462 25.6697 27.4847 22.0872 27.6274 20.7207C27.7735 19.3228 28.3326 17.6615 28.7098 16.1523C29.0652 14.7308 29.463 13.6088 29.8869 12.477C30.3384 11.2714 31.0626 10.2175 31.5826 9.08564C31.8549 8.493 32.3824 7.95378 33.0861 7.52986C34.6751 6.57263 36.0535 7.28964 37.4666 8.04139C39.1161 8.91896 39.5409 10.4888 40.0143 11.6207C40.4872 12.7515 40.8635 13.8801 41.3793 15.7623C41.7884 17.2553 42.0844 18.775 42.3232 20.8027C42.4076 21.5194 42.5592 24.2237 42.6058 28.0376C42.6263 29.7121 42.8418 34.2847 42.8885 41.0179C42.9152 44.8812 43.4975 46.567 43.7363 47.7949C43.9837 49.067 45.0971 50.337 46.2755 51.141C47.4588 51.9483 48.771 51.9422 51.7794 51.9451C53.5558 51.9467 54.7058 50.4387 55.6031 49.4991C56.6419 48.4112 57.3454 47.2396 58.1 46.1077C58.8845 44.931 60.0755 43.8482 60.9261 42.7164C61.7758 41.5859 62.715 40.4569 63.4696 39.325C64.383 37.9549 65.072 36.2177 65.4027 35.0859C65.7485 33.9021 65.9199 32.3573 66.0626 31.0827C66.2191 29.6845 66.7677 28.4007 66.9104 26.4224C67.0218 24.879 67.429 23.5963 67.6636 21.4343C68.1729 16.7402 67.9942 14.841 68.2754 13.0902C68.4719 11.8672 69.0286 10.7827 69.4059 9.36966C69.7839 7.95397 70.159 6.82616 70.9108 5.6943C71.8342 4.30403 73.0756 3.43483 74.7684 2.44286C75.35 2.10207 76.3595 2.29873 77.0265 2.48525C79.2267 3.10056 79.9543 5.96137 80.6623 7.38149C81.2177 8.49573 82.1191 10.7601 82.9698 12.4685C83.7038 13.9426 84.7587 15.5758 85.2787 16.7077C85.8507 17.9526 86.4544 19.2498 87.6767 20.6162C89.2424 22.3665 90.9762 21.6096 91.6347 21.611C92.8416 21.6136 92.7679 19.5437 92.9107 17.4735C93.054 15.3949 93.3332 12.761 93.4759 11.3479C93.6572 9.55265 93.7119 9.55901 93.5253 8.6165C93.7119 8.90618 93.7119 9.55901 93.5253 8.6165C93.3388 8.32683 92.9658 8.42009 92.5814 8.51618" stroke="#CC3847" stroke-width="4" stroke-linecap="round" stroke-linejoin="round"/>
<path d="M10.6241 50.6252C11 48.2937 11.3759 42.4408 11.5186 40.9274C11.6968 39.0375 11.9411 37.3482 12.0838 35.8885C12.2477 34.2121 12.7889 33.0157 13.2115 31.8867C13.3977 31.3889 13.7272 31.1307 14.3377 30.9866C15.846 30.6305 17.2146 31.1222 17.8731 31.686C19.4067 32.9991 19.3851 36.4834 19.8542 38.8884C20.1551 40.4308 20.7925 41.7626 21.362 42.9905C21.8591 44.0626 23.0534 44.9674 24.2743 45.8152C24.8668 46.2267 25.6817 46.1035 26.2059 45.9636C27.7884 45.5413 28.8921 43.9443 30.0268 42.7164C31.0274 41.6336 31.6278 39.1456 31.8666 37.6294C32.0465 36.4872 32.2891 35.3699 32.4318 31.8457C32.5297 29.4283 32.8544 26.9876 33.5128 25.2906C33.7875 24.5825 34.2674 24.0626 34.6899 23.5921C34.8926 23.3663 35.2057 23.308 35.3964 23.3999C36.79 24.0709 35.9631 27.1629 36.1058 29.7021C36.1969 31.3234 36.5283 33.0016 36.671 34.2295C37.0288 37.3082 37.0935 42.4239 37.2362 44.9631C37.317 46.4005 37.6587 47.5109 38.224 48.6427C38.3201 48.9267 38.3201 49.2065 38.4133 49.4906C38.5066 49.7746 38.6931 50.0544 38.3201 50.3426" stroke="#CC3847" stroke-width="4" stroke-linecap="round" stroke-linejoin="round"/>
<path d="M47.0809 8.79877C47.2703 10.2938 47.2675 13.6879 47.4102 21.0161C47.4804 24.6236 47.8327 27.4398 47.9754 30.1727C48.0942 32.4484 48.3979 33.9455 48.7752 35.0774C48.9631 35.6412 49.1525 36.2092 49.4337 36.773C49.7606 37.4286 50.4694 37.7184 51.1265 37.8597C52.8011 38.2198 54.7001 35.9408 56.3082 33.7703C57.3149 32.4115 58.001 30.1981 58.7132 28.5392C59.3724 27.0037 59.8889 25.292 60.4555 23.3151C61.2697 20.4745 61.4941 18.2323 61.7287 16.1085C62.1067 12.6856 62.2459 10.7827 62.3886 8.61931C62.4352 8.04985 62.5285 7.58354 62.5765 7.11017C62.6246 6.63679 62.6246 6.17048 62.6246 5.97266" stroke="#CC3847" stroke-width="4" stroke-linecap="round" stroke-linejoin="round"/>
<path d="M71.9508 52.3209C72.3239 51.3007 73.2678 44.7243 73.5984 41.8714C73.9029 39.2442 73.9291 37.9134 74.1637 36.547C74.3961 35.1931 74.4943 27.7055 74.7289 23.1243C74.8356 21.0395 75.7152 19.5437 76.5164 18.5051C76.7017 18.2648 77.0322 18.221 77.3162 18.173C77.6002 18.125 77.88 18.125 78.164 18.3115C79.9568 19.4888 79.7678 22.6411 80.1451 24.2421C80.5691 26.0412 80.9944 28.2933 81.838 31.4416C82.4733 33.8127 83.6283 34.9799 85.6023 38.0844C86.7996 39.9673 88.2405 41.576 89.6564 42.7079C90.6999 43.5421 91.7279 44.2156 93.1876 44.7356C94.0825 45.0544 95.2125 45.2556 96.3416 45.1624C98.0355 45.0224 98.8893 42.5313 99.5506 41.0688C100.277 39.463 100.212 37.0656 100.447 35.4646C100.681 33.8636 101.06 31.9786 101.294 30.7534C101.597 29.1721 101.625 28.022 101.86 26.3758C102.253 23.6178 102.19 21.3411 102.425 19.3557C102.592 17.944 102.755 16.4349 103.225 13.9451C103.863 10.5569 102.945 9.36966 102.803 7.96225C102.852 8.81009 102.945 9.36966 102.803 7.96225C102.755 7.11442 102.755 5.99528 102.473 4.84222" stroke="#CC3847" stroke-width="4" stroke-linecap="round" stroke-linejoin="round"/>
<path d="M110.386 6.53786C110.386 6.25808 110.386 5.97829 110.479 6.20721C110.862 7.1466 111.044 8.79028 111.186 13.093C111.299 16.5549 111.234 22.6184 111.001 27.933C110.767 33.2475 110.301 37.6308 110.061 40.5417C109.58 46.3636 110.948 47.7906 111.512 49.0158C111.712 49.4509 112.076 49.3083 112.267 49.0271C113.319 47.4753 113.399 44.4247 114.48 36.3986C114.963 32.8057 114.812 27.372 114.813 22.9067C114.816 15.0835 114.532 11.2518 114.391 10.5467C113.931 8.25498 113.212 5.12763 113.212 4.84361C113.212 2.76866 114.06 11.2349 114.529 17.9455C114.742 20.9932 114.625 25.5689 114.578 28.1096C114.532 30.6503 114.439 31.0233 114.391 33.547C114.254 40.7327 114.436 45.9113 114.624 46.663C114.718 47.0417 114.812 47.4148 114.86 47.8867C114.908 48.3587 114.908 48.9183 114.908 48.9296" stroke="#CC3847" stroke-width="4" stroke-linecap="round" stroke-linejoin="round"/>
</svg>
