<svg width="700" height="883" viewBox="0 0 700 883" fill="none" xmlns="http://www.w3.org/2000/svg">
<path d="M606.988 45.0973C606.89 45.1673 606.781 45.2368 606.661 45.3059C607.243 46.3717 607.563 47.2822 608.286 47.867C609.585 48.9176 612.107 48.9176 613.367 49.5671C614.628 51.4772 624.947 60.5332 615.036 69.5282C612.489 71.8394 608.047 71.173 597.615 73.3294C590.407 74.8193 582.741 75.4684 574.063 76.7231C566.62 77.7991 558.15 79.4722 552.211 80.5434C546.245 81.6194 539.198 82.2673 532.04 84.7966C525.462 87.1206 513.977 88.0168 505.304 91.1574C499.994 93.0803 494.217 95.4698 476.626 99.0145C468.158 100.721 462.457 103.731 447.98 105.592C439.709 106.655 433.645 108.643 428.471 110.259C422.314 112.182 417.383 114.253 411.7 116.206C403.62 118.982 392.479 121.09 383.264 123.846C376.878 125.757 367.244 129.904 359.922 131.487C353.09 132.964 344.793 135.924 333.741 136.574C308.087 138.083 297.07 140.487 290.291 142.101C280.53 144.425 273.676 146.736 268.019 148.678C261.862 150.792 255.896 151.33 247.847 152.282C238.914 153.339 229.704 155.49 221.538 155.459C219.838 155.453 218.578 155.033 217.947 153.091C217.317 151.149 217.317 147.787 217.966 145.457C218.616 143.126 219.699 141.501 221.156 141.019C226.256 139.331 232.536 139.062 241.55 136.135C251.318 132.964 258.531 130.941 264.453 129.564C269.986 128.278 278.651 126.199 291.208 120.854C299.733 117.225 312.85 113.375 323.069 109.17C337.478 103.242 344.013 101.727 349.773 100.059C354.873 98.5815 362.829 98.0306 373.344 94.5384C380.342 92.2144 393.975 88.8779 405.384 85.8408C411.77 84.1408 420.902 82.5563 428.732 80.9572C435.965 79.48 446.314 77.8117 456.111 75.4433C462.275 73.9533 471.177 74.3732 477.333 71.6166C483.49 68.8596 504.806 68.3119 519.146 66.9558C525.946 66.3127 533.005 65.7432 538.458 63.7659C545.481 61.219 553.58 60.5666 562.023 57.3987C568.81 54.8518 573.912 54.0806 579.641 52.2986C590.15 49.0295 603.153 47.326 606.661 45.3059C606.379 44.7891 606.036 44.2358 605.556 43.6653L604.441 42.5505C604.882 42.9257 605.247 43.2991 605.556 43.6653L606.988 45.0973Z" fill="#3E1B17" stroke="#3E1B17" stroke-width="18" stroke-linecap="round" stroke-linejoin="round"/>
<path d="M80.3011 174.308C78.5062 178.52 77.9109 182.136 77.9109 184.522L81.5187 179.099C83.9359 182.75 84.5312 184.54 85.1355 186.357C85.7398 188.174 86.3351 189.964 86.6327 192.702C86.317 205.673 85.9025 232.197 86.6327 258.552C88.157 313.563 89.6902 329.096 89.0319 339.749C88.1209 354.492 87.748 379.832 88.4366 401.874C89.3476 431.034 91.8665 444.236 92.0444 467.1C92.3421 505.353 93.9741 532.836 93.8483 540.741C93.5326 560.581 90.9235 571.22 89.3296 587.111C88.1209 599.16 84.3331 609.728 83.3136 619.037C81.5187 635.425 84.7517 658.054 86.9394 672.376C88.7343 684.127 62.0358 715.869 96.6714 729.042C114.71 735.902 128.934 734.441 133.868 734.086C158.834 732.287 197.287 737.824 207.223 735.288C209.631 734.673 212.008 733.59 212.004 731.961C211.995 728.653 210.094 716.013 209.893 693.799C209.595 660.969 208.224 638.285 208.089 628.492C207.791 606.807 206.605 591.255 206.285 565.508C205.988 541.563 205.476 496.808 206.294 473.219C207.196 447.232 207.639 420.611 209.298 398.096C210.209 385.731 211.987 373.776 212.905 363.151C213.816 352.612 213.794 312.728 213.501 278.898C213.203 244.559 214.566 220.689 214.709 212.425C215.007 195.26 215.512 180.72 211.688 179.071C199.169 173.675 175.275 176.176 159.041 175.176C134.698 173.675 96.2069 167.991 85.6947 170.674C83.2865 171.289 81.1577 172.297 80.3011 174.308Z" fill="#ACBBB8" stroke="#ACBBB8" stroke-width="18" stroke-linecap="round" stroke-linejoin="round"/>
<path d="M494.378 222.19C461.194 222.561 435.646 223.962 420.886 226.085L429.381 221.839C424.326 221.839 419.421 221.839 415.885 222.2C412.348 222.561 410.246 223.262 409.195 225.416C408.144 231.073 411.335 238.563 412.041 248.787C413.113 264.335 416.591 301.193 416.288 328.811C415.916 362.699 415.982 387.046 412.019 405.513C408.144 423.577 409.266 436.268 410.628 456.107C412.391 481.781 402.433 516.011 412.433 528.946C414.6 531.748 418.951 532.407 421.99 531.387C431.547 528.182 443.742 523.305 454.897 521.474C469.902 519.012 491.054 515.269 521.137 517.25C547.885 519.012 583.3 527.505 600.373 519.691C603.527 518.248 603.732 515.407 603.166 512.962C602.104 508.378 600.327 497.847 599.63 484.975C598.557 465.181 598.356 441.126 598.929 402.881C599.279 379.468 599.863 336.722 598.918 313.931C597.856 288.321 616.886 223.333 592.133 222.89C573.752 222.561 561.124 225.951 547.513 225.734C524.184 225.363 510.139 222.013 494.378 222.19Z" fill="#ACBBB8" stroke="#ACBBB8" stroke-width="18" stroke-linecap="round" stroke-linejoin="round"/>
<path d="M46.8757 65.7636C58.7445 55.8532 89.315 63.3139 100.051 63.0881C111.153 62.8546 123.503 65.0712 129.916 65.741C135.429 66.3168 140.747 63.3202 146.059 60.0107C151.813 56.4261 156.664 53.1595 161.977 48.9547C166.233 45.5858 172.582 45.2008 184.5 44.0799C192.52 43.3257 200.437 43.8478 207.952 44.0799C214.679 44.2877 221.661 41.2214 229.175 40.1005C235.832 39.1076 243.76 38.1175 249.742 36.3466C257.579 34.0267 269.811 27.5323 278.699 25.9472C285.415 24.7492 290.637 29.2567 295.293 34.1049C300.509 39.5371 290.265 51.3025 279.428 63.2738C272.983 70.3936 253.682 79.1582 240.284 83.8671C233.929 86.1008 220.467 90.2474 203.389 92.4891C195.798 93.4855 189.879 95.5798 174.658 96.4685C166.452 96.9476 159.821 100.01 151.637 102.212C138.071 105.862 110.371 107.969 98.5852 109.07C85.581 110.285 78.4561 107.969 72.487 106.868C62.2159 104.973 52.3779 103.99 43.3115 100.912C39.0229 99.4564 37.7603 94.7176 36.4338 91.4147C33.2157 83.4015 38.1848 77.4868 39.7367 72.1744C40.4815 69.625 40.8377 66.8619 42.8208 64.6533C46.6558 60.3822 47.9077 61.9938 50.3352 60.0107C51.4254 58.9269 52.2871 57.6463 53.1687 56.3241L46.8757 65.7636Z" fill="#A69AA4" stroke="#A69AA4" stroke-width="3" stroke-linecap="round" stroke-linejoin="round"/>
<path d="M12.2259 118.562C15.175 114.654 18.4611 108.239 21.9382 101.807C26.4724 93.4189 29.7272 83.9889 34.1956 75.0633C39.1909 65.0852 44.5921 60.1873 49.0382 57.9587C51.152 56.8991 53.4843 57.2009 55.724 57.9364C65.3299 61.0905 71.3132 72.7567 82.0886 83.1643C86.4716 87.3977 91.3931 89.8725 95.8392 92.1011C97.953 93.1607 100.285 92.8588 102.525 91.7557C113.152 86.5214 120.343 73.6036 127.051 63.5525C130.543 58.3196 133.737 52.766 138.183 49.0553C145.611 42.8562 156.001 45.3001 166.776 46.4256C177.652 47.5615 189.43 49.7573 202.055 50.1473C212.989 50.4851 222.859 42.3583 229.935 35.3159C238.529 26.7629 249.603 20.0721 258.896 17.0969C271.453 13.077 285.261 16.328 296.404 16.7181C308.049 17.1256 316.461 8.92903 325.387 7.80357C334.61 6.64068 343.205 2.24317 367.664 2.22088C377.595 2.21183 384.813 5.94268 394.43 5.20723C408.59 4.12429 446.947 1.48544 493.737 1.85316C517.133 2.03703 528.893 5.18495 539.334 6.3104C548.577 7.30661 558.623 11.8708 573.098 14.4783C596.932 18.7717 648.838 17.0858 679.738 15.6037C688.924 15.1631 695.349 20.0498 697.221 21.5319C706.662 29.0058 659.134 28.2289 639.355 26.3791C614.534 24.0578 592.275 28.2289 577.288 32.2961C567.813 34.8674 559.47 40.8429 548.695 50.4705C538.675 59.4233 530.498 66.0708 521.572 70.5615C512.713 75.0188 501.526 74.2722 483.352 74.6622C457.761 75.2113 419.067 69.8595 391.644 69.0795C377.916 68.689 370.037 83.1421 359.262 94.6752C350.958 103.563 326.356 104.002 309.854 102.52C298.668 101.515 285.35 105.473 276.057 108.08C273.52 108.792 270.507 108.459 268.256 109.562C259.828 113.693 261.548 124.037 257.113 127.38C245.149 136.398 227.45 130.745 215.884 128.896C205.176 127.183 196.205 127.759 173.963 128.149C144.291 128.669 101.132 127.759 90.7134 130.734C78.2201 134.302 44.1686 135.203 22.3616 132.617C17.2543 132.012 10.4942 128.517 3.7972 127.781C-0.584679 127.3 4.62869 123.885 10.2673 120.52L12.2259 118.562Z" fill="#AD231F" stroke="#AD231F" stroke-width="3" stroke-linecap="round" stroke-linejoin="round"/>
<path d="M510.207 101.128C506.845 101.141 496.657 98.5815 492.404 97.9512C484.665 96.8042 512.295 93.0803 536.439 92.2144C540.224 92.0786 520.012 94.7612 512.779 92.6473C506.601 90.8417 501.318 90.9409 497.689 89.4638C489.766 86.2392 518.662 86.2802 525.462 84.7903C531.725 83.418 544.488 83.3003 554.325 84.3573C563.627 85.3567 571.701 83.3003 580.398 83.9307C583.685 84.1689 584.473 85.8217 585.116 87.1015C589.161 95.1499 587.453 107.483 587.886 109.603C588.376 112.003 562.214 111.316 528.054 111.526C506.831 111.657 493.27 111.749 468.916 111.106C450.42 110.617 426.644 108.362 414.527 107.706C412.159 107.578 410.904 108.336 410.255 104.981C409.605 101.625 409.605 94.4811 410.236 90.3806C410.866 86.2802 412.127 85.4397 414.037 85.0067C422.532 83.0812 430.362 86.6877 449.012 87.3308C457.26 87.6152 464.745 90.508 486.565 91.1511C492.385 91.3226 497.014 92.2144 500.637 92.6346C510.401 93.7671 475.9 97.7156 453.628 98.1613C442.746 98.3791 435.52 96.0347 431.496 95.8246C424.572 95.463 464.35 95.1815 465.42 96.6587C470.363 103.485 448.28 103.675 441.906 103.045C440.054 102.862 441.416 101.154 458.664 99.8741C475.913 98.5943 509.112 97.3336 527.054 97.1044C546.686 96.8536 558.495 98.5815 570.835 99.2119C574.922 99.4207 558.623 102.402 556.483 101.771C547.044 98.9904 572.159 97.7411 576.604 96.4676C572.159 97.7411 574.26 96.9006 576.604 96.4676C578.947 96.0347 581.468 96.0347 584.066 94.7612" stroke="#6A1C21" stroke-width="18" stroke-linecap="round"/>
<path d="M82.333 169.894C83.1735 170.314 84.0139 170.734 99.9955 170.951C115.977 171.167 147.074 171.167 163.725 171.377C184.641 171.641 190.549 173.281 201.202 173.714C223.347 174.614 157.504 172.874 148.622 171.6C129.657 168.881 123.541 173.281 117.588 173.924C115.888 174.134 113.787 174.555 108.292 174.771C102.797 174.988 93.9722 174.988 84.8799 174.988" stroke="#6A1C21" stroke-width="18" stroke-linecap="round"/>
<path d="M363.997 49.9746C370.587 48.0517 376.509 46.3708 379.043 46.3708L389.23 51.4645C392.21 55.3103 392.63 56.571 393.274 57.8508C394.757 60.3913 402.249 70.4373 395.356 72.0623C390.899 73.1129 385.539 74.7943 379.215 75.4496C368.83 76.5257 363.828 79.4519 357.369 80.5434C351.002 81.6194 344.923 82.7882 339.547 84.5801C334.447 86.2802 329.559 88.4509 323.203 90.7372C317.893 92.6473 312.093 94.6876 305.375 97.1044C300.065 99.0145 294.028 100.969 286.267 102.618C279.257 104.108 272.611 106.727 265.249 107.285C256.768 107.929 247.775 108.733 239.78 111.965C230.866 115.569 221.786 120.686 211.758 121.293C201.144 121.936 192.402 123.088 181.4 125.973C169.308 129.144 158.972 130.992 150.01 133.397C142.133 135.511 134.246 137.742 126.878 139.974C120.51 141.904 113.829 146.658 105.656 148.035C99.2696 149.111 90.4147 149.675 81.2378 152.499C72.9605 155.046 60.5603 164.154 60.2516 158.197C59.8441 150.334 57.453 142.172 62.6074 137.619C64.5176 135.931 68.047 134.729 73.438 133.168C78.5381 131.691 83.7607 130.701 90.8458 128.927C96.7991 127.438 103.954 123.913 114.621 122.134C120.994 121.07 127.729 118.391 135.219 116.187C146.056 112.997 154.119 109.373 163.438 106.636C170.658 104.516 176.3 102.057 182.96 100.059C189.327 98.1486 195.467 96.2844 201.431 94.1118C210.135 90.9409 215.741 89.1225 222.22 87.5409C229.262 85.8217 237.343 82.0158 242.805 81.1737C248.338 80.3205 253.982 78.3014 274.246 74.1634C285.751 71.814 301.01 67.7126 307.75 65.4659C312.85 63.7659 318.176 63.1227 323.031 61.4355C328.564 59.5126 334.36 57.4108 345.119 54.4252C352.759 52.305 358.857 51.4744 363.997 49.9746Z" fill="#775E5F" stroke="#775E5F" stroke-width="18" stroke-linecap="round" stroke-linejoin="round"/>
<path d="M422.065 229.583C423.777 223.352 422.648 210.787 420.645 199.394C417.77 183.044 418.642 169.189 420.063 157.728C420.484 154.326 420.354 149.228 421.201 146.044C422.048 142.86 423.743 141.73 425.464 140.866C433.805 136.675 447.127 139.984 464.169 143.408C495.768 149.757 519.624 142.86 531.231 141.148C579.022 134.099 586.369 143.408 594.929 145.693C597.213 146.303 599.482 146.832 601.211 148.253C611.568 156.764 604.104 178.193 603.805 197.837C603.712 203.929 605.234 215.22 604.104 230.336C603.685 235.947 600.715 236.978 597.574 237.843C590.595 239.763 570.021 239.854 544.352 239.289C522.964 238.818 501.427 235.3 486.32 234.436C474.992 233.788 445.723 231.295 426.662 234.136C424.329 234.484 421.552 234.718 420.379 233.871C416.301 230.924 419.433 228.717 420.895 226.07L418.642 219.312C420.936 221.058 421.501 222.753 421.492 224.473C421.399 225.028 421.178 225.557 420.895 226.07L422.065 229.583Z" fill="#9C9D98" stroke="#9C9D98" stroke-width="18" stroke-linecap="round" stroke-linejoin="round"/>
<path d="M472.705 508.243C461.864 510.013 452.57 511.106 445.027 512.511C439.555 510.51 431.503 501.699 422.599 516.682C419.461 521.963 419.802 532.24 419.167 538.219C417.732 551.748 418.165 563.172 418.018 583.864C417.732 623.831 417.03 651.779 415.995 656.688C414.845 662.142 413.107 666.704 413.125 670.192C413.133 671.926 413.597 674.429 414.871 674.196C421.225 673.031 427.799 674.623 435.342 675.352C453.107 677.069 480.282 674.256 488.646 673.609C510.855 671.892 549.893 672.292 566.467 669.873C576.279 668.44 585.578 668.695 595.565 670.459C600.45 671.322 600.838 638.401 603.026 588.583C603.89 568.902 603.55 558.358 604.755 545.277C606.19 529.694 608.204 510.108 600.692 508.511C589.938 506.224 574.975 506.354 556.283 508.243C542.114 509.676 528.248 509.606 515.67 507.657C506.428 506.224 496.941 504.288 472.705 508.243Z" fill="#686A65"/>
<path d="M441.938 513.127C449.978 511.401 460.334 510.262 472.705 508.243C496.941 504.288 506.428 506.224 515.67 507.657C528.248 509.606 542.114 509.676 556.283 508.243C574.975 506.354 589.938 506.224 600.692 508.511C608.204 510.108 606.19 529.694 604.755 545.277C603.55 558.358 603.89 568.902 603.026 588.583C600.838 638.401 600.45 671.322 595.565 670.459C585.578 668.695 576.279 668.44 566.467 669.873C549.893 672.292 510.855 671.892 488.646 673.609C480.282 674.256 453.107 677.069 435.342 675.352C427.799 674.623 421.225 673.031 414.871 674.196C413.597 674.429 413.133 671.926 413.125 670.192C413.107 666.704 414.845 662.142 415.995 656.688C417.03 651.779 417.732 623.831 418.018 583.864C418.165 563.172 417.732 551.748 419.167 538.219C419.802 532.24 419.461 521.963 422.599 516.682C432.173 500.572 440.762 511.971 446.217 512.834C440.762 511.971 443.044 512.54 446.217 512.834C449.39 513.127 453.384 513.127 457.499 513.127" stroke="#686A65" stroke-width="18" stroke-linecap="round"/>
<path d="M589.827 524.022C576.218 524.022 555.624 525.152 547.348 526.016C543.566 526.411 520.429 527.446 487.056 527.728C464.885 527.916 447.777 531.417 441.769 532.282C439.645 532.587 440.896 539.326 441.743 541.663C445.346 551.599 468.251 541.723 482.494 540.858C499.045 539.854 519.607 538.299 537.521 537.717C565.852 536.797 574.934 534.293 582.954 532.59C590.023 531.089 589.81 530.305 592.943 528.601C589.81 530.305 591.505 529.74 592.943 528.601C594.381 527.463 595.511 525.768 596.675 524.022" stroke="#963448" stroke-width="18" stroke-linecap="round"/>
<path d="M491.67 546.285C490.54 546.858 490.54 547.423 490.54 547.988L500.811 554.836C498.483 554.254 496.223 553.689 494.22 553.115C490.523 551.977 490.742 550.511 482.212 549.983C468.251 549.118 451.848 543.214 444.876 550.291C443.738 551.446 443.096 553.133 442.89 555.443C442.026 565.141 440.039 573.019 439.467 581.703C438.602 594.825 421.525 644.88 437.207 664.976C438.089 666.106 440.333 665.963 442.351 665.815C461.712 664.394 492.505 663.238 501.984 660.68C509.404 658.677 516.31 657.041 526.241 655.544C535.664 654.123 543.838 648.392 557.918 650.991C568.772 652.993 592.617 660.974 593.542 650.391C593.816 647.259 593.975 636.799 592.96 623.25C591.539 604.274 593.766 580.159 588.954 549.075C588.081 543.435 586.389 544.182 570.697 544.282C526.198 544.564 494.858 544.667 491.67 546.285Z" fill="#C9C5C2" stroke="#C9C5C2" stroke-width="18" stroke-linecap="round" stroke-linejoin="round"/>
<path d="M488.828 695.208C489.38 694.655 489.802 695.99 490.188 698.834L493.963 708.903C492.252 700.823 492.252 696.303 495.453 694.044C504.868 691.784 504.872 689.466 517.964 690.646C530.597 691.784 546.601 694.78 556.763 693.205C565.93 691.784 579.869 687.178 587.568 692.375C589.28 693.53 590.7 695.165 590.974 697.236C591.539 701.507 592.428 710.181 586.096 715.194C584.658 716.332 582.948 717.129 580.951 716.888C571.511 715.75 562.388 716.433 546.697 717.753C536.726 718.592 492.684 729.711 491.387 712.249C490.954 706.42 490.591 701.804 490.188 698.834L488.828 695.208Z" fill="#686A65" stroke="#686A65" stroke-width="18" stroke-linecap="round"/>
<path d="M61.9594 175.269C62.9878 175.269 64.0163 175.269 64.8032 176.04C69.6083 180.75 65.6057 190.82 63.5254 203.52C60.3691 222.789 60.9309 241.713 60.6582 265.297C60.5098 278.132 62.9878 292.606 63.7748 324.994C64.1147 338.985 66.6342 357.429 67.9275 376.456C69.4463 398.798 68.7066 415.225 69.4858 428.875C71.4651 463.554 70.2649 488.463 71.044 495.429C72.676 510.019 70.7947 521.187 70.0156 530.98C68.1785 554.072 70.2649 571.051 71.044 582.13C72.9396 609.085 70.7947 628.706 70.0156 639.786C68.12 666.741 70.2649 687.39 71.044 693.857C73.0071 710.151 72.8672 733.967 71.5738 749.199C71.8387 747.118 72.353 745.576 71.5738 749.199C71.3089 751.279 71.3089 753.85 71.3089 754.941" stroke="#71797C" stroke-width="42" stroke-linecap="round" stroke-linejoin="round"/>
<path d="M233.368 162.803C234.926 166.917 233.898 178.354 233.111 203.995C232.761 215.379 230.251 249.255 231.545 270.284C232.02 278.01 232.324 284.331 233.103 301.324C233.811 316.76 233.368 346.085 233.111 361.956C232.711 386.647 232.324 399.642 233.103 418.949C233.819 436.701 233.368 470.652 233.625 489.422C233.882 508.191 234.396 510.762 234.661 535.227C234.926 559.691 234.926 605.971 234.669 630.841C234.39 657.777 233.368 673.257 233.625 694.543C233.865 714.389 235.44 731.551 236.219 738.26C235.44 731.551 235.954 733.094 236.219 738.26C236.484 743.425 236.484 752.167 234.926 758.057" stroke="#71797C" stroke-width="42" stroke-linecap="round" stroke-linejoin="round"/>
<path d="M377.683 85.2254C379.295 100.691 379.828 127.672 380.634 156.443C381.38 183.076 380.908 234.176 380.642 261.826C380.376 289.476 379.844 292.137 379.569 306.813C379.295 321.488 379.295 348.098 379.029 362.605C378.763 377.111 378.231 378.708 377.957 393.899C377.683 409.091 377.683 437.83 377.417 453.699C377.114 471.712 376.07 496.242 375.804 532.238C375.671 550.157 374.457 563.573 374.191 579.676C373.995 591.547 372.312 620.938 371.24 659.361C370.851 673.308 370.167 675.964 369.893 697.558C369.619 719.152 369.619 759.599 369.353 781.766C368.868 822.128 369.071 851.234 370.417 858.765C370.737 860.551 372.812 861.458 374.433 861.741C380.93 862.872 387.327 859.33 393.786 857.193C401.052 854.789 399.712 844.847 399.995 819.383C400.125 807.589 397.035 792.789 398.108 780.605C398.937 771.186 395.971 759.373 395.156 750.237C394.196 739.463 393.278 727.103 392.471 700.203C391.713 674.909 392.197 625.937 392.463 599.65C392.729 573.363 393.261 571.234 393.536 552.575C393.81 533.916 393.81 498.791 394.076 479.631C394.372 458.331 395.422 438.056 395.156 409.309C394.894 380.983 392.745 349.775 391.931 333.64C391.766 330.368 391.133 328.778 390.859 292.83C390.584 256.883 390.584 186.633 390.85 149.379C391.159 106.187 393.261 99.7721 394.076 89.2975C394.266 86.8472 394.874 85.2577 394.35 84.1691C391.745 78.7593 382.021 80.3873 375.578 79.8551C378.295 80.3873 382.021 80.3873 375.578 79.8551C372.861 79.3229 371.264 78.2585 369.619 77.1618" stroke="#71797C" stroke-width="42" stroke-linecap="round" stroke-linejoin="round"/>
<path d="M622.816 65.8728C622.816 73.3558 621.751 88.3863 619.598 100.506C618.867 104.621 617.977 116.835 617.179 135.889C616.574 150.34 613.139 176.941 613.405 209.719C613.586 231.974 615.816 245.917 616.631 256.665C617.653 270.152 619.042 281.912 619.856 296.169C620.824 313.112 622.267 336.712 623.348 367.854C624.001 386.666 626.041 402.334 626.307 413.333C626.535 422.766 627.654 448.941 627.388 483.599C627.264 499.649 626.041 517.821 625.775 541.463C625.49 566.801 623.364 594.812 622.549 609.834C621.616 627.045 620.671 645.354 619.864 672.795C619.121 698.097 619.59 746.536 619.856 772.283C620.211 806.618 622.267 821.656 622.549 836.695C622.642 841.622 621.203 847.992 617.211 855.249C611.319 865.962 595.416 858.781 592.464 859.063C573.792 860.849 590.013 811.529 590.827 797.829C591.675 783.574 591.11 764.211 590.827 737.674C590.749 730.301 592.174 723.91 592.44 715.322C592.642 708.817 593.787 684.301 594.053 650.442C594.16 636.784 595.399 618.132 595.133 591.53C595.021 580.334 593.787 561.687 594.053 535.085C594.309 509.465 596.464 480.373 597.278 472.576C597.992 465.747 599.689 457.279 600.504 448.385C602.577 425.741 602.915 384.707 603.729 371.797C604.378 361.513 606.14 348.679 607.221 340.607C608.901 328.052 610.978 317.521 611.793 297.37C612.178 287.824 612.075 278.268 611.26 263.753C610.682 253.44 607.785 237.466 604.011 222.887C601.7 213.958 599.721 204.083 598.359 194.922C597.153 186.82 595.948 179.344 595.133 169.127C594.313 158.839 592.722 151.379 591.376 136.365C589.374 114.041 588.4 98.1594 590.553 91.7005C592.835 84.8549 598.077 78.8068 599.697 72.3479C601.317 65.8927 597.012 61.0508 597.81 58.3656C598.634 55.5937 603.979 56.1965 608.003 56.7287C611.809 57.2321 614.204 61.0185 615.55 64.7681C618.655 73.4143 613.688 81.4194 613.405 96.9902C613.141 111.573 615.816 127.64 617.703 135.195C617.977 136.816 617.977 138.413 618.244 140.034C618.51 141.654 619.042 143.251 621.203 148.121" stroke="#71797C" stroke-width="42" stroke-linecap="round" stroke-linejoin="round"/>
<path d="M72.09 168.168C72.09 190.717 70.9916 233.035 70.1513 247.987C69.3393 262.434 67.6634 281.295 67.3722 301.772C67.284 307.975 68.7617 320.052 69.0363 336.685C69.1665 344.573 70.4258 362.703 70.7004 388.489C70.9818 414.909 70.9916 446.043 70.1513 468.175C69.8742 475.472 68.2126 480.44 67.3805 499.702C66.6676 516.205 67.0976 546.422 67.3722 562.805C67.6468 579.189 68.1959 580.836 68.4788 607.221C68.7617 633.605 68.7617 684.677 68.4871 711.811C68.1118 748.903 67.0976 748.879 67.3722 759.687C67.0976 748.879 67.0976 755.469 67.3722 759.687C67.6468 763.906 68.1959 765.553 70.4258 767.251" stroke="#5D686C" stroke-width="10" stroke-linecap="round" stroke-linejoin="round"/>
<path d="M228.517 178.153C228.517 178.702 228.517 179.251 228.517 196.009C228.517 212.766 228.517 245.716 228.242 263.514C227.942 282.974 226.853 287.951 226.578 293.767C226.378 298.012 225.189 327.64 225.463 370.899C225.641 398.865 227.951 422.179 228.792 436.59C229.794 453.774 229.083 477.095 228.242 495.924C227.522 512.069 225.755 529.781 224.914 562.439C224.697 570.889 223.525 596.163 223.799 633.04C223.964 655.199 226.287 667.37 227.127 707.459C227.474 724.005 227.419 735.033 226.578 759.404C226.853 746.632 226.853 755.968 226.578 759.404C226.304 762.841 225.755 760.095 225.189 757.266" stroke="#5D686C" stroke-width="10" stroke-linecap="round" stroke-linejoin="round"/>
<path d="M240.166 176.489C240.166 185.874 241.264 198.089 242.105 207.516C242.457 211.472 243.494 241.655 243.769 286.021C243.922 310.722 244.06 322.898 243.22 342.268C242.591 356.766 241.281 369.51 240.449 388.206C239.691 405.24 240.166 437.655 240.44 455.445C240.715 473.234 241.264 475.431 241.547 496.332C241.83 517.234 241.83 556.773 241.555 577.966C241.173 607.476 239.068 622.972 238.227 636.293C237.695 644.737 237.387 651.295 238.219 665.606C237.387 651.295 237.936 653.492 238.219 665.606C238.502 677.721 238.502 699.687 238.502 722.32" stroke="#5D686C" stroke-width="10" stroke-linecap="round" stroke-linejoin="round"/>
<path d="M388.272 86.6262C388.272 88.8228 388.272 111.921 387.998 146.301C387.881 160.935 386.608 182.945 386.334 213.998C386.234 225.283 385.51 227.477 385.227 244.26C384.944 261.042 384.944 292.345 385.219 309.568C385.529 329.003 386.608 342.235 386.883 359.7C387.011 367.87 388.272 388.747 388.547 418.693C388.661 431.092 389.937 453.082 389.662 484.966C389.562 496.535 388.838 498.729 388.555 513.315C387.751 554.802 388.822 584.181 389.654 592.993C391.515 612.702 389.387 627.448 388.555 646.694C387.795 664.278 388.272 697.79 388.547 716.42C389.009 747.791 391.035 765.553 391.601 773.058C391.601 769.997 391.601 772.742 391.601 773.058C391.601 773.375 391.601 771.178 391.601 768.915" stroke="#5D686C" stroke-width="10" stroke-linecap="round" stroke-linejoin="round"/>
<path d="M353.326 131.557C353.875 136.533 354.99 145.37 356.371 154.813C358.868 171.886 359.982 196.292 361.364 222.402C362.933 252.066 361.097 274.089 359.991 279.622C358.884 285.156 358.318 315.442 358.593 358.144C358.745 381.732 361.081 393.889 363.028 403.599C365.707 416.963 364.975 449.138 363.594 472.627C361.733 504.26 361.647 524.123 360.265 550.208C358.086 591.363 359.433 620.792 358.601 628.779C355.463 658.905 359.982 667.903 358.601 685.318C354.712 734.354 356.654 746.649 355.273 759.979C352.981 782.094 356.654 789.949 355.273 800.758C355.556 796.606 356.105 794.409 355.273 800.758C354.99 804.91 354.99 810.95 354.99 813.846" stroke="#5D686C" stroke-width="10" stroke-linecap="round" stroke-linejoin="round"/>
<path d="M614.593 89.9544C614.593 92.151 614.593 97.6759 614.867 105.156C615.044 109.958 616.257 140.693 615.982 186.165C615.883 202.534 615.158 205.278 614.876 222.069C614.593 238.86 614.593 269.613 614.867 286.828C615.31 314.592 617.355 330.087 617.646 349.207C617.83 361.251 615.708 369.51 614.876 393.972C614.1 416.776 614.593 460.72 614.318 484.45C614.018 510.389 612.929 530.763 613.203 559.045C613.383 577.543 615.691 590.821 616.531 622.348C616.712 629.115 617.355 630.76 617.638 646.985C617.921 663.21 617.921 693.963 617.646 710.629C617.144 741.102 616.257 741.074 616.531 757.707C616.257 741.074 616.257 751.508 616.531 757.707C616.806 763.906 617.355 765.553 616.257 767.251" stroke="#5D686C" stroke-width="10" stroke-linecap="round" stroke-linejoin="round"/>
<path d="M591.295 239.725C592.393 241.922 592.959 256.233 593.234 277.575C593.374 288.514 594.623 311.082 594.349 342.41C594.16 363.979 591.861 379.444 591.569 404.381C591.51 409.456 592.393 411.096 592.676 455.603C592.959 500.11 592.959 587.426 592.684 633.505C592.41 679.585 591.861 681.782 591.578 692.249C590.211 742.81 588.532 751.675 587.692 760.286C586.529 772.201 585.753 787.753 584.921 802.339C585.204 789.949 585.753 787.753 584.921 802.339C584.638 814.728 584.638 837.244 584.638 860.441" stroke="#5D686C" stroke-width="10" stroke-linecap="round" stroke-linejoin="round"/>
<path d="M50.4564 169.832C50.4564 173.693 49.3581 182.546 49.0669 198.064C48.8261 210.893 51.5547 226.379 52.3951 268.398C52.6529 281.285 53.7846 296.189 54.0592 315.035C54.4795 343.879 54.3504 380.576 53.5101 396.094C53.2351 401.171 52.1205 414.341 52.3951 432.638C52.5219 441.089 53.7846 460.87 54.0592 489.152C54.3719 521.356 54.3504 562.531 53.5101 572.233C51.625 593.995 54.3172 631.825 55.1742 646.278C55.7449 655.902 52.1205 669.001 50.7393 678.187C48.8794 690.557 48.7923 725.914 50.1735 746.691C50.9845 758.889 49.3415 763.906 49.8989 767.226C49.3415 763.906 49.8906 765.553 49.8989 767.226C49.9073 768.898 49.3581 770.546 47.1282 770.579" stroke="#5D686C" stroke-width="10" stroke-linecap="round" stroke-linejoin="round"/>
<path d="M86.6242 295.34C87.3613 295.34 88.0983 295.34 87.741 295.524C83.6947 297.611 78.8291 297.194 70.6487 297.389C68.767 297.205 67.6614 296.837 66.1705 296.647C64.6796 296.457 62.8369 296.457 58.7048 294.223" stroke="#686363" stroke-width="5" stroke-linecap="round"/>
<path d="M206.119 295.34C207.593 296.077 211.67 295.351 219.459 293.123C223.932 292.001 229.46 290.895 234.334 290.326C239.209 289.756 243.263 289.756 247.44 289.756" stroke="#686363" stroke-width="5" stroke-linecap="round"/>
<path d="M220.637 412.601C220.269 412.233 219.9 411.864 220.263 411.306C222.754 407.474 231.76 407.777 242.565 406.465C237.355 407.018 240.672 407.018 242.565 406.465C244.458 405.912 244.827 404.806 245.206 403.667" stroke="#686363" stroke-width="5" stroke-linecap="round"/>
<path d="M242.973 519.812C243.341 520.18 243.71 520.549 242.425 521.107C241.141 521.666 238.193 522.403 231.33 522.782C224.468 523.162 213.78 523.162 202.769 523.162" stroke="#686363" stroke-width="5" stroke-linecap="round"/>
<path d="M219.521 639.307C224.323 639.307 239.176 637.833 246.306 636.146C244.078 636.705 245.184 636.336 246.306 636.146C247.429 635.956 248.534 635.956 249.673 635.956" stroke="#686363" stroke-width="5" stroke-linecap="round"/>
<path d="M65.4055 642.657C66.1426 644.868 69.4706 646.745 75.5961 647.493C78.7733 647.504 82.0901 646.767 84.5359 646.387C86.9816 646.007 88.4557 646.007 92.2081 643.774" stroke="#686363" stroke-width="5" stroke-linecap="round"/>
<path d="M60.9385 530.98C61.307 530.98 61.6755 530.98 62.4182 530.795C63.1609 530.611 64.2665 530.243 68.7056 530.053C73.1448 529.863 80.8841 529.863 89.9746 528.746" stroke="#686363" stroke-width="5" stroke-linecap="round"/>
<path d="M59.8215 407.018C62.0439 408.503 66.4998 409.251 74.6635 408.324C69.1131 408.883 70.5872 408.514 74.6635 408.324C78.7397 408.134 85.3733 408.134 92.208 408.134" stroke="#686363" stroke-width="5" stroke-linecap="round"/>
<path d="M64.2888 709.664H72.1062" stroke="#686363" stroke-width="5" stroke-linecap="round"/>
<path d="M63.1719 723.065C63.9089 723.065 64.646 723.065 65.5785 723.065C66.511 723.065 67.6166 723.065 68.739 722.881C69.8614 722.696 70.967 722.328 72.1061 720.831" stroke="#686363" stroke-width="5" stroke-linecap="round"/>
<path d="M60.9385 733.116C61.6755 733.116 63.1609 732.747 65.3888 731.82C66.5112 731.262 67.6168 730.525 68.7391 730.145C69.8615 729.766 70.9671 729.766 72.1062 729.766" stroke="#686363" stroke-width="5" stroke-linecap="round"/>
<path d="M60.9385 743.167H76.5733" stroke="#686363" stroke-width="5" stroke-linecap="round"/>
<path d="M64.2888 756.568C65.0259 756.568 66.5112 756.2 68.7392 755.641C69.8615 755.451 70.9671 755.451 72.0895 755.267C73.2118 755.083 74.3175 754.714 75.4566 754.335" stroke="#686363" stroke-width="5" stroke-linecap="round"/>
<path d="M55.3545 768.853C59.051 769.969 67.237 769.232 79.8733 768.668C82.883 768.484 84.7257 768.116 86.412 767.926C88.0983 767.736 89.5725 767.736 93.3248 766.619" stroke="#686363" stroke-width="5" stroke-linecap="round"/>
<path d="M226.221 701.846C226.958 702.583 228.443 702.963 230.671 702.779C231.794 702.594 232.899 702.226 234.022 702.036C235.144 701.846 236.25 701.846 237.389 702.963" stroke="#686363" stroke-width="5" stroke-linecap="round"/>
<path d="M227.338 710.78C227.706 711.149 228.075 711.517 229.923 711.707C231.771 711.897 235.088 711.897 238.506 711.897" stroke="#686363" stroke-width="5" stroke-linecap="round"/>
<path d="M227.338 719.715H240.739" stroke="#686363" stroke-width="5" stroke-linecap="round"/>
<path d="M226.221 727.532C226.589 728.269 226.958 729.006 228.438 729.386C229.917 729.766 232.497 729.766 234.563 729.581C236.629 729.397 238.103 729.028 240.739 728.649" stroke="#686363" stroke-width="5" stroke-linecap="round"/>
<path d="M226.221 739.816C227.695 739.816 230.666 740.185 234.569 740.743C236.261 740.933 237.366 740.933 238.489 740.749C239.611 740.565 240.717 740.196 241.856 739.816" stroke="#686363" stroke-width="5" stroke-linecap="round"/>
<path d="M215.053 759.918C220.246 759.918 226.936 759.181 233.826 756.948C241.854 754.346 250.779 753.966 253.191 753.408C250.779 753.966 251.884 753.597 253.191 753.408C254.498 753.218 255.972 753.218 256.374 752.101" stroke="#686363" stroke-width="5" stroke-linecap="round"/>
<path d="M368.052 772.203H382.57" stroke="#686363" stroke-width="5" stroke-linecap="round"/>
<path d="M365.818 783.371C366.555 784.108 369.146 785.225 373.049 786.157C374.741 786.353 375.847 785.984 376.969 785.794C378.091 785.604 379.197 785.604 381.453 784.488" stroke="#686363" stroke-width="5" stroke-linecap="round"/>
<path d="M364.701 795.655C365.438 795.655 368.029 796.024 371.932 796.766C373.624 797.141 374.73 797.509 376.405 797.699C378.08 797.889 380.291 797.889 381.453 797.889" stroke="#686363" stroke-width="5" stroke-linecap="round"/>
<path d="M365.818 815.757C366.555 816.494 369.514 816.874 374.16 816.69C376.226 816.505 377.7 816.137 379.013 815.947C380.325 815.757 381.43 815.757 382.569 815.757" stroke="#686363" stroke-width="5" stroke-linecap="round"/>
<path d="M369.168 831.392C369.905 831.392 370.642 831.392 373.418 831.392C376.193 831.392 380.984 831.392 385.92 832.509" stroke="#686363" stroke-width="5" stroke-linecap="round"/>
<path d="M358 866.012C360.591 867.497 388.645 868.246 406.184 867.319C403.029 867.877 404.503 867.509 406.184 867.319C407.864 867.129 409.707 867.129 412.722 864.895" stroke="#686363" stroke-width="5" stroke-linecap="round"/>
<path d="M404.905 772.203H414.956" stroke="#686363" stroke-width="5" stroke-linecap="round"/>
<path d="M403.788 784.487H411.606" stroke="#686363" stroke-width="5" stroke-linecap="round"/>
<path d="M401.555 794.538C402.292 794.907 403.029 795.276 404.146 795.465C405.262 795.655 406.737 795.655 408.255 795.655" stroke="#686363" stroke-width="5" stroke-linecap="round"/>
<path d="M402.671 807.94C403.408 809.045 404.146 810.151 405.078 811.089C406.011 812.027 407.116 812.764 410.489 814.64" stroke="#686363" stroke-width="5" stroke-linecap="round"/>
<path d="M591.406 761.035C592.881 761.404 594.355 761.772 596.22 761.962C598.085 762.152 600.296 762.152 601.988 761.968C603.68 761.783 604.785 761.415 607.041 759.918" stroke="#686363" stroke-width="5" stroke-linecap="round"/>
<path d="M591.406 771.086C592.144 771.086 593.629 771.455 596.041 771.829C597.348 771.834 598.822 771.466 600.318 771.276C601.815 771.086 603.289 771.086 604.808 771.086" stroke="#686363" stroke-width="5" stroke-linecap="round"/>
<path d="M593.64 784.487C594.377 784.856 595.114 785.225 597.889 785.414C600.664 785.604 605.455 785.604 610.392 785.604" stroke="#686363" stroke-width="5" stroke-linecap="round"/>
<path d="M593.64 802.356C593.64 803.093 593.64 803.83 594.193 804.21C597.41 806.42 598.096 804.221 601.429 803.663C598.096 804.221 599.201 803.852 601.429 803.663C603.657 803.473 606.974 803.473 612.625 804.589" stroke="#686363" stroke-width="5" stroke-linecap="round"/>
<path d="M592.523 825.808C593.26 825.808 593.997 825.808 595.114 825.624C596.231 825.44 597.705 825.071 600.491 824.881C603.278 824.691 607.332 824.691 611.508 824.691" stroke="#686363" stroke-width="5" stroke-linecap="round"/>
<path d="M583.589 851.494C586.917 852.611 595.092 853.348 603.105 855.95C609.764 858.112 623.324 861.545 632.52 859.323C638.031 857.991 642.019 855.593 644.805 854.85C642.019 855.593 643.493 855.224 644.805 854.85C646.117 854.476 647.223 854.107 649.479 851.494" stroke="#686363" stroke-width="5" stroke-linecap="round"/>
<path d="M395.878 83.1926C395.375 83.6956 394.871 84.1987 392.852 84.7093C390.832 85.22 387.311 85.723 383.485 85.9822C379.659 86.2413 375.634 86.2413 371.488 86.2413" stroke="#686363" stroke-width="5" stroke-linecap="round"/>
<path d="M395.878 103.009C394.872 103.009 392.341 103.512 388.538 104.777C386.747 105.539 385.238 106.546 381.694 107.064C378.149 107.582 372.616 107.582 366.915 107.582" stroke="#686363" stroke-width="5" stroke-linecap="round"/>
<path d="M397.402 267.638C397.905 267.135 398.408 266.632 391.876 266.373C385.344 266.114 371.763 266.114 357.769 266.114" stroke="#686363" stroke-width="5" stroke-linecap="round"/>
<path d="M395.878 429.219C396.381 428.716 396.884 428.213 395.634 428.457C394.384 428.701 391.365 429.707 386.038 430.225C380.71 430.743 373.165 430.743 365.391 430.743" stroke="#686363" stroke-width="5" stroke-linecap="round"/>
<path d="M398.926 595.373C399.429 595.876 399.932 596.379 398.179 596.889C396.426 597.4 392.402 597.903 388.065 598.162C383.728 598.421 379.201 598.421 374.537 598.421" stroke="#686363" stroke-width="5" stroke-linecap="round"/>
<path d="M603.188 589.275C604.698 589.778 606.207 590.281 608.996 590.54C611.786 590.8 615.81 590.8 623.005 589.275" stroke="#686363" stroke-width="5" stroke-linecap="round"/>
<path d="M603.188 421.597C604.698 422.1 606.207 422.603 608.242 422.862C610.277 423.122 612.792 423.122 615.345 423.373C617.898 423.625 620.414 424.128 624.529 423.122" stroke="#686363" stroke-width="5" stroke-linecap="round"/>
<path d="M607.761 255.444H624.529" stroke="#686363" stroke-width="5" stroke-linecap="round"/>
<path d="M610.81 103.009C611.313 103.009 611.816 103.009 612.83 103.261C613.844 103.512 615.353 104.015 617.639 104.274C619.926 104.533 622.944 104.533 626.054 104.533" stroke="#686363" stroke-width="5" stroke-linecap="round"/>
<path d="M603.188 89.29C603.188 88.2839 604.698 87.2626 607.739 85.9974C609.271 85.2352 610.78 84.2291 613.318 83.9624C615.856 83.6956 619.377 84.1987 626.054 86.2413" stroke="#686363" stroke-width="5" stroke-linecap="round"/>
<path d="M392.829 83.1926C393.332 83.1926 393.835 83.1926 392.585 83.6956C391.335 84.1987 388.317 85.2047 385.504 85.9745C382.692 86.7443 380.177 87.2474 376.061 87.7656" stroke="#686363" stroke-width="5" stroke-linecap="round"/>
<path d="M394.353 101.485C394.353 102.491 394.353 103.497 391.335 103.512C388.317 103.527 382.28 102.521 374.537 101.485" stroke="#686363" stroke-width="5" stroke-linecap="round"/>
<path d="M576.425 98.5815L575.152 99.855" stroke="#686363" stroke-width="5" stroke-linecap="round"/>
</svg>
