<svg width="264" height="266" viewBox="0 0 264 266" fill="none" xmlns="http://www.w3.org/2000/svg">
<g filter="url(#filter0_d_307_1468)">
<path d="M12.4271 136.577C12.9586 134.475 12.9507 129.723 13.8788 125.622C15.3137 119.281 15.3304 115.968 17.7062 106.865C18.9281 102.184 20.0899 98.5165 21.8073 93.8918C23.4978 89.3397 25.373 85.0312 26.9635 81.7233C29.1744 77.1249 32.2425 72.6089 34.7611 67.7145C37.1314 63.1084 41.2222 57.5529 44.411 52.377C47.524 47.3242 50.2335 44.5753 53.7912 41.1366C58.5747 36.5131 62.3861 33.9934 66.2215 31.217C69.5899 28.7787 74.269 25.5373 78.386 23.2805C83.2225 20.6293 90.4037 18.6519 95.0403 17.5929C99.9862 16.4632 104.682 15.2092 109.977 13.7615C120.426 10.9047 136.682 13.353 141.707 14.412C146.947 15.5161 153.324 16.7798 164.954 21.932C171.427 24.8001 175.821 27.6315 179.656 29.3489C183.401 31.0254 188.767 33.4381 195.248 37.2735C200.154 40.177 204.108 44.2739 208.475 47.8515C213.988 52.3677 217.61 57.2356 220.247 61.3328C223.096 65.7575 224.947 69.5432 227.534 74.8339L227.652 75.0759C230.984 81.8896 233.728 88.6643 238.484 102.411C242.791 114.861 243.787 119.109 244.187 123.468C244.74 129.475 245.643 145.683 244.854 157.181C244.48 162.626 241.947 168.275 239.575 174.756C235.99 184.552 232.967 187.329 229.659 191.164C225.141 196.403 218.165 202.131 215.246 205.578C211.961 209.455 206.012 213.49 199 218.527C192.958 222.867 185.943 228.023 179.292 232.286C176.096 234.335 172.156 235.463 166.734 237.97C162.806 239.786 156.577 242.063 146.268 244.848C133.452 248.309 128.797 246.569 114.546 246.708C108.616 246.766 103.413 244.729 98.7765 243.011C93.7489 241.149 88.3413 240.493 84.1014 239.442C77.4245 237.786 72.9998 235.21 67.5779 232.703C63.6058 230.866 61.3549 227.023 58.3167 223.977C54.9708 220.622 51.3123 217.504 47.3461 213.145C42.5242 207.846 40.7303 204.019 38.7432 200.184C36.7578 196.351 34.1146 192.12 31.6079 188.285C29.4939 185.05 28.0383 180.761 26.7096 177.044C25.4695 173.576 23.8024 169.909 22.7434 166.601C21.4695 162.622 20.8991 158.804 19.5704 155.627C17.9241 151.69 15.8698 146.381 14.8108 142.145C14.5451 141.082 14.2833 140.035 14.1485 137.794C14.0136 135.553 14.0136 132.15 14.0136 128.644M50.5032 53.2852C52.3435 54.0706 59.1813 60.3769 62.7906 65.1721C65.5488 68.8365 68.7321 71.5142 72.1708 74.9529C77.7196 80.5017 83.0106 85.7927 85.3983 88.9697C87.6089 91.9111 90.9273 96.8824 95.9644 101.261C102.11 106.604 105.222 113.017 111.691 120.156C115.923 124.827 119.5 128.628 122.281 132.067C126.224 136.944 131.383 141.304 135.103 145.683C139.654 151.039 142.505 154.012 146.34 157.189C150.159 160.353 154.134 165.372 159.555 171.194C163.729 175.676 167.619 180.713 171.066 184.949C174.382 189.026 178.201 192.088 180.061 195.265C182.15 198.833 185.864 202.131 190.1 207.025C193.966 211.492 194.074 211.396 195.787 213.506C196.715 214.569 197.762 215.616 198.841 214.315" stroke="white" stroke-width="24" stroke-linecap="round"/>
</g>
<defs>
<filter id="filter0_d_307_1468" x="0.424316" y="0.423248" width="262.739" height="264.605" filterUnits="userSpaceOnUse" color-interpolation-filters="sRGB">
<feFlood flood-opacity="0" result="BackgroundImageFix"/>
<feColorMatrix in="SourceAlpha" type="matrix" values="0 0 0 0 0 0 0 0 0 0 0 0 0 0 0 0 0 0 127 0" result="hardAlpha"/>
<feOffset dx="6" dy="6"/>
<feComposite in2="hardAlpha" operator="out"/>
<feColorMatrix type="matrix" values="0 0 0 0 0 0 0 0 0 0 0 0 0 0 0 0 0 0 0.2 0"/>
<feBlend mode="normal" in2="BackgroundImageFix" result="effect1_dropShadow_307_1468"/>
<feBlend mode="normal" in="SourceGraphic" in2="effect1_dropShadow_307_1468" result="shape"/>
</filter>
</defs>
</svg>
