<svg width="251" height="250" viewBox="0 0 251 250" fill="none" xmlns="http://www.w3.org/2000/svg">
<mask id="mask0_252_1637" style="mask-type:alpha" maskUnits="userSpaceOnUse" x="0" y="0" width="251" height="250">
<path d="M38.2059 244.615C18.5456 244.778 8.14259 248.35 5.05058 248.35C3.0389 249.435 3.11638 233.873 1.95856 209.755C1.49289 200.055 0.465273 192.769 1.34388 183.576C2.11688 175.487 2.12541 168.058 3.20654 148.8C3.97955 135.03 1.86929 117.73 3.20654 103.174C3.97955 94.7592 3.32172 85.3403 5.0692 76.6402C6.15886 71.2152 7.46477 64.4046 7.5512 52.6212C7.70487 31.6709 8.2345 16.9044 8.48253 13.6124C8.6362 11.5728 8.51896 7.90167 15.7609 7.42371C36.7158 6.04068 51.7816 5.45739 54.6067 5.26302C61.4426 4.7927 67.0617 4.17127 76.6513 3.08836C83.4965 2.31536 89.6691 1.66902 94.3372 1.2257C102.477 0.452699 113.472 1.89148 118.724 2.16169C127.865 2.63201 140.248 4.02766 153.505 4.80201C164.187 5.426 179.736 5.06507 192.15 5.26302C202.372 5.426 210.419 6.94725 218.381 6.81834C228.449 6.65536 236.164 4.03415 239.462 8.07098C240.854 9.77532 241.396 33.7889 242.246 48.9145C242.717 57.2825 243.565 70.3415 244.109 79.4901C244.579 87.4017 245.74 92.8764 246.749 99.658C247.373 103.849 251.259 107.68 248.761 134.625C247.988 142.965 247.783 146.744 246.898 151.189C246.125 155.072 245.911 159.47 245.036 164.227C244.263 168.427 242.025 173.453 243.49 188.465C244.263 196.386 246.319 202.613 245.036 218.114C244.263 227.455 246.182 236.252 244.878 241.374C244.561 242.617 243.993 243.82 242.056 244C237.092 244.461 233.106 245.055 230.735 245.239C224.686 245.709 217.868 245.758 201.976 245.546C190.432 245.393 168.918 245.393 157.686 245.234C146.454 245.076 145.534 244.713 140.638 244.615C117.267 244.145 105.464 243.769 95.5247 244.308C86.8493 244.778 81.3048 246.248 74.3928 246.17C59.8407 246.007 49.2878 244.523 38.2059 244.615Z" fill="#D9D9D9" stroke="black" stroke-width="1.83363" stroke-linecap="round"/>
</mask>
<g mask="url(#mask0_252_1637)">
<path d="M78.9142 145.831C81.0894 146.319 84.4721 144.871 88.3568 143.893C95.3986 142.119 105.816 144.857 112.465 144.5C122.781 143.947 127.625 145.584 148.791 145.951C157.232 146.098 164.013 146.079 172.005 145.831C174.644 145.75 165.497 144.624 158.721 144.256C151.674 143.874 141.04 142.689 134.827 142.074C129.12 141.509 121.398 140.506 112.774 140.252C103.314 139.972 96.6499 142.194 92.2669 142.918C86.6755 143.841 78.4923 144.376 71.174 145.704C68.945 146.108 67.042 146.559 66.1872 146.439C62.849 145.97 72.8326 144.144 76.1135 142.441C81.6498 139.569 95.3405 140.012 103.492 139.408C117.664 138.358 124.454 140.012 131.874 141.339C142.491 143.239 156.739 142.674 163.999 143.042C168.659 143.277 172.016 144.129 176.137 144.496C177.119 144.584 177.835 144.857 178.566 144.86C179.298 144.864 180.018 144.624 179.669 144.14C178.406 142.391 171.354 141.474 157.233 140.383C148.174 139.683 135.191 140.012 126.112 140.372C112.201 140.923 105.365 142.194 99.9344 142.554C84.6731 143.566 79.9036 144.857 71.7923 147.759C66.3533 149.706 62.9245 154.066 60.011 155.649C59.3589 156.003 58.5597 155.536 58.3087 155.052C56.6121 151.782 67.4785 147.548 76.4518 144.871C86.344 141.92 90.2918 141.714 96.7081 141.226C109.431 140.26 123.508 139.531 131.263 139.404C139.033 139.277 149.217 140.492 154.429 141.463C159.697 142.444 165.454 144.129 171.645 146.188C175.813 147.574 180.731 150.182 184.386 152.371C187.637 154.318 189.722 158.184 191.308 162.549C193.002 167.211 179.101 161.356 173.747 159.781C167.406 157.915 154.673 156.525 145.136 155.168C136.968 154.006 126.709 155.041 121.853 155.529C115.003 156.216 106.34 157.224 90.2518 157.591C83.2762 157.75 76.5136 158.678 72.7453 159.53C67.8788 160.629 64.3794 160.861 59.6545 161.228C58.5524 161.348 57.8322 161.588 57.5813 161.352C57.3303 161.115 57.5703 160.395 58.5451 158.926" stroke="#E8930B" stroke-width="18.6135" stroke-linecap="round"/>
<path d="M260.41 41.3645C258.363 39.6081 254.832 36.0865 251.161 33.2843C245.87 29.2463 239.846 28.7257 233.663 27.1017C224.983 24.8217 216.898 21.3648 212.181 19.5996C205.812 17.2166 200.129 17.8344 181.206 17.8256C171.898 17.8212 163.66 19.2995 155.006 19.5908C150.423 19.745 145.478 20.4645 127.2 21.4928C108.921 22.521 77.4653 23.9773 57.1832 25.4556C28.6705 27.5339 18.596 30.7645 15.0745 32.3796C0.493896 39.067 -20.2294 52.2292 -22.308 54.5902C-30.3953 63.7764 1.75608 48.7253 19.8317 47.4014C33.3177 46.4137 42.9646 45.1949 56.5566 43.7298C66.9221 42.6125 84.4202 41.6822 98.9566 40.2083C113.493 38.7343 124.561 36.9868 131.427 36.0865C140.59 34.8853 145.355 34.6038 150.05 33.5755C154.693 32.5588 170.835 32.5385 192.596 32.6841C206.616 32.7779 214.18 35.1863 229.316 37.3839C235.665 38.3057 240.958 39.2992 244.373 40.6231C248.782 42.3319 232.785 41.3645 225.137 40.6319C216.606 39.8147 203.13 37.5516 182.464 35.9321C170.563 34.9995 155.681 35.7688 146.573 36.2101C134.522 36.7939 125.726 38.1253 114.279 39.1491C95.1655 40.8586 87.4475 44.0034 74.01 46.4924C63.2567 48.4841 44.262 50.4376 33.4899 51.9292C15.1472 54.469 5.95725 58.7163 -0.812282 61.5054C-7.40579 64.2218 -12.8774 65.477 -18.6231 67.2511C-19.4859 67.5174 -5.65774 63.7472 12.131 60.2168C25.4355 57.5763 36.1774 58.1338 52.3157 56.2318C60.4871 55.2688 74.1997 54.6211 87.0768 53.2972C111.666 50.7692 125.355 48.4253 129.022 48.2796C137.147 47.957 144.755 46.9601 151.824 46.5144C160.655 45.9577 171.233 46.36 179.035 46.9513C186.098 47.4866 192.415 49.0078 199.189 49.5991C209.263 50.4785 216.845 51.6556 221.995 52.2469C230.849 53.2635 240.075 56.0686 252.714 56.223C256.587 56.2703 258.636 54.9035 259.378 54.4578C263.289 52.1063 251.902 62.8116 244.259 68.1204C241.649 69.9333 226.421 69.6076 204.661 69.462C188.065 69.3509 175.716 67.56 166.021 66.5229C156.632 65.5186 145.434 64.312 136.176 64.1664C125.094 63.9921 109.857 62.2644 93.8022 61.5186C88.0461 61.2512 83.3258 60.7816 77.611 60.4904C59.2045 59.5523 43.3264 60.1815 36.4025 61.5142C30.1032 62.7267 23.0267 64.312 15.9571 65.9228C8.60847 67.5971 0.961738 69.3075 -5.22969 71.2183C-11.0679 73.0202 -16.4078 75.7681 -20.097 77.8378C-20.9217 78.3005 -21.4209 79.2985 -20.7016 79.7487C-13.5942 84.1963 -3.50421 75.5034 0.763156 74.7576C5.8793 73.8634 19.3727 72.2731 28.4105 71.0815C31.8636 70.6263 46.1066 69.6076 69.3057 69.0251C88.5008 68.5431 99.1684 66.0772 103.131 65.786C110.48 65.2458 117.394 63.7295 127.081 61.0905C140.332 57.4804 151.533 56.3686 155.646 56.223C165.06 55.8897 177.428 56.0685 185.5 56.8055C195.361 57.7059 200.958 60.4815 204.793 61.8054C208.838 63.2017 213.315 64.312 217.295 65.9228C222.426 67.9989 229.202 68.1248 235.671 69.4576C239.123 70.1687 241.867 70.1901 243.191 71.6552C243.855 72.3903 243.641 73.7029 243.058 74.7399C241.79 76.9976 238.363 78.1335 234.259 79.0161C229.099 80.1257 217.834 76.9861 204.458 73.4557C190.197 69.6918 175.716 69.6076 167.036 68.875C162.79 68.5167 155.725 68.1425 142.398 67.2599C122.413 65.9364 108.33 67.5423 103.348 68.4249C91.145 70.5866 83.3434 69.6076 72.7699 71.0727C49.6999 74.2694 42.4438 73.4204 35.5199 75.0444C29.3496 76.4916 23.6092 78.716 17.8635 80.4856C12.1908 82.2327 7.42236 85.1943 2.85491 87.1051C-0.858292 88.6586 -4.3515 90.4899 -7.8863 92.4007C-11.6485 94.4344 -14.6602 96.9593 -15.2516 97.5551C-19.624 101.96 -2.03909 90.79 3.10645 89.7661C8.77934 88.6374 16.4778 88.1422 23.821 87.9965C27.0892 87.9317 29.4167 87.5596 53.772 86.9727C78.1273 86.3858 124.437 85.512 149.313 85.2075C174.189 84.903 176.228 85.1943 180.482 85.3443C202.707 86.1282 215.663 88.1422 223.606 89.6073C228.863 90.577 233.615 90.79 237.595 91.6681C241.922 92.6228 245.971 94.0203 250.097 95.1985C252.692 95.9397 255.397 96.6681 257.745 96.5313C264.876 96.1157 262.175 81.152 262.908 72.8732C263.115 70.5299 263.058 67.0304 262.912 66.1037C262.147 61.2328 258.945 78.3983 256.452 82.1052C255.871 82.9685 253.967 81.6815 253.071 80.6533C252.176 79.6251 251.884 78.1688 252.171 76.9817C252.458 75.7946 253.332 74.9208 254.073 75.0532C254.815 75.1856 255.397 76.3507 255.26 77.8246C254.948 81.1864 252.184 84.3029 249.691 86.2181C248.577 87.0742 246.907 86.0945 246.156 84.9207C242.194 78.7211 248.619 67.5953 254.064 59.6298C255.191 57.9813 256.562 57.2689 257.454 58.1294C264.291 64.7304 256.889 76.9332 254.982 81.6374C254.206 83.554 252.785 84.0116 251.602 83.8748C250.419 83.738 249.254 82.8642 248.217 81.2491C243.14 73.3413 249.484 55.892 254.951 45.3538C255.835 43.6505 257.471 55.389 256.884 68.6412C256.679 73.269 258.627 51.7262 263.627 43.0061C264.518 41.4521 265.688 41.082 266.43 41.3645C272.967 43.8547 267.189 66.2714 263.221 80.0134C262.538 82.3789 261.31 83.4114 260.278 84.0116C259.245 84.6118 258.08 84.6118 257.189 83.8836C251.973 79.6229 254.815 66.4303 258.773 53.4737C259.722 50.3661 261.558 48.1781 262.745 46.6865C263.932 45.1949 264.806 44.6124 265.693 45.623C268.355 48.6565 268.936 57.1983 269.819 68.0542C271.563 89.5031 267.48 99.0158 265.573 100.344C259.793 104.372 256.015 78.8219 254.819 60.9934C254.254 52.5652 258.045 45.8039 260.393 41.8322C261.306 40.287 262.74 40.4819 263.777 42.375C266.656 47.6305 267.171 58.0721 267.908 69.9606C268.589 80.9552 266.597 89.2895 264.545 94.1394C263.662 96.2277 261.911 96.9505 260.432 96.9637C258.954 96.977 257.498 96.1032 256.311 94.3424C253.604 90.3272 253.349 83.7645 253.641 76.4301C254.374 57.973 265.106 45.495 266.288 43.4386C268.891 38.9123 255.15 34.9215 248.08 29.7627C241.199 24.7416 227.86 21.0824 210.34 19.3083C202.294 18.4935 188.32 16.687 175.875 15.7868C163.43 14.8865 152.945 14.8865 145.214 15.1778C132.8 15.6454 125.399 16.6517 117.496 16.2148C104.304 15.4857 93.917 13.4214 87.1827 12.5388C76.4585 11.1333 66.274 12.8212 54.1339 13.7038C31.8565 15.3234 16.2395 14.2952 13.4505 15.0277C8.3953 16.3555 3.89197 18.6993 0.0570779 20.3233C-6.41157 23.0626 -18.1553 27.2252 -24.7925 30.0275C-26.4354 30.7212 -28.164 31.6382 -29.3555 32.9621C-35.1737 39.4268 -28.2346 60.6581 -25.2647 75.5916C-24.5937 78.9652 -23.804 83.0584 -23.2082 84.7221C-22.8078 85.8403 -22.0211 75.2915 -21.5842 65.1019C-21.5425 64.1299 -20.2736 72.0965 -19.3866 77.0214C-18.4995 81.9463 -17.6258 83.6939 -17.1756 78.9146C-15.6618 62.8412 -16.143 46.7042 -14.8235 38.9197C-14.2396 35.4746 -13.2128 33.174 -12.1801 32.1193C-10.5525 30.4569 -7.61711 41.5586 -5.85192 59.621C-4.46214 73.8419 -6.12552 83.4026 -8.32319 88.2569C-9.19582 90.1844 -11.3946 89.9074 -13.1687 89.1792C-17.0023 87.6057 -19.3645 82.5818 -20.6884 76.2756C-23.8639 61.1497 -14.9956 44.383 -7.92602 37.6929C-5.02956 34.9519 -1.14767 52.141 1.05882 71.236C2.65126 85.017 0.935263 93.4113 -1.40804 97.5286C-2.4453 99.3511 -4.91636 99.3159 -7.42294 98.4465C-13.2335 96.4312 -17.8817 89.6514 -21.5533 81.4388C-29.4426 63.7923 -24.9778 49.9345 -21.7519 43.4695C-20.3185 40.5968 -17.9435 39.3345 -15.4369 39.8949C-9.30419 41.2662 -5.2694 52.1851 -2.18472 65.2432C0.926097 78.4119 0.34392 90.4457 -1.70371 98.5303C-2.55293 101.883 -5.49888 102.829 -8.44676 102.992C-14.9189 103.35 -21.6946 98.4686 -27.7139 92.1624C-33.813 85.7726 -35.8426 77.295 -35.9971 69.8106C-36.1505 62.3763 -30.2822 55.8126 -25.7324 50.5214C-23.7458 48.2111 -21.4739 47.5603 -19.4042 47.5471C-17.3345 47.5338 -15.2957 48.4076 -13.6629 50.0228C-6.78217 56.8291 -8.78214 68.0895 -11.4167 76.2006C-11.9907 77.9679 -13.1775 78.9984 -14.2101 79.5986C-16.1798 80.7434 -18.7732 79.9075 -20.9752 78.7381C-23.6396 77.3231 -24.0776 74.0294 -24.6645 73.1424C-26.506 70.3594 -23.2214 90.9665 -19.3866 97.1182C-18.1288 99.1357 -14.6867 93.1553 -11.1607 91.827C-9.76068 91.2996 -8.7998 92.5375 -8.34967 93.8614C-7.89955 95.1853 -7.89955 96.9328 -7.75392 97.3962C-7.57419 97.968 -5.85192 95.7943 -3.64983 95.2074C0.203394 94.1804 6.18672 96.0855 10.6218 96.9637C12.4425 97.3242 15.0303 97.8507 17.3869 98.2876C18.1238 98.4243 17.4134 99.5983 16.6764 100.194C15.2464 101.35 13.0004 101.672 11.3808 101.531C10.7558 101.477 11.2175 99.9337 12.387 99.1879C22.0858 93.0026 40.308 96.6857 48.7059 95.9399C53.1719 95.5433 57.095 92.8552 62.5318 91.8226C75.9785 89.2686 89.1156 93.4378 103.846 94.9029C113.529 95.8659 122.99 93.4377 134.724 91.9726C155.51 89.3772 160.359 90.79 168.276 91.5225C188.828 93.4242 197.675 92.5552 204.93 93.2877C214.477 94.2517 220.958 95.2029 225.967 95.9355C233.852 97.0887 238.61 97.5507 243.914 98.5833C250.918 99.9466 258.027 101.381 262.895 102.992C267.603 104.55 267.745 104.029 271.271 103.883C267.745 104.029 269.783 104.029 271.271 103.883C272.758 103.738 273.632 103.446 276.297 101.381" stroke="#2A0581" stroke-width="22.5827" stroke-linecap="round" stroke-linejoin="round"/>
<path d="M30.0465 109.281C31.8968 109.281 35.9944 108.544 38.4233 107.607C40.6253 106.758 42.8926 106.117 51.3478 105.835C54.2634 105.738 61.2899 105.368 71.3438 105.184C79.6544 105.031 82.9517 103.881 86.4931 103.507C90.1405 103.121 96.3346 101.466 100.938 100.804C103.473 100.439 106.061 99.5993 112.658 98.9424C121.03 98.1088 127.304 97.1731 131.863 96.8908C133.474 96.7911 137.713 96.4241 143.672 96.3318C153.537 96.1791 166.994 96.234 171.181 96.5163C174.295 96.7262 176.866 97.352 181.889 97.8188C188.546 98.4375 193.983 100.326 198.112 101.081C202.254 101.838 204.817 102.383 207.892 102.85C213.686 103.73 216.557 104.988 219.449 105.832C222.29 106.661 226.798 107.604 230.068 108.253C231.108 108.459 232.567 108.901 231.206 109.091C220.412 110.598 216.59 107.985 211.095 106.676C207.709 105.87 204.292 105.927 200.56 105.463C196.647 104.977 185.173 104.25 176.62 103.786C174.296 103.66 170.756 103.322 159.836 102.763C151.323 102.328 136.74 102.573 127.849 102.758C116.18 103 111.864 103.691 108.89 103.784C101.433 104.015 89.1792 104.988 81.406 105.461C79.8159 105.557 78.1554 105.737 72.1348 105.832C66.1142 105.927 55.7835 105.927 48.617 106.204C32.8024 106.815 28.7607 108.342 21.5019 110.114C18.3703 110.879 16.6357 111.143 16.1661 111.699C14.4844 113.691 20.532 113.563 31.6788 113.569C36.2856 113.571 39.5274 112.267 48.1586 111.149C61.443 109.428 71.7714 110.774 74.7454 110.494C77.7078 110.216 80.7157 110.031 83.6896 109.471C86.6184 108.921 94.0873 108.544 103.769 107.425C111.817 106.496 119.623 105.927 127.377 105.463C138.465 104.8 143.314 105.927 147.426 106.855C151.263 107.721 159.123 107.604 169.3 108.996C173.096 109.516 175.754 109.65 180.38 110.855C197.937 115.427 201.832 115.8 205.563 116.174C209.264 116.546 211.715 118.405 214.418 119.249C216.69 119.958 218.983 120.831 221.222 121.113C224.113 121.478 228.475 123.805 231.84 125.395C232.564 125.737 233.327 125.862 233.615 125.588C235.988 123.33 227.211 119.724 223.48 117.86C219.995 116.118 214.555 115.99 207.559 115.062C201.903 114.311 197.393 114.313 188.424 114.036C180.929 113.805 167.464 113.206 145.307 113.382C123.151 113.558 92.7121 114.48 76.4783 115.048C59.1319 115.654 56.7059 115.99 54.1959 116.174C49.5012 116.519 45.1622 118.405 41.2407 119.433C37.4455 120.429 34.1608 121.759 31.2679 122.787C28.7896 123.668 26.7035 125.113 23.9085 127.069C22.5099 128.048 21.1078 128.657 20.546 129.124C18.8536 130.53 26.301 125.325 29.384 123.262C31.8171 121.634 34.8763 120.652 37.3975 119.534C38.6818 118.964 40.4721 119.159 42.4231 118.695C43.46 118.449 44.5585 118.047 68.4648 118.133C92.3711 118.22 139.043 118.774 165.393 119.428C191.742 120.082 196.354 120.82 199.375 121.384C205.957 122.614 209.658 123.436 213.297 124.28C216.332 124.984 223.779 126.969 230.342 130.046C235.782 132.597 235.384 133.314 236.779 134.429C235.384 133.314 236.122 133.867 236.779 134.429C237.436 134.991 237.989 135.544 239.677 136.114" stroke="#3F135F" stroke-width="16.8694" stroke-linecap="round"/>
<path d="M-1.0285 110.069C1.44852 110.069 6.93389 109.081 10.1854 107.828C13.1332 106.691 16.1685 105.833 27.4872 105.455C31.3903 105.325 40.7965 104.831 54.2555 104.584C65.3808 104.379 69.7949 102.84 74.5356 102.339C79.4184 101.822 87.7102 99.6071 93.8729 98.7203C97.2666 98.232 100.731 97.1076 109.562 96.2283C120.769 95.1124 129.169 93.8598 135.271 93.4819C137.428 93.3483 143.103 92.857 151.08 92.7336C164.287 92.5291 182.301 92.6026 187.906 92.9805C192.075 93.2616 195.517 94.0993 202.241 94.7242C211.153 95.5524 218.431 98.0805 223.958 99.0908C229.503 100.104 232.934 100.834 237.05 101.459C244.806 102.637 248.649 104.322 252.522 105.452C256.325 106.561 262.359 107.824 266.737 108.692C268.129 108.968 270.082 109.56 268.26 109.815C253.811 111.832 248.694 108.333 241.338 106.582C236.805 105.503 232.231 105.579 227.235 104.958C221.997 104.306 206.637 103.334 195.188 102.713C192.076 102.544 187.337 102.092 172.718 101.343C161.322 100.76 141.801 101.089 129.898 101.336C114.277 101.66 108.499 102.586 104.518 102.709C94.5353 103.019 78.1314 104.322 67.7257 104.954C65.597 105.083 63.3741 105.324 55.3144 105.452C47.2547 105.579 33.4253 105.579 23.8315 105.949C2.66087 106.767 -2.7497 108.812 -12.467 111.184C-16.6592 112.207 -18.9813 112.561 -19.6099 113.306C-21.8612 115.972 -13.7653 115.801 1.15666 115.809C7.32376 115.812 11.6634 114.065 23.2179 112.568C41.0014 110.265 54.828 112.067 58.8092 111.693C62.7749 111.32 66.8015 111.072 70.7827 110.323C74.7033 109.586 84.7019 109.081 97.6632 107.584C108.437 106.34 118.886 105.579 129.266 104.958C144.109 104.07 150.601 105.579 156.105 106.821C161.242 107.981 171.764 107.824 185.388 109.687C190.47 110.382 194.028 110.563 200.22 112.176C223.724 118.296 228.938 118.795 233.933 119.296C238.887 119.793 242.169 122.282 245.787 123.412C248.828 124.362 251.897 125.53 254.894 125.908C258.765 126.396 264.604 129.511 269.109 131.64C270.078 132.098 271.1 132.265 271.485 131.898C274.662 128.876 262.913 124.048 257.918 121.552C253.252 119.221 245.97 119.049 236.605 117.807C229.033 116.802 222.996 116.804 210.989 116.434C200.955 116.124 182.93 115.322 153.269 115.558C123.608 115.794 82.861 117.029 61.129 117.788C37.9077 118.6 34.6601 119.049 31.3 119.296C25.0152 119.758 19.2067 122.282 13.9571 123.659C8.87643 124.992 4.47932 126.772 0.606631 128.149C-2.71106 129.329 -5.50361 131.262 -9.24533 133.881C-11.1175 135.192 -12.9945 136.007 -13.7466 136.631C-16.0121 138.514 -6.04241 131.546 -1.91529 128.785C1.34181 126.606 5.4372 125.29 8.81223 123.794C10.5314 123.031 12.9281 123.292 15.5399 122.671C16.928 122.341 18.3985 121.803 50.4015 121.919C82.4045 122.035 144.884 122.776 180.157 123.651C215.43 124.527 221.604 125.515 225.649 126.271C234.46 127.917 239.415 129.017 244.286 130.147C248.349 131.089 258.318 133.747 267.103 137.866C274.386 141.281 273.854 142.24 275.721 143.733C273.854 142.24 274.841 142.981 275.721 143.733C276.6 144.485 277.341 145.226 279.601 145.99" stroke="#81052C" stroke-width="22.5827" stroke-linecap="round" stroke-linejoin="round"/>
<path d="M228.497 149.634C227.021 149.639 222.18 148.147 218.728 147.029C214.541 145.673 210.631 146.28 207.822 145.352C205.631 144.628 203.353 143.675 201.114 142.464C198.857 141.244 196.085 140.511 190.506 140.038C186.933 139.736 181.394 138.834 165.479 138.546C162.353 138.489 161.616 138.822 155.518 138.917C149.419 139.012 137.981 139.012 131.628 138.92C125.275 138.828 124.352 138.643 119.819 138.548C115.285 138.453 107.168 138.453 102.341 138.546C97.514 138.638 96.2227 138.822 91.3146 138.917C77.9227 139.177 68.6241 139.197 67.1399 139.569C61.8761 140.887 53.9388 140.868 42.8507 141.341C34.5465 141.695 26.3346 142.545 23.8134 143.574C21.068 144.694 19.2462 146.268 17.1974 148.043C16.6454 148.522 16.0822 149.064 16.0738 149.441C16.0654 149.818 16.6189 150.003 17.2729 149.913C20.1388 149.521 22.209 148.516 28.9004 146.475C33.8897 144.954 38.7783 144.608 46.6576 143.77C51.9321 143.208 59.8867 143.485 65.8178 143.208C80.0313 142.545 84.0585 141.439 88.7263 141.064C93.1058 140.713 97.6594 139.577 106.279 138.739C112.112 138.171 120.987 138.453 126.84 138.638C135.289 138.904 142.179 139.571 149.162 139.664C153.017 139.715 158.206 140.13 165.924 140.407C176.954 140.803 184.648 142.914 190.098 143.669C194.311 144.252 197.919 145.9 206.662 148.136C210.548 149.13 212.833 150.372 215.536 151.492C218.192 152.594 220.101 154.654 222.616 155.872C224.462 156.766 228.285 156.901 232.198 156.624C233.553 156.528 233.528 155.794 233.159 155.14C230.988 151.291 223.868 150.014 220.679 148.706C217.174 147.268 211 146.101 207.732 145.072C204.242 143.974 201.307 142.378 198.785 141.531C195.192 140.324 190.506 138.834 184.094 137.252C174.763 134.949 167.022 133.238 161.001 132.958C156.645 132.756 149.631 132.863 143.437 133.232C125.949 134.274 122.306 135.837 116.901 136.681C112.266 137.405 107.772 137.894 103.479 138.358C98.6492 138.88 91.1916 139.571 86.7083 140.035C82.0372 140.519 76.087 141.808 68.3698 143.199C63.8102 144.022 60.0656 144.603 56.9826 145.067C53.3409 145.615 48.5051 146.839 41.9059 148.787C37.9184 149.964 36.2012 150.193 35.086 150.377C35.6478 150.193 36.2012 150.193 35.086 150.377C34.5241 150.562 33.9707 150.931 32.2825 150.752" stroke="#DC540B" stroke-width="16.8694" stroke-linecap="round"/>
<path d="M-15.2473 154.221C-12.2764 153.248 -4.30649 146.753 0.206024 146.483C1.10732 146.429 1.45576 147.965 1.46324 149.091C1.47926 151.502 -2.4955 154.947 -7.47948 158.561C-9.4657 160.002 -10.4878 160.447 -7.41587 157.985C2.66975 149.902 11.1842 144.493 12.3105 145.233C18.4146 149.249 0.744833 158.195 -2.6302 160.073C-7.67935 162.883 9.15623 151.25 15.7641 148.253C18.0692 147.208 18.6677 148.219 17.8108 149.465C15.3848 152.993 11.4536 154.468 10.4509 154.348C1.61496 153.293 29.384 141.754 32.6355 141.623C33.3971 141.592 34.1285 141.993 34.2632 142.738C35.1452 147.613 27.6778 150.719 25.2868 152.597C19.2942 157.305 39.0975 145.256 43.2359 143.127C47.4089 140.98 52.8371 141.754 56.0812 139.887C60.1986 137.517 63.3139 136.77 67.4261 135.516C75.3446 133.102 85.001 131.277 90.0037 130.154C95.0454 129.023 103.455 127.79 108.712 127.157C115.158 126.382 125.666 126.038 130.901 125.163C144.195 122.939 156.797 126.532 165.456 127.153C170.599 127.522 176.06 128.777 186.626 131.135C203.186 134.829 208.238 136.5 212.358 137.877C217.448 139.578 222.951 140.99 229.563 145.72C234.097 148.964 237.424 153.203 243.392 159.175C259.064 174.857 263.13 176.664 264.376 177.293C268.059 179.151 259.44 161.779 255.904 156.099C255.667 155.719 257.375 155.718 258.752 156.212C261.782 157.299 264.866 160.934 266.867 164.301C267.469 165.313 265.906 165.446 264.776 164.952C259.364 162.587 258.4 155.98 258.026 153.738C257.859 152.738 257.899 151.991 258.639 151.733C259.38 151.475 260.862 151.722 261.996 152.59C267.266 156.625 266.13 164.182 265.513 165.936C263.179 172.571 258.901 152.754 258.396 149.117C258.303 148.45 259.38 147.995 260.256 147.987C262.182 147.971 264.372 151.699 265.872 156.062C266.415 157.639 265.397 158.202 264.274 158.21C258.235 158.25 247.751 144.582 238.352 138.139C227.289 130.556 219.015 135.019 207.554 131.535C199.313 129.03 189.829 126.038 185.945 125.163C182.393 124.362 177.362 124.287 164.662 123.045C156.25 122.222 149.905 122.544 143.705 122.293C132.079 121.823 120.001 123.284 109.434 124.033C96.6747 124.937 86.3106 125.028 80.582 126.151C76.3976 126.971 69.615 127.767 58.7977 130.749C46.1118 134.247 38.1471 137.75 35.4119 139.243C27.5876 143.514 17.4703 149.701 9.22732 157.188C4.59024 161.4 0.73735 163.935 -1.89308 166.932C-4.86061 170.313 -8.00332 172.428 -10.1174 172.556C-11.248 172.624 -12.4784 171.942 -13.238 171.317C-13.9976 170.692 -14.2445 169.951 -14.0013 169.199C-12.4854 164.512 2.36874 159.25 11.3002 157.087C12.4583 156.807 13.1748 158.442 13.433 159.815C14.0062 162.863 11.955 166.92 9.21984 170.905C6.72665 174.538 2.9749 175.422 0.610131 175.672C-0.513579 175.792 -1.50768 175.429 -2.38699 174.685C-3.26629 173.94 -4.00716 172.705 -4.26534 170.958C-4.84561 167.03 -2.5404 162.475 0.939404 157.996C4.82066 153.001 10.4209 150.487 15.027 149.982C17.1637 149.747 18.8922 151.452 19.7827 152.829C21.4088 155.343 19.6854 160.425 17.5714 165.906C16.0504 169.85 11.4686 171.672 6.98603 173.169C3.6362 174.288 0.482912 173.431 -2.13255 172.44C-3.40086 171.959 -4.00716 170.46 -4.38881 169.207C-5.12205 166.798 -3.78265 163.718 -1.42162 160.358C1.105 156.762 5.19 154.977 8.17964 153.854C9.41302 153.391 10.1815 153.473 10.6866 153.967C11.1917 154.461 11.4387 155.448 11.1955 156.575C10.9523 157.701 10.2114 158.936 9.08888 159.695C7.96636 160.455 6.48464 160.702 5.22742 160.705C2.96926 160.712 0.235959 157.985 -2.6302 153.753C-7.61099 146.399 -6.26716 134.315 -7.25872 127.176C-7.42952 125.946 -8.49723 125.545 -9.00236 125.66C-12.0413 126.358 -14.2146 138.431 -16.7402 143.741C-17.9565 146.297 -21.9674 139.509 -24.22 136.897C-24.8789 136.133 -25.2152 135.034 -24.8523 133.66C-23.1445 127.199 -21.2415 128.036 -20.2425 126.544C-21.2415 128.036 -20.5007 127.296 -20.2425 126.544C-19.9843 125.791 -20.2313 125.051 -20.4857 124.287" stroke="#DC540B" stroke-width="36.8852" stroke-linecap="round" stroke-linejoin="round"/>
<path d="M106.073 160.255C105.704 160.255 105.335 160.255 104.868 160.163C104.401 160.07 103.848 159.886 103.932 159.145C104.178 156.967 106.436 155.229 108.111 154.391C111.651 152.618 117.98 152.988 122.455 153.916C123.396 154.111 123.95 154.106 124.42 154.382C124.889 154.659 125.258 155.213 125.448 155.774C125.639 156.336 125.639 156.89 125.177 157.544C122.738 161.004 118.941 161.557 116.895 161.652C115.953 161.696 115.218 161.194 114.654 160.45C114.089 159.707 113.72 158.6 113.715 157.753C113.705 156.307 115.75 154.676 120.104 152.445C127.376 148.721 134.75 149.443 138.007 150.464C139.49 150.928 140.341 152.037 140.816 153.158C141.291 154.279 141.291 155.57 140.645 156.973C139.195 160.126 135.164 162.111 130.611 163.229C121.454 165.477 114.112 159.897 111.481 157.468C111.045 157.065 111.473 156.353 112.122 155.699C115.964 151.823 124.297 151.501 129.722 152.608C130.795 152.826 131.217 153.904 131.41 154.746C131.603 155.587 131.419 156.509 130.586 157.446C126.034 162.563 116.549 162.86 109.729 161.661C108.2 161.392 107.213 160.087 106.551 159.335C105.888 158.583 105.704 158.03 105.793 157.376C106.363 153.21 118.684 150.953 130.625 149.265C141.741 147.693 147.613 152.976 149.662 155.207C150.579 156.205 150.604 157.437 149.869 158.653C148.075 161.621 142.811 163.598 136.402 165.367C129.288 167.331 121.759 165.482 115.436 163.531C109.723 161.768 105.715 159.148 103.479 157.194C102.622 156.445 102.719 155.794 102.903 155.048C103.325 153.341 104.575 151.691 106.615 150.296C109.399 148.393 118.304 148.7 129.381 149.256C133.827 149.479 135.846 150.181 137.168 150.743C138.49 151.305 139.044 151.858 138.96 152.697C138.75 154.798 135.533 156.89 130.524 159.12C123.296 162.339 112.653 162.306 103.158 161.842C94.4014 161.415 90.8006 158.768 89.9593 157.655C89.5065 157.057 90.4093 155.805 91.4323 154.866C93.6492 152.831 100.617 150.953 110.38 148.625C123.977 145.382 129.16 147.956 132.336 147.493C135.324 147.056 138.295 149.075 142.669 149.539C150.193 150.337 157.67 152.048 160.289 153.633C161.582 154.416 161.975 157.437 161.882 161.16C161.826 163.424 160.678 165.275 158.729 167.413C156.391 169.98 151.75 170.502 147.102 170.689C142.822 170.861 134.644 168.288 123.115 164.844C113.263 161.902 107.756 161.563 106.825 160.727C106.378 160.326 106.263 159.707 107.09 158.592C109.386 155.498 113.139 153.183 116.205 151.417C119.338 149.612 125.225 147.968 132.389 146.198C141.299 143.998 148.156 144.412 154.59 146.456C161.077 148.516 163.271 153.535 164.389 155.766C164.921 156.826 164.77 157.996 164.032 159.397C162.271 162.738 157.715 165.828 151.957 168.805C148.904 170.384 145.092 171.044 137.288 171.519C129.485 171.994 117.678 171.994 110.028 171.717C102.378 171.441 99.2418 170.887 97.4417 170.326C95.6417 169.764 95.2728 169.21 94.3336 167.522" stroke="#CBB407" stroke-width="16.8694" stroke-linecap="round"/>
<path d="M73.9261 146.926C73.2021 148.012 72.2861 149.477 70.9204 151.12C66.1872 156.813 55.283 154.605 54.6412 154.334C48.1699 151.596 72.9992 146.378 75.0094 146.65C75.7935 146.755 75.9336 147.464 75.4838 148.558C74.2953 151.45 70.4761 154.227 65.8249 156.328C61.6078 158.232 57.1259 157.896 53.6567 157.625C52.1584 157.508 51.2735 156.81 50.8978 156.259C50.5221 155.708 50.7031 155.165 51.6108 154.433C59.4291 148.126 72.6317 148.023 74.9161 148.385C75.8163 148.528 75.9336 149.471 75.6648 150.387C75.0357 152.532 72.1161 154.413 67.7446 155.875C62.1814 157.735 57.6634 156.618 56.0207 156.254C50.5382 155.036 74.2662 144.195 79.4823 143.545C84.326 142.942 86.1684 142.544 85.9079 142.536C81.6241 142.401 73.619 148.55 63.2141 152.655C55.1776 155.826 48.5475 158.982 42.7939 160.899C39.3142 162.059 37.3693 162.833 36.2696 162.652C33.6855 162.226 43.9128 158.28 46.2274 156.616C50.7791 153.342 36.4753 166.091 33.0719 168.863C32.7125 169.156 32.4274 168.329 32.9677 167.506C34.4105 165.309 42.0534 162.306 52.1895 158.834C58.3855 156.712 62.2104 157.161 64.6758 158.162C65.7891 158.614 66.2363 159.706 65.973 160.535C65.35 162.495 62.2378 163.195 62.9426 163.019C77.0562 159.504 80.6835 158.993 81.69 159.355C82.122 159.511 81.7914 160.441 81.1552 161.176C77.9203 164.913 73.3886 165.027 71.8336 164.755C71.2998 164.662 71.5457 163.941 72.3629 163.118C74.4505 161.016 81.9121 157.194 91.0499 152.716C96.8932 149.852 104.411 149.126 114.981 148.394C127.691 147.513 136.799 148.391 142.35 147.664C145.921 147.197 150.978 146.213 156.304 145.747C167.029 144.808 175.369 144.738 179.754 143.915C183.044 143.298 188.154 143.087 193.571 142.177C197.823 141.462 200.249 143.63 201.897 144.543C202.362 144.801 201.735 145.095 200.822 145.097C195.449 145.113 188.955 142.725 185.371 141.447C184.672 141.198 184.183 140.718 184.175 140.441C184.102 137.994 197.435 141.968 208.638 146.181C216.033 148.961 224.695 152.389 232.42 156.056C234.31 156.953 234.995 158.439 235.453 159.534C235.669 160.05 235.368 160.628 234.642 161.179C232.83 162.553 229.17 162.652 224.432 161.925C218.845 161.068 212.908 157.913 208.246 155.173C206.577 154.192 206.66 153.519 207.294 153.24C209.051 152.464 216.835 154.77 227.791 158.327C235.472 160.82 238.286 163.924 238.835 165.018C239.096 165.539 239.021 166.113 238.297 166.573C236.338 167.82 231.918 167.226 223.189 164.412C217.071 162.44 207.944 158.16 202.646 156.018C197.347 153.876 196.261 153.695 195.883 153.873C195.504 154.051 195.866 154.594 196.596 155.055C198.281 156.119 205.865 156.794 216.821 157.888C229.115 159.116 234.255 162.641 236.356 164.283C237.233 164.969 237.551 165.564 237.195 166.115C236.212 167.636 228.298 167.95 215.261 167.591C201.566 167.213 192.965 163.935 189.682 163.112C188.055 162.705 186.399 162.833 185.379 163.104C184.359 163.376 183.997 163.919 184.353 164.379C185.37 165.693 191.983 165.756 201.743 165.759C206.439 165.76 210.599 165.038 212.653 164.486C214.748 163.924 203.841 162.29 186.759 161.738C173.851 161.322 168.113 165.202 163.075 165.756C157.378 166.382 154.203 167.769 147.635 169.135C149.475 168.855 151.466 168.312 147.635 169.135C145.795 169.415 144.166 169.415 142.487 169.415" stroke="#CBB407" stroke-width="22.5827" stroke-linecap="round"/>
<path d="M156.953 178.329C156.953 178.691 156.953 179.053 156.5 179.33C150.146 183.219 138.129 174.128 137.665 173.398C134.059 167.722 155.274 172.658 159.32 174.026C160.002 174.257 160.057 175.027 159.698 175.578C158.785 176.979 155.148 177.775 147.873 178.507C135.591 179.743 126.616 177.967 124.787 177.147C124.125 176.85 124.405 176.146 126.309 175.233C131.662 172.664 137.915 171.385 141.842 171.108C143.414 170.997 144.14 171.736 144.423 172.378C144.974 173.631 140.356 177.024 133.598 181.044C129.636 183.401 124.987 183.265 119.603 182.994C115.057 182.765 109.816 180.172 104.789 177.707C102.957 176.808 102.839 176.146 103.017 175.414C104.117 170.895 113.765 168.654 126.098 165.722C131.349 164.474 135.364 166.438 137.739 167.987C138.779 168.666 139.028 169.718 138.672 170.727C137.824 173.126 133.757 174.484 128.835 175.397C117.15 177.565 108.148 172.85 107.046 171.846C106.705 171.536 108.115 171.023 115.553 169.389C122.99 167.754 136.746 164.858 145.643 163.276C158.088 161.062 162.794 161.688 164.075 162.689C164.659 163.145 164.27 164.233 163.181 165.333C160.448 168.093 153.344 170.091 144.856 171.736C138.454 172.977 132.123 171.21 127.184 169.202C125.553 168.539 126.226 167.557 127.23 166.822C129.532 165.136 135.699 163.712 143.822 162.431C154.617 160.729 160.776 164.792 163.515 166.342C164.72 167.023 165.169 168.072 165.087 169.082C164.904 171.319 161.001 173.563 156.075 175.663C151.736 177.514 145.835 176.87 139.267 175.869C128.237 174.188 123.868 170.107 123.314 169.013C122.562 167.527 128.223 166.635 135.501 165.086C146.994 162.639 156.925 162.966 161.944 164.332C164.304 164.974 166.058 166.24 167.171 167.433C168.285 168.626 168.647 169.893 168.29 171.361C167.484 174.68 163.195 177.402 157.545 179.503C151.133 181.887 144.184 180.348 138.348 178.436C127.393 174.848 124.965 169.564 123.868 167.647C123.416 166.857 123.495 166.273 123.857 165.722C124.703 164.433 127.499 163.525 131.599 162.703C143.333 160.348 154.188 165.154 157.751 167.614C159.359 168.725 159.684 170.617 159.512 172.271C159.339 173.925 158.434 175.554 156.972 176.936C153.888 179.852 147.124 181.066 139.456 181.708C128.695 182.608 121.86 176.146 120.215 173.958C119.472 172.969 119.656 171.769 120.38 170.486C122.094 167.446 126.577 164.995 132.046 162.623C138.019 160.032 143.948 159.68 148.69 160.404C153.846 161.192 157.485 165.878 160.044 169.526C161.226 171.212 161.154 173.173 160.071 175.282C157.498 180.292 150.771 183.074 144.022 184.083C131.958 185.887 125.343 177.249 122.236 174.237C120.96 173.001 120.939 171.769 121.389 170.667C123.707 164.985 134.772 162.258 146.038 162.05C148.285 162.008 149.252 164.222 149.902 165.692C150.552 167.162 150.733 168.61 150.374 170.08C149.619 173.169 146.186 175.938 141.269 178.765C135.002 182.369 127.186 182.536 120.618 181.9C114.684 181.325 110.529 179.251 108.154 177.882C107.176 177.318 106.865 176.695 107.04 176.053C107.472 174.475 113.754 171.226 122.971 166.66C135.066 160.669 143.038 163.147 146.507 164.877C148.107 165.676 148.89 167.151 149.175 168.528C149.748 171.295 146.915 174.835 142.634 178.395C137.905 182.327 131.02 182.169 125.546 181.626C120.549 181.13 117.473 177.43 115.918 174.602C115.215 173.325 115.63 171.956 116.718 170.488C119.321 166.981 124.927 164.085 131.489 160.893C138.579 157.444 145.95 156.39 152.154 157.385C158.315 158.374 161.511 165.138 163.43 170.519C164.353 173.103 164.083 175.718 163.178 178.2C161.279 183.41 155.34 187.088 148.503 189.285C141.477 191.543 133.768 186.578 127.291 181.93C121.103 177.49 118.564 172.312 117.832 169.029C117.117 165.825 119.458 161.896 122.467 158.062C125.065 154.75 130.592 153.291 136.615 152.372C141.574 151.615 146.866 157.997 151.981 164.932C154.2 167.941 154.923 170.42 154.937 173.352C154.951 176.283 154.046 179.722 152.584 182.127C149.966 186.435 142.193 188.01 133.34 188.838C126.411 189.486 119.694 183.841 113.301 178.823C108.865 175.34 107.775 171.034 107.589 167.296C107.388 163.28 112.492 158.973 118.786 154.865C124.158 151.359 131.316 150.724 139.069 151.173C146.56 151.608 153.261 158.364 158.834 164.844C161.161 167.55 161.692 169.696 161.974 171.717C162.257 173.738 162.076 175.729 160.715 177.75C157.594 182.389 150.047 185.262 141.658 187.275C133.498 189.233 125.541 185.657 119.968 183.372C122.102 184.209 125.541 185.657 119.968 183.372C117.835 182.536 117.111 182.355 116.365 182.169" stroke="#F2DF93" stroke-width="22.5827" stroke-linecap="round"/>
<path d="M152.156 152.263C152.291 152.398 152.427 152.534 152.699 152.603C152.972 152.673 153.377 152.673 153.857 152.2C156.193 149.894 156.655 146.953 161.017 140.474C162.846 137.755 164.44 135.751 166.081 133.492C167.42 131.648 168.947 130.146 170.043 128.37C172.179 124.908 175.093 121.952 176.258 120.311C177.27 118.886 178.51 117.445 179.604 115.464C180.713 113.455 183.959 109.546 186.43 106.45C187.863 104.654 189.433 102.425 190.326 100.644C191.57 98.1658 192.989 95.3159 193.602 94.4985C192.989 95.3159 193.26 94.9103 193.602 94.4985C193.944 94.0867 194.35 93.6811 195.177 93.2632" stroke="white" stroke-opacity="0.1" stroke-width="25.6708" stroke-linecap="round"/>
<path d="M135.358 158C135.628 158 135.898 158 135.7 150.766C135.501 143.532 134.825 129.065 134.341 121.004C133.784 111.712 133.309 108.849 133.241 105.985C133.154 102.271 132.088 96.0412 131.535 91.7043C131.4 90.8173 131.129 89.6004 130.99 88.4327C130.851 87.265 130.851 86.1833 130.851 85.0688" stroke="white" stroke-opacity="0.1" stroke-width="25.6708" stroke-linecap="round"/>
<path d="M165.678 167.013C165.948 167.013 166.764 166.878 167.923 166.47C170.159 165.684 173.028 160.892 178.017 157.125C181.242 154.689 184.111 154.312 186.821 153.163C193.592 150.291 198.177 146.941 199.334 146.124C202.349 143.995 206.765 141.348 213.523 136.507C216.484 134.387 216.475 134.375 217.907 133.965C216.475 134.375 217.286 134.104 217.907 133.965C218.528 133.826 218.934 133.826 218.532 133.826" stroke="white" stroke-opacity="0.1" stroke-width="25.6708" stroke-linecap="round"/>
<path d="M119.788 160.868C118.293 159.372 115.974 156.377 110.416 148.172C105.908 141.519 97.5565 130.098 92.9697 123.839C87.8236 116.817 86.4694 115.532 84.4331 113.358C78.0114 106.504 75.5503 105.293 73.5714 103.451C74.3335 104.211 75.5503 105.293 73.5714 103.451C72.8093 102.691 72.5389 102.286 72.2603 102.277" stroke="white" stroke-opacity="0.1" stroke-width="25.6708" stroke-linecap="round"/>
<path d="M106.677 179.715C106.542 179.445 106.407 179.174 97.8868 173.627C89.3666 168.079 72.4655 157.262 63.2857 151.217C51.3092 143.33 49.7341 142.02 47.3454 140.117C46.7267 139.566 46.1859 139.161 45.5693 138.952C44.9526 138.743 44.2766 138.743 43.5801 139.562" stroke="white" stroke-opacity="0.1" stroke-width="25.6708" stroke-linecap="round"/>
<path d="M234.42 181.355C233.27 180.97 228.592 180.187 223.935 179.702C214.621 178.733 212.241 180.573 209.903 180.867C207.426 181.18 203.692 182.523 194.868 183.008C189.369 183.31 179.341 183.107 173.697 183.203C167.084 183.316 161.472 183.691 153.982 183.595C146.449 183.498 139.445 183.492 135.357 183.787C133.586 183.915 123.176 184.275 108.288 184.371C98.7655 184.433 91.3615 185.244 86.5993 185.346C77.2016 185.548 61.5795 185.244 59.1444 185.539C54.5909 186.091 47.9615 186.412 45.2257 186.707C41.7172 187.085 37.0532 187.58 18.5241 187.49C14.8397 187.472 14.851 186.622 15.2364 186.035C16.9903 183.365 23.5637 182.149 29.7245 181.259C33.5178 180.71 37.8006 180.386 47.4185 180.283C49.4936 180.261 50.2623 180.573 59.7167 180.672C69.171 180.771 87.2854 180.771 96.9062 180.867C108.481 180.983 111.578 180.97 121.967 180.675C126.407 180.549 128.712 179.802 134.055 179.507C138.843 179.243 144.28 178.248 156.511 177.948C161.268 177.831 168.187 179.019 173.571 179.504C181.243 180.195 187.073 179.019 192.842 178.05C198.723 177.062 203.435 177.267 209.278 176.783C223.274 175.621 225.649 175.714 232.835 175.612C236.278 175.563 237.918 177.46 238.987 178.426C239.666 179.041 239.863 180.549 239.868 181.629C239.887 185.126 238.514 184.853 237.156 185.729C237.936 185.431 238.514 184.853 237.156 185.729C236.376 186.027 235.413 186.027 234.42 186.027" stroke="#080704" stroke-width="16.8694" stroke-linecap="round"/>
<path d="M215.149 187.778C214.396 187.971 205.07 189.133 194.276 192.818C184.286 196.228 177.595 200.234 176.129 200.141C175.821 200.121 177.168 199.084 184.412 197.338C191.657 195.592 204.953 192.894 212.189 191.504C219.424 190.114 220.195 190.114 220.206 190.403C220.391 194.964 206.25 195.942 197.464 196.634C194.345 196.88 192.381 197.314 192.757 197.028C193.712 196.549 196.217 195.393 197.797 194.701C199.376 194.009 199.955 193.816 201.134 194.786" stroke="black" stroke-width="1.10018" stroke-linecap="round"/>
<path d="M224.493 188.946C224.113 190.102 208.668 198.231 199.876 201.405C199.542 201.526 199.768 200.637 200.638 200.05C206.369 196.185 215.699 196.538 221.051 196.827C222.953 196.93 223.127 197.694 222.744 198.281C219.71 202.937 207.418 202.961 195.526 199.764C193.598 199.246 193.928 198.301 194.895 197.811C197.427 196.526 207.476 196.345 220.414 196.149C225.257 196.076 226.607 196.339 227.109 197.017C227.611 197.694 227.226 198.85 225.967 199.928C222.969 202.494 218.093 203.154 213.722 203.157C209.852 203.16 207.371 201.215 206.203 199.761C205.601 199.011 205.806 197.729 206.384 196.652C207.651 194.292 211.237 192.847 215.313 191.679C219.619 190.445 223.891 191.475 226.808 192.345C228.114 192.734 228.569 194.179 228.674 195.738C228.909 199.227 225.877 203.715 221.124 208.667C215.972 214.033 209.532 216.387 204.288 217.359C199.476 218.251 195.312 217.373 192.299 215.531C190.876 214.661 190.25 213.111 189.949 211.548C189.325 208.31 191.581 204.345 195.073 199.977C198.971 195.101 204.031 191.878 208.498 190.222C210.572 189.454 212.58 189.916 214.151 191.075C217.583 193.607 218.262 200.199 218.072 207.674C217.875 215.456 213.999 221.047 210.601 223.867C209.071 225.136 207.395 225.339 206.119 225.248C204.843 225.158 203.879 224.58 203.286 223.511C201.964 221.127 203.073 217 205.976 211.183C210.383 202.351 217.269 196.17 220.867 192.958C222.237 191.734 223.115 191.866 223.512 192.926C224.636 195.927 222.945 202.529 220.04 212.518C216.199 225.726 210.881 233.514 208.259 234.393C207.048 234.799 205.83 233.923 205.041 232.662C203.241 229.78 203.856 224.79 205.211 218.968C206.81 212.096 211.237 206.296 214.928 202.115C216.538 200.291 218.233 199.668 219.605 200.234C222.888 201.589 223.71 208.76 224.102 217.204C224.52 226.225 221.976 235.231 219.161 242.714C217.908 246.046 216.154 248.078 214.685 249.17C213.217 250.262 211.868 250.262 210.691 249.491C209.514 248.72 208.551 247.179 208.247 244.65C207.532 238.695 210.46 231.032 214.437 222.877C222.238 206.881 229.737 201.998 231.874 201.309C234.276 200.534 234.035 208.953 232.102 220.579C230.864 228.025 227.857 238.373 225.985 244.601C224.113 250.829 223.15 252.563 222.364 253.456C221.579 254.35 221.001 254.35 220.703 253.097C220.405 251.845 220.405 249.339 221.851 240.533C223.296 231.727 226.186 216.696 227.772 209.531C229.357 202.366 229.55 203.522 227.53 213.56C225.509 223.598 221.27 242.484 218.411 253.561C215.553 264.639 214.204 267.337 212.931 268.631C211.658 269.924 210.501 269.731 209.231 268.187C205.96 264.208 204.837 256.148 204.446 244.901C204.215 238.283 204.825 229.8 203.675 235.742C202.524 241.684 199.826 262.303 198.148 273.793C196.469 285.282 195.891 287.017 195.111 287.043C194.331 287.069 193.368 285.335 192.197 274.71C191.026 264.084 189.677 244.621 189.56 236.04C189.444 227.458 190.6 230.349 192.352 237.908C194.104 245.468 196.416 257.608 197.415 263.381C198.413 269.153 198.028 268.19 195.806 257.576C193.584 246.963 189.537 226.728 189.283 227.096C189.029 227.464 192.69 249.047 193.902 258.624C195.114 268.201 193.765 265.118 190.95 253.702C188.136 242.285 183.896 222.629 181.712 212.214C179.528 201.799 179.528 201.221 180.01 202.176C180.492 203.131 181.455 205.636 183.686 215.405C185.917 225.175 189.385 242.133 191.076 251.351C192.766 260.569 192.574 261.533 191.896 261.162C191.219 260.791 190.063 259.057 186.48 248.431C182.897 237.806 176.924 218.343 173.557 207.834C170.19 197.326 169.612 196.363 171.916 207.043C174.22 217.724 179.423 240.078 181.718 250.919C184.013 261.76 183.242 260.411 179.473 249.985C175.703 239.558 168.958 220.095 165.484 210.357C162.009 200.62 162.009 201.198 164.803 213.154C167.598 225.111 173.186 248.428 176.065 260.73C178.944 273.031 178.944 273.609 178.27 272.558C177.595 271.507 176.246 268.809 172.95 259.229C169.653 249.649 164.45 233.269 161.095 223.482C157.74 213.694 156.391 210.997 155.793 211.148C155.194 211.3 155.387 214.384 157.992 226.378C160.596 238.373 165.606 259.185 168.284 270.677C170.961 282.17 171.154 283.711 170.675 283.349C170.196 282.987 169.04 280.675 165.361 270.137C161.682 259.6 155.516 240.907 151.279 229.061C147.042 217.216 144.923 212.784 147.877 222.448C150.832 232.113 158.926 256.008 162.806 267.836C166.687 279.664 166.109 278.701 161.282 267.991C156.456 257.281 147.399 236.854 142.251 225.657C137.103 214.459 136.14 213.111 139.208 223.111C142.277 233.111 149.407 254.502 153.177 266.003C156.946 277.504 157.139 278.467 152.421 270.966C147.702 263.465 138.067 247.471 130.791 236.148C123.515 224.825 118.89 218.658 114.58 213.747C106.863 204.954 100.325 201.215 97.0173 201.688C95.4468 201.913 95.6363 205.437 99.1984 217.233C102.761 229.029 110.083 249.842 114.145 261.816C118.206 273.79 118.784 276.295 118.601 277.393C118.417 278.491 117.453 278.105 109.923 267.212C102.393 256.318 88.3251 234.927 80.0182 222.655C71.7114 210.383 69.5916 207.878 68.2106 206.588C66.8295 205.297 66.2514 205.297 72.4092 217.438C78.5671 229.578 91.4785 253.859 97.7444 266.079C104.01 278.298 103.239 277.72 98.3137 270.774C93.388 263.827 84.3308 250.531 78.4123 242.236C70.2794 230.837 66.0587 226.915 64.4966 226.609C63.637 226.44 65.247 230.349 69.6938 239.257C74.1407 248.166 82.0417 263.004 86.2082 271.13C90.3748 279.256 90.5675 280.219 89.7996 279.945C89.0317 279.67 87.2973 278.129 80.4299 270.108C73.5626 262.087 61.6147 247.634 54.7853 239.803C47.9559 231.972 46.6069 231.202 45.8157 231.286C44.3861 231.439 45.0186 236.603 46.1806 243.59C47.4924 251.477 50.8465 259.565 52.7969 265.407C53.3801 267.154 52.4349 266.625 49.5326 261.124C46.6303 255.623 41.6199 245.217 38.3643 238.7C35.1088 232.183 33.7598 229.87 33.4503 228.775C33.1408 227.68 33.9116 227.873 34.6941 228.84C39.3525 234.593 38.7935 248.043 38.0198 253.953C37.9477 254.503 37.0533 254.35 36.2738 253.194C31.9283 246.749 32.1831 240.557 31.497 236.373C31.2561 234.904 32.5452 234.694 33.3306 234.594C34.116 234.495 34.6941 234.495 35.4737 234.977C40.2368 237.92 41.3163 247.109 41.3279 251.129C41.3298 251.755 40.1717 251.815 39.1965 251.433C36.8496 250.512 34.5248 247.167 31.9028 243.091C29.1545 238.819 27.126 230.273 25.5668 220.933C24.5972 215.124 24.7785 211.148 22.7434 206.386C22.2756 205.292 22.0572 204.725 22.247 204.331C25.9474 196.645 46.7588 204.316 50.8465 204.81C56.4562 205.487 64.663 204.912 69.9099 204.424C75.9349 203.864 80.827 202.576 83.157 201.896C85.4421 201.228 91.8814 199.282 101.403 195.977C108.859 193.389 114.107 193.034 117.506 192.841C125.622 192.381 133.383 192.251 138.727 192.546C142.178 192.737 145.25 193.419 148.082 194.199C149.533 194.598 151.486 194.786 153.624 195.075C155.561 195.337 156.555 197.309 157.043 198.766C157.445 199.968 156.368 201.396 155.399 202.95C153.062 206.694 148.012 207.627 140.47 208.792C134.701 209.683 124.834 209.957 118.711 210.448C112.589 210.938 110.469 211.324 102.921 211.619C95.3735 211.913 82.4621 212.106 73.1129 211.916C58.351 211.617 49.918 210.553 45.1529 210.745C40.7871 210.922 38.2213 212.305 35.6898 213.274C34.9385 213.562 33.9467 213.473 33.643 213.858C32.9257 214.768 41.252 221.59 52.6334 230.927C58.1788 235.477 61.9301 237.987 66.6923 239.932C73.7872 242.829 85.0666 242.659 95.1691 245.182C99.9241 246.369 103.73 248.09 108.799 250.907C120.307 257.304 127.544 262.905 129.778 264.654C133.676 267.707 136.502 270.689 137.769 274.672C139.795 281.039 141.956 283.343 142.444 285.092C142.656 285.855 142.353 286.456 141.001 286.754C137.223 287.586 129.745 285.895 121.193 283.662C114.841 282.003 109.867 280.05 104.145 278.499C91.6635 275.118 89.02 272.458 88.3367 271.197C88.0075 270.589 88.6171 269.743 89.201 269.25C90.361 268.269 92.6989 268.365 95.4173 268.558C98.1894 268.754 100.489 270.304 102.142 272.05C103.782 273.783 103.42 276.721 102.454 279.44C101.299 282.689 96.629 284.126 91.8726 285.098C86.9899 286.096 78.754 284.535 67.4923 281.046C48.7884 275.251 47.5646 270.514 44.6477 268.663C43.6325 268.018 41.7484 268.365 40.3732 268.847C33.9485 271.097 32.5685 279.84 31.6955 280.818C26.7097 286.404 28.2823 260.797 28.0896 256.122C27.7952 248.981 25.9464 245.602 25.4617 241.141C24.2611 230.089 24.7785 225.374 23.8091 221.563C22.9085 218.023 22.4427 207.142 21.8616 200.15C21.8025 199.438 21.4733 198.885 21.374 198.876C20.7983 198.826 21.8529 203.125 23.0179 213.385C23.8303 220.54 24.1829 231.739 25.2515 242.314C26.3202 252.89 27.8618 262.525 29.0414 268.356C31.154 278.799 35.0796 283.513 37.3249 286.946C39.6147 290.448 45.5908 288.605 51.1326 288.707C55.3796 288.785 61.1476 287.636 65.0572 287.151C70.6715 286.455 74.0122 286.66 83.3789 287.241C91.3907 287.738 106.042 288.208 116.381 288.217C126.72 288.225 132.309 287.647 137.597 287.349C147.691 286.781 154.207 287.244 157.314 287.44C160.42 287.636 164.9 287.052 171.207 287.341C184.633 287.956 190.798 289.189 195.181 289.58C197.294 289.769 205.152 290.555 216.242 290.363C223.385 290.239 226.42 289.002 230.803 287.834C232.784 287.306 234.607 287.443 235.968 286.765C238.622 285.444 237.726 281.422 238.02 277.142C238.357 272.259 238.893 266.449 239.188 261.375C239.639 253.612 239.291 243.079 238.899 238.603C238.575 234.896 237.924 231.78 237.828 229.742C237.721 227.495 237.34 219.19 237.244 208.001C237.189 201.588 237.142 198.5 237.436 190.631C237.573 186.977 238.117 184.864 238.12 184.374C238.136 181.593 236.371 190.289 235.979 201.355C235.626 211.359 236.16 220.609 238.015 229.111C239.292 234.967 239.676 240.703 239.483 244.493C239.015 253.694 229.562 265.795 225.585 269.72C224.375 270.913 221.62 270.117 220.429 269.731C219.237 269.346 219.237 268.575 219.045 267.889C218.852 267.203 218.466 266.625 218.069 266.029" stroke="black" stroke-width="30.0715" stroke-linecap="round"/>
<path d="M202.302 176.099C202.886 172.233 202.501 164.829 202.206 160.542C201.871 155.671 201.333 149.833 201.231 140.223C201.19 136.384 201.134 132.909 200.553 129.975C200.433 129.368 200.165 128.81 200.162 128.223C200.159 127.636 200.352 127.058 201.126 126.76C204.971 125.28 207.546 125.878 210.849 125.394C218.374 124.289 226.957 124.711 232.076 125.292C232.69 125.361 233.241 125.68 233.538 126.165C234.915 128.405 232.867 131.508 231.991 135.207C231.047 139.196 229.947 142.989 229.652 145.724C229.274 149.233 229.55 154.282 229.845 159.243C230.027 162.304 230.718 165.378 231.013 168.4C231.139 169.69 231.5 171.608 231.5 172.785C231.5 174.692 230.344 162.154 228.303 150.968C226.876 143.147 224.691 141.651 223.915 141.064C223.146 140.484 222.741 145.698 222.645 150.665C222.626 151.629 221.579 146.942 220.896 145.435C219.846 143.12 221.176 157.225 221.085 161.509C220.995 165.792 220.417 164.829 219.637 161.056C217.518 150.802 216.709 143.403 216.32 143.78C213.821 146.204 216.312 154.639 216.995 161.553C217.394 165.588 213.398 146.346 213.494 142.352C213.641 136.266 214.373 160.519 213.695 161.109C208.814 165.359 210.863 145.371 212.709 139.908C214.376 134.97 214.373 154.872 213.792 156.332C213.559 156.918 212.825 156.828 212.238 155.865C210.617 153.203 210.478 149.64 210.767 146.921C211.069 144.084 213.193 141.464 214.846 139.71C215.394 139.127 215.92 139.882 216.119 141.432C217.527 152.426 213.211 162.464 211.754 162.864C208.893 163.649 210.087 154.528 210.571 148.405C210.782 145.743 211.249 144.016 211.736 147.651C213.43 160.275 213.012 170.639 212.139 172.099C212.627 171.603 213.012 170.639 212.139 172.099C211.652 172.595 211.073 172.595 209.31 172.011" stroke="black" stroke-width="19.4364" stroke-linecap="round"/>
<path d="M181.28 173.763C181.472 173.956 181.665 174.149 181.764 173.863C182.688 171.202 180.894 166.779 180.599 162.391C180.499 160.903 180.112 159.562 179.63 158.394C178.406 155.427 173.7 159.55 167.288 161.483C157.562 164.415 166.482 171.609 167.066 174.327C166.482 171.609 166.868 172.958 167.066 174.327C167.265 175.696 167.265 177.045 167.265 177.267" stroke="black" stroke-width="19.4364" stroke-linecap="round"/>
<path d="M93.6857 174.347C93.8784 174.54 94.0711 174.733 94.3631 174.35C95.2775 173.153 94.8595 169.699 93.7908 165.617C93.0174 162.663 92.5178 154.177 92.4215 142.697C92.38 137.76 91.9338 134.469 91.3557 130.673C91.0302 128.536 87.2738 129.768 80.9612 130.063C76.9301 130.251 73.4573 130.165 70.7244 130.834C65.709 132.061 70.9113 139.485 71.8806 150.344C73.6853 170.559 71.4952 174.908 71.2033 177.556C70.5325 183.64 74.6077 157.477 75.0924 149.479C75.1997 147.71 77.1305 158.154 78.7831 162.738C79.2819 164.122 80.4473 152.811 81.5102 148.755C82.2733 145.843 83.9219 164.549 84.5234 165.033C85.1249 165.518 84.7395 153.185 84.6373 152.998C78.8091 142.341 85.119 179.393 84.8329 178.549C79.5328 162.919 82.0065 162.289 81.8138 161.407C82.0065 161.325 82.0065 162.289 81.8138 161.407C81.6211 161.489 81.2357 162.645 80.2546 163.836" stroke="black" stroke-width="19.4364" stroke-linecap="round"/>
<path d="M79.0869 141.062C79.4723 141.062 79.8577 141.062 80.1526 140.772C80.8631 140.076 80.8388 138.346 81.1279 137.561C82.5601 133.669 82.5907 141.441 82.4943 142.419C82.5907 141.441 82.5907 142.405 82.4943 142.419C82.398 142.434 82.2053 141.47 82.0067 140.478" stroke="black" stroke-width="19.4364" stroke-linecap="round"/>
<path d="M169.537 156.253C168.432 156.992 165.849 157.364 163.436 158.469C162.225 159.024 161.212 159.769 160.195 160.321C159.729 160.691 159.362 161.241 159.173 162.898C158.984 164.556 158.984 167.306 158.984 170.138" stroke="#2A0032" stroke-width="10.635" stroke-linecap="round"/>
<path d="M46.3846 172.595C47.1613 172.023 47.5525 167.748 47.0678 163.754C46.5615 159.581 46.3846 155.298 45.8999 151.003C45.3736 146.339 44.6327 141.657 43.1787 130.313C41.5748 117.801 42.2969 115.957 41.9115 115.081C40.8925 112.765 32.4279 115.951 27.7066 115.37C27.0926 115.294 26.5416 114.981 26.4365 115.364C25.5932 118.433 27.8847 124.278 29.2454 133.516C30.9985 145.42 34.1214 153.897 34.4105 157.094C34.8614 162.081 35.8733 168.087 35.8733 172.373C35.8733 172.805 36.066 170.662 36.2616 166.402C36.5986 159.064 34.9098 148.326 33.3535 138.693C32.7927 135.222 32.5681 134.649 32.5652 137.435C32.5558 146.389 33.7243 156.209 35.4704 163.199C36.3559 166.744 37.6018 170.189 38.0048 169.085C43.5418 153.919 34.9098 144.004 33.3535 141.079C32.9051 140.236 32.3695 145.896 32.5623 152.399C33.0364 168.398 36.8485 177.856 36.4602 176.306C36.6558 177.278 36.8485 177.856 36.4602 176.306C36.2646 175.334 36.0719 173.985 35.8733 172.595" stroke="black" stroke-width="19.4364" stroke-linecap="round"/>
<path d="M59.8157 153.324C60.3997 154.679 59.6289 157.4 58.166 161.578C57.2857 164.093 57.4799 167.129 57.4799 167.152C57.4799 168.671 57.4799 161.009 57.5762 159.301C57.7558 156.118 58.4493 170.224 58.6478 174.058C58.8908 178.749 58.8405 163.853 59.1325 160.743C59.3513 158.413 59.2318 164.928 59.1354 175.544C59.121 177.13 58.6478 171.082 58.5515 165.138C58.5467 164.847 58.0638 172.537 57.6784 179.08C57.4522 182.921 55.728 170.265 55.9207 172.28C56.1134 174.872 56.4988 180.654 56.4083 182.957C56.3178 185.261 55.7397 183.912 55.144 182.522" stroke="black" stroke-width="19.4364" stroke-linecap="round"/>
<path d="M16.6025 175.515C16.9879 175.515 17.1864 171.661 16.9937 166.881C16.9403 165.555 16.0185 171.994 16.0185 174.332C16.0185 176.069 15.4346 167.561 14.9499 162.974C14.8563 162.089 14.8506 161.511 14.8506 161.599C14.8506 162.458 15.6214 169.033 16.7893 177.503C17.1623 180.208 15.4346 165.208 15.4346 166.061C15.4346 167.877 15.4346 172.502 15.3382 174.306C15.2418 176.111 15.0491 174.954 14.9499 174.07C14.8506 173.185 14.8506 172.607 14.7542 173.08C13.5311 179.084 14.2666 179.188 14.2666 182.695C14.2666 179.188 14.2666 181.693 14.2666 182.695C14.2666 183.696 14.2666 183.118 14.2666 182.522" stroke="black" stroke-width="19.4364" stroke-linecap="round"/>
<path d="M152.666 173.764C154.599 176.654 158.109 183.679 159.183 186.018C160.403 188.674 162.967 192.427 164.923 196.331C166.291 199.06 167.452 202.168 168.526 204.705C169.666 207.396 172.31 211.114 174.071 214.626C177.076 220.621 178.547 224.557 180.591 228.346C183.029 232.867 182.249 236.037 184.095 239.929C186.093 244.144 186.524 248.674 188.185 252.49C189.271 254.983 189.257 257.842 190.037 260.277C190.948 263.124 191.984 264.856 192.661 266.021C191.984 264.856 192.177 265.434 192.661 266.021C193.146 266.608 193.917 267.186 195.295 267.197" stroke="#232323" stroke-width="19.4364" stroke-linecap="round"/>
<path d="M101.861 174.931C100.506 176.286 97.3995 180.934 95.4433 185.72C94.3196 188.469 91.7585 192.999 90.0883 197.014C89.033 199.551 86.8882 204.48 84.059 210.147C82.7747 212.719 82.4034 216.369 80.5523 220.273C79.006 223.533 77.3463 229.987 76.558 233.607C75.6726 237.674 74.6134 241.094 73.8338 243.83C73.1582 246.201 72.2776 248.498 71.498 250.837C70.6762 253.302 70.7184 255.512 70.33 256.677C70.5257 256.09 70.7184 255.512 70.33 256.677C70.1344 257.264 69.9417 257.842 69.7432 257.27" stroke="#232323" stroke-width="19.4364" stroke-linecap="round"/>
<path d="M73.2469 263.693C74.4089 263.886 76.7389 263.506 87.4137 263.398C92.8306 263.343 99.4784 268.341 111.648 272.441C117.172 274.301 123.234 273.62 127.543 274.105C130.656 274.455 136.466 274.788 144.248 275.273C156.951 276.064 166.283 275.179 168.608 274.887C175.398 274.034 178.535 273.62 181.56 273.135C186.501 272.344 191.195 271.284 193.438 270.026C194.041 269.687 194.314 268.96 193.934 268.662C192.703 267.697 186.004 269.328 175.519 270.884C158.661 273.386 154.628 272.452 152.966 272.067C151.322 271.685 162.715 267.226 172.555 263.328C178.779 260.863 155.013 269.141 153.068 269.144C152.258 269.145 151.895 268.376 152.178 267.018C152.932 263.402 159.428 254.42 167.886 242.945C172.803 236.275 175.241 233.917 175.633 233.619C180.597 229.84 166.902 252.528 162.8 259.398C162.294 260.246 161.437 259.804 160.946 259.03C159.717 257.09 160.444 252.627 162.383 246.802C166.595 234.145 174.26 228.083 176.205 226.716C177.269 225.969 177.776 231.347 176.909 240.454C175.548 254.744 171.942 264.072 170.873 265.147C170.519 265.503 169.997 264.487 169.895 263.03C169.104 251.743 179.125 239.575 181.554 236.559C182.516 235.364 183.405 235.277 183.802 236.045C184.966 238.296 183.621 244.767 182.36 253.024C181.294 260.003 179.341 264.458 177.884 266.405C177.338 267.134 176.62 266.811 176.129 265.556C172.888 257.259 176.596 244.101 176.999 236.869C177.36 230.397 169.805 249.666 167.863 251.514C166.995 252.34 165.921 252.399 164.943 251.246C162.264 248.087 161.623 240.959 161.136 232.901C160.661 225.048 162.967 215.861 165.399 208.459C166.139 206.205 166.482 207.224 165.907 209.84C164.378 216.794 161.822 221.835 160.365 222.617C156.858 224.501 156.566 206.173 156.558 197.901C156.545 186.222 155.001 215.796 154.712 217.356C154.554 218.208 152.093 209.846 150.341 197.79C149.628 192.88 149.746 190.359 149.842 188.587C149.938 186.814 150.131 185.851 150.327 188.631C150.522 191.41 150.715 197.962 150.525 200.952C150.335 203.942 149.757 203.171 149.267 201.907C146.372 194.445 147.603 187.2 148.184 186.613C148.973 185.816 149.938 188.356 150.23 188.943C151.102 190.696 150.914 182.744 151.206 179.611C151.322 178.357 150.33 177.08 149.559 175.912C146.771 171.689 134.831 177.267 128.735 177.848C125.721 178.135 117.313 179.019 111.797 178.438C110.576 178.309 109.458 178.043 108.293 178.432C104.318 179.757 104.588 188.356 105.067 189.328C107.273 193.808 115.263 187.988 119.643 186.23C121.039 185.67 121.132 187.171 120.457 188.633C117.139 195.829 111.029 199.247 108.582 201.206C108.35 201.392 108.284 200.637 108.959 199.761C113.504 193.859 121.885 190.709 126.259 189.054C128.068 188.369 129.284 188.747 129.976 189.617C134.149 194.865 125.64 206.418 120.177 211.901C119.177 212.905 118.037 213.075 117.444 212.503C116.851 211.931 116.658 210.389 117.137 208.728C119.595 200.199 127.923 195.381 131.906 193.918C133.678 193.267 135.31 194.19 136.201 195.644C138.248 198.986 137.29 205.262 136.612 212.059C135.964 218.561 133.792 223.189 132.239 225.622C131.6 226.621 130.685 226.705 130.095 225.841C128.429 223.398 128.723 217.402 129.109 210.217C129.478 203.329 132.022 197.921 134.157 194.228C135.138 192.529 136.677 191.691 138.046 191.869C139.415 192.047 140.764 193.396 141.941 196.018C143.118 198.64 144.081 202.494 144.481 209.201C144.881 215.907 144.689 225.35 144.3 230.985C143.912 236.62 143.334 238.162 142.265 238.185C141.196 238.209 139.655 236.667 138.09 231.73C136.525 226.792 134.983 218.506 134.093 209.709C133.202 200.911 133.009 191.854 133.199 187.188C133.389 182.522 133.967 182.522 134.747 184.546C135.526 186.569 136.49 190.616 137.853 200.794C139.217 210.973 140.951 227.16 141.845 235.788C142.738 244.416 142.738 244.994 142.642 244.714C142.545 244.434 142.353 243.278 142.253 235.552C142.154 227.826 142.154 213.566 142.443 207.954C142.732 202.342 143.31 205.811 143.705 212.897C144.099 219.983 144.291 230.582 144.198 237.584C144.063 247.679 142.937 251.424 142.064 251.818C140.636 252.462 140.595 244.282 141.369 234.95C141.901 228.536 144.87 224.97 146.811 223.312C147.591 222.646 148.753 223.773 149.442 226.579C151.278 234.056 150.143 243.984 148.204 252.729C146.616 259.892 142.172 263.488 138.773 264.852C137.184 265.489 135.567 265.059 133.713 263.804C129.291 260.809 127.17 255.541 126.875 251.17C126.239 241.744 137.85 234.705 142.122 232.369C144.135 231.269 146.394 231.575 148.353 232.924C152.866 236.031 154.219 243.797 154.514 250.892C154.722 255.908 151.708 259.78 148.312 262.893C146.69 264.38 144.338 264.464 142.186 264.277C140.034 264.09 137.915 263.319 136.148 261.862C132.489 258.844 131.45 253.982 131.351 249.614C131.247 245.029 133.383 241.129 136.002 238.504C137.288 237.215 139.199 236.842 140.575 236.834C141.95 236.825 142.913 237.403 143.506 238.761C146.855 246.431 141.196 254.91 138.379 258.607C137.238 260.104 136.139 260.376 134.679 260.285C131.234 260.072 128.344 258.058 126.498 255.731C124.317 252.979 124.051 248.919 124.533 244.843C125.694 235.024 133.576 230.419 136.005 228.571C137.026 227.794 137.856 227.686 138.446 228.165C142.483 231.442 135.369 242.624 129.911 249.754C127.842 252.457 124.647 252.983 122.51 253.085C120.362 253.188 119.386 249.111 118.51 245.424C116.618 237.461 120.151 231.014 120.162 228.658C120.207 219.606 105.569 248.498 103.724 250.25C102.952 250.983 102.071 250.846 101.578 249.786C98.4122 242.986 103.403 234.915 108.46 228.287C109.474 226.958 110.41 226.716 111.096 227C118.32 229.981 112.18 246.554 111.213 246.568C106.826 246.634 107.508 234.162 107.409 224.249C107.336 217.019 108.863 212.9 109.931 211.437C112.347 208.13 108.693 229.356 104.118 239.336C103.335 241.043 101.499 241.105 100.226 240.822C98.9528 240.539 97.7966 239.575 96.9119 237.826C94.8813 233.812 94.6607 227.137 94.7541 219.659C94.8413 212.68 97.1834 207.843 98.6375 205.411C99.2784 204.339 100.67 204.327 101.747 205.481C104.607 208.542 104.973 215.382 105.169 222.086C105.325 227.442 103.624 232.136 101.198 236.121C100.106 237.915 98.5791 238.758 96.9206 238.869C95.2622 238.98 93.3351 238.209 92.0533 237.137C87.0705 232.972 89.3992 221.893 92.0183 214.661C92.5199 213.275 93.8607 212.9 94.8388 213.662C97.58 215.798 97.7732 221.618 97.0987 228.118C96.2621 236.18 92.1438 243.61 88.9408 249.249C86.4561 253.622 82.4092 254.735 79.8836 255.126C78.7207 255.306 77.7434 254.747 77.1506 253.874C74.139 249.438 81.0018 240.381 86.9495 233.832C88.8241 231.768 91.5307 232.153 93.3818 231.584C97.2431 230.396 93.4869 217.63 94.3599 206.252C94.8393 200.003 96.4067 197.518 97.1834 196.64C97.7846 195.959 98.3572 200.21 97.5863 208.439C97.0477 214.188 95.2738 223.026 94.4797 226.34C93.4828 230.5 98.3338 211.58 101.268 206.57C101.602 206 102.433 206.652 102.924 208.295C104.244 212.721 104.197 220.626 103.811 230.623C103.402 241.254 100.897 250.419 99.0521 256.738C98.2672 259.425 97.3995 260.937 96.5206 261.634C95.6417 262.332 94.6782 262.14 93.7964 261.462C91.8389 259.958 91.3496 256.896 91.446 254.174C91.5158 252.204 92.7044 250.466 94.6432 248.621C96.9421 246.433 100.868 245.981 104.752 246.075C108.775 246.172 112.162 249.275 114.787 251.8C116.739 253.679 117.237 256.282 117.432 258.712C117.519 259.789 117.242 260.563 116.758 261.249C115.73 262.704 113.166 263.494 109.867 263.886C106.189 264.322 103.426 262.531 102.065 261.366C101.433 260.825 101.09 260.201 100.892 259.614C100.693 259.027 100.693 258.449 100.982 257.862C102.495 254.791 110.772 255.517 116.346 257.357C117.558 257.757 118.387 258.811 118.883 259.786C119.38 260.761 119.38 261.918 118.994 262.802C117.185 266.956 107.934 266.613 101.686 265.354C100.434 265.102 99.7353 264.288 99.5309 263.702C99.3265 263.115 99.7119 262.537 100.681 262.142C107.692 259.292 116.448 264.464 118.296 266.017C119.096 266.689 119.181 267.57 118.895 268.449C118.237 270.469 114.924 272.248 110.749 273.611C106.958 274.849 103.432 272.849 101.099 271.296C99.2652 270.075 98.7484 268.178 98.5528 266.721C98.3827 265.454 99.7119 263.897 101.554 262.052C103.625 259.978 106.521 259.605 108.562 259.798C109.463 259.883 110.025 260.376 110.419 260.96C110.813 261.544 111.006 262.315 110.527 263.29C109.343 265.701 105.966 267.576 102.471 269.132C99.1987 270.59 95.8403 269.538 93.411 268.373C91.4388 267.427 90.3803 266.035 89.7963 264.773C88.4469 261.859 90.5671 259.027 90.6693 258.151C91.0541 254.853 83.1975 255.331 79.6821 254.644C77.936 254.304 76.5638 252.989 75.0104 252.89C71.8262 252.686 70.3387 256.872 69.0657 258.434C69.3577 258.426 69.5504 257.847 69.0657 258.434C68.7737 258.443 68.3883 257.865 67.9912 256.101" stroke="#232323" stroke-width="19.4364" stroke-linecap="round"/>
<path opacity="0.14" d="M120.548 172.595C120.741 173.173 120.933 173.751 121.129 183.299C121.325 192.846 121.517 211.346 122.869 228.874C124.221 246.401 126.726 262.396 128.017 271.118C129.307 279.839 129.307 280.803 129.115 281.01C128.922 281.217 128.536 280.639 128.242 280.052C127.947 279.465 127.754 278.887 127.555 278.292" stroke="#F8CC46" stroke-width="4.03398" stroke-linecap="round"/>
<path opacity="0.14" d="M128.139 172.012C128.139 172.59 128.139 173.168 127.85 183.294C127.561 193.42 126.983 213.076 127.745 231.199C128.507 249.322 130.627 265.317 131.911 274.135C133.196 282.953 133.581 284.109 133.979 285.3" stroke="#F8CC46" stroke-width="4.03398" stroke-linecap="round"/>
<path opacity="0.14" d="M148.578 167.34C148.963 168.111 149.74 169.857 153.217 180.958C156.259 190.667 161.32 208.824 165.831 223.359C170.342 237.894 174.003 248.3 176.564 257.226C179.125 266.152 180.474 273.282 181.168 277.726C181.863 282.17 181.863 283.711 181.863 285.3" stroke="white" stroke-opacity="0.47" stroke-width="4.03398" stroke-linecap="round"/>
<path opacity="0.14" d="M102.445 170.259C101.283 172.391 99.3384 177.43 96.0332 187.255C94.5437 191.683 94.8536 194.575 94.0799 198.66C92.9435 204.659 91.5484 207.621 90.7717 214.702C89.6376 225.041 85.1365 230.746 84.246 235.07C83.669 237.872 81.8196 243.219 78.9028 252.758C77.4318 257.569 76.564 261.532 75.8778 264.846C76.1669 263.103 76.1669 263.681 75.8778 264.846C75.5888 266.011 75.0107 267.746 73.8311 268.949" stroke="white" stroke-opacity="0.47" stroke-width="4.03398" stroke-linecap="round"/>
<path d="M196.937 127.928C196.754 127.928 196.571 127.928 196.385 128.203C194.348 131.212 196.193 137.358 196.473 142.81C196.565 144.598 196.937 147.345 197.029 150.952C197.079 152.929 197.493 143.946 197.767 129.322C197.863 124.222 198.592 123.862 200.159 123.673C207.441 122.795 210.067 122.929 212.572 121.915C213.222 121.635 213.955 121.452 214.974 121.357C215.993 121.263 217.276 121.263 218.598 121.263" stroke="#2A0032" stroke-width="10.635" stroke-linecap="round"/>
<path d="M75.7339 125.151C81.6046 125.706 92.7628 126.256 93.5015 127.364C94.9305 129.508 95.5398 132.171 95.8203 139.378C95.9948 143.861 96.6506 146.801 96.9311 150.408C97.1319 152.99 97.9503 155.865 98.4113 159.02C98.5057 159.764 98.5057 160.497 98.5974 161.333C98.689 162.169 98.8723 163.085 99.6165 164.03" stroke="#2A0032" stroke-width="10.635" stroke-linecap="round"/>
<path d="M31.0537 110.339C35.4637 110.339 42.5285 110.889 43.1755 112.089C44.5403 114.619 45.3055 117.36 45.586 120.234C45.9564 124.029 46.4164 129.579 46.6969 134.297C46.7885 135.327 46.9718 135.877 47.0662 136.527C47.1606 137.177 47.1606 137.91 47.1606 138.665" stroke="#2A0032" stroke-width="10.635" stroke-linecap="round"/>
<path d="M57.8984 147.799C58.265 147.615 58.6316 147.432 59.4619 147.338C60.2923 147.243 61.5753 147.243 62.8971 147.799" stroke="#2A0032" stroke-width="10.635" stroke-linecap="round"/>
<path d="M16.3047 156.13C16.6713 155.763 17.7765 155.574 19.3483 156.032C22.5825 156.975 22.5919 161.117 23.4306 164.169C24.5875 168.379 23.7083 168.526 23.986 171.012C23.7083 168.526 23.8916 169.26 23.986 171.012C24.0804 172.764 24.0804 175.513 23.525 177.235" stroke="#2A0032" stroke-width="10.635" stroke-linecap="round"/>
<path d="M17.1586 228.411C17.1586 229.964 17.6763 237.752 18.2017 247.823C18.7182 257.72 13.2371 214.835 13.4959 213.384C15.952 199.615 15.3312 245.909 14.4214 246.972C11.5301 250.349 11.4097 230.074 11.1469 213.627C11.0331 206.499 11.4018 201.839 11.6646 200.086C11.7676 199.399 11.4175 213.643 9.71952 233.246C9.1195 240.173 8.79796 240.944 8.40581 240.568C6.867 239.09 6.70388 234.709 6.44114 225.356C5.9168 206.692 6.9627 195.463 6.70388 198.192C6.22072 203.287 5.13527 214.474 4.61371 226.242C4.44749 229.993 4.09215 229.211 3.7 227.129C1.174 213.716 2.51571 202.545 3.03727 200.58C4.46673 195.195 2.25689 216.113 2.3863 214.188C3.67751 194.976 4.60979 189.729 4.60979 190.49C4.60979 196.945 4.35097 203.815 4.9941 205.011C5.58905 206.118 7.9666 200.255 9.03325 199.549C16.507 194.603 4.87645 218.466 3.70392 219.776C3.2303 220.305 2.27257 219.533 1.74317 218.36C0.473014 215.547 0.947103 211.698 1.72748 208.176C2.48719 204.748 4.86077 202.278 6.8176 200.71C7.64838 200.044 8.51561 200.176 9.17443 200.953C13.696 206.282 9.84893 218.168 7.62543 221.878C2.92702 229.717 6.42937 202.059 10.347 191.055C10.7997 189.783 11.4018 191.517 11.2764 192.706C11.1509 193.894 10.6332 194.67 9.97834 195.329C9.32344 195.988 8.54699 196.506 8.14699 196.255C5.05543 194.315 8.79012 189.204 9.18227 188.416C10.6959 185.373 6.97054 197.541 5.66468 200.16C5.32441 200.843 4.87645 199.674 5.00194 198.494C5.50977 193.717 6.9627 190.78 7.61367 187.639C7.77589 186.856 7.747 186.074 7.747 186.063C7.747 183.412 6.1784 196.459 6.82937 202.643C7.39205 207.988 7.747 215.298 6.44506 229.662C5.56697 239.35 5.39409 243.305 5.65291 242.67C6.19444 241.34 6.42937 237.634 6.95485 235.121C7.48034 232.607 7.99797 231.313 7.61759 235.176C6.34067 248.142 4.35097 258.465 4.08823 257.058C2.54718 248.8 5.38625 238.646 6.30388 238.458C9.92524 237.715 5.92742 253.54 6.43721 256.171C7.26616 260.45 10.8764 243.854 11.9234 242.015C12.8062 240.464 9.33913 253.689 5.93918 264.94C5.10622 267.696 12.9391 253.289 20.6605 248.16C22.1278 247.185 23.6683 248.27 24.4644 249.96C26.4492 254.174 24.7507 260.018 22.2762 265.105C19.7301 270.338 15.6057 273.108 12.4763 274.285C10.954 274.857 9.34697 274.685 8.15876 274.167C5.86286 273.167 4.87645 269.995 4.35097 266.607C3.74729 262.714 6.42937 259.014 8.64502 256.532C9.64544 255.411 11.1195 255.344 12.4332 255.469C13.7469 255.595 15.041 256.113 15.9665 257.285C18.0202 259.887 18.2017 263.948 18.3351 267.469C18.3999 269.182 17.6919 270.732 16.7782 271.92C15.8645 273.108 14.5704 273.885 12.9979 274.285C9.69525 275.125 6.19408 273.908 3.32354 271.826C0.161944 269.533 -0.613658 265.289 -1.13914 262.16C-1.6642 259.033 1.4569 256.136 4.71567 253.917C6.31969 252.824 8.23327 252.473 9.68422 252.595C11.1352 252.717 12.1705 253.493 12.8332 254.928C14.3528 258.219 12.9861 262.638 10.6411 266.552C9.47889 268.491 7.77837 269.948 6.20192 270.877C4.62548 271.806 3.07256 272.065 1.3667 271.552C-2.42025 270.411 -5.05281 266.599 -6.62141 262.689C-8.28188 258.55 -6.11946 254.309 -3.64498 251.309C-2.34636 249.734 -0.394053 248.568 1.57454 247.901C3.54314 247.234 5.6137 247.234 7.19799 248.27C10.5992 250.492 11.143 255.838 11.0175 260.403C10.8929 264.935 7.2372 267.877 4.88822 269.446C3.90521 270.102 3.05687 269.979 2.39806 269.591C1.73925 269.203 1.22161 268.426 0.954945 267.508C-0.481577 262.565 6.41369 254.591 11.6489 250.901C12.7452 250.128 14.2567 250.889 15.1822 252.187C20.135 259.134 15.5979 266.826 13.9038 269.308C13.1675 270.387 11.9509 270.497 11.1587 269.724C10.3666 268.952 9.84893 267.14 10.0999 265.171C10.636 260.966 14.2645 256.928 17.9155 253.144C21.1998 249.74 25.2448 248.803 28.5075 249.191C29.9584 249.579 30.9937 250.356 31.6564 251.144C32.3192 251.932 32.578 252.709 32.8447 253.509" stroke="black" stroke-width="14.3023" stroke-linecap="round"/>
</g>
</svg>
