<svg width="600" height="381" viewBox="0 0 600 381" fill="none" xmlns="http://www.w3.org/2000/svg">
<path d="M12.2752 337.543C12.8645 336.88 13.1698 336.379 13.3139 336.079C13.4055 335.632 13.5123 335.665 13.3139 336.079C13.2309 336.484 13.1604 337.284 13.3418 338.553C13.4071 339.011 13.5004 339.522 13.6153 340.064C15.2389 340.808 17.2978 341.064 16.3169 340.574C14.5666 339.699 17.9811 334.326 18.899 332.49C20.425 329.439 22.7685 326.577 24.8493 323.902C26.478 321.808 26.9549 318.461 28.4419 316.099C36.8436 302.755 47.4197 294.969 63.0205 291.849C73.2876 289.796 82.907 289.538 93.0523 292.074C99.0949 293.585 102.048 307.755 102.202 313.293C102.413 320.868 101.971 329.011 101.136 336.532C100.563 341.686 99.6136 347.563 96.1396 351.688C92.8249 355.625 91.6648 362.186 87.5511 365.385C85.4185 367.044 84.3343 370.198 81.4886 370.83C79.0124 371.38 77.2195 372.671 74.9209 373.693C70.899 375.48 64.8594 374.455 61.2803 376.443C58.7752 377.835 48.237 378.837 45.6189 377.735C41.1671 375.86 36.5803 376.979 31.9783 374.423C27.8755 372.143 23.3366 364.354 21.5935 359.996C19.7835 355.471 17.8256 351.516 15.8117 347.085C15.0003 345.3 14.1081 342.391 13.6153 340.064C12.3419 339.481 11.3362 338.599 12.2752 337.543Z" fill="black" stroke="black" stroke-width="4" stroke-linecap="round"/>
<mask id="mask0_278_1388" style="mask-type:alpha" maskUnits="userSpaceOnUse" x="6" y="88" width="594" height="246">
<path d="M142.394 327.663C141.808 327.843 141.138 328.128 140.442 328.449H122.41C110.064 328.449 98.0041 330.47 85.4741 330.47C78.742 330.47 71.4546 331.372 65.0413 329.235C61.9135 328.192 58.8681 328.964 55.723 328.224C52.2367 327.404 49.4594 325.551 45.8434 325.418C40.0334 325.202 33.178 322.773 27.4314 325.193C23.1423 326.999 18.744 323.146 16.0923 328.449C14.0299 332.574 8.82288 335.9 7.27927 328.954C6.28087 324.461 8.23355 319.995 8.23355 315.819C8.23355 306.112 7.22314 296.839 7.22314 287.022V271.36C7.22314 265.772 10.2544 260.456 10.2544 255.194C10.2544 245.955 18.3377 237.943 18.3377 228.867C18.3377 222.346 11.2648 228.506 11.2648 221.345C11.2648 218.669 13.1112 219.324 15.3065 219.324C17.283 219.324 19.2313 217.088 20.134 215.282C21.7268 212.097 21.7124 202.728 20.5831 199.34C18.9204 194.352 16.8706 191.279 12.2752 189.236C9.7055 188.094 11.1912 181.435 13.847 179.918C16.1161 178.621 15.8749 177.897 18.8429 177.897C19.6035 177.897 24.1796 176.901 24.3441 176.325C25.0469 173.865 23.6411 172.845 26.9262 172.845C28.3791 172.845 31.5476 172.499 32.4835 171.329C33.646 169.876 42.5249 170.452 44.1033 171.329C47.812 173.39 52.3708 174.908 54.4881 178.907C55.7026 181.201 65.2569 179.918 67.6235 179.918C70.1067 179.918 79.292 181.254 80.7589 178.907C82.7251 175.761 88.7531 183.002 91.3121 178.907C92.8623 176.427 98.5098 175.208 101.192 173.631C104.89 171.455 108.922 166.934 110.51 162.965C111.8 159.74 115.863 155.2 118.144 152.412C121.199 148.678 124.331 144.94 128.697 141.971C137.489 135.993 143.779 125.047 153.228 119.798C162.441 114.68 169.497 106.606 178.488 101.611C185.853 97.5195 193.316 95.043 202.233 95.043C211.362 95.043 220.386 94.5672 229.366 94.0937L230.525 94.0326C235.786 93.7557 240.039 89.9909 245.176 89.9909H262.914C275.104 89.9909 286.418 92.0118 298.672 92.0118H324.999C329.361 92.0118 333.811 90.0969 338.134 91.0575C341.443 91.7928 347.362 90.9074 350.259 92.517C352.567 93.7993 355.472 92.251 357.837 93.2467C359.374 93.8939 362.252 95.5505 363.899 94.8185C367.055 93.4158 372.6 93.4026 376.024 93.0222C380.242 92.5535 379.685 88.0695 384.332 91.7872C386.997 93.9192 391.876 88.1044 393.987 90.2155C395.397 91.6252 392.499 93.7859 394.436 92.2363C395.125 91.6856 398.336 91.0014 399.264 91.0014C403.397 91.0014 407.518 89.9909 411.389 89.9909C419.83 89.9909 428.516 88.9805 436.649 88.9805C444.84 88.9805 452.57 89.9909 460.394 89.9909C464.302 89.9909 468.051 90.5962 471.509 92.517C474.793 94.3417 478.958 93.5119 482.623 95.5482C491.391 100.419 499.333 105.185 506.873 112.725C510.282 116.134 514.869 121.612 518.998 123.447C522.364 124.943 525.265 132.124 527.643 134.898C529.42 136.972 532.817 137.83 534.66 140.287C536.238 142.392 538.733 144.357 540.722 146.125C543.001 148.151 549.765 147.279 552.847 148.82C556.375 150.584 560.679 148.792 563.737 151.851C565.742 153.856 569.64 156.444 570.024 159.71C570.964 167.703 583.159 170.456 583.159 178.402C583.159 179.725 585.026 182.059 585.685 183.51C586.94 186.269 587.647 187.548 589.222 189.517C590.794 191.481 595.639 192.525 596.239 194.625C597.364 198.562 598.089 204.132 598.316 208.209C598.521 211.91 601.309 218.912 598.091 222.131C596.571 223.651 593.468 220.794 595.06 224.376C596.004 226.501 595.284 230.16 595.284 232.459C595.284 238.403 594.274 244.056 594.274 249.861V260.526C594.274 263.034 592.475 265.749 592.253 261.761C591.936 256.048 591.767 250.151 590.457 244.584C589.296 239.65 589.052 234.097 586.977 229.428C585.317 225.695 582.934 222.96 580.914 219.324C576.807 211.932 568.697 207.199 560.425 207.199C553.738 207.199 547.296 215.142 544.764 220.84C540.283 230.922 535.315 243.544 534.66 254.689C533.805 269.213 529.607 283.296 529.607 297.912C529.607 299.848 530.164 312.369 526.127 311.216C522.774 310.258 519.235 310.259 515.455 310.261L514.956 310.261C506.991 310.261 498.323 307.545 490.707 311.777C487.232 313.707 482.389 313.513 478.582 314.359C474.16 315.342 469.927 317.293 465.446 318.289C461.334 319.202 457.646 319.355 453.321 319.355C448.953 319.355 445.34 321.376 441.196 321.376C422.128 321.376 403.905 322.386 385.118 322.386C378.633 322.386 380.066 319.742 380.066 313.798V296.116C380.066 283.612 378.874 270.542 376.979 258.225C375.482 248.494 373.503 231.48 363.899 225.611C360.506 223.537 358.455 221.17 354.806 219.549C352.605 218.57 346.026 217.86 343.916 219.549C340.922 221.944 337.55 222.434 334.597 225.387C331.608 228.376 328.281 231.728 326.29 235.491C324.103 239.621 323.578 244.37 321.687 248.626C319.656 253.196 317.775 261.062 317.42 266.028C316.534 278.442 310.348 289.584 310.348 302.178C310.348 307.2 308.327 312.232 308.327 317.334C308.327 320.51 309.148 330.163 304.734 331.424C300.603 332.604 297.191 333.501 292.665 333.501C288.288 333.501 284.458 329.376 280.54 328.505C276.271 327.556 272.89 324.407 268.415 324.407C264.611 324.407 260.382 323.397 256.29 323.397C237.912 323.397 219.538 327.438 200.998 327.438H193.364C190.711 327.438 188.706 325.55 186.067 325.418C179.964 325.112 173.765 325.418 167.655 325.418C161.756 325.418 155.809 325.191 149.916 325.418C147.73 325.502 144.547 327 142.394 327.663Z" fill="#E7EDF1"/>
</mask>
<g mask="url(#mask0_278_1388)">
<path d="M2.17105 201.137C2.22313 200.199 3.16307 197.724 4.51224 195.018C5.78815 193.104 10.9498 182.594 14.296 188.45C15.2215 190.07 24.1816 189.012 25.9158 189.012L26.071 189.012C30.3605 189.011 38.5446 189.01 41.5772 192.043C48.4807 198.946 53.9029 199.116 63.8063 199.116H89.0106C96.7316 199.116 102.926 195.836 110.285 195.018C118.276 194.13 125.806 189.359 133.525 187.215C140.47 185.286 146.451 179.819 150.702 174.08C156.716 165.961 165.657 160.196 170.405 151.065C173.065 145.95 175.788 140.55 177.983 135.235C179.893 130.612 180.049 125.78 182.53 121.37C186.292 114.682 188.661 105.022 194.15 99.5337C197.539 96.1446 202.052 95.3474 206.499 93.8081C216.101 90.4843 227.559 92.0607 237.598 90.9452C252.055 89.3388 266.869 89.9909 281.495 89.9909H298.223C302.785 89.9909 306.102 86.9597 310.348 86.9597C316.002 86.9597 320.278 88.9805 326.065 88.9805H344.14C354.499 88.9805 363.347 96.0534 374.004 96.0534C378.474 96.0534 382.415 96.0703 386.634 97.0077C390.737 97.9195 396.652 97.4836 399.769 100.6C403.509 104.34 420.343 109.111 413.634 117.497C411.275 120.446 408.062 122.153 404.765 124.85C399.543 129.123 395.186 128.728 389.104 130.857C381.023 133.685 371.392 134.449 362.889 134.449C359.904 134.449 357.237 135.46 354.301 135.46C352.274 135.46 352.307 137.751 350.764 138.715C347.847 140.538 346.157 146.574 350.989 146.574C363.516 146.574 375.154 142.781 386.914 138.715C388.779 138.071 400.152 130.734 401.06 131.642C401.591 132.174 399.714 133.012 399.489 133.439C399.021 134.323 399.366 135.467 399.208 136.414C398.536 140.442 394.582 145.53 390.732 146.63C388.803 147.181 391.124 149.116 392.752 148.651C394.278 148.215 396.317 147.986 397.805 147.36C400.58 146.191 403.515 147.02 406.393 146.013C410.386 144.615 415.218 143.655 419.472 143.543C424.968 143.398 429.818 142.381 434.965 140.287C439.004 138.644 442.825 139.389 446.753 137.986C451.474 136.3 457.262 137.771 461.91 138.435C468.05 139.312 472.256 141.416 477.58 144.081L478.076 144.329C479.129 144.855 481.418 144.683 483.165 144.366C483.49 143.861 483.817 143.561 484.139 143.543C486.544 143.409 485.235 143.99 483.165 144.366C481.329 147.219 479.55 156.616 479.087 158.699C477.593 165.421 473.419 170.833 475.101 178.402C475.695 181.074 476.895 190.849 479.087 192.267C485.803 196.613 493.369 197.956 501.54 200.126C515.598 203.86 533.464 202.816 547.795 201.024C558.911 199.635 569.194 195.341 580.072 193.166C586.085 191.963 591.905 195.678 597.81 193.053C599.818 192.161 601.167 192.043 603.368 192.043C605.953 192.043 605.213 193.721 606.904 195.074C609.72 197.327 608.42 204.932 608.42 208.209C608.42 211.518 603.5 212.146 601.122 214.047C598.349 216.266 596.257 215.819 595.341 219.941C593.813 226.817 593.264 232.929 593.264 240.038V253.678C593.264 258.078 591.243 262.309 591.243 266.813C591.243 275.966 592.726 284.977 586.415 291.288C581.159 296.544 580.978 310.141 580.072 317.39C578.914 326.655 573.769 337.247 569.799 345.626C567.448 350.591 567.445 352.209 562.39 353.653C558.659 354.719 555.279 354.72 551.331 354.72C545.431 354.72 533.287 359.067 528.597 353.204C527.573 351.924 524.857 352.823 523.545 351.183C522.432 349.792 520.805 348.876 519.503 347.647C517.099 345.376 516.151 343.203 514.227 340.798C511.314 337.158 507.873 327.438 502.831 327.438C487.099 327.438 474.06 337.543 458.373 337.543C450.527 337.543 443.46 339.563 435.414 339.563C427.135 339.563 418.44 338.553 409.873 338.553C401.621 338.553 393.351 339.255 385.343 339.563C381.023 339.73 377.202 340.34 372.993 340.574C367.193 340.896 367.798 349.321 365.696 352.474C363.269 356.114 362.705 360.854 359.296 364.262C356.609 366.95 352.025 367.855 348.238 367.855C343.159 367.855 329.614 370.117 325.728 366.62C322.922 364.094 319.792 361.702 315.905 360.838C313.892 360.391 309.661 359.443 307.505 357.859C307.384 358.115 307.247 358.342 307.092 358.537C304.322 361.999 307.021 364.824 301.254 364.824C293.536 364.824 287.344 366.845 279.53 366.845C273.517 366.845 266.874 364.399 262.353 360.782C257.524 356.919 251.544 353.513 248.937 347.647C246.96 343.198 247.697 342.595 242.145 342.595C238.687 342.595 234.4 341.902 231.03 342.651C223.493 344.326 215.15 343.605 207.285 343.605C202.343 343.605 197.573 345.626 192.634 345.626C188.347 345.626 182.505 344.586 178.488 346.131C170.58 349.173 157.183 346.636 148.681 346.636C137.498 346.636 126.374 345.626 115.337 345.626C109.587 345.626 104.262 343.605 98.385 343.605H84.8005C76.2984 343.605 69.0986 346.636 60.7751 346.636C45.3221 346.636 30.8734 346.561 17.3273 339.788C6.38503 334.317 14.5344 328.639 16.2607 320.871C17.0793 317.187 19.6831 313.781 20.3024 309.756C21.7142 300.579 22.7554 291.684 23.4459 282.363C24.1781 272.477 26.421 262.823 26.421 252.892C26.421 246.94 27.5376 237.978 24.4002 232.684C23.0114 230.34 22.306 228.344 20.3585 226.397C19.0049 225.043 17.2599 225.535 15.8117 224.376C13.4682 222.501 11.7584 220.115 8.79488 219.268C6.89504 218.725 5.0937 213.627 2.17105 213.262C-0.607351 212.914 2.0591 203.152 2.17105 201.137Z" fill="#050505"/>
<path d="M142.394 327.663C141.808 327.843 141.138 328.128 140.442 328.449H122.41C110.064 328.449 98.0041 330.47 85.4741 330.47C78.742 330.47 71.4546 331.372 65.0413 329.235C61.9135 328.192 58.8681 328.964 55.723 328.224C52.2367 327.404 49.4594 325.551 45.8434 325.418C40.0334 325.202 33.178 322.773 27.4314 325.193C23.1423 326.999 18.744 323.146 16.0923 328.449C14.0299 332.574 8.82288 335.9 7.27927 328.954C6.28087 324.461 8.23355 319.995 8.23355 315.819C8.23355 306.112 7.22314 296.839 7.22314 287.022V271.36C7.22314 265.772 10.2544 260.456 10.2544 255.194C10.2544 245.955 18.3377 237.943 18.3377 228.867C18.3377 222.346 11.2648 228.506 11.2648 221.345C11.2648 218.669 13.1112 219.324 15.3065 219.324C17.283 219.324 19.2313 217.088 20.134 215.282C21.7268 212.097 21.7124 202.728 20.5831 199.34C18.9204 194.352 16.8706 191.279 12.2752 189.236C9.7055 188.094 11.1912 181.435 13.847 179.918C16.1161 178.621 15.8749 177.897 18.8429 177.897C19.6035 177.897 24.1796 176.901 24.3441 176.325C25.0469 173.865 23.6411 172.845 26.9262 172.845C28.3791 172.845 31.5476 172.499 32.4835 171.329C33.646 169.876 42.5249 170.452 44.1033 171.329C47.812 173.39 52.3708 174.908 54.4881 178.907C55.7026 181.201 65.2569 179.918 67.6235 179.918C70.1067 179.918 79.292 181.254 80.7589 178.907C82.7251 175.761 88.7531 183.002 91.3121 178.907C92.8623 176.427 98.5098 175.208 101.192 173.631C104.89 171.455 108.922 166.934 110.51 162.965C111.8 159.74 115.863 155.2 118.144 152.412C121.199 148.678 124.331 144.94 128.697 141.971C137.489 135.993 143.779 125.047 153.228 119.798C162.441 114.68 169.497 106.606 178.488 101.611C185.853 97.5195 193.316 95.043 202.233 95.043C211.362 95.043 220.386 94.5672 229.366 94.0937L230.525 94.0326C235.786 93.7557 240.039 89.9909 245.176 89.9909H262.914C275.104 89.9909 286.418 92.0118 298.672 92.0118H324.999C329.361 92.0118 333.811 90.0969 338.134 91.0575C341.443 91.7928 347.362 90.9074 350.259 92.517C352.567 93.7993 355.472 92.251 357.837 93.2467C359.374 93.8939 362.252 95.5505 363.899 94.8185C367.055 93.4158 372.6 93.4026 376.024 93.0222C380.242 92.5535 379.685 88.0695 384.332 91.7872C386.997 93.9192 391.876 88.1044 393.987 90.2155C395.397 91.6252 392.499 93.7859 394.436 92.2363C395.125 91.6856 398.336 91.0014 399.264 91.0014C403.397 91.0014 407.518 89.9909 411.389 89.9909C419.83 89.9909 428.516 88.9805 436.649 88.9805C444.84 88.9805 452.57 89.9909 460.394 89.9909C464.302 89.9909 468.051 90.5962 471.509 92.517C474.793 94.3417 478.958 93.5119 482.623 95.5482C491.391 100.419 499.333 105.185 506.873 112.725C510.282 116.134 514.869 121.612 518.998 123.447C522.364 124.943 525.265 132.124 527.643 134.898C529.42 136.972 532.817 137.83 534.66 140.287C536.238 142.392 538.733 144.357 540.722 146.125C543.001 148.151 549.765 147.279 552.847 148.82C556.375 150.584 560.679 148.792 563.737 151.851C565.742 153.856 569.64 156.444 570.024 159.71C570.964 167.703 583.159 170.456 583.159 178.402C583.159 179.725 585.026 182.059 585.685 183.51C586.94 186.269 587.647 187.548 589.222 189.517C590.794 191.481 595.639 192.525 596.239 194.625C597.364 198.562 598.089 204.132 598.316 208.209C598.521 211.91 601.309 218.912 598.091 222.131C596.571 223.651 593.468 220.794 595.06 224.376C596.004 226.501 595.284 230.16 595.284 232.459C595.284 238.403 594.274 244.056 594.274 249.861V260.526C594.274 263.034 592.475 265.749 592.253 261.761C591.936 256.048 591.767 250.151 590.457 244.584C589.296 239.65 589.052 234.097 586.977 229.428C585.317 225.695 582.934 222.96 580.914 219.324C576.807 211.932 568.697 207.199 560.425 207.199C553.738 207.199 547.296 215.142 544.764 220.84C540.283 230.922 535.315 243.544 534.66 254.689C533.805 269.213 529.607 283.296 529.607 297.912C529.607 299.848 530.164 312.369 526.127 311.216C522.774 310.258 519.235 310.259 515.455 310.261L514.956 310.261C506.991 310.261 498.323 307.545 490.707 311.777C487.232 313.707 482.389 313.513 478.582 314.359C474.16 315.342 469.927 317.293 465.446 318.289C461.334 319.202 457.646 319.355 453.321 319.355C448.953 319.355 445.34 321.376 441.196 321.376C422.128 321.376 403.905 322.386 385.118 322.386C378.633 322.386 380.066 319.742 380.066 313.798V296.116C380.066 283.612 378.874 270.542 376.979 258.225C375.482 248.494 373.503 231.48 363.899 225.611C360.506 223.537 358.455 221.17 354.806 219.549C352.605 218.57 346.026 217.86 343.916 219.549C340.922 221.944 337.55 222.434 334.597 225.387C331.608 228.376 328.281 231.728 326.29 235.491C324.103 239.621 323.578 244.37 321.687 248.626C319.656 253.196 317.775 261.062 317.42 266.028C316.534 278.442 310.348 289.584 310.348 302.178C310.348 307.2 308.327 312.232 308.327 317.334C308.327 320.51 309.148 330.163 304.734 331.424C300.603 332.604 297.191 333.501 292.665 333.501C288.288 333.501 284.458 329.376 280.54 328.505C276.271 327.556 272.89 324.407 268.415 324.407C264.611 324.407 260.382 323.397 256.29 323.397C237.912 323.397 219.538 327.438 200.998 327.438H193.364C190.711 327.438 188.706 325.55 186.067 325.418C179.964 325.112 173.765 325.418 167.655 325.418C161.756 325.418 155.809 325.191 149.916 325.418C147.73 325.502 144.547 327 142.394 327.663Z" fill="#E7EDF1"/>
<path d="M349.695 218.213C348.964 218.324 348.215 218.382 347.445 218.382C343.727 218.382 351.49 214.817 350.273 217.251C350.109 217.58 349.913 217.9 349.695 218.213C352.495 217.79 355.035 216.601 357.5 214.989C359.958 213.381 362.425 209.994 365.261 209.364C367.8 208.8 370.049 207.636 372.897 207.636C376.139 207.636 378.357 207.97 381.381 209.05C388.462 211.579 397.072 212.726 404.57 212.726C408.167 212.726 412.023 213.048 415.442 212.035C417.42 211.449 419.338 211.029 421.412 211.029C423.504 211.029 425.308 209.898 427.445 209.898C435.693 209.898 444.022 207.059 452.08 205.908C454.083 205.622 456.002 204.584 458.018 204.274C460.4 203.907 462.292 203.935 464.648 203.237C466.333 202.738 468.345 202.637 470.104 202.549L470.178 202.546C472.115 202.449 473.561 200.849 475.52 200.849C478.474 200.849 481.341 199.317 484.318 199.152C485.89 199.065 486.219 198.109 487.712 198.021C488.766 197.959 491.078 197.32 491.954 196.638C493.354 195.549 495.056 195.866 496.51 194.942C497.976 194.008 500.298 194.126 501.977 194.062C505.596 193.923 509.36 191.911 512.912 191.265C516.333 190.643 519.999 189.537 523.47 189.537C527.018 189.537 530.387 187.84 533.807 187.84C536.83 187.84 539.595 187.275 542.574 187.275C546.126 187.275 549.607 187.84 553.069 187.84C556.362 187.84 561.526 190.239 564.066 187.84C566.155 185.867 568.524 183.66 571.168 184.415C573.438 185.064 573.943 189.053 575.378 190.668C577.116 192.623 580.469 194.818 580.469 197.769C580.469 205.376 584.679 212.615 586.721 219.765C588.183 224.88 590.554 229.754 591.749 235.13C592.181 237.075 592.601 243.695 589.518 240.44C588.044 238.884 587.879 236.443 586.69 234.659L586.595 234.516C585.206 232.432 583.801 230.324 582.479 228.248C580.171 224.621 576.727 221.952 574.247 218.508C573.679 217.718 571.899 216.178 570.853 216.12C569.193 216.027 568.704 214.989 567.177 214.989C563.713 214.989 561.538 215.436 558.41 217C554.998 218.706 553.685 221.596 552.315 225.295C550.008 231.523 544.271 236.235 544.271 243.268C544.271 250.326 539.92 255.342 538.175 261.933C537.372 264.965 535.787 268.759 535.787 271.83C535.787 275.574 534.135 276.638 530.697 276.638C527.731 276.638 524.743 277.203 521.93 277.203C520.336 277.203 519.212 277.397 517.939 276.355C516.091 274.842 512.451 275.057 510.901 273.119C507.258 268.565 501.539 266.246 497.044 262.749C494.337 260.644 491.837 261.945 488.969 262.938C484.748 264.399 479.82 263.843 475.552 264.792C474.145 265.104 473.102 265.326 471.592 265.326C470.102 265.326 469.085 266.388 467.916 266.457C464.493 266.659 461.679 267.537 458.301 267.054C453.664 266.392 449.753 268.588 445.292 268.72C440.867 268.85 436.606 271.035 432.252 271.579C430.166 271.84 428.551 272.84 426.628 273.527C424.776 274.189 423.316 273.973 421.538 274.815C418.825 276.101 415.496 275.407 412.771 276.921C409.686 278.635 404.249 278.214 402.182 281.728C401.461 282.953 399.362 283.282 398.348 284.242C396.905 285.61 396.025 287.925 394.641 289.112C391.677 291.653 390.954 295.302 386.471 295.302C379.431 295.302 372.614 295.868 365.544 295.868C363.46 295.868 359.159 296.273 357.343 297.282C356.558 297.718 354.215 298.48 353.384 298.664C352.053 298.96 350.508 299.261 349.142 299.261C347.831 299.261 345.807 299.664 344.617 299.136C343.041 298.435 342.661 296.739 341.507 295.585C339.847 293.926 337.06 292.878 336.731 290.243C336.361 287.29 336.635 284.003 336.699 281.037C336.785 277.105 337.842 272.499 338.522 268.594C339.325 263.976 339.084 259.225 339.81 254.58C340.624 249.369 341.501 243.94 341.789 238.743C341.898 236.794 341.92 234.853 342.481 232.962C343.355 230.011 344.752 227.352 345.466 224.352C346.033 221.97 348.304 220.217 349.695 218.213Z" fill="#DFE7EC"/>
</g>
<path d="M82.132 351.336C73.058 356.286 58.9226 361.582 52.9018 349.54C46.881 337.498 24.6006 337.156 27.5561 332.934C30.5115 328.712 35.7747 323.595 37.3642 318.562C38.0817 316.29 38.9347 313.689 40.6659 311.958C42.1203 310.504 45.624 306.94 47.6579 306.714C50.9144 306.352 52.0359 301.743 55.718 301.47C59.3076 301.204 64.0461 297.866 67.5654 296.615C79.1798 292.485 95.8717 295.817 107.284 298.848C126.535 303.962 146.657 305.698 166.035 310.21C175.53 312.421 185.672 313.059 195.362 314.386C204.705 315.666 213.982 317.396 223.33 318.756C232.321 320.064 241.338 319.824 250.424 319.824C256.896 319.824 263.327 320.698 269.652 320.698C272.822 320.698 276.912 319.994 279.945 320.892C282.505 321.651 285.528 322.131 288.006 320.892C294.551 317.62 295.939 308.547 297.425 301.859C299.593 292.103 300.344 281.835 302.184 271.949C303.992 262.227 303.367 250.162 310.535 242.719C313.962 239.16 316.944 236.169 321.023 233.299L321.098 233.246C323.662 231.442 327.295 228.886 329.083 226.501C332.436 222.03 337.922 216.12 343.941 215.819C346.822 215.675 350.925 216.266 353.555 217.373C356.551 218.635 360.325 217.579 363.363 219.315C366.883 221.326 370.938 222.551 374.531 224.559C381.044 228.199 385.376 236.547 388.515 242.913C396.756 259.631 393.613 279.685 395.701 297.78C397.897 316.812 415.966 311.161 429.592 309.142C442.72 307.197 455.883 306.42 468.922 304.287C482.207 302.113 496.986 302.766 505.824 290.982C513.783 280.37 515.317 269.176 519.613 257.091C523.511 246.13 520.776 235 523.303 223.879C524.46 218.792 528.003 214.665 529.421 209.701C530.508 205.9 534.721 201.085 537.773 198.825C547.535 191.594 555.837 194.528 566.809 197.271C573.212 198.872 583.604 204.203 586.231 210.769L586.416 211.233C589.357 218.582 592.155 225.571 592.155 233.687V251.653C592.155 258.122 592.853 264.548 593.029 270.881C593.128 274.461 596.333 288.164 593.708 290.788C590.279 294.218 586.911 298.617 586.911 304.092C586.911 311.879 584.711 323.116 581.472 330.312C576.951 340.359 575.492 356.532 562.002 356.532H542.774C536.724 356.532 531.926 354.899 526.217 353.861C513.465 351.543 518.237 332.415 504.318 335.507C502.189 335.981 499.51 335.556 497.327 335.556C494.894 335.556 491.965 336.809 489.509 337.255C484.72 338.126 479.35 337.172 474.603 338.227C465.042 340.351 453.938 339.052 444.013 339.052C438.5 339.052 433.039 340.8 427.407 340.8C422.095 340.8 417.08 341.674 411.675 341.674C401.412 341.674 391.413 340.8 381.086 340.8C376.608 340.8 372.278 342.548 367.976 342.548H353.943C348.681 342.548 341.946 343.074 337.386 345.607C335.094 346.88 332.002 345.541 329.52 346.092C327.805 346.474 323.093 348.033 321.654 349.151C319.71 350.664 315.015 352.462 314.225 354.832C313.196 357.921 309.4 358.155 308.107 360.416C306.294 363.59 297.637 362.889 294.56 363.572C289.098 364.786 283.744 366.146 278.003 366.146C272.973 366.146 267.921 364.644 263.097 363.572C258.691 362.593 253.354 362.33 250.861 357.843C248.84 354.206 248.289 346.495 243.82 345.219C240.085 344.151 233.717 343.422 229.885 343.422C223.693 343.422 217.978 345.17 211.92 345.17C198.656 345.17 185.243 348.548 171.813 346.869C156.816 344.995 141.085 346.044 125.88 346.044C122.954 346.044 120.739 345.824 118.014 345.219C115.507 344.661 112.612 343.422 110.148 343.422C107.261 343.422 98.4623 342.407 96.6014 344.733C96.2362 345.189 91.6158 346.044 90.9204 346.044C86.9559 346.044 85.3729 349.569 82.132 351.336Z" fill="black" stroke="black" stroke-width="4" stroke-linecap="round"/>
<path d="M378.946 315.252C380.686 314.253 384.393 314.411 386.172 314.411C389.05 314.411 391.722 313.846 394.655 313.846C395.93 313.846 401.038 313.603 401.725 312.4C402.601 310.867 404.361 310.023 404.993 308.315C405.564 306.775 406.945 305.481 408.23 304.482C409.841 303.229 411.404 300.859 413.351 300.303C415.98 299.552 417.273 297.518 418.442 295.181C419.176 293.713 421.028 289.525 422.935 289.525C425.479 289.525 429.295 288.873 431.733 288.111C433.429 287.581 435.185 288.15 436.792 287.389C438.367 286.643 440.151 286.132 441.882 286.132C445.896 286.132 450.358 285.033 454.325 284.466C459.377 283.745 465.404 285.507 469.879 283.021C471.813 281.947 475.327 281.607 477.483 281.607C480.023 281.607 482.691 280.22 485.118 281.607C490.203 284.513 491.842 289.713 495.896 293.767C499.962 297.833 503.269 302.291 508.622 304.67C513.21 306.71 518.466 303.099 522.762 303.099C524.171 303.099 528.896 303.457 529.423 304.922C529.911 306.276 530.047 310.088 528.7 310.986C527.356 311.882 528.561 314.336 526.595 314.411C519.098 314.7 512.61 318.72 505.228 319.376C494.779 320.305 483.987 316.956 473.681 315.668C469.674 315.167 465.608 315.968 461.678 316.705C458.754 317.253 454.969 317.947 452.189 318.936C445.721 321.235 437.466 320.067 430.696 320.067C427.335 320.067 423.334 319.469 420.076 320.381C417.756 321.031 415.002 321.764 412.597 321.764C408.495 321.764 405.05 321.718 401.16 322.769C395.34 324.342 390.165 324.592 384.192 324.592C382.488 324.592 377.639 324.467 376.714 322.895C375.746 321.25 373.699 321.237 374.86 318.685C375.662 316.92 376.584 316.238 377.845 314.851C378.63 313.988 379.014 312.897 379.95 312.149C381.013 311.299 382.365 311.648 383.626 311.018C384.56 310.551 380.514 313.973 378.946 315.252Z" fill="#D9E2E8"/>
<path d="M11.9577 251.854C11.9681 251.647 12.0366 251.451 12.176 251.312C12.4122 251.076 13.0616 251.097 13.6119 251.138C14.9931 250.583 17.1815 250.055 18.2718 250.055C18.8829 250.055 17.8174 250.689 16.4482 251.357C17.6993 251.524 18.9749 251.752 20.2828 251.752C24.6206 251.752 28.8363 252.883 33.2285 252.883C37.0923 252.883 39.9816 254.128 43.4406 251.438C46.552 249.018 46.9663 244.553 48.8137 241.32C49.8747 239.463 54.2054 239.2 56.1663 239.309C58.6898 239.449 56.7458 249.781 57.1718 251.438C57.9758 254.564 58.3646 257.621 58.9943 260.77C59.6164 263.88 59.4046 267.579 60.2512 270.542C60.7134 272.16 60.7767 273.917 61.8222 275.224C62.3559 275.891 64.5837 277.237 64.6502 277.769C64.78 278.807 67.2389 278.483 67.918 279.026C69.2432 280.086 71.0032 278.9 72.5685 278.9C75.5 278.9 78.2962 278.721 81.178 278.209C86.3008 277.298 91.5052 277.229 96.5746 276.355C121.114 272.124 147.434 279.201 170.981 269.568C175.87 267.568 181.017 266.602 184.838 262.781C187.374 260.246 190.769 255.702 191.908 252.286C192.503 250.502 192.999 248.307 193.73 246.662C193.977 246.108 195.652 242.939 195.836 243.582C196.108 244.537 196.971 241.85 197.69 241.131C199.162 239.659 199.948 239.569 201.806 238.743C209.631 235.265 219.432 235.915 228.106 235.915C234.03 235.915 239.046 235.889 244.634 234.093C249.62 232.49 255.065 230.604 259.779 228.123C263.906 225.95 268.603 224.768 272.787 222.467C275.989 220.706 280.655 217.986 282.528 214.989C283.394 213.602 285.972 211.419 287.21 210.181C288.525 208.866 290.366 206.982 292.017 206.065C293.344 205.328 294.5 204.291 295.694 203.363C296.96 202.378 298.692 202.407 299.81 201.289C302.874 198.224 313.041 199.635 315.207 203.425C316.845 206.292 320.991 206.573 323.408 208.453C324.425 209.244 326.43 209.728 327.65 210.338C328.994 211.01 330.992 211.803 332.457 212.129C335.463 212.797 351.724 217.813 345.497 222.341C341.218 225.453 337.172 230.574 334.437 235.067C332.563 238.145 329.934 241.47 328.906 244.965C328.431 246.58 326.889 248.311 326.55 249.835C325.706 253.631 324.906 257.688 323.251 261.367C320.199 268.149 319.608 275.687 317.909 282.859C316.223 289.977 316.077 297.326 314.515 304.352C313.52 308.83 312.379 313.347 312.379 317.926C312.379 322.981 310.968 326.907 308.702 331.437C307.671 333.499 306.823 336.901 304.586 337.847C301.206 339.277 298.299 339.418 294.563 339.418C285.022 339.418 275.754 338.13 266.566 336.088C262.933 335.28 258.797 336.442 255.254 335.176C245.217 331.592 234.26 332.631 223.581 332.631C218.512 332.631 212.462 331.766 207.619 333.323C205.056 334.146 202.327 333.254 199.795 334.045C197.017 334.913 193.561 334.49 190.651 335.019C182.486 336.504 172.891 335.705 164.76 334.454C157.183 333.288 149.242 333.964 141.57 333.762C127.096 333.382 112.706 332.631 98.1457 332.631H83.3147C79.1327 332.631 73.1911 331.551 69.2063 332.946C64.9609 334.431 59.1978 333.587 55.318 335.742C54.0765 336.432 51.9094 336.025 50.5104 336.025C48.5569 336.025 47.9643 336.748 46.2685 337.125C44.7921 337.453 37.4662 336.291 36.9677 338.036C36.2776 340.451 31.2802 340.568 29.3322 341.681C26.6976 343.186 23.939 342.812 21.3825 342.812C19.9511 342.812 14.2244 341.796 13.7785 340.235C12.7695 336.704 10.2514 333.405 9.22235 329.803C8.56487 327.502 7.77093 325.478 8.1226 323.016C8.44059 320.79 9.78794 318.969 9.78794 316.669C9.78794 313.152 8.35366 310.587 8.09117 307.305C7.92096 305.178 7.29624 303.961 8.09117 301.775C8.81338 299.789 11.0036 297.547 9.09667 295.428C8.03093 294.244 7.8811 291.89 7.557 290.432C7.07561 288.266 6.95999 286.376 6.95999 284.116C6.95999 280.324 7.17034 276.465 6.95999 272.679C6.72883 268.518 5.3213 265.902 7.08568 261.933C8.16404 259.506 7.50004 254.857 9.34804 253.009C10.3144 252.042 11.0425 252.11 11.9577 251.854Z" fill="#D9E2E8"/>
<path d="M333.587 240.543C327.684 240.871 324.46 247.435 322.473 251.657C320.485 255.88 319.123 257.491 319.013 260.991C318.513 276.991 316.41 287.032 316.41 302.178C316.41 317.789 312.914 334.625 318.206 349.443L322.978 362.803C324.165 366.127 326.952 366.455 328.76 368.865C331.412 372.401 342.699 371.098 346.723 370.886C349.269 370.752 354.198 368.204 356.321 366.788C359.416 364.725 361.293 363.049 363.114 359.772C366.505 353.668 368.666 347.564 370.748 340.798C374.703 327.943 375.014 314.904 375.014 301.392C375.014 289.652 372.729 278.405 368.727 267.599C366.757 262.279 362.311 257.726 359.633 252.668C356.948 247.595 352.015 244.981 347.957 241.329C345.589 239.197 336.874 240.36 333.587 240.543Z" fill="#363B3E" stroke="black" stroke-width="4" stroke-linecap="round"/>
<path d="M545.774 234.48C550.355 229.9 551.515 228.418 558.404 228.418C562.602 228.418 571.14 228.682 573.055 233.47C573.755 235.219 577.162 238.586 578.613 240.038C581.6 243.025 583.071 248.474 584.394 252.443C587.076 260.488 588.212 268.665 588.212 277.142C588.212 281.175 588.351 285.236 588.212 289.267C588.078 293.145 588.068 300.126 586.696 303.694C585.419 307.012 585.317 311.542 585.18 315.089C585.07 317.965 583.159 320.961 583.159 323.902C583.159 329.754 579.075 337.526 575.525 342.089C572.211 346.351 567.05 352.667 562.446 355.225C558.33 357.512 552.718 355.96 548.805 355.73C542.563 355.363 537.359 354.83 534.435 348.657C526.3 331.482 532.639 311.677 532.639 293.646C532.639 283.964 535.387 274.426 535.67 264.793C535.863 258.243 538.174 247.947 542.743 243.125C544.18 241.608 546.164 238.653 548.35 236.094C545.835 236.142 544.532 235.722 545.774 234.48Z" fill="#363B3E" stroke="black" stroke-width="4" stroke-linecap="round"/>
<path d="M419.564 102.144C420.003 102.126 420.453 102.116 420.916 102.116C422.839 101.498 424.105 98.8067 425.759 102.116C426.812 104.22 431.513 108.66 431.513 110.985C431.513 116.043 432.179 117.485 434.404 121.491C442.021 135.201 449.452 149.738 447.764 165.772C447.142 171.679 440.957 171.39 436.593 172.845C431.8 174.443 426.562 173.855 421.493 173.855C410.758 173.855 399.422 171.645 388.935 174.641C384.553 175.893 372.022 180.758 368.446 177.897C364.344 174.615 366.931 170.925 366.931 166.782C366.931 156.145 374.592 144.156 378.27 134.225C380.284 128.787 385.66 125.227 387.195 119.854C388.636 114.81 392.983 112.879 397.219 110.996L397.243 110.985C406.125 107.038 410.301 102.543 419.564 102.144Z" fill="#597E95"/>
<path d="M420.916 102.116C410.686 102.116 406.546 106.851 397.243 110.985C392.999 112.871 388.639 114.801 387.195 119.854C385.66 125.227 380.284 128.787 378.27 134.225C374.592 144.156 366.931 156.145 366.931 166.782C366.931 170.925 364.344 174.615 368.446 177.897C372.022 180.758 384.553 175.893 388.935 174.641C399.422 171.645 410.758 173.855 421.493 173.855C426.562 173.855 431.8 174.443 436.593 172.845C440.957 171.39 447.142 171.679 447.764 165.772C449.452 149.738 442.021 135.201 434.404 121.491C432.179 117.485 431.513 116.043 431.513 110.985C431.513 108.66 426.812 104.22 425.759 102.116C423.725 98.0463 422.278 103.051 419.472 102.116" stroke="#374C5A" stroke-width="4" stroke-linecap="round"/>
<path d="M431.023 102.339L431.013 102.34C431.013 105.622 433.573 111.817 434.513 114.991C436.21 120.715 440.931 124.088 442.487 129.846C444.362 136.781 446.397 143.654 447.988 150.616C448.922 154.702 447.756 161.273 451.02 164.537C453.312 166.829 458.019 169.343 460.899 166.782C463.956 164.065 469.386 164.497 473.024 162.965C478.877 160.501 495.124 161.584 490.426 152.188C487.282 145.899 485.437 138.617 482.343 132.428C480.635 129.013 477.487 125.1 477.066 121.314C476.824 119.134 475.454 111.48 473.024 111.21C470.154 110.891 466.538 109.562 463.931 108.403C461.856 107.481 456.971 105.147 454.837 105.147C452.179 105.147 448.311 103.482 445.743 102.34C442.51 100.903 433.877 101.983 431.023 102.339Z" fill="#597E95"/>
<path d="M431.013 102.34C433.858 101.985 442.506 100.902 445.743 102.34C448.311 103.482 452.179 105.147 454.837 105.147C456.971 105.147 461.856 107.481 463.931 108.403C466.538 109.562 470.154 110.891 473.024 111.21C475.454 111.48 476.824 119.134 477.066 121.314C477.487 125.1 480.635 129.013 482.343 132.428C485.437 138.617 487.282 145.899 490.426 152.188C495.124 161.584 478.877 160.501 473.024 162.965C469.386 164.497 463.956 164.065 460.899 166.782C458.019 169.343 453.312 166.829 451.02 164.537C447.756 161.273 448.922 154.702 447.988 150.616C446.397 143.654 444.362 136.781 442.487 129.846C440.931 124.088 436.21 120.715 434.513 114.991C433.573 111.817 431.013 105.622 431.013 102.34ZM431.013 102.34C428.168 102.696 431.013 99.0586 431.013 102.34Z" stroke="#374C5A" stroke-width="4" stroke-linecap="round"/>
<path d="M493.008 120.303C488.339 119.765 488.878 114.418 484.139 113.892C479.4 113.365 475.655 115.703 481.513 124.491C487.372 133.278 487.027 134.284 490.013 143.991C490.933 146.978 494.487 153.858 498.285 153.647C502.611 153.407 506.774 150.616 511.196 150.616C524.988 150.616 508.311 134.043 504.347 129.846C501.942 127.299 496.495 120.706 493.008 120.303Z" fill="#597E95" stroke="#374C5A" stroke-width="4" stroke-linecap="round"/>
<path d="M200.718 105.652C197.812 104.038 194.806 103.157 191.73 102.678C188.401 103.823 186.293 106.388 182.53 107.224C179.858 107.818 171.312 112.33 169.9 114.802C168.841 116.654 166.748 117.399 165.634 119.293C164.502 121.217 160.894 122.299 160.02 123.784C156.766 129.317 149.561 133.845 144.864 138.715C137.969 145.866 130.095 152.151 123.477 159.597C120.614 162.818 117.373 165.757 114.327 168.803C112.406 170.725 108.29 173.04 107.254 175.371C105.198 179.998 109.308 180.928 113.317 180.928C119.099 180.928 124.482 182.949 130.494 182.949H160.357C181.518 182.949 203.502 181.669 224.013 177.111C230.279 175.719 239.539 176.269 245.681 177.672C252.462 179.223 259.259 174.985 265.889 175.932C279.707 177.906 293.417 175.876 307.316 175.876C315.347 175.876 323.211 174.866 331.342 174.866C335.477 174.866 339.524 173.121 341.67 169.365C343.099 166.865 343.978 168.701 345.712 168.803C349.409 169.021 347.87 167.747 349.248 165.267C350.932 162.237 351.637 157.31 351.775 153.872C351.984 148.641 355.904 141.819 357.612 136.695C358.547 133.891 360.625 129.687 362.44 127.376C365.053 124.05 366.815 119.955 369.513 116.767C376.659 108.321 367.877 112.184 363.394 109.694C359.287 107.412 354.355 108.178 349.754 108.178H334.597H326.009C321.547 108.178 317.74 106.158 313.323 106.158C297.343 106.158 281.821 108.178 265.889 108.178H221.431C215.131 108.178 206.391 108.804 200.718 105.652Z" fill="#597E95"/>
<path d="M178.994 102.116C186.534 102.116 193.9 101.865 200.718 105.652C206.391 108.804 215.131 108.178 221.431 108.178C236.25 108.178 251.07 108.178 265.889 108.178C281.821 108.178 297.343 106.158 313.323 106.158C317.74 106.158 321.547 108.178 326.009 108.178C328.872 108.178 331.735 108.178 334.597 108.178C339.65 108.178 344.702 108.178 349.754 108.178C354.355 108.178 359.287 107.412 363.394 109.694C367.877 112.184 376.659 108.321 369.513 116.767C366.815 119.955 365.053 124.05 362.44 127.376C360.625 129.687 358.547 133.891 357.612 136.695C355.904 141.819 351.984 148.641 351.775 153.872C351.637 157.31 350.932 162.237 349.248 165.267C347.87 167.747 349.409 169.021 345.712 168.803C343.978 168.701 343.099 166.865 341.67 169.365C339.524 173.121 335.477 174.866 331.342 174.866C323.211 174.866 315.347 175.876 307.316 175.876C293.417 175.876 279.707 177.906 265.889 175.932C259.259 174.985 252.462 179.223 245.681 177.672C239.539 176.269 230.279 175.719 224.013 177.111C203.502 181.669 181.518 182.949 160.357 182.949C150.403 182.949 140.448 182.949 130.494 182.949C124.482 182.949 119.099 180.928 113.317 180.928C109.308 180.928 105.198 179.998 107.254 175.371C108.29 173.04 112.406 170.725 114.327 168.803C117.373 165.757 120.614 162.818 123.477 159.597C130.095 152.151 137.969 145.866 144.864 138.715C149.561 133.845 156.766 129.317 160.02 123.784C160.894 122.299 164.502 121.217 165.634 119.293C166.748 117.399 168.841 116.654 169.9 114.802C171.312 112.33 179.858 107.818 182.53 107.224C187.43 106.135 189.524 102.116 195.16 102.116C198.863 102.116 207.583 104.966 208.296 102.116" stroke="#374C5A" stroke-width="4" stroke-linecap="round"/>
<path d="M79.007 234.48C79.1778 232.932 84.942 230.544 80.5134 234.48L79.007 234.48C78.9452 235.041 79.6164 235.491 81.7693 235.491C91.1598 235.491 101.081 234.48 110.735 234.48C127.323 234.48 144.265 233.47 160.582 233.47C167.825 233.47 175.07 232.846 182.025 232.459C187.051 232.18 198.758 232.737 200.156 239.027C201.074 243.155 201.223 246.853 201.223 251.152C201.223 255.876 198.432 260.224 198.192 264.793C197.647 275.129 194.649 281.229 185 285.45C182.262 286.648 179.263 285.446 176.468 286.068C173.724 286.677 171.861 288.032 168.89 288.032C164.445 288.032 159.863 289.043 155.249 289.043C145.542 289.043 136.018 290.053 126.452 290.053C114.932 290.053 103.499 289.043 91.8735 289.043C88.1058 289.043 72.0397 291.251 69.8689 288.537C69.494 288.069 65.1165 286.246 64.3116 286.068C62.2632 285.612 60.4941 284.271 59.3157 282.419C56.9683 278.73 55.752 273.819 53.197 269.845C49.7304 264.452 54.1573 262.361 55.7231 257.664C57.4066 252.613 57.7439 247.874 57.7439 242.564C57.7439 239.303 57.4135 234.48 61.7856 234.48H73.3492L79.007 234.48Z" fill="#09080A"/>
<path d="M80.5134 234.48C86.5451 229.119 73.6689 235.491 81.7693 235.491C91.1598 235.491 101.081 234.48 110.735 234.48C127.323 234.48 144.265 233.47 160.582 233.47C167.825 233.47 175.07 232.846 182.025 232.459C187.051 232.18 198.758 232.737 200.156 239.027C201.074 243.155 201.223 246.853 201.223 251.152C201.223 255.876 198.432 260.224 198.192 264.793C197.647 275.129 194.649 281.229 185 285.45C182.262 286.648 179.263 285.446 176.468 286.068C173.724 286.677 171.861 288.032 168.89 288.032C164.445 288.032 159.863 289.043 155.249 289.043C145.542 289.043 136.018 290.053 126.452 290.053C114.932 290.053 103.499 289.043 91.8735 289.043C88.1058 289.043 72.0397 291.251 69.8689 288.537C69.494 288.069 65.1165 286.246 64.3116 286.068C62.2632 285.612 60.4941 284.271 59.3157 282.419C56.9683 278.73 55.752 273.819 53.197 269.845C49.7304 264.452 54.1573 262.361 55.7231 257.664C57.4066 252.613 57.7439 247.874 57.7439 242.564C57.7439 239.303 57.4135 234.48 61.7856 234.48C65.6401 234.48 69.4946 234.48 73.3492 234.48L80.5134 234.48Z" stroke="black" stroke-width="4" stroke-linecap="round"/>
<path d="M265.889 259.965C265.889 263.603 268.122 293.58 266.982 295.05C267.766 299.141 273.94 295.205 275.488 293.14C276.484 291.813 278.72 290.435 280.035 289.043C281.695 287.285 282.548 285.149 284.077 283.429C287.02 280.118 294.683 257.13 287.108 256.709C283.123 256.488 278.471 254.689 274.478 254.689C269.531 254.689 265.889 254.815 265.889 259.965Z" fill="#585F67"/>
<path d="M266.9 295.105C268.224 294.94 265.889 263.684 265.889 259.965C265.889 254.815 269.531 254.689 274.478 254.689C278.471 254.689 283.123 256.488 287.108 256.709C294.683 257.13 287.02 280.118 284.077 283.429C282.548 285.149 281.695 287.285 280.035 289.043C278.72 290.435 276.484 291.813 275.488 293.14C273.834 295.346 266.9 299.688 266.9 294.095" stroke="black" stroke-width="4" stroke-linecap="round"/>
<path d="M14.8012 261.761C13.5165 261.761 10.4634 261.099 10.2544 262.772C10.0453 264.444 9.24396 295.296 9.24396 301.168C9.24396 307.039 16.3135 303.961 17.2711 299.652C18.2016 295.465 17.3273 290.046 17.3273 285.787C17.3273 279.764 19.9788 272.823 17.8325 266.814C16.8264 263.996 18.4172 261.761 14.8012 261.761Z" fill="#585F67" stroke="black" stroke-width="4" stroke-linecap="round"/>
<path d="M15.3064 228.418C15.4072 226.907 15.9956 227.228 16.6431 228.074C18.3831 226.751 20.4272 225.678 22.3793 224.376C25.7126 222.154 20.0485 227.16 17.0213 228.612C17.5518 229.423 18.0667 230.413 18.3377 230.888C19.0768 232.181 23.5662 234.126 24.9054 234.424C29.7211 235.494 33.2056 237.511 38.3214 237.511C39.4334 237.511 50.544 238.562 47.0784 240.543C44.0531 242.271 40.8624 248.257 38.546 251.152C35.9824 254.357 25.6037 249.806 22.3793 249.636C20.5909 249.542 18.5943 249.705 17.3273 248.121C16.2997 246.836 13.2701 247.944 11.77 247.11C7.83589 244.925 11.9382 238.692 12.2752 235.491C12.5897 232.503 13.8558 230.526 15.575 228.959C15.3852 228.891 15.2863 228.72 15.3064 228.418Z" fill="#FAFAFA"/>
<path d="M234.566 231.954C229.356 233.402 230.513 232.991 225.013 234.491C219.013 235.491 220.294 235.991 217.013 235.991C213.733 235.991 210.513 235.991 213.013 239.491C214.389 244.991 215.888 242.964 218.624 247.616C223.493 255.893 240.026 249.636 247.253 249.636C252.375 249.636 258.391 250.495 263.419 249.58C268.865 248.59 273.781 243.995 279.249 243.574C282.196 243.347 286.373 241.069 288.904 239.532C291.861 237.737 295.564 238.21 298.447 236.501C304.998 232.619 313.908 230.704 318.88 224.376C326.869 214.208 308.935 216.293 302.769 216.293C297.923 216.293 293.283 216.502 288.567 217.359C285.707 217.879 283.067 218.884 280.091 219.38C278.362 219.668 277.524 221.814 275.993 222.58C272.717 224.218 268.828 227.188 264.879 227.407C261.233 227.61 254.539 227.448 251.294 228.923C246.17 231.252 239.955 230.457 234.566 231.954Z" fill="#FAFAFA"/>
<path d="M313.884 182.949C310.563 182.949 313.875 181.939 310.688 181.939C307.201 183.286 305.295 186.095 305.295 191.032C305.295 193.689 305.666 210.082 308.327 210.23C311.07 210.383 314.109 211.105 316.41 211.241C319.778 211.439 322.692 213.262 325.953 213.262C331.559 213.262 336.96 214.851 342.681 214.216C347.302 213.702 348.743 213.666 348.743 209.22C348.743 202.71 347.733 196.391 347.733 190.022C347.733 182.725 347.048 180.928 339.65 180.928C336.329 180.928 333.679 180.755 330.556 180.928C327.629 181.091 324.854 181.939 321.967 181.939C319.371 181.939 316.708 182.949 313.884 182.949Z" fill="#050505"/>
<path d="M310.688 181.939C313.875 181.939 310.563 182.949 313.884 182.949C316.708 182.949 319.371 181.939 321.967 181.939C324.854 181.939 327.629 181.091 330.556 180.928C333.679 180.755 336.329 180.928 339.65 180.928C347.048 180.928 347.733 182.725 347.733 190.022C347.733 196.391 348.743 202.71 348.743 209.22C348.743 213.666 347.302 213.702 342.681 214.216C336.96 214.851 331.559 213.262 325.953 213.262C322.692 213.262 319.778 211.439 316.41 211.241C314.109 211.105 311.07 210.383 308.327 210.23C305.666 210.082 305.295 193.689 305.295 191.032C305.295 183.51 309.719 180.928 317.42 180.928" stroke="black" stroke-width="4" stroke-linecap="round"/>
<path d="M392.206 175.741C393.502 172.315 393.654 167.662 394.717 165.323C396.001 162.498 395.364 160.208 398.759 158.699C400.903 157.746 404.516 156.678 406.842 156.678C414.008 156.678 435.639 155.355 435.639 165.267C435.639 170.492 434.586 178.532 429.352 180.142C422.458 182.263 414.442 180.049 407.572 182.163C401.881 183.914 395.247 186.318 389.16 185.98C386.929 185.856 385.058 182.621 385.904 180.928C386.092 180.551 386.293 180.21 386.504 179.898C382.451 179.606 390.511 176.263 392.206 175.741Z" fill="#E7EDF1"/>
<path d="M460.899 210.23C455.372 210.625 450.345 213.57 444.733 214.272" stroke="black" stroke-opacity="0.5" stroke-width="4" stroke-linecap="round"/>
<path d="M525.566 195.074C529.479 195.074 532.8 193.053 536.68 193.053" stroke="black" stroke-opacity="0.5" stroke-width="4" stroke-linecap="round"/>
<path d="M14.2755 312.685C16.5226 312.685 18.765 313.233 21.0265 313.732C22.3063 313.896 23.0875 314.024 22.5912 314.062C23.9737 314.333 25.3653 314.536 26.7715 314.536H37.879H43.6642C46.7646 314.536 46.9324 312.995 49.3465 311.297C51.828 309.55 54.248 307.939 56.7516 306.206C58.4685 305.017 61.115 303.425 62.4082 301.809C65.2616 298.242 70.8437 297.079 75.367 296.949C83.1752 296.726 90.748 297.754 98.5334 296.975C106.776 296.151 115.188 296.487 123.5 296.487H162.736H189.219C191.124 296.487 192.39 299.577 193.847 300.549C195.7 301.784 197.875 304.298 200.095 304.791C201.926 305.198 203.381 307.167 205.186 307.568C207.33 308.045 209.307 308.903 211.537 308.983C212.913 309.032 214.608 309.868 215.96 310.268C217.062 310.595 218.514 310.371 219.662 310.371H228.327C234.169 310.371 239.906 310.669 245.683 310.834C248.41 310.912 251.2 311.297 254.013 311.297C256.772 311.297 259.376 310.371 262.112 310.371C264.458 310.371 266.585 309.1 268.823 308.983C271.045 308.866 273.309 308.983 275.534 308.983C278.244 308.983 278.918 311.523 277.874 313.611C276.573 316.212 273.689 316.427 271.497 317.776C269.785 318.83 266.116 318.702 264.092 318.702C261.156 318.702 257.282 318.616 254.476 319.396C252.367 319.982 250.155 319.92 247.997 320.116C245.685 320.326 243.413 321.238 241.054 321.453C237.416 321.784 233.605 321.478 229.947 321.478H211.897H203.104C200.008 321.478 196.951 322.783 193.847 322.867C185.222 323.1 176.559 322.867 167.93 322.867H134.839C131.784 322.867 128.824 323.021 125.814 323.355C124.107 323.545 122.169 323.659 120.491 324.024C118.433 324.471 116.279 323.906 114.243 324.358C110.595 325.169 106.784 324.267 103.136 325.078C99.8607 325.806 95.848 325.181 92.4911 325.181C84.6137 325.181 76.8179 324.255 68.9904 324.255C65.0987 324.255 61.2498 323.929 57.4201 323.793C54.5929 323.692 52.0943 322.867 49.2437 322.867C38.6047 322.867 27.817 322.404 17.2838 322.404C15.1594 322.404 6.03001 317.485 9.08169 314.433C12.1305 311.385 18.3297 314.073 22.1433 314.073C22.3461 314.073 22.4934 314.07 22.5912 314.062C22.0684 313.959 21.547 313.847 21.0265 313.732C17.8188 313.321 11.479 312.685 14.2755 312.685Z" fill="black"/>
<path d="M26.1901 178.791C29.5125 178.791 32.5089 178.225 35.8051 178.225C37.4647 178.225 39.9368 177.741 41.461 178.351C42.0598 178.59 47.8522 179.356 44.8545 179.356" stroke="black" stroke-opacity="0.1" stroke-width="8" stroke-linecap="round"/>
<path d="M44.289 188.971C43.9568 190.3 34.9208 190.668 33.26 190.668C30.5919 190.668 26.9479 190.759 25.4988 193.496C22.5413 199.083 22.8247 205.077 21.6968 211.281C21.2188 213.91 19.1197 216.549 18.8374 218.948C18.7391 219.783 17.9163 220.616 17.6748 221.461C17.3064 222.751 20.8224 220.433 21.414 220.11C25.6036 217.825 27.7631 213.338 30.8405 210.024C33.5928 207.06 36.3296 203.969 39.1987 201.1C39.9891 200.31 45.7357 194.69 45.6401 194.69C43.2287 194.69 39.3826 197.088 37.3762 198.272C35.0417 199.65 29.5241 205.481 30.8405 203.111C31.2333 202.404 35.2402 195.821 33.1657 197.895C32.8608 198.2 29.3034 202.362 29.1437 202.043C28.5461 200.848 30.9964 198.168 31.4375 197.11C32.1419 195.419 29.8568 200.415 29.018 202.043C28.7021 202.656 29.7498 199.545 30.1178 198.901C31.9051 195.773 23.4868 210.102 27.8869 203.991C28.8208 202.694 30.0144 201.21 31.2176 200.158C31.8112 199.638 31.5253 202.367 31.2804 202.734C30.3377 204.148 34.5934 196.087 34.6739 197.455C34.7885 199.403 30.8972 204.014 31.3118 200.283C31.5658 197.998 33.4531 197.808 34.9567 196.638C37.3036 194.813 38.5962 193.121 42.0266 192.931C43.0814 192.872 44.4866 192.089 45.4202 191.674C46.1528 191.348 49.0331 191.234 47.1169 191.234" stroke="black" stroke-opacity="0.1" stroke-width="8" stroke-linecap="round"/>
<path d="M21.6654 264.195C25.5216 263.766 33.2914 263.629 33.2914 263.629C33.2914 263.629 30.1485 265.114 28.4525 265.326C27.1633 265.487 25.6214 268.115 24.4933 268.845C23.6004 269.423 22.7258 272.609 22.7965 271.548C22.8677 270.48 23.9081 269.556 24.619 268.845C26.4742 266.99 25.4862 268.02 23.9277 268.845C21.0962 270.344 22.231 277.619 22.231 280.283C22.231 284.461 21.6654 288.517 21.6654 292.757C21.6654 296.745 22.0947 298.62 19.9686 302.341C19.3676 303.393 15.7959 304.77 16.9207 304.32C18.9608 303.504 20.249 302.655 22.5138 302.655C24.5141 302.655 35.1361 302.296 35.8051 300.958" stroke="black" stroke-opacity="0.1" stroke-width="8" stroke-linecap="round"/>
<path d="M264.869 255.711C262.531 257.789 255.874 258.295 252.709 258.57C250.281 258.782 245.378 259.457 243.66 261.367C242.039 263.167 239.93 265.367 238.035 266.991C235.481 269.181 245.179 266.747 247.87 264.729C250.695 262.611 252.982 262.33 256.417 261.901C258.611 261.627 259.899 259.728 262.324 260.267C264.266 260.699 264.304 270.047 264.304 271.799C264.304 275.943 264.681 281.783 265.875 285.813C266.17 286.81 266.712 292.464 266.44 292.474C261.528 292.663 257.156 293.081 252.426 294.297C250.026 294.914 247.757 296.514 245.639 297.69C242.516 299.426 244.459 301.04 247.336 300.958C251.563 300.837 255.71 297.743 259.905 297.565C262.983 297.434 268.515 298.192 269.96 295.302" stroke="black" stroke-opacity="0.1" stroke-width="8" stroke-linecap="round"/>
<path d="M305.592 338.853C299.488 340.731 292.406 337.517 286.487 336.465C280.925 335.476 275.058 333.197 269.394 333.197C264.038 333.197 258.828 331.5 253.557 331.5C247.027 331.5 240.833 332.631 234.359 332.631C220.468 332.631 206.549 332.066 192.725 332.066C179.961 332.066 167.288 334.328 154.453 334.328C148.569 334.328 142.941 333.197 137.046 333.197C131.394 333.197 125.829 332.631 120.109 332.631C114.516 332.631 108.743 331.254 103.11 332.506C96.5045 333.974 88.9101 333.197 82.1521 333.197C69.9624 333.197 57.4639 331.151 45.8601 335.019C41.0362 336.627 36.5802 340.375 31.5632 341.147C28.8262 341.568 16.7459 344.627 16.0095 341.681" stroke="black" stroke-opacity="0.1" stroke-width="8" stroke-linecap="round"/>
<path d="M378.553 321.885C381.1 319.338 387.365 320.188 390.87 320.188C392.577 320.188 394.233 319.623 395.803 319.623C396.854 319.623 399.962 319.292 400.894 318.774C403.784 317.169 406.748 315.701 408.529 312.584C410.329 309.434 414.941 307.93 416.447 304.917" stroke="black" stroke-opacity="0.1" stroke-width="8" stroke-linecap="round"/>
<path d="M493.933 294.737C496.202 294.737 499.912 299.566 501.286 301.398C503.369 304.176 506.563 305.838 509.487 307.463C510.624 308.094 513.54 308.814 514.294 307.494C514.77 306.662 518.686 307.18 519.636 307.18C523.134 307.18 526.633 307.18 530.131 307.18" stroke="black" stroke-opacity="0.1" stroke-width="8" stroke-linecap="round"/>
<path d="M380.812 295.98C386.993 295.293 396.944 292.717 398.74 286.433C399.905 282.354 403.186 280.964 406.289 278.551C408.371 276.931 414.193 278.481 415.78 276.497C417.916 273.827 421.723 276.039 423.995 274.222C424.975 273.437 432.395 273 433.764 273C440.421 273 447.257 271.002 453.746 271.002C466.875 271.002 479.15 265.385 491.157 261.955C496.505 260.427 506.233 263.493 509.474 269.004C511.782 272.928 514.16 274.999 518.688 274.999C521.56 274.999 524.894 274.524 527.68 275.221C528.653 275.464 532.676 278.135 532.676 276.997" stroke="black" stroke-opacity="0.1" stroke-width="2" stroke-linecap="round"/>
<path d="M427.77 107.149C430.753 110.878 431.346 118.264 432.765 122.69C435.118 130.025 438.324 137.502 441.757 144.56C447.221 155.791 452.788 167.002 457.243 178.585C460.701 187.575 464.966 195.912 468.233 205.061C470.17 210.484 471.73 217.29 471.73 223.045C471.73 238.384 474.46 252.802 475.727 268.005" stroke="black" stroke-opacity="0.1" stroke-width="2" stroke-linecap="round"/>
<path d="M480.722 116.141C486.206 116.689 493.406 125.443 497.929 128.574C505.17 133.586 512.461 142.248 517.911 149.111C525.075 158.131 531.654 167.769 536.672 178.085C539.322 183.532 542.496 188.713 544.887 194.293C547.456 200.286 547.513 214.619 552.658 218.049" stroke="black" stroke-opacity="0.1" stroke-width="2" stroke-linecap="round"/>
<path d="M370.821 178.085C371.867 190.647 372.577 203.41 374.317 215.94C375.525 224.633 374.078 233.897 376.038 242.472C377.552 249.095 376.083 255.813 376.871 262.51C378.317 274.8 381.379 286.829 383.809 298.977" stroke="black" stroke-opacity="0.1" stroke-width="2" stroke-linecap="round"/>
<path d="M10.1429 306.97C9.32294 307.907 22.9437 308.968 25.629 308.968C31.4978 308.968 36.2723 307.969 42.1143 307.969C47.455 307.969 51.4452 301.378 56.5459 299.921C62.2946 298.278 67.4886 297.978 74.0857 297.978" stroke="black" stroke-opacity="0.1" stroke-width="2" stroke-linecap="round"/>
<path d="M325.157 1.95464C321.666 1.95464 318.201 1.85073 314.721 1.85073C311.588 1.85073 308.529 2.16245 305.392 2.16245C303.72 2.16245 302.048 2.16245 300.376 2.16245C297.916 2.16245 295.424 2.28447 292.993 1.96041C291.945 1.8206 291.001 1.63667 289.934 1.87382C289.533 1.9629 289.123 2.05854 288.71 2.05854C288.509 2.05854 288.299 2.01589 288.144 2.13936C287.953 2.29242 287.282 2.37026 287.024 2.37026" stroke="#D9E2E8" stroke-width="3" stroke-linecap="round"/>
<path d="M190.981 297.978C194.573 297.978 198.311 295.98 202.471 295.98C206.616 295.98 211.224 297.095 214.96 298.755C222.906 302.287 231.425 304.972 240.437 304.972C246.492 304.972 252.54 306.97 258.699 306.97C266.118 306.97 273.537 306.97 280.956 306.97C292.767 306.97 304.006 304.972 315.87 304.972" stroke="black" stroke-opacity="0.1" stroke-width="2" stroke-linecap="round"/>
<path d="M281.852 28.9366C281.776 29.7249 281.684 30.285 281.627 29.4069C281.616 29.231 281.627 29.0577 281.653 28.8902C281.451 28.7936 281.479 28.5417 281.932 27.9819C281.96 27.5996 281.979 27.2756 281.983 27.151C282.04 25.5783 281.877 23.1579 282.317 21.6707C282.8 20.0404 282.342 18.148 282.693 16.4359C283.058 14.6564 283.184 12.9821 283.331 11.1844C283.452 9.72143 283.281 4.54549 284.998 3.90959C287.278 3.06541 289.284 3.60808 291.575 3.4616C293.426 3.34331 294.678 3.99149 296.381 4.11937C300.297 4.41337 304.429 3.63252 308.361 3.38116L317.824 2.77632L321.834 2.51998C323.339 2.42377 324.271 1.37169 325.545 1.29023C327.655 1.15539 329.1 1.97974 329.735 4.24815C330.681 7.631 332.467 10.747 332.775 14.3375C332.962 16.5236 333.987 18.4751 334.129 20.7024L334.406 25.0407C334.483 26.2417 334.087 27.4526 334.156 28.5306C334.271 30.3431 333.676 29.1151 332.195 29.1522C327.559 29.2684 323.245 28.2355 318.628 28.5306C311.35 28.9958 304.011 27.9761 296.725 28.4418L287.761 29.0148C286.298 29.1084 284.972 28.7527 283.588 28.7853C282.999 28.7992 282.265 28.9717 281.852 28.9366Z" fill="black"/>
<path d="M412.098 78.0898C412.488 77.9954 412.868 77.8477 413.319 77.8477C414.134 77.8477 415.01 77.7603 415.82 77.8616C417.507 78.0724 419.14 78.9749 420.81 79.4043C422.528 79.846 424.363 79.7521 426.063 80.2243C427.545 80.6359 429.54 80.8498 431.067 80.8498C433.626 80.8498 436.224 81.0999 438.711 81.0999C439.796 81.0999 441.241 81.7764 442.325 81.2945C443.195 80.9079 444.374 81.0999 445.327 81.0999C446.537 81.0999 447.308 81.3806 448.44 81.5864C449.389 81.7589 450.701 81.2649 451.581 81.6559C453.208 82.3789 457.585 81.7693 457.585 84.4773C457.585 85.7137 460.121 91.357 457.446 91.357C454.05 91.357 450.795 92.1076 447.384 92.1076C445.753 92.1076 446.356 90.9071 445.702 89.7309C445.045 88.548 443.705 88.3342 442.575 87.799C439.69 86.4327 436.802 86.1034 433.555 86.1034C429.187 86.1034 424.954 86.9097 420.574 86.6176C416.644 86.3556 412.33 86.3359 408.607 85.0471C406.348 84.265 403.942 84.3522 401.546 84.3522H397.043C395.24 84.3522 395.02 83.8138 394.18 82.2535C393.913 81.7578 393.931 80.717 394.152 80.1826C394.667 78.9426 395.475 78.9778 396.543 78.487C398.689 77.5012 401.22 77.8477 403.534 77.8477C405.704 77.8477 407.883 77.7857 410.052 77.8477C410.727 77.867 411.411 77.9679 412.098 78.0898Z" fill="black" stroke="black" stroke-width="4" stroke-linecap="round"/>
<path d="M386.925 82.3369C385.124 82.1653 383.394 80.9745 381.533 81.8504L386.536 83.3515C384.154 83.3515 381.659 82.601 379.281 82.601C376.823 82.601 374.442 82.5712 372.012 82.9762C370.062 83.3013 367.004 84.0275 366.022 85.9922C365.286 87.4635 365.141 89.518 366.633 90.4675C367.938 91.2977 369.989 91.0381 371.47 91.3014C373.384 91.6417 376.507 91.518 378.03 92.872C378.319 93.1288 379.115 94.8497 379.281 94.8595C379.688 94.8834 380.264 94.6264 380.726 94.6093C384.993 94.4513 389.357 94.1089 393.652 94.1089C397.724 94.1089 398.306 90.2409 396.738 87.1041C395.617 84.8636 393.667 83.8448 391.345 83.1569C389.854 82.7153 388.485 82.4854 386.925 82.3369Z" fill="black" stroke="black" stroke-width="4" stroke-linecap="round"/>
<path d="M272.816 29.8162C276.578 28.0531 281.285 27.2429 284.904 27.2429C288.405 27.2429 291.394 26.3576 294.864 26.3576H305.709H318.424C321.367 26.3576 323.896 27.2429 326.957 27.2429C332.453 27.2429 337.449 28.5709 342.893 28.5709C345.055 28.5709 348.963 29.1665 350.419 30.7843C351.57 32.063 349.545 31.7894 348.328 32.2107C346.264 32.9253 343.927 32.5455 341.787 33.096C336.759 34.3889 331.336 33.883 326.097 33.883H317.735C314.755 33.883 311.424 34.3065 308.488 33.7846C306.163 33.3712 303.628 33.2392 301.258 33.4649C299.316 33.6498 296.689 33.5264 294.839 34.1043C292.965 34.6899 290.611 34.3256 288.667 34.3256C286.639 34.3256 284.647 34.7683 282.568 34.7683C278.329 34.7683 272.973 35.6447 268.968 34.1043C268.723 34.0102 268.465 33.8947 268.217 33.7572C267.546 34.2099 267.267 34.2648 267.85 33.5313C267.092 33.0086 266.564 32.2477 267.074 31.227C267.846 29.6838 271.656 29.2665 273.173 29.0136C273.498 28.9594 273.297 29.2949 272.816 29.8162Z" fill="#D9E2E8"/>
<path d="M372.236 75.1173C374.597 72.7562 378.614 71.978 381.765 72.428C383.986 72.7453 386.913 72.7959 389.006 73.6773C392.689 75.2281 397.559 73.0328 401.203 72.8303C402.148 72.7778 403.126 71.916 404.062 71.708C404.991 71.5016 406.159 71.6869 407.111 71.6869C408.911 71.6869 411.236 73.9096 410.266 76.0913C409.827 77.0795 408.971 77.8404 408.445 78.7594C407.696 80.0709 407.407 80.2234 406.349 81.0464C404.342 82.6074 401.262 81.9781 398.726 81.9781C394.325 81.9781 390.181 81.9781 385.767 81.9781C383.373 81.9781 381.16 81.2158 378.715 81.2158C375.539 81.2158 374.739 82.1087 372.701 84.3497C369.649 87.7078 366.42 89.6882 363.088 92.6504C360.752 94.7271 359.18 91.7608 359.848 89.6224C360.324 88.0999 360.087 86.6518 361.013 85.1967C361.845 83.8893 362.95 82.8779 364.041 81.7875C365.863 79.9649 367.593 78.1916 369.271 76.3454C370.937 74.5132 372.259 74.1724 374.332 73.0209C375.091 72.599 376.338 72.8303 377.191 72.8303C379.217 72.8303 374.965 75.5789 374.523 75.8796C373.36 76.669 372.331 77.8215 371.134 78.5053C369.95 79.1824 372.379 77.8865 372.596 77.7854C372.843 77.6701 375.478 76.17 375.01 77.1077C373.967 79.1927 372.032 80.9016 370.372 82.4863C368.801 83.9864 370.765 81.4988 371.516 81.004C371.874 80.7676 367.464 80.6683 367.196 81.004C366.16 82.3029 368.849 84.7583 367.746 86.0014C367.478 86.3043 364.999 88.7839 365.46 86.8484C365.649 86.0532 367.996 83.55 366.052 85.4932C365.503 86.0422 363.656 88.328 363.744 88.1613C364.387 86.9476 366.857 85.5473 366.857 84.1379C366.857 82.8431 361.781 89.9481 361.013 90.9906C360.297 91.9624 365.25 85.4648 365.311 84.9426C365.354 84.5817 363.704 86.9088 363.554 87.6107C363.285 88.8656 366.012 85.8947 366.349 85.5779C367.086 84.8846 365.33 88.5365 365.078 89.0506C364.218 90.8059 366.874 86.0586 367.196 85.5779C369.265 82.4917 368.089 83.2369 371.007 81.5122C373.039 80.3115 375.705 78.0964 377.953 77.4889C381.249 76.598 377.773 79.3007 377.974 77.1924C378.076 76.1241 379.518 74.5098 380.748 75.1808C382.279 76.0158 378.785 78.9561 378.186 79.2465C376.42 80.1027 376.707 78.5433 377.741 77.7007C378.382 77.1783 382.756 75.0436 383.204 76.4301C384.337 79.9294 377.526 78.9299 382.993 77.1077C383.77 76.8486 386.581 76.0116 386.847 77.4254C386.947 77.9589 385.74 79.3404 385.597 78.6959C384.804 75.1277 392.723 76.5125 388.816 79.8182C387.977 80.528 387.639 79.5211 388.329 78.9076C389.349 78.0007 392.634 76.9388 393.305 78.8018C393.747 80.0282 392.514 82.5157 390.976 81.5546C389.315 80.5164 392.697 78.5004 393.39 78.23C394.078 77.9616 396.936 77.2685 396.545 78.9288C396.409 79.5049 394.885 80.519 395.19 79.6064C395.705 78.0603 397.171 76.9738 398.747 76.7266C400.165 76.5041 399.691 78.7594 399.382 78.7594C399.026 78.7594 400.636 76.1086 400.822 75.9219C402.245 74.4991 402.347 76.1177 402.347 77.3618C402.347 79.0774 401.704 78.055 402.199 77.0654C402.461 76.5399 404.301 75.2167 404.782 75.9643C405.247 76.6876 404.177 78.7315 403.956 78.3783C403.355 77.4159 404.362 75.4318 405.396 75.202C407.334 74.7712 406.836 78.0456 406.074 78.8441C404.926 80.0464 403.469 79.5339 404.041 77.7854C404.277 77.0624 406.194 74.4464 407.133 75.5831C407.347 75.8423 407.302 77.5499 407.302 76.7266C407.302 73.7773 408.127 75.8482 407.302 76.2607" stroke="#E7EDF1" stroke-width="4" stroke-linecap="round"/>
<path d="M403.23 71.3981C405.019 71.3981 410.377 71.0524 408.588 71.0524C406.798 71.0524 377.005 70.2677 376.785 70.7067C376.566 71.1458 373.631 71.3981 372.983 71.3981C371.52 71.3981 370.236 71.2718 368.835 71.0716C365.964 70.6615 362.755 71.0524 359.847 71.0524C352.618 71.0524 345.707 70.3611 338.492 70.3611C333.734 70.3611 329.137 70.6237 324.434 71.0716C321.856 71.3172 319.199 71.4403 316.618 71.763C314.228 72.0617 311.249 71.7376 309.032 72.7808C307.792 73.3642 306.525 72.9154 305.23 73.2033C303.882 73.5029 302.522 73.6158 301.158 73.8947C298.299 74.4795 295.275 73.6918 292.44 74.3364C288.915 75.1375 284.64 74.5092 281.032 74.5092H268.069C262.486 74.5092 257.047 75.2006 251.496 75.2006H237.131C230.36 75.2006 223.707 74.1891 217.082 73.453C214.625 73.1801 212.279 71.6903 209.822 71.4173C208.583 71.2795 207.268 71.3981 206.02 71.3981C204.823 71.3981 204.023 72.0258 202.909 72.0894C201.395 72.1759 198.384 72.5169 198.05 74.3556C197.684 76.3704 197.032 78.3095 197.032 80.3857C197.032 82.6863 196.266 84.1765 194.958 85.9934C193.81 87.5885 192.386 87.6884 190.618 88.0099C187.91 88.5022 184.078 90.9531 182.936 93.5215C182.453 94.6083 182.089 96.9029 182.936 97.9385C183.563 98.705 186.107 98.1642 187.007 97.8425C188.493 97.312 190.441 98.2178 191.847 97.5929C193.153 97.0122 195.109 96.6326 196.514 96.6326C199.388 96.6326 201.927 95.5956 204.906 95.5956C207.03 95.5956 208.972 94.9042 211.128 94.9042C213.162 94.9042 215.056 94.5586 217.082 94.5586C226.617 94.5586 236.08 95.2169 245.6 95.9221C254.029 96.5465 262.675 95.7784 271.084 95.5956C275.098 95.5083 279.057 94.9042 283.106 94.9042H294.514H314.64C318.3 94.9042 321.949 95.9413 325.605 95.9413C328.971 95.9413 332.327 96.2231 335.649 96.287C341.341 96.3964 347.294 96.279 352.914 95.5764C355.538 95.2484 359.782 92.8951 360.807 90.3336C361.536 88.5124 363.22 86.9738 363.918 84.9564C364.483 83.3246 365.861 82.0615 366.415 80.5394C366.905 79.1916 368.528 77.6325 369.449 76.5065C370.285 75.4851 371.882 73.3903 373.156 73.1073C373.739 72.9777 374.156 72.2704 374.884 72.1087C375.605 71.9484 376.25 71.5746 376.958 71.4173C378.295 71.1203 379.529 71.0524 380.933 71.0524C382.068 71.0524 384.046 70.6689 385.081 71.1292C385.868 71.479 386.567 71.3651 387.424 71.3981C388.149 71.426 388.665 72.0894 389.402 72.0894C392.559 72.0894 395.673 71.0524 398.909 71.0524C400.384 71.0524 401.803 71.3981 403.23 71.3981Z" fill="black" stroke="black" stroke-width="4" stroke-linecap="round"/>
<path d="M257.952 57.3188C257.735 57.636 257.498 57.9403 257.237 58.2297C256.039 59.5607 256.762 58.6901 257.952 57.3188C260.166 54.0756 260.197 49.4887 260.336 45.7366C260.417 43.5353 261.593 35.9613 263.68 34.7683C267.077 32.8274 270.098 35.211 273.837 35.211H289.109C300.818 35.211 312.304 34.3256 324.055 34.3256H340.459C342.399 34.3256 346.048 35.057 347.763 34.1043C348.416 33.7415 351.699 33.4904 352.312 33.9813C354.197 35.4892 356.581 39.2883 356.837 41.851C357.018 43.6566 358.207 46.3713 358.952 48.0484C359.422 49.1055 360.379 51.0705 360.379 52.2537C360.379 53.6009 362.037 55.131 360.157 55.131C357.791 55.131 355.299 55.5737 352.853 55.5737H340.459C336.962 55.5737 332.947 55.0577 329.49 55.6721C320.791 57.2187 312.124 57.7871 303.275 57.7871C293.173 57.7871 283.224 59.1151 273.173 59.1151H260.114C255.323 59.1151 260.496 55.1125 261.664 53.3604C262.353 52.326 259.667 55.3425 257.952 57.3188Z" fill="black"/>
<path d="M257.237 58.2297C260.161 54.9806 260.183 49.8556 260.336 45.7366C260.417 43.5353 261.593 35.9613 263.68 34.7683C267.077 32.8274 270.098 35.211 273.837 35.211C278.928 35.211 284.019 35.211 289.109 35.211C300.818 35.211 312.304 34.3256 324.055 34.3256C329.523 34.3256 334.991 34.3256 340.459 34.3256C342.399 34.3256 346.048 35.057 347.763 34.1043C348.416 33.7415 351.699 33.4904 352.312 33.9813C354.197 35.4892 356.581 39.2883 356.837 41.851C357.018 43.6566 358.207 46.3713 358.952 48.0484C359.422 49.1055 360.379 51.0705 360.379 52.2537C360.379 53.6009 362.037 55.131 360.157 55.131C357.791 55.131 355.299 55.5737 352.853 55.5737C348.722 55.5737 344.59 55.5737 340.459 55.5737C336.962 55.5737 332.947 55.0577 329.49 55.6721C320.791 57.2187 312.124 57.7871 303.275 57.7871C293.173 57.7871 283.224 59.1151 273.173 59.1151C268.82 59.1151 264.467 59.1151 260.114 59.1151C255.323 59.1151 260.496 55.1125 261.664 53.3604C262.832 51.6083 254.313 61.4788 257.237 58.2297Z" stroke="black" stroke-width="4" stroke-linecap="round"/>
<path d="M210.325 72.4138C208.016 72.5434 205.304 72.14 206.232 70.1818C207.056 68.4417 207.842 67.534 209.872 67.0831C211.1 66.8101 212.196 66.1495 213.413 65.8535C214.763 65.525 216.067 65.8874 217.397 65.3124C219.783 64.2804 222.484 64.3791 224.922 63.5664C227.161 62.8202 229.658 62.2808 232.005 62.2138C236.01 62.0993 239.964 60.4431 243.957 60.4431C246.068 60.4431 247.985 59.5578 250.154 59.5578C252.599 59.5578 255.227 59.8366 257.655 59.5332C260.605 59.1644 263.513 59.1151 266.533 59.1151H276.813C281.911 59.1151 286.915 58.2297 291.986 58.2297C301.101 58.2297 310.143 57.7871 319.211 57.7871C327.089 57.7871 335.136 56.4591 343.016 56.4591H359.715C362.208 56.4591 365.244 57.7606 367.461 58.8692C370.293 60.285 374.554 61.7711 377.741 61.7711C384.064 61.7711 390.24 62.2138 396.579 62.2138C399.584 62.2138 401.551 62.9331 404.203 64.3287C405.207 64.8573 406.734 65.8432 407.302 66.8372C407.622 67.3979 409.305 68.0088 409.49 68.657C410.065 70.6676 399.507 70.1818 398.251 70.1818C393.483 70.1818 387.991 70.9365 383.299 70.0834C377.765 69.0773 371.662 69.7391 366.035 69.7391C359.915 69.7391 353.875 70.1818 347.738 70.1818C340.623 70.1818 333.452 70.6245 326.293 70.6245C319.417 70.6245 312.547 72.3951 305.709 72.3951C302.446 72.3951 298.972 72.8418 295.749 73.3788C292.337 73.9475 288.826 73.7231 285.371 73.7231C277.178 73.7231 269.057 73.2805 260.877 73.2805C253.118 73.2805 245.371 74.1658 237.661 74.1658C234.075 74.1658 230.472 73.0185 226.89 73.3051C224.507 73.4957 222.239 73.7231 219.832 73.7231C216.942 73.7231 214.648 73.315 211.888 72.8132C211.427 72.7293 210.882 72.5945 210.325 72.4138Z" fill="#E7EDF1"/>
<path d="M194.368 90.622C195.482 88.5184 196.907 86.5951 197.666 84.318C198.275 82.4932 198.486 80.5048 199.441 78.7864C200.709 76.5036 203.618 75.9684 206.204 75.9684C208.881 75.9684 212.24 76.5266 214.846 75.9476C216.335 75.6166 217.267 75.9684 218.791 75.9684C220.186 75.9684 221.413 75.217 222.736 75.217C224.886 75.217 224.692 76.3272 224.239 78.4107C223.692 80.9264 223.018 83.4753 222.924 86.0297C222.875 87.3408 221.889 90.0038 221.233 91.1856C220.178 93.0837 216.049 92.8764 214.198 92.8764H204.513C202.861 92.8764 200.389 93.34 198.877 92.5841C197.633 91.9623 195.849 91.8859 196.435 90.2462C196.629 89.7022 196.702 88.8479 196.869 88.0808C195.6 89.7542 193.666 91.9491 194.368 90.622Z" fill="#2C3D49" stroke="#272F34" stroke-width="4" stroke-linecap="round"/>
<path d="M231.513 87.0081C232.488 84.9378 230.789 80.9335 232.348 79.2012C233.921 77.4541 239.009 78.3663 241.074 78.3663C244.395 78.3663 247.647 77.9905 250.968 77.9905C253.887 77.9905 253.045 78.9797 253.494 81.5809C254.087 85.0217 254.792 87.2884 251.031 88.6989C247.183 90.1417 242 89.2625 237.901 89.2625C236.159 89.2625 234.897 88.8867 233.204 88.8867C232.668 88.8867 232.313 87.798 232.353 86.8495C231.706 87.5543 231.015 88.0668 231.513 87.0081Z" fill="#2C3D49" stroke="#272F34" stroke-width="4" stroke-linecap="round"/>
<path d="M261.587 79.3333C262.235 81.9218 262.151 84.9129 262.151 87.5785C262.151 90.2441 262.094 87.3623 263.278 87.9542C264.462 88.5462 265.731 88.2038 267.036 88.4134C269.339 88.7836 271.335 89.1922 273.715 88.9979C276.891 88.7387 280.746 88.7767 283.359 86.6392C283.978 86.1328 283.568 85.6732 283.568 84.9275C283.568 83.2591 283.848 81.539 284.131 79.8969C284.444 78.0813 284.509 77.1171 282.441 77.058C277.127 76.9062 271.787 77.058 266.472 77.058C264.819 77.058 260.93 76.7036 261.587 79.3333Z" fill="#2C3D49" stroke="#272F34" stroke-width="4" stroke-linecap="round"/>
<path d="M295.989 77.8905C294.52 78.4246 295.484 84.3178 295.029 85.7392C294.574 87.1606 297.659 81.0914 297.659 81.9818C297.659 82.8723 297.433 83.8627 296.886 84.5911C296.549 85.0416 294.314 86.9973 294.528 87.4508C294.925 88.2959 301.845 88.0089 302.606 87.9727C306.106 87.806 309.554 87.6683 313.064 87.6178L313.07 87.6177C314.342 87.5994 318.694 87.5368 319.409 85.927C320.223 84.0956 319.508 80.1977 319.451 78.2245C319.395 76.2586 316.017 77.1789 314.859 77.3896C311.973 77.9143 308.669 77.4731 305.737 77.4731C302.72 77.4731 298.88 76.8391 295.989 77.8905Z" fill="#2C3D49" stroke="#272F34" stroke-width="4" stroke-linecap="round"/>
<path d="M325.763 86.8811C325.751 86.9269 325.74 86.9489 325.73 86.9433C325.721 86.9378 325.734 86.9161 325.763 86.8811C325.904 86.3639 326.207 82.8142 326.08 81.9907C325.852 80.5045 325.73 79.0651 325.73 77.5462C325.73 74.6489 331.401 73.9905 334.99 73.9905C339.009 73.9905 343.101 74.2445 347.027 74.2445C349.138 74.2445 351.514 75.2984 353.508 75.5144C355.552 75.7357 355.73 78.4382 355.73 79.4369C355.73 81.4763 355.36 83.4671 355.36 85.5182C355.36 86.75 355.888 88.5105 354.619 89.483C351.59 91.8047 344.29 90.7529 339.99 90.7529C337.814 90.7529 335.81 90.2449 333.591 90.2449H329.249C327.702 90.2449 326.842 89.4944 326.842 88.4107C326.842 87.8639 326.621 86.8421 326.712 85.9901C326.286 86.3818 325.883 86.7401 325.763 86.8811Z" fill="#2C3D49"/>
<path d="M325.73 86.9433C325.847 87.0129 326.218 82.887 326.08 81.9907C325.852 80.5045 325.73 79.0651 325.73 77.5462C325.73 74.6489 331.401 73.9905 334.99 73.9905C339.009 73.9905 343.101 74.2445 347.027 74.2445C349.138 74.2445 351.514 75.2984 353.508 75.5144C355.552 75.7357 355.73 78.4382 355.73 79.4369C355.73 81.4763 355.36 83.4671 355.36 85.5182C355.36 86.75 355.888 88.5105 354.619 89.483C351.59 91.8047 344.29 90.7529 339.99 90.7529C337.814 90.7529 335.81 90.2449 333.591 90.2449C332.143 90.2449 330.696 90.2449 329.249 90.2449C327.702 90.2449 326.842 89.4944 326.842 88.4107C326.842 87.4722 326.192 85.134 327.582 84.6575C328.972 84.1809 325.614 86.8736 325.73 86.9433Z" stroke="#272F34" stroke-width="4" stroke-linecap="round"/>
<path d="M337.096 267.779C337.938 267.255 338.882 266.939 339.947 266.939C342.824 266.939 347.541 264.773 349.484 268.076C351.728 271.891 355.272 275.128 357.567 279.001C360.035 283.165 360.158 288.199 362.399 292.232C364.516 296.044 362.018 301.361 363.535 305.305C365.167 309.548 364.347 315.244 363.378 319.483C361.041 329.706 361.778 340.66 353.904 348.534C352.012 350.426 348.761 354.946 345.347 353.049C341.823 351.092 339.51 351.183 337.39 347.366C334.671 342.472 332.11 337.501 329.464 332.587C327.437 328.824 329.32 323.738 327.569 319.799C325.843 315.915 325.83 309.468 326.748 305.337C328.025 299.59 327.838 293.44 329.117 287.685C329.935 284 329.297 278.494 331.137 275.181C332.08 273.484 334.043 266.678 337.096 267.779Z" fill="black" stroke="black" stroke-width="4" stroke-linecap="round"/>
<path d="M549.682 262.392C549.682 261.493 550.149 259.917 550.878 258.326C551.111 257.509 551.456 256.773 551.995 256.243C553.004 254.633 554.217 253.362 555.365 253.298C557.143 253.199 558.176 252.161 560.165 252.161C562.109 252.161 563.75 252.524 565.596 252.729C574.288 253.695 574.659 262.876 576.838 269.655C578.727 275.532 578.669 282.261 578.669 288.411V307.863C578.669 311.84 578.812 317.87 577.09 321.504C575.334 325.211 572.706 327.929 570.712 331.419C569.661 333.259 565.283 335.145 563.039 335.145C559.192 335.145 557.076 328.493 555.65 325.798C553.148 321.073 552.504 315.761 549.934 310.989C547.408 306.297 547.408 301.446 547.408 296.233V296.211V282.57C547.408 278.948 548.545 275.303 548.545 271.77C548.545 268.617 549.779 266.038 550.218 262.96C550.24 262.81 550.259 262.652 550.278 262.488C549.918 262.815 549.682 262.842 549.682 262.392Z" fill="black" stroke="black" stroke-width="4" stroke-linecap="round"/>
<path d="M363.549 305.451C363.549 308.4 362.81 311.336 362.81 314.312C362.81 316.829 362.39 319.43 362.318 321.942C362.18 326.761 362.294 331.367 360.896 336.027C360.477 337.423 360.005 338.839 359.364 340.157C358.808 341.302 358.287 342.827 357.587 343.849C356.326 345.687 355.546 347.914 353.949 349.51C353.335 350.125 353.037 350.861 352.226 351.288C351.492 351.674 350.742 351.907 350.011 352.272C349.413 352.572 348.509 352.562 348.042 352.956C347.326 353.559 346.073 353.822 346.073 352.71" stroke="#757E85" stroke-opacity="0.8" stroke-width="4" stroke-linecap="round"/>
<path d="M345.827 313.327C344.108 315.537 341.639 310.054 342.736 308.569C344.15 306.656 346.972 311.15 345.088 311.987C342.787 313.01 342.415 305.97 345.28 307.994C346.723 309.014 346.747 311.464 345.923 312.863C345.334 313.861 344.264 313.584 343.365 313.327" stroke="#757E85" stroke-opacity="0.8" stroke-width="4" stroke-linecap="round"/>
<path d="M579.66 299.051C579.66 304.829 579.695 310.822 578.484 316.473C578.064 318.429 577.917 320.431 577.499 322.38C577.126 324.12 576.331 325.639 575.776 327.303C575.371 328.519 574.397 329.546 573.807 330.667C573.425 331.392 573.022 332.158 572.33 332.663C571.83 333.029 571.541 333.932 571.045 334.195C570.171 334.657 567.396 335.851 566.423 335.425C565.911 335.202 565.045 335.032 564.454 334.988C563.447 334.913 562.866 333.536 562.43 332.773" stroke="#757E85" stroke-opacity="0.8" stroke-width="4" stroke-linecap="round"/>
<path d="M564.399 292.159C564.464 292.446 564.642 294.886 563.825 294.32C563.376 294.009 563.334 292.86 563.578 292.46C564.895 290.306 566.637 299.796 563.907 296.016C563.567 295.545 561.789 292.902 562.977 292.515C564.357 292.065 565.083 295.435 565.083 296.262C565.083 298.319 562.921 295.736 562.621 295.195C562.446 294.878 560.75 290.99 562.485 292.05C564.061 293.014 564.938 295.373 565.438 297.055C565.788 298.23 563.409 295.062 563.223 294.676C560.589 289.191 567.371 294.46 565.958 296.781C565.161 298.091 563.149 296.409 562.731 295.619C562.108 294.444 563.034 292.96 564.399 293.007C566.275 293.073 566.787 296.336 566.423 297.725C566.008 299.307 564.113 298.461 563.168 298.067" stroke="#757E85" stroke-opacity="0.8" stroke-width="4" stroke-linecap="round"/>
<path d="M340.302 244.313C343.962 244.313 346.789 244.64 349.833 246.669C353.341 249.008 356.173 252.071 358.39 255.767C360.995 260.108 364.681 264.453 366.062 269.425C368.251 277.304 371.811 284.971 371.811 293.326" stroke="#757E85" stroke-opacity="0.3" stroke-width="4" stroke-linecap="round"/>
<path d="M365.587 325.613C365.587 328.584 365.224 332.251 364.506 335.121C364.11 336.706 363.421 340.863 362.086 341.864C360.86 342.783 360.782 345.396 359.752 346.618C358.696 347.872 358.291 349.747 357.245 351.092C356.459 352.102 355.798 353.252 354.868 354.182C354.165 354.885 352.293 356.446 351.367 356.711C350.137 357.062 348.563 357.698 347.304 357.878C344.942 358.215 344.184 357.885 343.025 355.954" stroke="#757E85" stroke-opacity="0.3" stroke-width="4" stroke-linecap="round"/>
<path d="M559.694 242.757C561.123 242.122 562.83 242.368 564.362 242.368C566.264 242.368 567.523 243.252 569.225 243.514C570.466 243.705 572.22 244.507 573.093 245.459C574.122 246.581 574.554 247.815 575.47 248.981C577.007 250.937 579.335 253.609 579.533 256.286C579.658 257.976 581.131 259.612 581.78 261.126C583.801 265.84 585.469 270.744 586.146 275.822" stroke="#757E85" stroke-opacity="0.3" stroke-width="4" stroke-linecap="round"/>
<path d="M574.476 335.727C572.962 338.066 568.285 339.196 565.702 339.811C564.262 340.154 562.345 340.196 560.861 339.984C559.367 339.77 558.463 337.823 557.36 336.98C555.732 335.735 555.078 334.176 554.551 332.226C553.683 329.013 552.699 325.858 550.92 323.063C549.655 321.075 549.58 319.339 549.58 317.055" stroke="#757E85" stroke-opacity="0.3" stroke-width="4" stroke-linecap="round"/>
<path d="M7.96886 188.665C9.81057 187.028 14.0414 189.913 15.4161 190.982C18.5119 193.39 19.9748 197.21 20.1553 201.183C20.3599 205.684 21.2471 209.886 20.6819 214.407C20.4749 216.063 19.8119 218.421 18.3951 219.402C16.3929 220.788 13.8204 220.621 11.4894 220.621C8.85196 220.621 4.87117 221.319 3.96688 218.063C2.4873 212.737 2.82346 207.766 2.82346 202.341C2.82346 199.756 3.03628 197.08 3.57571 194.563C3.93236 192.899 4.87467 191.91 6.01301 190.772C6.68672 190.098 7.3531 189.401 8.02904 188.725C8.04665 188.708 8.0643 188.691 8.082 188.675L7.96886 188.665Z" fill="black" stroke="black" stroke-width="4" stroke-linecap="round"/>
<path d="M323.886 179.737C328.021 179.737 331.85 177.443 335.999 178.391C336.954 178.609 338.366 178.265 339.243 178.703C340.122 179.143 341.128 179.304 342.163 179.304C342.894 179.304 343.623 179.737 344.326 179.737C345.072 179.737 345.578 180.219 346.273 180.374C346.921 180.518 347.472 180.609 348.003 181.035C348.275 181.252 348.743 181.17 348.928 181.467C349.058 181.675 349.315 182.142 349.457 182.284C350.025 182.853 350.836 182.768 350.923 183.894C351.053 185.582 351.323 187.334 351.355 189.037C351.49 196.009 350.923 202.937 350.923 209.898C350.923 210.182 351.026 211.593 351.355 211.147C351.814 210.527 352.504 209.819 353.194 209.489C353.868 209.167 354.528 209.103 354.768 208.288C354.996 207.513 355.246 206.965 356.114 206.99C356.48 207 358.171 207.819 357.376 208.167C355.763 208.873 354.382 207.081 354.047 205.74C353.93 205.272 354.056 204.687 354.492 204.418C354.571 204.369 355.281 204.121 355.105 204.298C354.774 204.629 353.004 205.074 353.35 204.827C354.706 203.858 356.27 205.259 357.52 205.259C358.353 205.259 358.277 205.544 358.277 206.425C358.277 206.474 358.277 205.491 358.277 205.956C358.277 206.876 357.81 207.277 357.628 208.095C357.423 209.019 357.149 210.84 356.595 211.58C356.346 211.911 356.388 212.604 355.994 212.83C355.495 213.115 354.685 213.452 354.119 213.479C353.052 213.528 352.011 214.23 351.043 214.656C350.155 215.047 349.193 215.329 348.327 215.738C347.568 216.096 346.786 216.209 345.948 216.302C345.071 216.4 344.256 216.915 343.353 216.939C340.946 217.004 338.622 216.939 336.215 216.939C335.283 216.939 333.923 216.874 333.067 217.264C332.226 217.646 331.012 216.813 330.267 216.399C329.192 215.802 327.469 215.571 326.265 215.437C324.847 215.28 323.409 214.776 321.988 214.776C321.467 214.776 320.946 214.776 320.425 214.776C319.857 214.776 319.438 214.402 318.911 214.344C318.647 214.314 317.749 214.128 318.503 214.128C320.091 214.128 321.656 214.344 323.237 214.344C327.99 214.344 332.66 214.993 337.416 214.993C338.324 214.993 339.11 215.336 340 215.413C340.855 215.488 341.643 215.411 342.487 215.594C343.731 215.862 345.268 215.642 346.549 215.642C347.517 215.642 348.977 215.931 349.841 215.473C350.538 215.104 351.471 213.9 351.896 213.238C352.436 212.398 353.723 211.098 353.939 210.126C354.077 209.507 355.032 208.997 355.032 208.612C355.032 207.827 355.024 207.144 354.275 206.978C353.876 206.889 353.228 205.892 352.918 205.644C352.321 205.166 351.692 205.432 351.307 204.707C350.872 203.884 350.49 203.027 350.49 202.063C350.49 196.767 349.625 191.542 349.625 186.262C349.625 185.223 349.852 183.931 349.577 182.933C349.398 182.284 349.343 182.129 349.95 181.792C351.54 180.908 353.278 181.035 355.032 181.035C356.697 181.035 358.348 181.159 360.007 181.251C360.367 181.271 360.746 181.843 361.293 181.912C361.796 181.975 362.26 182.264 362.819 182.344C362.959 182.364 363.995 182.515 364.069 182.597C364.52 183.098 363.488 185.748 363.36 186.334C362.56 189.979 361.72 193.618 360.969 197.269C360.653 198.801 360.587 200.215 360.392 201.751C360.362 201.988 360.328 203.897 360.091 203.95C359.624 204.053 359.015 203.82 358.565 203.745C357.339 203.543 356.186 203.537 354.96 203.697C354.266 203.788 355.797 202.025 355.898 201.871C356.959 200.241 358.031 198.349 358.397 196.415C358.655 195.055 357.509 196.673 357.304 196.956C356.968 197.419 355.894 199.675 355.141 198.614C354.08 197.122 353.982 194.67 353.735 192.931C353.541 191.57 353.387 190.206 353.326 188.833C353.301 188.253 352.958 186.663 353.35 187.091C353.611 187.376 353.537 187.841 353.615 188.22C353.91 189.675 354.2 191.132 354.456 192.594C354.533 193.034 354.61 193.474 354.672 193.916C354.726 194.305 355.071 194.918 354.72 195.094C354.632 195.138 354.599 194.934 354.564 194.841C354.364 194.317 354.127 193.212 354.023 192.774C353.392 190.12 352.679 187.484 352.269 184.784C351.722 181.184 352.682 185.731 352.918 186.634C353.433 188.611 354.036 190.607 354.348 192.63C354.565 194.041 353.94 189.802 353.867 188.376C353.821 187.476 353.461 184.789 354.311 184.087C355.196 183.356 356.918 188.658 357.099 189.134C357.111 189.166 357.891 191.799 357.832 190.527C357.752 188.792 357.581 187.064 357.64 185.324C357.719 182.985 358.658 185.695 358.902 186.478C359.084 187.064 360.262 190.476 359.094 190.768C357.214 191.238 355.583 185.044 358.157 184.519C360.834 183.973 363.481 190.907 359.875 191.212C357.322 191.429 355.071 187.883 357.82 186.442C358.608 186.029 359.987 185.506 360.824 186.081C362.102 186.96 360.901 188.878 360.175 189.662C359.43 190.467 358.125 191.623 356.907 191.272C355.95 190.997 355.836 189.796 356.21 189.037C356.487 188.476 357.203 187.705 357.604 188.617C358.296 190.193 358.198 192.607 357.808 194.24C357.68 194.779 357.214 196.124 356.426 196.079C355.624 196.033 356.529 193.429 356.643 193.147C356.953 192.375 357.873 190.075 357.7 190.888C357.278 192.87 356.475 194.786 355.777 196.68C355.217 198.202 354.852 199.781 354.311 201.306C354.134 201.807 354.284 200.168 354.396 199.888C354.687 199.16 354.816 199.4 354.816 200.044C354.816 201.179 354.6 202.302 354.6 203.433C354.6 205.453 355.637 199.523 355.982 197.533C356.001 197.422 356.044 195.983 356.234 195.983C356.461 195.983 356.547 196.201 356.547 195.851C356.547 195.449 356.869 195.309 356.715 194.829C356.449 194.003 355.898 193.052 355.898 192.174C355.898 190.744 355.791 192.278 356.114 190.984" stroke="black" stroke-opacity="0.1" stroke-width="4" stroke-linecap="round"/>
<path d="M389.423 189.037C389.216 190.944 387.584 192.218 386.275 193.471C384.633 195.043 382.728 196.324 380.771 197.473C378.256 198.949 375.355 199.906 372.432 200.068C372.165 200.083 371.687 200.637 371.687 200.369C371.687 199.601 372.971 198.887 373.514 198.554C375.34 197.434 377.254 196.502 379.041 195.31C380.787 194.146 382.487 192.548 384.4 191.681C385.21 191.314 385.986 191.25 386.491 190.455C386.691 190.142 385.727 192.348 385.338 192.762C383.243 194.994 380.191 196.476 377.335 197.461C376.49 197.752 375.663 198.042 374.859 198.434C374.001 198.853 373.622 198.859 374.523 198.026C375.353 197.257 384.297 189.964 382.021 188.389C380.974 187.664 379.368 188.921 378.56 189.47C377.757 190.016 378.54 189.379 378.08 190.467C377.519 191.793 376.661 192.981 375.845 194.156C375.468 194.698 374.901 195.996 374.283 196.343C372.475 197.36 377.118 193.316 378.584 191.849C379.15 191.284 382.766 187.057 381.276 190.263C380.778 191.336 380.199 192.415 379.522 193.387C379.394 193.571 378.34 194.634 378.909 193.724C380.244 191.587 383.39 189.821 385.818 189.35C387.788 188.968 386.058 190.964 385.338 191.369C385.196 191.448 384.32 191.774 384.869 191.272C385.725 190.491 386.935 189.97 387.933 189.398C390.471 187.944 386.979 190.505 386.191 190.828C384.754 191.416 382.24 191.6 382.862 189.326C383.07 188.565 383.463 187.871 383.92 187.235C383.981 187.15 384.191 186.955 384.088 186.971C383.752 187.022 383.037 187.669 382.838 187.812C380.54 189.464 378.238 190.656 375.388 190.936C374.86 190.988 375.046 190.613 375.292 190.335C376.026 189.503 377.26 189.063 378.224 188.581C380.455 187.465 382.764 186.57 385.049 185.577C386.068 185.134 384.832 185.251 384.581 184.916C384.523 184.839 384.465 184.487 384.436 184.675C384.316 185.457 383.948 185.981 383.583 186.658" stroke="black" stroke-opacity="0.1" stroke-width="4" stroke-linecap="round"/>
<path d="M388.203 178.776C388.739 178.347 389.747 178.737 390.31 178.878C390.868 179.018 391.575 178.907 392.153 178.907C393.599 178.907 395.045 178.907 396.492 178.907C398.878 178.907 401.279 178.117 403.683 178.117C406.446 178.117 409.162 178.512 411.906 178.512C414.494 178.512 417.042 178.998 419.631 179.039C420.83 179.058 421.962 179.303 423.165 179.303C424.331 179.303 425.632 179.366 426.786 179.537C428.343 179.767 430.025 179.252 431.292 178.454C431.996 178.011 432.668 177.415 433.37 177.064" stroke="black" stroke-width="4" stroke-linecap="round"/>
<path d="M433.633 173.904C432.203 174.768 430.862 176.135 429.215 176.596C428.596 176.769 427.966 177.046 427.313 177.064C426.791 177.078 426.252 177.014 425.732 177.071C424.656 177.191 423.6 177.327 422.506 177.327C421.355 177.327 420.081 176.863 418.958 176.683C416.185 176.24 413.233 176.581 410.428 176.537C409.469 176.522 408.584 176.142 407.619 176.142C406.746 176.142 405.894 176.028 405.029 176.01C403.619 175.981 402.108 176.184 400.713 175.981C399.448 175.797 398.019 175.764 396.769 176.076C395.967 176.277 394.898 176.537 394.07 176.537C393.85 176.537 392.753 176.627 392.819 176.859C392.869 177.036 394.004 176.932 394.194 176.932C396.621 176.932 399.047 176.932 401.473 176.932C402.761 176.932 404.193 176.762 405.453 177.035C406.035 177.161 407.458 177.264 407.955 176.932" stroke="black" stroke-opacity="0.2" stroke-width="4" stroke-linecap="round"/>
<path d="M194.784 266.117C195.588 265.413 193.909 271.881 192.659 273.2C190.789 275.174 188.446 276.454 186.442 278.315C183.136 281.385 177.145 283.546 172.828 284.689C161.538 287.678 148.425 288.781 136.708 288.781C113.024 288.781 89.1278 288.073 65.8828 288.073" stroke="#757E85" stroke-opacity="0.5" stroke-width="4" stroke-linecap="round"/>
</svg>
