<svg width="688" height="654" viewBox="0 0 688 654" fill="none" xmlns="http://www.w3.org/2000/svg">
<path d="M554.205 57.8946C554.256 57.9971 554.308 58.0996 554.308 58.0755C554.309 58.0514 554.258 57.8977 554.205 57.7394" stroke="#787878" stroke-width="4" stroke-linecap="round"/>
<path d="M571.626 61.8348C571.626 62.03 571.626 62.2253 571.577 62.1794C571.528 62.1336 571.43 61.8407 571.33 61.5389" stroke="#737475" stroke-width="4" stroke-linecap="round"/>
<path d="M544.704 51.6221C545.39 51.3292 550.869 50.1488 555.885 50.1414C554.26 49.9447 555.236 50.0423 555.885 50.1414C556.535 50.2405 556.828 50.3381 557.425 50.4387" stroke="#737475" stroke-width="4" stroke-linecap="round" stroke-linejoin="round"/>
<path d="M570.442 53.1013C571.421 53.2966 573.395 54.0835 574.529 55.363C573.892 54.5776 574.087 54.8704 574.529 55.363C574.971 55.8556 575.655 56.539 576.359 57.2431" stroke="#737475" stroke-width="4" stroke-linecap="round" stroke-linejoin="round"/>
</svg>
