<svg width="2503" height="1582" viewBox="0 0 2503 1582" fill="none" xmlns="http://www.w3.org/2000/svg">
<g filter="url(#filter0_dd_288_2142)">
<path d="M1727.22 134.507C1729.61 133.312 1732 132.116 1733.83 133.891C1761.02 160.279 1712.76 227.457 1704.94 230.482C1700.94 232.027 1695.92 229.92 1691.66 231.098C1682.82 233.544 1678.93 243.142 1674.13 248.576C1667.67 255.889 1656 246.837 1650.59 243.794C1633.43 234.155 1630.64 275.707 1623.4 308.218C1617.39 335.204 1623.36 355.436 1623.98 362.662C1624.29 366.335 1621.01 369.889 1617.98 371.139C1611.87 373.663 1602.9 369.961 1595.05 368.168C1588.37 366.639 1588.37 355.508 1584.17 352.465C1576.53 346.932 1569.06 366.303 1565.44 376.518C1555.54 404.445 1565.44 427.775 1556.4 443.586C1553.12 449.326 1542.51 437.627 1536.48 432.176C1526.91 423.521 1520.81 458.058 1512.92 471.334C1510.84 474.828 1508.72 478.56 1505.69 478.017C1502.67 477.474 1499.08 472.692 1496.63 472.022C1484.56 468.713 1480.93 491.891 1473.7 494.318C1459.53 499.078 1444.74 490.732 1430.24 482.291C1422.73 477.924 1413.34 475.01 1402.49 476.206C1383.73 478.273 1378.31 507.539 1368.64 522.047C1359.32 536.027 1355.34 551.008 1342.7 561.314C1326.58 574.452 1304.7 582.45 1287.17 595.708C1267.97 610.23 1249.14 603.025 1234.63 609.6C1215.38 618.324 1198.42 631.932 1182.7 659.625C1168.34 684.929 1179.08 703.148 1172.41 717.655C1163.6 736.832 1144.05 747.884 1138.02 747.902C1140.46 749.079 1144.05 747.884 1138.02 747.902C1135.57 746.725 1134.38 743.139 1136.77 739.444" stroke="#F6FFBC" stroke-width="19" stroke-linecap="round"/>
<path d="M1578.7 348.227C1581.13 355.435 1576.31 372.279 1572.67 388.616C1567.79 410.522 1582.25 435.091 1592.55 452.605C1594.9 456.598 1595.58 460.448 1597.99 462.893C1600.4 465.338 1603.98 466.533 1609.42 465.356C1636.34 459.522 1653.47 446.031 1669.2 443.622C1672.8 443.071 1676.43 444.799 1678.88 447.806C1691.06 462.792 1681.36 488.195 1679.53 516.558C1678.24 536.596 1681.32 547.421 1684.93 552.257C1692.29 562.134 1711.42 564.338 1739.19 557.147C1745.22 555.585 1748.88 557.093 1751.32 559.502C1762.5 570.514 1762.21 590.853 1761.63 608.368C1761.49 612.661 1764.6 616.21 1770.61 618.057C1785.61 622.664 1799.63 622.296 1806.26 627.711C1820.4 639.264 1823.79 659.679 1830.42 674.186C1839.49 694.034 1856.39 703.147 1862.42 722.473C1867.91 740.057 1895.01 743.029 1902.85 746.67C1895.01 743.029 1899.79 746.616 1902.85 746.67C1905.91 746.724 1907.1 743.138 1908.34 739.443" stroke="#F6FFBC" stroke-width="19" stroke-linecap="round"/>
<path d="M434.028 167.108C436.419 164.717 434.064 167.072 428.631 176.092C416.459 196.297 434.028 216.517 427.417 242.472C420.917 267.994 420.77 297.369 421.332 344.442C421.436 353.229 426.711 354.24 430.351 353.661C438.067 352.432 446.054 345.836 455.092 343.409C463 341.286 473.802 348.227 485.267 350.02C509.338 353.785 489.595 409.735 481.753 433.262C476.042 450.395 479.887 470.084 488.907 487.037C491.694 492.274 503.868 489.5 509.392 491.293C517.579 493.95 517.343 509.93 522.74 525.072C529.007 542.653 557.08 536.591 572.186 539.579C590.615 543.225 565.665 572.742 553.621 589.043C538.359 609.697 524.66 624.615 514.952 646.367C499.178 681.712 514.952 701.916 503.505 717.655C492.623 732.619 492.022 732.163 485.991 739.39C488.436 735.749 492.022 732.163 485.991 739.39C483.546 743.03 482.351 746.616 481.119 750.311" stroke="#F6FFBC" stroke-width="19" stroke-linecap="round"/>
<path d="M1756.2 580.06C1775.39 576.437 1806.84 583.609 1821.94 589.116C1840.47 595.868 1858.71 563.252 1881.08 554.123C1908.38 542.983 1940.72 543.836 1969.23 540.232C1974.79 539.529 1979.48 537.823 1983.14 540.195C2003.98 553.709 1984.41 593.245 1978.99 608.984C1976.63 615.838 1983.17 623.492 1989.19 629.523C2004.07 644.447 2031.42 641.568 2045.93 655.477C2063.64 672.456 2094.24 676.632 2101.48 677.864C2094.24 676.632 2099.02 679.023 2101.48 677.864C2103.94 676.705 2103.94 671.923 2103.94 666.997" stroke="#F6FFBC" stroke-width="19" stroke-linecap="round"/>
<path d="M1643.9 293.892C1642.71 301.1 1637.89 317.944 1637.85 336.69C1637.82 353.406 1660.78 361.413 1671.63 371.139C1676.85 375.821 1677.7 384.415 1681.9 389.251C1692.71 401.685 1698.2 386.878 1703.04 386.86C1698.2 386.878 1701.79 385.683 1703.04 386.86C1704.29 388.037 1703.09 391.623 1712.73 395.318" stroke="#F6FFBC" stroke-width="5" stroke-linecap="round"/>
<path d="M1680.13 500.367C1682.52 500.367 1687.33 496.781 1693.96 493.141C1699.64 490.021 1704.25 503.953 1710.26 508.192C1717.28 513.136 1727.18 502.794 1735 501.581C1752.97 498.795 1766.99 513.625 1782.69 511.85C1803.34 509.517 1814.12 501.599 1821.34 498.574C1824.98 497.94 1828.57 499.136 1831.02 501.544C1833.46 503.953 1834.66 507.539 1839.51 514.857" stroke="#F6FFBC" stroke-width="5" stroke-linecap="round"/>
<path d="M1701.86 569.192C1707.87 572.779 1710.34 589.623 1712.11 606.557C1714.26 627.081 1713.92 627.114 1717.53 633.743C1713.92 627.114 1715.12 630.7 1717.53 633.743C1719.94 636.786 1723.52 639.177 1727.22 641.64" stroke="#F6FFBC" stroke-width="5" stroke-linecap="round"/>
<path d="M1861.24 583.681C1862.44 582.486 1863.64 581.291 1865.45 582.468C1870.77 585.93 1872.11 598.098 1873.91 610.161C1876.37 626.711 1903.41 621.137 1919.15 626.516C1923 627.834 1926.38 629.541 1928.82 631.95C1933.82 636.872 1931.3 648.812 1928.86 663.319C1930.03 666.96 1933.62 670.546 1937.26 673.589C1940.9 676.632 1944.49 679.022 1955.43 685.108" stroke="#F6FFBC" stroke-width="5" stroke-linecap="round"/>
<path d="M1538.85 446.031C1541.24 446.031 1538.89 449.617 1532.86 458.039C1520.8 474.874 1532.84 495.44 1527.41 512.973C1523.47 525.665 1518.35 536.554 1512.94 542.586C1498.51 558.655 1494.26 553.435 1480.39 560.698C1485.89 559.412 1494.26 553.435 1480.39 560.698C1474.88 561.984 1472.49 558.397 1470.03 554.703" stroke="#F6FFBC" stroke-width="5" stroke-linecap="round"/>
<path d="M1364.98 536.59C1366.17 538.981 1367.37 541.372 1368.58 540.81C1369.8 540.249 1370.99 536.663 1371.01 533.022C1371.03 529.382 1369.83 525.796 1367.42 523.35C1365.02 520.905 1361.43 519.71 1357.79 519.692C1342.84 519.618 1326.44 528.114 1310.1 536.554C1292.8 545.492 1278.11 554.63 1270.22 569.137C1268.27 572.709 1266.02 576.364 1262.39 575.821C1252.55 574.345 1237.11 565.569 1217.2 566.167C1193.86 566.868 1194.8 572.778 1182.14 579.407C1187.63 576.364 1194.8 572.778 1182.14 579.407C1176.65 582.45 1173.07 584.84 1165.75 587.304" stroke="#F6FFBC" stroke-width="5" stroke-linecap="round"/>
<path d="M1274.42 609.038C1274.42 606.648 1274.42 604.257 1276.21 602.427C1278.01 600.598 1281.59 599.403 1283.44 604.166C1289.09 618.74 1286.48 634.359 1290.09 638.597C1292.5 639.249 1296.08 636.858 1298.53 637.42C1300.97 637.981 1302.17 641.567 1303.4 645.262" stroke="#F6FFBC" stroke-width="5" stroke-linecap="round"/>
<path d="M1578.7 362.717C1576.31 365.108 1571.49 365.144 1564.86 365.126C1548.22 365.08 1536.53 389.233 1520.2 389.885C1501.24 390.641 1501.47 392.927 1492.43 389.903C1496.69 390.537 1501.47 392.927 1492.43 389.903C1488.18 389.269 1484.59 390.464 1480.9 391.696" stroke="#F6FFBC" stroke-width="5" stroke-linecap="round"/>
<path d="M484.741 380.828C481.155 394.05 466.702 415.748 452.194 428.481C439.319 439.781 437.687 437.591 431.058 437.573C434.101 436.395 437.687 437.591 431.058 437.573C428.015 438.75 425.624 442.336 412.294 446.031" stroke="#F6FFBC" stroke-width="5" stroke-linecap="round"/>
<path d="M502.853 424.297C513.684 423.065 530.528 432.701 549.872 443.568C570.752 455.298 576.46 474.938 590.931 488.25C582.509 482.219 586.096 485.805 590.931 488.25C595.767 490.695 601.744 491.891 615.147 485.877" stroke="#F6FFBC" stroke-width="5" stroke-linecap="round"/>
<path d="M434.028 304.759C446.018 299.905 470.179 307.15 484.687 305.972C503.49 304.447 520.893 324.102 538.407 325.262C549.011 325.963 559.507 334.969 575.844 336.744C580.082 337.36 584.864 337.36 589.12 337.958C593.376 338.556 596.963 339.751 604.28 348.227" stroke="#F6FFBC" stroke-width="5" stroke-linecap="round"/>
<path d="M557.189 576.437C547.59 574.01 529.478 577.632 519.824 581.237C503.632 587.282 505.317 616.211 492.638 630.718C489.595 634.359 487.205 637.945 484.18 640.39C481.155 642.835 477.569 644.031 473.874 645.262" stroke="#F6FFBC" stroke-width="5" stroke-linecap="round"/>
<path d="M568.056 580.059C570.447 580.059 575.265 578.863 582.491 578.248C597.542 576.965 594.608 587.267 597.615 595.092C594.608 587.267 595.804 590.854 597.615 595.092C599.426 599.33 601.817 604.111 607.902 609.038" stroke="#F6FFBC" stroke-width="5" stroke-linecap="round"/>
<path d="M1437.43 485.877C1441.05 494.245 1431.49 530.36 1415.75 557.02C1399.59 584.381 1408.45 604.111 1403.03 631.877C1401.86 637.9 1403.59 641.567 1407.2 643.414C1424.41 652.234 1440.98 639.248 1457.28 641.023C1480.79 643.583 1491.73 633.199 1497.76 633.181C1511.86 633.139 1501.43 660.91 1502.01 668.155C1502.26 671.181 1508.57 670.618 1511.63 674.802C1527.99 697.157 1517.12 701.952 1517.72 713.398C1517.12 701.952 1517.12 707.929 1517.72 713.398C1518.31 718.868 1519.51 723.65 1524.36 724.954" stroke="#F6FFBC" stroke-width="5" stroke-linecap="round"/>
<path d="M1654.77 518.479C1657.16 513.697 1659.59 506.452 1660.2 501.001C1662.52 480.491 1636.73 546.226 1622.82 564.284C1611.51 578.964 1611.34 578.828 1604.11 584.841C1607.75 581.218 1611.34 578.828 1604.11 584.841C1600.47 588.463 1596.88 593.245 1582.32 598.171" stroke="#F6FFBC" stroke-width="5" stroke-linecap="round"/>
<path d="M1368.6 485.877C1365.02 485.913 1350.56 469.069 1334.26 458.13C1315.25 445.369 1303.43 444.836 1296.21 447.208C1282.95 451.561 1282.9 471.351 1277.48 477.383C1267.11 488.937 1235.95 478.632 1216.52 476.224C1212.9 475.776 1209.29 477.401 1205.65 476.821C1197.93 475.593 1191.14 467.802 1183.91 461.77C1170.64 450.689 1147.71 465.302 1130.81 470.772C1104.06 479.429 1083.74 452.117 1073.4 438.841C1064.12 426.929 1084.82 413.466 1087.85 405.642C1091.11 397.212 1083.67 388.109 1078.25 380.883C1067.2 366.131 1053.49 365.143 1048.65 360.941C1046.2 358.806 1048.6 353.153 1048.62 348.897C1048.64 344.641 1047.44 341.055 1040.25 339.207C1033.06 337.36 1019.91 337.36 1002.74 333.737" stroke="#F6FFBC" stroke-width="5" stroke-linecap="round"/>
<path d="M1672.88 225.066C1675.27 232.275 1680.13 258.682 1688.53 282.354C1696.12 303.738 1719.9 311.931 1728.99 325.243C1739.68 340.886 1746.49 332.506 1754.93 337.922C1746.49 332.506 1751.27 334.897 1754.93 337.922C1758.59 340.946 1760.98 344.532 1770.69 351.85" stroke="#F6FFBC" stroke-width="5" stroke-linecap="round"/>
</g>
<defs>
<filter id="filter0_dd_288_2142" x="324.793" y="42.4961" width="1873.65" height="806.317" filterUnits="userSpaceOnUse" color-interpolation-filters="sRGB">
<feFlood flood-opacity="0" result="BackgroundImageFix"/>
<feColorMatrix in="SourceAlpha" type="matrix" values="0 0 0 0 0 0 0 0 0 0 0 0 0 0 0 0 0 0 127 0" result="hardAlpha"/>
<feOffset dy="4"/>
<feGaussianBlur stdDeviation="42.5"/>
<feComposite in2="hardAlpha" operator="out"/>
<feColorMatrix type="matrix" values="0 0 0 0 0.960355 0 0 0 0 0.937097 0 0 0 0 0.785916 0 0 0 1 0"/>
<feBlend mode="normal" in2="BackgroundImageFix" result="effect1_dropShadow_288_2142"/>
<feColorMatrix in="SourceAlpha" type="matrix" values="0 0 0 0 0 0 0 0 0 0 0 0 0 0 0 0 0 0 127 0" result="hardAlpha"/>
<feOffset/>
<feGaussianBlur stdDeviation="19.5"/>
<feComposite in2="hardAlpha" operator="out"/>
<feColorMatrix type="matrix" values="0 0 0 0 0.960784 0 0 0 0 0.937255 0 0 0 0 0.784314 0 0 0 1 0"/>
<feBlend mode="normal" in2="effect1_dropShadow_288_2142" result="effect2_dropShadow_288_2142"/>
<feBlend mode="normal" in="SourceGraphic" in2="effect2_dropShadow_288_2142" result="shape"/>
</filter>
</defs>
</svg>
