<svg width="2503" height="1582" viewBox="0 0 2503 1582" fill="none" xmlns="http://www.w3.org/2000/svg">
<g filter="url(#filter0_dd_288_2016)">
<path d="M651.371 141.751C651.371 139.361 651.371 136.97 651.968 138.727C659.967 162.238 657.384 192.392 663.415 209.309C670.315 228.662 693.608 244.265 699.041 261.235C704.457 278.151 703.279 293.855 708.079 299.886C714.461 307.906 727.404 305.954 732.838 314.34C753.218 345.793 731.063 375.829 730.447 394.666C729.818 413.9 758.81 413.393 764.226 417.632C769.609 421.845 779.313 409.844 788.949 405.605C807.331 397.52 821.586 414.625 827.02 423.609C849.838 461.334 825.245 494.209 834.862 514.186C841.931 528.868 857.774 542.531 875.886 559.484C883.147 566.28 895.229 559.556 903.669 557.727C919.106 554.381 924.208 583.609 930.276 598.714C937.186 615.919 943.552 630.7 952.59 645.207C955.092 649.225 959.2 652.434 961.048 656.672C968.057 672.752 956.846 686.267 960.45 694.707C962.859 698.366 966.445 700.757 970.683 702.586C974.922 704.415 979.703 705.611 991.874 706.842" stroke="#F6FFBC" stroke-width="19" stroke-linecap="round"/>
<path d="M2161.9 181.598C2163.1 180.402 2164.29 179.207 2164.31 180.982C2164.5 199.089 2153.46 216.554 2153.44 226.805C2153.41 246.238 2160.71 264.876 2160.69 269.712C2160.67 274.476 2172.73 269.73 2178.76 273.334C2181.71 275.095 2182.4 279.329 2186.01 281.177C2194.69 285.628 2205.33 280.634 2211.96 278.804C2218.55 276.986 2221.06 292.624 2222.27 303.473C2224.56 323.965 2198.2 351.705 2184.29 367.498C2171.2 382.356 2166.76 398.868 2160.71 413.973C2153.18 432.772 2164.29 453.204 2170.94 472.511C2175.25 485.024 2167.95 496.708 2168.53 502.74C2169.25 510.205 2183.6 510.002 2189.63 515.418C2204.85 529.085 2196.89 561.875 2202.33 576.383C2199.32 569.156 2200.52 572.742 2202.33 576.383C2204.14 580.023 2206.53 583.609 2208.99 587.304" stroke="#F6FFBC" stroke-width="19" stroke-linecap="round"/>
<path d="M2176.39 279.402C2170.38 292.624 2158.35 311.931 2145.66 325.244C2129.94 341.718 2107.64 345.764 2087.12 359.04C2066.31 372.502 2058.08 398.868 2046.64 413.376C2043.7 417.101 2041.2 420.603 2040.57 424.841C2039.23 433.779 2043.56 442.373 2047.76 448.404C2052.68 455.458 2064.06 452.081 2070.09 452.063C2084.2 452.021 2073.77 479.792 2071.96 490.623C2072.57 484.574 2073.77 479.792 2071.96 490.623C2071.34 496.673 2071.34 503.845 2074.97 514.857" stroke="#F6FFBC" stroke-width="5" stroke-linecap="round"/>
<path d="M2216.24 304.759C2219.82 311.967 2229.5 326.421 2235.53 342.739C2240.44 356.032 2251.23 362.681 2257.24 368.114C2251.23 362.681 2253.62 366.267 2257.24 368.114C2260.87 369.962 2265.65 369.962 2274.2 373.584" stroke="#F6FFBC" stroke-width="5" stroke-linecap="round"/>
<path d="M2154.66 250.423C2147.52 254.009 2120.9 268.462 2107.02 280.561C2088.96 296.316 2068.99 293.891 2058.74 296.282C2039.78 300.702 2041.17 322.834 2038.76 325.877C2035.13 330.459 2030.34 313.235 2019.51 309.613C2006.91 305.401 1995.31 309.576 1988.08 314.974C1967.71 330.187 1966.37 346.995 1950.05 374.67C1939.04 393.335 1938.55 412.126 1936.72 451.918C1936.15 464.189 1931.3 471.352 1928.28 478.578C1926.85 481.987 1928.84 485.805 1933.04 487.652C1954.6 497.132 1969.88 487.073 1975.91 490.677C1989.38 498.727 1981.98 505.148 1984.99 514.186C1981.98 505.148 1983.17 509.93 1984.99 514.186C1986.8 518.443 1989.19 522.029 1991.65 525.724" stroke="#F6FFBC" stroke-width="5" stroke-linecap="round"/>
<path d="M785.399 391.695C796.23 392.891 813.074 407.272 830.008 421.236C848.579 436.549 868.641 436.323 886.753 449.001C903.382 460.642 919.354 465.302 940.473 477.383C949.915 482.784 960.432 484.646 969.47 487.073C977.378 489.196 984.593 477.473 993.015 470.826C1011.75 456.043 1037.66 491.89 1058.82 503.935C1063.69 506.713 1065.48 511.161 1067.31 514.802C1069.14 518.442 1070.33 522.028 1068.56 526.267C1066.78 530.505 1062 535.286 1060.14 540.14C1058.27 544.994 1059.47 549.776 1061.88 554.032C1064.29 558.288 1067.87 561.875 1075.1 567.308C1082.32 572.742 1093.08 579.914 1111.41 590.926" stroke="#F6FFBC" stroke-width="5" stroke-linecap="round"/>
<path d="M702.084 272.157C700.889 286.611 696.071 301.064 702.048 324.591C706.583 342.445 712.951 362.572 718.367 380.774C720.434 387.722 714.183 395.282 708.767 401.911C703.353 408.538 693.68 411.003 685.24 414.607C669.214 421.451 670.714 448.35 662.872 467.095C659.628 474.85 656.225 482.219 652.602 484.066C650.704 485.034 651.371 475.155 648.98 473.254C646.589 471.352 641.808 474.938 638.747 478.578C625.099 494.81 638.04 525.651 644.108 543.165C649.244 557.992 665.788 564.338 678.502 578.176C680.35 583.609 680.35 590.782 679.752 596.269C679.154 601.757 677.959 605.344 676.727 601.794" stroke="#F6FFBC" stroke-width="5" stroke-linecap="round"/>
<path d="M673.105 482.255C674.3 481.06 675.496 479.864 674.916 481.042C674.337 482.219 671.946 485.805 669.519 485.859C667.092 485.914 664.701 482.328 664.665 482.273C657.802 471.979 677.887 509.93 683.954 525.669C689.455 539.938 688.79 540.177 692.394 546.806C688.79 540.177 689.985 543.763 692.394 546.806C694.803 549.849 698.389 552.239 709.329 561.947" stroke="#F6FFBC" stroke-width="5" stroke-linecap="round"/>
<path d="M836.112 482.255C837.344 485.841 827.708 500.294 824.049 518.406C822.014 528.484 806.046 532.968 787.264 546.788C773.529 556.894 774.532 578.755 771.525 601.703C768.514 624.686 763.664 646.349 761.256 659.733C761.274 659.679 762.469 656.093 761.256 659.733C761.237 659.788 762.433 656.201 763.664 652.507" stroke="#F6FFBC" stroke-width="5" stroke-linecap="round"/>
<path d="M723.818 254.045C723.818 258.826 723.818 266.071 726.807 276.304C728.55 282.272 735.772 287.733 740.046 289.019C746.798 291.05 753.956 283.024 763.592 285.415C768.844 286.718 773.227 292.587 778.081 294.453C782.935 296.318 787.717 295.123 790.778 292.714C796.556 288.167 799.852 280.633 807.676 277.608C824.265 271.196 839.662 278.242 853.572 274.566C876.902 268.399 863.859 333.665 868.695 351.179C872.871 366.304 887.984 374.743 897.022 381.39C910.176 391.064 926.635 384.414 937.448 386.859C944.584 388.473 955.433 379.741 962.768 378.455C983.145 374.883 982.166 385.646 992.997 387.457C982.166 385.646 986.948 386.841 992.997 387.457C999.047 388.073 1006.22 388.073 1013.61 388.073" stroke="#F6FFBC" stroke-width="5" stroke-linecap="round"/>
<path d="M904.937 558.325C909.719 555.934 916.963 552.312 926.599 549.885C944.947 545.264 953.187 572.742 970.067 583.646C987.342 594.803 988.216 593.317 997.833 596.94C988.216 593.317 991.802 595.708 997.833 596.94C1003.86 598.171 1012.23 598.171 1020.85 598.171" stroke="#F6FFBC" stroke-width="5" stroke-linecap="round"/>
</g>
<defs>
<filter id="filter0_dd_288_2016" x="545.217" y="47.6162" width="1816.48" height="757.727" filterUnits="userSpaceOnUse" color-interpolation-filters="sRGB">
<feFlood flood-opacity="0" result="BackgroundImageFix"/>
<feColorMatrix in="SourceAlpha" type="matrix" values="0 0 0 0 0 0 0 0 0 0 0 0 0 0 0 0 0 0 127 0" result="hardAlpha"/>
<feOffset dy="4"/>
<feGaussianBlur stdDeviation="42.5"/>
<feComposite in2="hardAlpha" operator="out"/>
<feColorMatrix type="matrix" values="0 0 0 0 0.960355 0 0 0 0 0.937097 0 0 0 0 0.785916 0 0 0 1 0"/>
<feBlend mode="normal" in2="BackgroundImageFix" result="effect1_dropShadow_288_2016"/>
<feColorMatrix in="SourceAlpha" type="matrix" values="0 0 0 0 0 0 0 0 0 0 0 0 0 0 0 0 0 0 127 0" result="hardAlpha"/>
<feOffset/>
<feGaussianBlur stdDeviation="19.5"/>
<feComposite in2="hardAlpha" operator="out"/>
<feColorMatrix type="matrix" values="0 0 0 0 0.960784 0 0 0 0 0.937255 0 0 0 0 0.784314 0 0 0 1 0"/>
<feBlend mode="normal" in2="effect1_dropShadow_288_2016" result="effect2_dropShadow_288_2016"/>
<feBlend mode="normal" in="SourceGraphic" in2="effect2_dropShadow_288_2016" result="shape"/>
</filter>
</defs>
</svg>
