<svg width="2503" height="1582" viewBox="0 0 2503 1582" fill="none" xmlns="http://www.w3.org/2000/svg">
<g filter="url(#filter0_d_288_1512)">
<path d="M1100.82 1032.01C1101.16 1032.35 1101.5 1032.7 1102.2 1032.53C1102.89 1032.36 1103.93 1031.67 1104.63 1030.63C1105.34 1029.58 1105.68 1028.21 1106.55 1018.02C1107.42 1007.83 1108.8 988.868 1109.85 977.896C1111.56 960.161 1113.35 951.976 1114.22 944.993C1115.59 933.917 1113.35 927.597 1112.48 922.176C1112.29 920.956 1112.3 919.575 1115.58 918.865C1133.15 915.053 1138.4 916.421 1153.5 915.893C1169.34 915.34 1188.18 915.71 1201.56 916.238C1205.96 916.411 1209.08 917.455 1218.76 917.977C1240.81 919.167 1256.44 917.81 1260.07 917.288C1271.99 915.575 1281.79 916.065 1300.02 915.199C1312.26 914.616 1335.71 915.021 1348.47 914.849C1362.62 914.658 1368.86 913.976 1376.69 914.149C1380.76 914.238 1399.71 915.021 1427.04 915.538C1436.4 915.715 1436.79 917.072 1437.14 918.288L1437.15 918.311C1439.32 925.89 1438.88 936.58 1439.41 954.64C1439.71 964.825 1441.66 975.185 1442.55 984.972C1443.33 993.692 1444.11 1001.34 1444.63 1019.4C1444.97 1030.96 1446.2 1039.99 1446.03 1048.17C1445.95 1052.51 1436.13 1046.63 1430.04 1045.42C1423.76 1044.17 1416.3 1042.12 1410.01 1041.24C1397.29 1039.45 1376.25 1041.05 1367.89 1041.58C1362.59 1041.91 1357.79 1043.14 1343.38 1043.84C1332.25 1044.38 1325.41 1046.28 1301.98 1046.8C1295.45 1046.95 1283.71 1047.67 1267.18 1047.5C1254.36 1047.37 1243.27 1045.94 1236.28 1045.41C1228.24 1044.81 1219.93 1043.85 1209.32 1043.15C1193.39 1042.1 1183.04 1040.72 1165.82 1040.02C1153.31 1039.51 1141.61 1037.58 1122.3 1037.4C1113.34 1037.32 1105.01 1036.9 1101 1033.93C1100.01 1033.2 1099.44 1032.03 1099.43 1030.98C1099.38 1026.45 1102.55 1023.66 1103.94 1021.41C1104.38 1020.63 1104.83 1019.78 1105.27 1018.63L1106.04 1016.34C1105.78 1017.23 1105.53 1017.98 1105.27 1018.63L1100.82 1032.01Z" fill="white"/>
<path d="M1100.82 1032.01C1101.16 1032.35 1101.5 1032.7 1102.2 1032.53C1102.89 1032.36 1103.93 1031.67 1104.63 1030.63C1105.34 1029.58 1105.68 1028.21 1106.55 1018.02C1107.42 1007.83 1108.8 988.868 1109.85 977.896C1111.56 960.161 1113.35 951.976 1114.22 944.993C1115.59 933.917 1113.35 927.597 1112.48 922.176C1112.29 920.956 1112.3 919.575 1115.58 918.865C1133.15 915.053 1138.4 916.421 1153.5 915.893C1169.34 915.34 1188.18 915.71 1201.56 916.238C1205.96 916.411 1209.08 917.455 1218.76 917.977C1240.81 919.167 1256.44 917.81 1260.07 917.288C1271.99 915.575 1281.79 916.065 1300.02 915.199C1312.26 914.616 1335.71 915.021 1348.47 914.849C1362.62 914.658 1368.86 913.976 1376.69 914.149C1380.76 914.238 1399.71 915.021 1427.04 915.538C1436.46 915.716 1436.8 917.089 1437.15 918.311C1439.32 925.89 1438.88 936.58 1439.41 954.64C1439.71 964.825 1441.66 975.185 1442.55 984.972C1443.33 993.692 1444.11 1001.34 1444.63 1019.4C1444.97 1030.96 1446.2 1039.99 1446.03 1048.17C1445.95 1052.51 1436.13 1046.63 1430.04 1045.42C1423.76 1044.17 1416.3 1042.12 1410.01 1041.24C1397.29 1039.45 1376.25 1041.05 1367.89 1041.58C1362.59 1041.91 1357.79 1043.14 1343.38 1043.84C1332.25 1044.38 1325.41 1046.28 1301.98 1046.8C1295.45 1046.95 1283.71 1047.67 1267.18 1047.5C1254.36 1047.37 1243.27 1045.94 1236.28 1045.41C1228.24 1044.81 1219.93 1043.85 1209.32 1043.15C1193.39 1042.1 1183.04 1040.72 1165.82 1040.02C1153.31 1039.51 1141.61 1037.58 1122.3 1037.4C1113.34 1037.32 1105.01 1036.9 1101 1033.93C1100.01 1033.2 1099.44 1032.03 1099.43 1030.98C1099.38 1026.45 1102.55 1023.66 1103.94 1021.41C1102.55 1023.66 1103.24 1022.63 1103.94 1021.41C1104.64 1020.18 1105.33 1018.8 1106.04 1016.34L1100.82 1032.01Z" stroke="white" stroke-width="3" stroke-linecap="round"/>
</g>
<path d="M1232.3 948.48C1232.3 948.617 1232.3 948.754 1232.3 949.03C1232.3 949.305 1232.3 949.715 1232.44 950.132C1232.58 950.548 1232.85 950.958 1233.13 951.796" stroke="black" stroke-width="11" stroke-linecap="round"/>
<path d="M1325.17 948.895V951.795" stroke="black" stroke-width="11" stroke-linecap="round"/>
<path d="M1202.26 989.111C1204.72 999.975 1222.45 1021.7 1273.65 1021.7C1324.86 1021.7 1349.97 999.975 1356.13 989.111" stroke="black" stroke-width="11" stroke-linecap="round"/>
<defs>
<filter id="filter0_d_288_1512" x="1043.93" y="858.621" width="457.623" height="246.625" filterUnits="userSpaceOnUse" color-interpolation-filters="sRGB">
<feFlood flood-opacity="0" result="BackgroundImageFix"/>
<feColorMatrix in="SourceAlpha" type="matrix" values="0 0 0 0 0 0 0 0 0 0 0 0 0 0 0 0 0 0 127 0" result="hardAlpha"/>
<feOffset/>
<feGaussianBlur stdDeviation="27"/>
<feComposite in2="hardAlpha" operator="out"/>
<feColorMatrix type="matrix" values="0 0 0 0 1 0 0 0 0 1 0 0 0 0 1 0 0 0 1 0"/>
<feBlend mode="normal" in2="BackgroundImageFix" result="effect1_dropShadow_288_1512"/>
<feBlend mode="normal" in="SourceGraphic" in2="effect1_dropShadow_288_1512" result="shape"/>
</filter>
</defs>
</svg>
