<svg width="2503" height="1581" viewBox="0 0 2503 1581" fill="none" xmlns="http://www.w3.org/2000/svg">
<path d="M171.443 254.885C165.207 235.724 161.689 209.128 161.689 204.757L160.682 207.275C159.767 212.97 158.087 215.49 156.359 218.082L160.682 207.275C160.726 206.999 160.769 206.715 160.81 206.423C161.689 200.12 161.689 190.447 163.048 185.157C164.407 179.867 167.012 178.861 170.177 178.095C184.874 174.537 202.397 168.463 225.861 167.888C280.812 166.542 300.271 164.449 345.969 158.068C368.488 154.923 403.665 150.526 448.889 148.327C494.113 146.129 547.759 146.129 585.907 148.394C624.056 150.659 646.041 155.056 668.813 154.083C691.585 153.111 2260.45 210.967 2296.8 207.889C2315.12 212.752 2345.92 196.013 2369.22 216.776L2369.84 217.334C2381.17 227.426 2393.09 238.04 2394.93 252.779C2400.24 295.099 2400.4 365.441 2389.1 374.007C2370.71 387.945 2334.01 416.585 2311.79 441.111C2298.92 455.315 2291.9 465.974 2285.16 477.527C2275.84 493.53 2273.54 507.762 2266.07 516.595C2256.28 528.174 2243.81 537.031 2217.62 566.376C2199.3 586.909 2176.2 611.71 2164.79 620.074C2153.25 628.536 2141.93 642.223 2119.47 660.955C2106.13 672.081 2090.74 683.114 2073.61 699.716C2029.76 742.222 2018.48 757.955 1986.88 757.745C1912.45 757.252 1895.43 751.042 1882.75 749.284C1869.86 747.498 1859.47 739.689 1801.93 738.624C1754.42 737.745 1665.58 738.551 1619.82 737.292C1571.41 735.959 1559.92 734.434 1543.38 732.855C1519.79 730.603 1498.59 719.79 1416.89 720.889C1348.55 721.809 1220.14 726.093 1152.78 724.86C1079.25 723.514 1068.7 713.882 1029.91 707.524C1008.13 703.953 983.386 699.235 955.694 698.21C919.875 696.885 902.201 693.164 886.748 689.911L886.046 689.763C877.625 687.99 834.188 689.728 775.278 686.658C749.708 685.326 742.639 682.407 724.59 682.221C681.965 681.781 646.573 683.787 613.383 684.006C546.799 684.446 498.225 684.638 488.53 679.09C476.098 671.974 464.019 668.148 450.342 653.306C439.695 641.754 432.173 629.889 421.92 619.995C408.569 607.11 394.193 598.959 384.145 588.895C366.836 571.559 357.517 556.592 343.718 551.173C323.291 543.151 309.719 531.789 294.883 520.073C282.464 510.266 273.965 498.634 268.713 487.201C263.809 476.528 259.119 465.58 252.27 452.996C244.249 438.259 233.309 418.953 227.846 407.253C221.17 392.955 214.436 371.573 208.738 357.925C200.757 338.804 197.318 324.616 193.202 313.074C186.526 294.352 176.712 271.076 171.443 254.885Z" fill="#D0D3BC"/>
<path d="M2296.8 207.889C2315.12 212.752 2345.92 196.013 2369.22 216.776C2380.73 227.036 2393.05 237.768 2394.93 252.779C2400.24 295.099 2400.4 365.441 2389.1 374.007C2370.71 387.945 2334.01 416.585 2311.79 441.111C2298.92 455.315 2291.9 465.974 2285.16 477.527C2275.84 493.53 2273.54 507.762 2266.07 516.595C2256.28 528.174 2243.81 537.031 2217.62 566.376C2199.3 586.909 2176.2 611.71 2164.79 620.074C2153.25 628.536 2141.93 642.223 2119.47 660.955C2106.13 672.081 2090.74 683.114 2073.61 699.716C2029.76 742.222 2018.48 757.955 1986.88 757.745C1912.45 757.252 1895.43 751.041 1882.75 749.284C1869.86 747.498 1859.47 739.689 1801.93 738.624C1754.42 737.745 1665.58 738.551 1619.82 737.292C1571.41 735.959 1559.92 734.434 1543.38 732.855C1519.79 730.603 1498.59 719.79 1416.89 720.889C1348.55 721.809 1220.14 726.093 1152.78 724.86C1079.25 723.514 1068.7 713.882 1029.91 707.524C1008.13 703.953 983.386 699.235 955.694 698.21C919.331 696.865 901.668 693.05 886.046 689.763C877.625 687.99 834.188 689.728 775.278 686.658C749.708 685.325 742.639 682.407 724.59 682.221C681.965 681.781 646.573 683.787 613.383 684.006C546.799 684.446 498.225 684.638 488.53 679.09C476.098 671.974 464.019 668.148 450.342 653.306C439.695 641.754 432.173 629.889 421.92 619.995C408.569 607.11 394.193 598.959 384.145 588.895C366.836 571.559 357.517 556.592 343.718 551.173C323.291 543.151 309.719 531.789 294.883 520.073C282.464 510.266 273.965 498.634 268.713 487.201C263.809 476.528 259.119 465.58 252.27 452.996C244.249 438.259 233.309 418.953 227.846 407.253C221.17 392.955 214.436 371.573 208.738 357.925C200.757 338.804 197.318 324.616 193.202 313.074C186.526 294.352 176.712 271.076 171.443 254.885C165.207 235.724 161.689 209.128 161.689 204.757L156.359 218.082C158.171 215.364 159.93 212.725 160.81 206.423C161.689 200.12 161.689 190.447 163.048 185.157C164.407 179.867 167.012 178.861 170.177 178.095C184.874 174.537 202.397 168.463 225.861 167.888C280.812 166.542 300.271 164.449 345.969 158.068C368.488 154.923 403.665 150.526 448.889 148.327C494.113 146.129 547.759 146.129 585.907 148.394C624.056 150.659 646.041 155.056 668.813 154.083C691.585 153.111 2260.45 210.967 2296.8 207.889ZM2296.8 207.889C2284.56 204.641 2245.99 202.092 2217.76 199.88" stroke="black" stroke-width="11" stroke-linecap="round"/>
</svg>
