<svg width="2503" height="1582" viewBox="0 0 2503 1582" fill="none" xmlns="http://www.w3.org/2000/svg">
<path d="M172.093 255.247C165.857 236.086 162.339 209.49 162.339 205.12L161.332 207.638C160.417 213.332 158.738 215.852 157.009 218.444L161.332 207.638C161.377 207.361 161.419 207.077 161.46 206.785C162.339 200.483 162.339 190.809 163.698 185.519C165.058 180.229 167.662 179.223 170.827 178.457C185.524 174.899 203.047 168.825 226.511 168.25C281.462 166.904 300.921 164.811 346.62 158.43C369.138 155.285 404.316 150.888 449.54 148.69C494.764 146.491 548.409 146.491 586.557 148.756C624.706 151.021 646.692 155.418 669.464 154.446C692.235 153.473 2041.24 182.001 2077.59 178.923C2101.83 181.135 2142.71 181.789 2169.56 188.704C2185.08 192.701 2197.45 198.601 2218.41 200.243C2246.64 202.455 2285.21 205.003 2297.45 208.251C2315.77 213.114 2346.57 196.376 2369.87 217.138L2370.49 217.696C2381.82 227.788 2393.74 238.402 2395.58 253.142C2400.89 295.461 2401.05 365.804 2389.75 374.37C2371.36 388.307 2334.66 416.947 2312.44 441.473C2299.57 455.677 2292.55 466.336 2285.81 477.889C2276.49 493.892 2274.19 508.124 2266.72 516.957C2256.93 528.536 2244.46 537.393 2218.27 566.738C2199.95 587.272 2176.85 612.072 2165.44 620.437C2153.9 628.898 2142.58 642.586 2120.12 661.317C2106.78 672.443 2091.39 683.476 2074.26 700.078C2030.41 742.584 2019.13 758.317 1987.53 758.107C1913.1 757.614 1896.08 751.404 1883.4 749.646C1870.51 747.861 1860.12 740.051 1802.58 738.987C1755.07 738.107 1666.23 738.914 1620.47 737.654C1572.06 736.322 1560.57 734.797 1544.03 733.217C1520.44 730.965 1499.24 720.152 1417.54 721.251C1349.2 722.171 1220.79 726.455 1153.43 725.222C1079.9 723.876 1069.35 714.244 1030.56 707.887C1008.78 704.316 984.037 699.598 956.344 698.573C920.525 697.247 902.851 693.526 887.399 690.273L886.696 690.125C878.275 688.353 834.838 690.09 775.928 687.02C750.358 685.688 743.29 682.769 725.241 682.583C682.615 682.143 647.224 684.149 614.033 684.369C547.449 684.808 498.875 685.001 489.181 679.452C476.749 672.336 464.669 668.51 450.992 653.669C440.346 642.116 432.823 630.251 422.57 620.357C409.219 607.472 394.843 599.321 384.795 589.257C367.486 571.922 358.168 556.954 344.368 551.535C323.941 543.513 310.369 532.151 295.533 520.435C283.114 510.628 274.616 498.996 269.363 487.563C264.46 476.89 259.77 465.942 252.921 453.359C244.899 438.621 233.96 419.315 228.496 407.615C221.821 393.317 215.086 371.935 209.389 358.287C201.407 339.166 197.968 324.978 193.852 313.436C187.176 294.715 177.362 271.438 172.093 255.247Z" fill="#252836"/>
<path d="M162.339 205.12C162.339 209.49 165.857 236.086 172.093 255.247C177.362 271.438 187.176 294.715 193.852 313.436C197.968 324.978 201.407 339.166 209.389 358.287C215.086 371.935 221.821 393.317 228.496 407.615C233.96 419.315 244.899 438.621 252.921 453.359C259.77 465.942 264.46 476.89 269.363 487.563C274.616 498.996 283.114 510.628 295.533 520.435C310.369 532.151 323.941 543.513 344.368 551.535C358.168 556.954 367.486 571.922 384.795 589.257C394.843 599.321 409.219 607.472 422.57 620.357C432.823 630.251 440.346 642.116 450.992 653.669C464.669 668.51 476.749 672.336 489.181 679.452C498.875 685.001 547.449 684.808 614.033 684.369C647.224 684.149 682.615 682.143 725.241 682.583C743.29 682.769 750.358 685.688 775.928 687.02C834.838 690.09 878.275 688.353 886.696 690.125C902.318 693.413 919.981 697.227 956.344 698.573C984.037 699.598 1008.78 704.316 1030.56 707.887C1069.35 714.244 1079.9 723.876 1153.43 725.222C1220.79 726.455 1349.2 722.171 1417.54 721.251C1499.24 720.152 1520.44 730.965 1544.03 733.217C1560.57 734.797 1572.06 736.322 1620.47 737.654C1666.23 738.913 1755.07 738.107 1802.58 738.987C1860.12 740.051 1870.51 747.861 1883.4 749.646C1896.08 751.404 1913.1 757.614 1987.53 758.107C2019.13 758.317 2030.41 742.584 2074.26 700.078C2091.39 683.476 2106.78 672.443 2120.12 661.317C2142.58 642.586 2153.9 628.898 2165.44 620.437C2176.85 612.072 2199.95 587.272 2218.27 566.738C2244.46 537.393 2256.93 528.536 2266.72 516.957C2274.19 508.124 2276.49 493.892 2285.81 477.889C2292.55 466.336 2299.57 455.677 2312.44 441.473C2334.66 416.947 2371.36 388.307 2389.75 374.37C2401.05 365.804 2400.89 295.461 2395.58 253.142C2393.7 238.13 2381.38 227.398 2369.87 217.138C2346.57 196.376 2315.77 213.114 2297.45 208.251C2285.21 205.003 2246.64 202.455 2218.41 200.243C2197.45 198.601 2185.08 192.701 2169.56 188.704C2142.71 181.789 2101.83 181.135 2077.59 178.923C2041.24 182.001 692.235 153.473 669.464 154.446C646.692 155.418 624.706 151.021 586.557 148.756C548.409 146.491 494.764 146.491 449.54 148.69C404.316 150.888 369.138 155.285 346.62 158.43C300.921 164.811 281.462 166.904 226.511 168.25C203.047 168.825 185.524 174.899 170.827 178.457C167.662 179.223 165.058 180.229 163.698 185.519C162.339 190.809 162.339 200.483 161.46 206.785C160.58 213.088 158.822 215.726 157.009 218.444L162.339 205.12Z" stroke="black" stroke-width="11" stroke-linecap="round"/>
</svg>
