<svg width="2149" height="1464" viewBox="0 0 2149 1464" fill="none" xmlns="http://www.w3.org/2000/svg">
<path d="M2148.96 1463.21H0.508789V0.185181H2148.96V1463.21ZM1207.37 487.591C1182.67 484.003 1159.21 488.023 1145.32 490.79L1142.68 491.324C1136.25 492.632 1124.72 494.905 1106.5 498.462L1086.01 502.457C1069.35 505.7 1055.99 509.998 1045.63 513.823C1040.47 515.73 1036.03 517.525 1032.37 518.986C1029.1 520.288 1026.54 521.283 1024.53 521.923L1023.7 522.175C1011.57 525.683 994.773 530.485 975.976 533.45L974.15 533.731C959.651 535.91 949.05 535.273 931.751 535.813L928.198 535.938C914.687 536.468 892.344 536.225 877.221 535.589L874.297 535.456C864.466 534.976 855.792 533.705 847.089 532.255C838.969 530.903 830.717 529.376 821.649 528.257L819.825 528.039C811.523 527.079 804.544 526.762 798.339 526.589C792.855 526.437 788.145 526.399 783.571 526.148L781.618 526.027C763.705 524.771 743.031 527.599 726.746 530.96L725.184 531.287C710.389 534.423 696.335 538.748 676.785 544.148L672.8 545.243C665.983 547.103 659.935 550.138 654.75 553.094C649.639 556.009 645.883 558.51 642.414 560.325L641.725 560.678C635.864 563.617 630.458 568.906 626.29 574.386C622.254 579.694 619.044 585.622 617.665 590.551L617.537 591.025C614.617 602.301 610.862 617.029 608.795 624.065L608.405 625.367C608.22 625.969 607.868 627.024 607.685 628.034C607.49 629.102 607.376 630.615 607.992 632.207L608.136 632.567C609.669 636.273 612.486 639.362 615.175 642.202C618.091 645.282 621.177 648.372 624.084 652.435L624.692 653.272C630.981 661.754 637.203 665.378 644.563 668.673L645.85 669.234C648.896 670.527 652.245 671.728 655.488 672.95C659.274 674.376 663.065 675.883 666.702 677.759L667.932 678.383C674.05 681.443 679.736 683.562 685.687 685.467L686.71 685.799C691.839 687.484 697.14 689.523 703.342 691.598C709.629 693.702 716.29 695.633 722.44 696.311L723.68 696.462C726.54 696.84 729.194 697.405 731.745 697.989C734.491 698.618 737.316 699.318 739.93 699.723C739.938 699.743 739.95 699.764 739.959 699.788C740.005 699.908 740.044 700.052 740.07 700.2L740.134 700.63C740.409 702.827 740.013 705.681 739.507 709.616C739.013 713.448 738.456 718.158 739.342 722.63L739.602 723.88C739.847 725.026 740.051 725.896 740.192 726.872C740.343 727.908 740.327 728.552 740.235 728.984L740.191 729.156C740.15 729.294 740.027 729.634 739.143 730.185C738.178 730.786 736.747 731.367 734.628 732.089C730.73 733.416 725.034 735.027 719.142 738.136L718.571 738.442C711.274 742.407 704.322 747.902 697.585 754.678L696.241 756.05C692.663 759.756 688.989 764 685.156 768.45C681.783 772.367 678.268 776.466 674.491 780.63L672.856 782.418C666.902 788.874 663.189 796.071 659.542 801.541C655.771 807.197 652.69 813.152 647.59 821.769L646.542 823.529C644.036 827.711 641.623 831.448 639.373 835.079C637.308 838.412 635.401 841.624 633.949 844.671L633.665 845.278C632.4 848.031 630.484 850.693 628.267 853.632C626.278 856.268 623.981 859.206 622.218 862.288L621.873 862.906C618.59 868.938 615.194 875.713 613.063 882.62L612.861 883.289C611.674 887.301 610.897 891.122 610.241 894.609C609.656 897.719 609.183 900.454 608.603 902.989L608.347 904.063C606.645 910.914 605.855 919.519 605.546 926.989L605.491 928.466C605.357 932.433 606.549 936.135 607.929 939.325C608.905 941.581 610.252 944.137 611.32 946.237C611.37 946.434 611.437 946.63 611.519 946.823C611.745 947.356 612.035 947.858 612.347 948.32C612.443 948.524 612.537 948.725 612.627 948.923L612.991 949.758L613.075 949.946C613.625 951.093 614.662 951.867 615.83 952.123C617.99 954.054 620.909 956.218 624.567 958.544C630.722 962.455 639.311 967.043 650.738 971.984L651.964 972.502C664.561 977.707 675.311 978.403 684.084 977.331C693.023 976.238 699.893 973.279 703.867 971.876L708.562 970.203C713.234 968.523 717.83 966.828 722.315 965.148L723.067 964.857C726.85 963.345 730.957 961.014 735.239 958.463C739.91 955.679 744.865 952.585 750.388 949.524L751.646 948.82C757.968 945.244 764.791 940.859 772.247 935.958L772.736 935.647C775.195 934.139 777.865 933.282 780.825 932.552C783.772 931.826 787.55 931.131 790.828 929.895L792.952 929.108C797.934 927.299 803.072 925.701 807.948 924.885L808.333 924.816C809.233 924.646 810.132 924.412 810.938 924.198C811.91 923.94 812.797 923.697 813.742 923.49C815.588 923.085 817.415 922.873 819.371 923.15L819.655 923.201C821.067 923.498 822.34 924.532 823.527 927.031C824.828 929.767 825.655 933.556 826.277 937.901C826.583 940.034 826.828 942.207 827.068 944.364C827.306 946.495 827.543 948.636 827.825 950.592C828.106 952.536 828.452 954.447 828.941 956.111C829.404 957.683 830.13 959.525 831.457 960.913L831.736 961.198C834.646 964.097 838.248 965.53 841.575 966.431C843.299 966.898 845.049 967.247 846.67 967.559C848.336 967.88 849.838 968.158 851.282 968.503L852.04 968.678C860 970.475 871.849 971.654 881.154 973.036L881.781 973.137C883.37 973.41 885.863 973.919 889.554 974.363C893.99 974.897 900.691 975.436 911.952 975.81L913.93 975.871C934.896 976.466 972.076 976.057 992.364 975.819L996.535 975.76C1016.74 975.429 1027.49 974.536 1042.12 974.083L1044.09 974.014C1064.16 973.247 1077.03 970.51 1085.92 969.595L1088.65 969.303C1102 967.823 1111.42 966.095 1141.85 965.394L1143.63 965.344C1147.88 965.209 1152.95 964.933 1158.78 964.66C1165.48 964.345 1173.29 964.027 1182.28 963.905L1184.11 963.871C1193.95 963.647 1214.03 962.678 1241.93 962.908L1244.15 962.937C1249.3 963.033 1254.29 963.304 1259.68 963.592C1265.83 963.921 1272.45 964.272 1280.22 964.396L1285.53 964.472C1312.64 964.815 1347.45 964.618 1354.5 963.884L1356.41 963.687C1366.21 962.7 1379.92 961.662 1419.98 961.419L1421.47 961.42C1428.81 961.48 1434.26 962.32 1438.62 963.245C1440.98 963.747 1442.99 964.266 1444.96 964.744C1446.88 965.208 1448.79 965.64 1450.66 965.859L1452.07 966.012C1459.14 966.731 1466.89 966.755 1473.86 966.227C1481.16 965.674 1488.07 964.481 1492.43 962.593L1494.08 961.872C1502.38 958.222 1511.15 953.915 1518.45 948.804L1519.15 948.3C1526.36 943.035 1531.59 935.81 1537.36 927.167L1537.67 926.687C1544.18 916.588 1544.95 904.145 1543.76 893.313C1542.63 882.92 1539.64 873.442 1537.47 867.744L1537.05 866.655C1528.15 844.102 1521.49 834.421 1515.05 827.333L1514.43 826.654C1507.25 818.922 1498.89 816.555 1491.97 815.24L1490.61 814.99C1480.41 813.175 1474.73 812.398 1470.14 811.345C1470.07 809.958 1470.33 807.89 1470.75 804.942C1471.52 799.641 1472.78 792.092 1471.59 785.114L1471.47 784.44C1470.13 777.555 1467.08 770.693 1464.04 764.525L1463.43 763.3C1461.26 758.938 1457.49 755.035 1453.64 751.923C1449.99 748.974 1446 746.521 1442.6 744.881L1441.93 744.565C1436.43 742.028 1434.12 738.171 1433.26 735.939L1433.11 735.515C1433.08 735.414 1432.96 735.159 1433.45 734.342C1434 733.408 1435.05 732.267 1436.68 730.785C1439.6 728.13 1444.58 724.35 1447.84 720.13L1448.49 719.276C1455.14 710.38 1459.93 699.282 1461.97 691.385L1462.43 689.56C1463.48 685.32 1464.36 681.206 1465.17 677.28C1466.11 672.763 1466.97 668.539 1467.94 664.521L1468.16 663.593C1470.27 654.153 1470.94 639.849 1468.26 626.358L1467.99 625.012C1466.9 620 1463.72 616.119 1460.24 613.194C1457.19 610.626 1453.68 608.59 1450.52 606.998L1449.2 606.342C1437.96 600.913 1422.46 597.942 1381.08 596.632L1376.99 596.511C1364.42 596.16 1356.38 594.545 1347.29 592.094C1338.73 589.786 1328.93 586.636 1313.78 583.174L1310.67 582.478C1296.17 579.281 1284.91 576.74 1277 572.98L1276.25 572.612C1267.98 568.482 1254.54 561.501 1245.12 551.211L1244.67 550.717C1243.61 549.532 1243.27 548.434 1243.26 547.324C1243.24 546.086 1243.62 544.586 1244.46 542.762C1245.29 540.947 1246.45 539.076 1247.73 537.095C1248.94 535.216 1250.35 533.112 1251.39 531.184L1251.62 530.744C1256.02 522.087 1253.62 513.447 1250.7 506.141L1250.09 504.673C1247.35 498.091 1241.08 494.683 1233.93 492.511C1227.64 490.601 1219.76 489.392 1211.12 488.135L1207.37 487.591Z" fill="#333333"/>
</svg>
