<svg width="820" height="269" viewBox="0 0 820 269" fill="none" xmlns="http://www.w3.org/2000/svg">
<path d="M700.563 58.8208C693.243 58.8208 666.575 60.6475 638.386 71.4556C631.874 73.9523 627.771 78.5826 626.56 81.6064C625.349 84.6302 627.633 86.9136 629.494 88.3182C643.984 99.253 676.996 101.237 683.452 106.523C686.4 108.937 686.254 113.18 684.434 116.66C680.296 124.574 666.506 128.458 649.263 131.91C639.832 133.799 628.823 134.907 611.075 135.612C593.326 136.318 569.122 136.318 554.599 137.003C540.075 137.688 535.965 139.058 532.249 141.134C528.533 143.21 525.336 145.95 523.461 149.188C519.815 155.484 521.116 162.128 522.949 166.729C527.731 178.728 551.935 177.807 586.954 181.509C594.517 182.308 597.63 185.169 599.505 187.487C601.381 189.805 601.837 192.089 600.246 194.863C596.292 201.758 581.19 206.412 558.432 209.871C545.812 211.79 530.65 211.048 512.383 210.134C494.116 209.221 473.109 207.394 457.948 206.91C442.788 206.426 434.111 207.339 427.129 207.809C420.148 208.28 415.124 208.28 408.564 211.048" stroke="#5E607D" stroke-width="8" stroke-linecap="round"/>
<path d="M324.148 96.1856C327.802 96.1856 351.605 96.1856 387.786 96.8706C402.061 97.1409 407.984 98.9257 422.916 100.545C437.848 102.164 461.596 103.991 475.427 104.703C499.837 105.961 520.992 107.257 537.917 103.133C540.952 102.393 540.034 97.182 535.467 93.9299C523.286 85.2558 508.246 81.0044 502.019 73.8636C499.589 71.0773 499.901 69.0062 500.358 66.6951C501.373 61.5607 504.953 56.5374 510.467 52.3927C516.879 47.5735 532.547 47.2931 557.139 44.7744C571.303 43.3237 588.58 39.059 602.087 36.7202C615.594 34.3815 624.727 33.4681 631.488 33.4543C638.248 33.4404 642.358 34.3538 643.825 35.2948" stroke="#5E607D" stroke-width="8" stroke-linecap="round"/>
<path d="M332.452 22.8398C331.995 22.8398 331.538 22.8398 305.501 26.265C279.463 29.6901 227.858 36.5403 193.053 43.951C158.249 51.3616 141.808 59.1252 141.559 64.4947C141.31 69.8641 157.75 72.6042 172.613 73.5591C200.206 75.3318 219.831 73.5729 231.117 75.4135C239.304 76.7488 245.239 79.5651 249.848 82.5543C251.922 83.8997 252.629 86.0002 252.643 87.8546C252.657 89.709 251.744 91.5357 249.903 93.6185C245.713 98.3603 231.996 103.534 200.326 109.976C179.341 114.244 147.648 116.418 127.99 118.978C101.346 122.448 90.7706 127.987 83.6366 134.194C76.0175 140.823 72.7524 150.572 72.9669 159.09C73.0704 163.197 77.2916 166.238 85.1036 168.798C92.9156 171.358 105.246 173.185 157.723 173.897C210.2 174.61 302.449 174.153 350.885 173.69C399.321 173.226 401.147 172.77 403.03 172.299" stroke="#5E607D" stroke-width="8" stroke-linecap="round"/>
<path d="M721.322 137.702C735.078 137.231 758.618 144.109 768.997 152.406C772.756 155.411 772.526 157.049 770.927 159.124C766.781 164.509 742.744 173.614 709.787 185.591C691.245 192.33 683.985 199.492 680.062 203.637C677.785 206.042 699.9 213.303 738.337 221.143C772.124 228.034 794.156 225.8 803.594 227.869C794.156 225.8 799.179 226.713 803.594 227.869C808.008 229.024 811.662 230.394 815.426 229.038" stroke="#5E607D" stroke-width="8" stroke-linecap="round"/>
<path d="M519.276 4.84937C518.362 5.76273 513.325 11.2567 498.87 21.6082C489.739 28.1478 473.912 32.4163 454.732 33.8694C435.551 35.3224 412.717 32.5823 399.812 31.1708C386.907 29.7592 384.624 29.7592 382.271 29.7592" stroke="#5E607D" stroke-width="8" stroke-linecap="round"/>
<path d="M4.47168 212.432C11.8339 211.518 21.0229 209.664 43.1373 207.367C49.6237 206.693 54.7204 208.266 74.8628 211.94C91.6868 215.009 122.406 217.441 139.995 219.088C157.584 220.735 161.238 220.735 174.994 221.42C188.749 222.105 212.497 223.475 240.029 223.039C267.561 222.603 298.159 220.32 312.78 221.427C327.4 222.534 325.117 227.101 316.405 234.477C307.694 241.853 292.623 251.9 286.002 257.304C279.38 262.708 281.663 263.165 291.288 263.628C317.795 264.905 343.44 264.106 357.036 262.265C343.44 264.106 351.66 263.192 357.036 262.265C362.413 261.338 364.696 260.425 367.049 256.716" stroke="#5E607D" stroke-width="8" stroke-linecap="round"/>
<path d="M667.351 13.1527C680.207 13.1527 701.394 11.326 725.141 9.69304C740.536 8.63446 755.393 14.0523 760.513 21.3938C778.615 47.3473 730.566 50.476 729.854 57.3885C730.968 60.1909 735.078 61.5609 739.707 62.7234C744.336 63.8858 749.359 64.7992 755.919 62.9725" stroke="#5E607D" stroke-width="8" stroke-linecap="round"/>
</svg>
