<svg preserveAspectRatio="none" width="343" height="221" viewBox="0 0 343 221" fill="none" xmlns="http://www.w3.org/2000/svg">
<path d="M2.43907 87.4843C2.43907 95.8566 2.81433 136.28 2.17781 163.811C2.56189 168.108 2.43907 170.79 2.43907 176.037C2.43907 179.444 2.27877 187.19 1.3366 190.059C-0.325474 195.12 1.03876 205.437 3.01072 209.607C3.71907 211.105 3.64663 213.401 4.64401 214.995C5.39767 216.199 6.68498 216.673 7.58392 218.034C10.6132 222.619 12.9442 220.521 16.3628 220.521L17.1343 220.521C27.5764 220.522 38.4216 220.524 48.7427 218.31C56.8915 216.563 64.9547 216.791 73.1604 216.791C82.8046 216.791 92.4151 215.547 102.029 215.547C122.528 215.547 142.721 219.277 163.236 219.277C182.69 219.277 201.966 221.079 221.422 219.347C230.172 218.567 239.095 220.593 247.8 218.656C255.503 216.941 263.025 215.025 270.706 212.785C284.062 208.889 297.11 199.693 310.763 203.114C318.263 204.994 334.531 206.404 339.794 194.687C344.308 184.64 342.734 171.526 342.734 158.907C342.734 140.523 342.234 122.188 341.999 103.924C341.774 86.359 340.901 67.9934 338.692 50.8061C337.781 43.7154 337.759 36.0009 336.487 29.1168C335.626 24.4535 334.136 18.7105 333.915 13.8515C333.103 -3.99639 314.965 -0.0117092 308.19 1.62541C301.949 3.13363 296.056 4.18115 289.653 4.18115C281.912 4.18115 272.78 6.34925 265.194 3.55948C255.905 0.143323 247.013 4.18115 237.632 4.18115H210.806C205.557 4.18115 201.003 6.66781 195.739 6.66781C190.712 6.66781 185.992 6.59825 181.039 5.14818C171 2.20896 159.953 4.18115 149.762 4.18115C125.315 4.18115 100.813 2.93782 76.3045 2.93782C65.3482 2.93782 54.676 0.451154 43.7612 0.451154C39.5726 0.451154 34.644 -0.728616 30.5316 0.72745C26.9671 1.98951 24.688 4.18115 20.8135 4.18115C11.9159 4.18115 1.70409 3.30571 1.70409 22.2094C1.70409 43.8506 2.43907 65.6259 2.43907 87.4843Z" fill="#2C2E2E"/>
</svg>
