<svg width="246" height="12" viewBox="0 0 246 12" fill="none" xmlns="http://www.w3.org/2000/svg">
<path d="M244.019 2.21875C242.456 4.68871 237.943 7.40229 232.089 8.19403C226.921 8.89303 221.499 8.98578 216.63 9.54744C211.124 10.1825 205.258 8.30907 198.379 7.74741C182.951 6.48762 175.726 8.30907 170.272 8.87074C166.676 9.24106 149.66 8.30907 137.909 7.74741C135.544 7.63436 133.277 7.85568 126.896 8.19403C112.272 8.96942 101.025 8.08576 93.5206 7.74741C77.3229 7.01712 65.6067 7.85568 60.7885 8.19403C50.858 8.8914 43.2755 8.08576 39.0156 7.74741C24.3735 6.58441 14.4682 8.30907 7.86362 9.54406C6.95684 9.88579 6.06359 10.1091 5.04516 10.2241C4.02672 10.3392 2.91016 10.3392 1.75977 9.66248" stroke="#FFFAC9" stroke-width="3" stroke-linecap="round"/>
</svg>
