<svg width="250" height="12" viewBox="0 0 250 12" fill="none" xmlns="http://www.w3.org/2000/svg">
<path d="M2.14307 9.78311C2.58969 8.88986 13.3154 8.4297 29.5529 8.54136C39.5737 8.61027 46.5686 9.32972 54.7364 9.66807C61.7825 9.95996 74.7397 9.78311 81.8586 9.67145C91.6994 9.51711 95.731 8.65978 105.641 8.31805C110.211 8.16047 114.232 6.85975 123.906 6.06463C136.613 5.02009 146.037 3.92286 157.402 3.58113C164.982 3.35322 173.565 2.79277 180.837 2.45442C187.209 2.15791 199.05 2.33938 205.594 2.45104C213.037 2.57804 222.214 3.01608 235.067 2.90443C239.659 2.79277 240.329 2.56946 241.791 2.45442C243.252 2.33938 245.485 2.33938 247.786 2.33938" stroke="#FFFAC9" stroke-width="3" stroke-linecap="round"/>
</svg>
