<svg width="255" height="9" viewBox="0 0 255 9" fill="none" xmlns="http://www.w3.org/2000/svg">
<path d="M2.43652 5.6926C2.65984 5.6926 2.88315 5.6926 9.92085 5.6926C16.9586 5.6926 30.8039 5.6926 38.6063 5.58094C50.7041 5.40781 56.099 4.56927 66.4526 4.5625C72.1225 4.5588 79.3099 5.6926 86.7469 5.80425C91.07 5.86916 100.254 6.3693 112.766 6.48095C122.878 6.57119 130.536 6.59938 142.917 6.25764C145.662 6.18186 146.777 5.92267 155.727 5.80763C164.676 5.6926 181.424 5.6926 190.499 5.58094C200.472 5.45823 206.077 5.01589 213.629 4.90424C223.679 4.75564 235.439 4.11588 239.472 3.77753C235.439 4.11588 236.332 3.89257 239.472 3.77753C242.612 3.66249 247.971 3.66249 253.493 2.30908" stroke="#FFFAC9" stroke-width="3" stroke-linecap="round"/>
</svg>
